<?xml version="1.0" encoding="UTF-8"?>
<!-- Generator: Adobe Illustrator 23.0.0, SVG Export Plug-In . SVG Version: 6.00 Build 0)  -->
<svg version="1.1" id="Layer_1" xmlns="http://www.w3.org/2000/svg" xmlns:xlink="http://www.w3.org/1999/xlink" x="0px" y="0px" viewBox="0 0 126.5 75.3" style="enable-background:new 0 0 126.5 75.3;" xml:space="preserve">
<style type="text/css">
	.st0{fill-rule:evenodd;clip-rule:evenodd;fill:#434A54;}
</style>
<g>
	<path class="st0" d="M94.5,23l-7.9,0V12.2c0-1.6-0.7-3-1.7-4.1c-1.1-1-2.5-1.7-4.1-1.7H28.2c-1.6,0-3,0.7-4.1,1.7   c-1,1-1.7,2.5-1.7,4.1c0,0.9,0.7,1.6,1.6,1.6c0.9,0,1.6-0.7,1.6-1.6c0-0.7,0.3-1.4,0.8-1.9c0.5-0.5,1.1-0.8,1.9-0.8h52.7   c0.7,0,1.4,0.3,1.9,0.8c0.5,0.5,0.8,1.1,0.8,1.9v49h-8.8c-0.9,0-1.6,0.7-1.6,1.6s0.7,1.6,1.6,1.6H85c0.9,0,1.6-0.7,1.6-1.6V61h6.3   c0.7-16.3,24.1-18.5,26.5,0h5.1c1.3-15.9-6.5-22.1-18.5-23.5c-0.9-3.7-2.5-7.2-4.3-10.6C99.6,22.9,99.1,23.1,94.5,23L94.5,23z    M31.4,37.4h1.9c1.3,0,2.1,0.1,2.5,0.2s0.7,0.3,0.9,0.6c0.2,0.3,0.3,0.5,0.3,0.9c0,0.3,0,1-0.1,1.9l-0.4,3.5   c-0.1,0.9-0.2,1.5-0.3,1.8s-0.3,0.5-0.5,0.7s-0.5,0.3-0.8,0.4c-0.3,0.1-0.8,0.1-1.4,0.1h-3.3L31.4,37.4L31.4,37.4z M33,45.6   L33,45.6c0.2,0,0.3,0,0.5,0c0.4,0,0.7-0.1,0.7-0.2c0.1-0.2,0.2-0.6,0.3-1.2l0.5-3.9c0-0.5,0.1-0.7,0.1-0.9c0-0.1-0.1-0.2-0.2-0.3   c-0.1,0-0.5-0.1-0.9-0.1l0,0h0h0h0l0,0h0h0l0,0h0c-0.2,0-0.5,0-0.6,0l-0.8,6.6C32.6,45.6,32.8,45.6,33,45.6L33,45.6z M38.8,37.4   h4.3l-0.2,2h-1.7l-0.2,1.9h1.6l-0.2,1.9h-1.6l-0.3,2.2h1.9l-0.2,2h-4.5L38.8,37.4L38.8,37.4z M47,37.4l-1,8h1.6l-0.2,2h-4.2   l1.2-9.9L47,37.4L47,37.4z M52.3,37.4l-1.2,9.9h-2.6l1.2-9.9H52.3L52.3,37.4z M59.9,37.4l-2.5,9.9h-3.9l-0.3-9.9h2.7   c0,2.7-0.1,5.1-0.2,7c0.4-1.9,0.7-3.6,1-5.1l0.4-1.8L59.9,37.4L59.9,37.4z M60.8,37.4h4.3l-0.2,2h-1.7l-0.2,1.9h1.6l-0.2,1.9h-1.6   l-0.3,2.2h1.9l-0.2,2h-4.5L60.8,37.4L60.8,37.4z M66.5,37.4h1.8c1.2,0,2,0,2.5,0.1s0.7,0.3,1,0.7s0.3,1,0.2,1.8   c-0.1,0.8-0.3,1.3-0.5,1.6c-0.2,0.3-0.6,0.4-1.2,0.5c0.5,0.1,0.8,0.3,1,0.5s0.2,0.4,0.3,0.6c0,0.2,0,0.7-0.1,1.5l-0.3,2.6h-2.4   l0.4-3.3c0.1-0.5,0.1-0.9,0-1s-0.3-0.2-0.6-0.2l-0.5,4.5h-2.6L66.5,37.4L66.5,37.4z M68.6,41.3L68.6,41.3c0.2,0,0.3,0,0.4,0   c0.3,0,0.6,0,0.7-0.1c0.2-0.2,0.5-1.7,0.2-1.9c-0.1-0.1-0.5-0.1-0.8-0.1c0,0-0.1,0-0.1,0l0,0l0,0c-0.1,0-0.2,0-0.3,0l-0.3,2.2   C68.4,41.3,68.5,41.3,68.6,41.3L68.6,41.3z M79.2,37.4l-2.6,6.3l-0.4,3.6h-2.4l0.4-3.6l-1.1-6.3h2.4c0.1,1.9,0.2,3.3,0.2,3.9   c0.3-1.1,0.7-2.4,1.2-3.9L79.2,37.4L79.2,37.4z M8.3,31.2c-1,0-1.8-0.7-1.8-1.6s0.8-1.6,1.8-1.6h17.1c1,0,1.8,0.7,1.8,1.6   c0,0.9-0.8,1.6-1.8,1.6H8.3L8.3,31.2z M3.4,39.7c-2.2,0-2.2-3.1,0-3.1H23c1.3,0,2.3,0.7,2.3,1.6c0,0.9-1,1.6-2.3,1.6L3.4,39.7   L3.4,39.7z M42.4,61.2c0.9,0,1.6,0.7,1.6,1.6c0,0.9-0.7,1.6-1.6,1.6H28.2c-1.6,0-3-0.7-4.1-1.8c-1-1.1-1.7-2.6-1.7-4.2V46.9   c0-0.9,0.7-1.6,1.6-1.6c0.9,0,1.6,0.7,1.6,1.6v11.5c0,0.8,0.3,1.5,0.8,2c0.5,0.5,1.1,0.8,1.8,0.8L42.4,61.2L42.4,61.2L42.4,61.2z    M58.3,52.6c-5.8,0-10.6,4.8-10.6,10.6s4.8,10.6,10.6,10.6S68.9,69,68.9,63.2S64.2,52.6,58.3,52.6L58.3,52.6L58.3,52.6z M58.3,59.1   c-2.3,0-4.1,1.8-4.1,4.1c0,2.3,1.8,4.1,4.1,4.1c2.3,0,4.1-1.8,4.1-4.1C62.4,60.9,60.6,59.1,58.3,59.1L58.3,59.1L58.3,59.1z    M106.1,51c-5.8,0-10.6,4.8-10.6,10.6s4.8,10.6,10.6,10.6s10.6-4.8,10.6-10.6S112,51,106.1,51L106.1,51L106.1,51z M102.1,61.6   c0,2.3,1.8,4.1,4.1,4.1c2.3,0,4.1-1.8,4.1-4.1s-1.8-4.1-4.1-4.1S102.1,59.4,102.1,61.6L102.1,61.6z M95.3,27.5l-4.8-0.1v10.2h10.1   C99.4,34,97.5,30.7,95.3,27.5L95.3,27.5L95.3,27.5z"/>
	<path class="st0" d="M12.9,22.7c-1,0-1.8-0.7-1.8-1.6c0-0.9,0.8-1.6,1.8-1.6h14.8c1,0,1.8,0.7,1.8,1.6c0,0.9-0.8,1.6-1.8,1.6H12.9   L12.9,22.7L12.9,22.7z M35.4,16.3h7.4l-0.4,3.4h-3l-0.4,3.2h2.7l-0.4,3.2h-2.7l-0.8,7.1h-4.4L35.4,16.3L35.4,16.3z M51.7,16.3   l0.5,16.9h-4.5l0.1-3h-1.6l-0.6,3h-4.5l4.3-16.9H51.7L51.7,16.3z M48,27.2c0-1.9,0.1-4.3,0.2-7.1c-0.8,3.2-1.4,5.6-1.7,7.1H48   L48,27.2z M64.2,21.5h-4.1l0.2-1.3c0.1-0.6,0.1-1,0-1.1s-0.3-0.2-0.5-0.2c-0.3,0-0.5,0.1-0.6,0.3c-0.2,0.2-0.3,0.5-0.3,1   c-0.1,0.6,0,1,0.1,1.3c0.1,0.3,0.5,0.6,1.1,1c1.8,1.2,2.9,2.1,3.3,2.9c0.4,0.8,0.5,2,0.3,3.6c-0.1,1.2-0.4,2.1-0.7,2.7   c-0.3,0.6-1,1-1.8,1.4c-0.8,0.4-1.8,0.6-2.9,0.6c-1.2,0-2.2-0.2-2.9-0.7s-1.3-1-1.4-1.7c-0.2-0.7-0.2-1.7,0-2.9l0.1-1.1h4.1   l-0.2,2.1c-0.1,0.6-0.1,1,0,1.2c0.1,0.2,0.3,0.3,0.6,0.3c0.3,0,0.5-0.1,0.7-0.4c0.2-0.2,0.3-0.6,0.3-1c0.1-1,0.1-1.6-0.2-2   c-0.2-0.3-0.9-0.8-1.9-1.5c-1-0.7-1.7-1.3-2-1.6c-0.3-0.3-0.6-0.8-0.7-1.4s-0.2-1.3-0.1-2.2c0.2-1.3,0.4-2.2,0.8-2.8   c0.4-0.6,1-1.1,1.8-1.4C58,16.1,58.9,16,60,16c1.1,0,2.1,0.2,2.8,0.5c0.8,0.4,1.2,0.8,1.4,1.4c0.2,0.6,0.2,1.5,0,2.9L64.2,21.5   L64.2,21.5z M76,16.3l-0.4,3.4H73l-1.6,13.5H67l1.6-13.5H66l0.4-3.4H76L76,16.3z"/>
</g>
</svg>