<?xml version="1.0" encoding="UTF-8"?>
<!-- Generator: Adobe Illustrator 23.0.0, SVG Export Plug-In . SVG Version: 6.00 Build 0)  -->
<svg version="1.1" id="Layer_1" xmlns="http://www.w3.org/2000/svg" xmlns:xlink="http://www.w3.org/1999/xlink" x="0px" y="0px" viewBox="0 0 119.2 126" style="enable-background:new 0 0 119.2 126;" xml:space="preserve">
<style type="text/css">
	.st0{fill:#434A54;}
</style>
<g>
	<path class="st0" d="M60.4,120.9C29,120.8,3.5,95.2,3.6,63.7C3.6,32.3,29.2,6.9,60.7,6.9c31.4,0.1,56.9,25.7,56.8,57.2   C117.5,95.5,91.9,121,60.4,120.9z M13.1,63.9c0,26.4,21.4,47.6,47.8,47.5c26-0.1,47.2-21.5,47.1-47.6c0-26.1-21.3-47.4-47.4-47.4   C34.4,16.4,13,37.7,13.1,63.9z"/>
	<path class="st0" d="M69.7,72.9c3,3.9,5.7,7.6,8.4,11.2c2.1,2.8,1.9,5.6-0.4,7.3c-2.3,1.8-5,1.2-7.1-1.6c-3.1-4-6.4-7.9-9-12.1   c-2.5-4.2-5.8-5-10.5-3.9c0,4.1,0,8.3,0,12.5c0,3.9-1.8,6.1-4.9,6.1c-2.9-0.1-4.6-2.2-4.6-6c0-15,0-30,0-45.1   c0-4.3,1.6-5.9,5.9-5.9c5.9,0,11.9-0.1,17.8,0c8,0.1,14.2,6.3,14.3,14.4c0,2.1-0.1,4.2,0,6.2C80.1,63.7,77.4,69.5,69.7,72.9z    M51.2,44.9c0,6.5,0,12.6,0,19c4.8,0,9.4,0.1,14.1,0c2.8-0.1,4.6-1.9,4.7-4.7c0.1-3.1,0.1-6.3,0-9.5c-0.1-2.9-1.9-4.7-4.9-4.8   C60.6,44.9,56,44.9,51.2,44.9z"/>
</g>
</svg>