<?xml version="1.0" encoding="UTF-8"?>
<!-- Generator: Adobe Illustrator 23.0.0, SVG Export Plug-In . SVG Version: 6.00 Build 0)  -->
<svg version="1.1" id="Layer_1" xmlns="http://www.w3.org/2000/svg" xmlns:xlink="http://www.w3.org/1999/xlink" x="0px" y="0px" viewBox="0 0 123.8 135.1" style="enable-background:new 0 0 123.8 135.1;" xml:space="preserve">
<style type="text/css">
	.st0{fill:#434A54;}
</style>
<g>
	<path class="st0" d="M69.3,128.3c-0.1,0-0.2,0-0.2,0c-0.2,0-0.5,0-0.7,0s-0.5,0-0.7,0c-1.4,0-2.7,0-4.1,0c-0.2,0-0.5,0-0.7,0   c-0.2,0-0.5,0-0.7,0c-0.1,0-0.2,0-0.2,0c-0.2,0-0.5,0-0.7,0c-0.2,0-0.5,0-0.7,0c-1.4,0-2.7,0-4.1,0c-0.2,0-0.5,0-0.7,0   c-0.2,0-0.5,0-0.7,0c-0.1,0-0.2,0-0.2,0c-0.2,0-0.5,0-0.7,0c-0.2,0-0.5,0-0.7,0c-1.4,0-2.7,0-4.1,0c-0.2,0-0.5,0-0.7,0   c-0.2,0-0.5,0-0.7,0c-0.1,0-0.2,0-0.2,0c-0.2,0-0.5,0-0.7,0c-0.2,0-0.5,0-0.7,0c-1.4,0-2.7,0-4.1,0c-0.2,0-0.5,0-0.7,0   c-0.2,0-0.5,0-0.7,0c-0.1,0-0.2,0-0.2,0c-0.2,0-0.5,0-0.7,0c-0.2,0-0.5,0-0.7,0c-1.4,0-2.7,0-4.1,0c-0.2,0-0.5,0-0.7,0   c-0.2,0-0.5,0-0.7,0c-0.1,0-0.2,0-0.2,0c-0.2,0-0.5,0-0.7,0c-0.2,0-0.5,0-0.7,0c-1.4,0-2.7,0-4.1,0c-0.2,0-0.5,0-0.7,0   c-0.2,0-0.5,0-0.7,0c-0.1,0-0.2,0-0.2,0c-0.2,0-0.5,0-0.7,0c-0.2,0-0.5,0-0.7,0c-1.4,0-2.7,0-4.1,0c-0.2,0-0.5,0-0.7,0   c-0.2,0-0.5,0-0.7,0c-0.1,0-0.2,0-0.2,0c-0.2,0-0.5,0-0.7,0c-0.2,0-0.5,0-0.7,0c-7.3,0.2-6.3-4.9-6.3-9.6c0-17.5,0-34.9,0-52.4   c0-0.3-0.3-0.7-0.4-1c-3.5,2.8-5.9,1.8-7.6-2.1c0-0.4,0-0.8,0-1.2c0.2-0.6,0.5-1.2,0.7-1.9c2.3-8.7,7.5-16.5,7.3-25.9   c0-2.8,1.5-4.5,4.5-4.5c6.1,0,12.1,0,18.2,0c25.5,0,50.9,0,76.4,0c2.6,0,4.3,1.6,4.3,3.9c-0.1,10.3,5.4,19,8.1,28.4   c0,0.6,0,1.3,0,1.9c-1.2,2.8-3.6,3.7-6.1,2.3c-2.5-1.4-2-0.1-2,1.4c0,16.9,0,33.7,0,50.6c0,4.8,1.3,10.4-6.6,10.1   c-0.2,0-0.5,0-0.7,0c-0.2,0-0.5,0-0.7,0c-0.1,0-0.2,0-0.2,0c-0.2,0-0.5,0-0.7,0c-0.2,0-0.5,0-0.7,0c-5.8,0.6-4.1-3.7-4.1-6.6   c-0.1-13.2,0-26.4,0-39.6c0-0.9-0.2-1.2-1.2-1.2c-7.2,0-14.3,0-21.5,0c-1.1,0-1.4,0.3-1.4,1.4c0,14.2,0,28.3,0,42.5   c0,1.1-0.2,2.3-0.2,3.5c-0.2,0-0.5,0-0.7,0c-1.4,0-2.7,0-4.1,0c-0.2,0-0.5,0-0.7,0C70,128.3,69.5,128.3,69.3,128.3z M43.1,80.9   c-5.9,0-11.8,0-17.7,0c-1,0-1.2,0.3-1.2,1.3c0,9.3,0.4,18.6-0.1,27.8c-0.3,5.4,2.7,4.7,5.9,4.7c9.1,0,18.1,0,27.2,0   c2.9,0,5.6,0.6,5.4-4.3c-0.5-9.3-0.2-18.6-0.1-27.9c0-1.1-0.3-1.5-1.5-1.5C54.9,81,49,80.9,43.1,80.9z M76.9,56.8   C76.8,56.8,76.8,56.8,76.9,56.8c0,1.3,0.2,2.6,0.2,3.8c0.2,3.3,0.7,6.4,4,8.1c2.9,1.4,5.6,1,7.9-1.2c3.9-3.8,1.1-8.1,1-12.3   c-0.5-11.2-1.7-12.3-12.4-12.1c-2.1,0.1-1.8,1.2-1.7,2.3C76.2,49.3,76.5,53.1,76.9,56.8z M97.8,43.1c-0.3,1.1-2.5-1.3-2.1,1.2   c1,5.2,2.2,10.4,3.2,15.7c0.8,4.4,1.2,9,7,9.5c5.7,0.4,8.5-3.5,5.8-11.2c-1.8-5.3,1.2-14.2-8.5-15.1C101.4,43,99.7,43.1,97.8,43.1z    M68.4,48.7c-0.9-1.9,1.8-6.2-3.7-5.7c-2.2,0.2-4.5,0.1-6.7,0c-1.8-0.1-2.2,0.6-2.3,2.3c-0.1,5.3-0.3,10.6-0.6,15.9   c-0.2,4.1,1.4,7.1,5.4,8.1c3.6,0.8,6.6-0.7,7.7-4.3C69.9,59.8,68.1,54.4,68.4,48.7z M18.3,69.5c0.5-0.2,2-0.4,2.9-1.2   c5.3-4.8,3.7-12,5.7-17.9c1.1-3.3,4-8.4-3.9-7.2c0,0-0.1-0.1-0.1-0.1c-2.4,0.4-5.7-1.3-6.9,1.5c-1.8,4-2.5,8.5-3.9,12.7   C9.8,64.7,11.8,69.5,18.3,69.5z M40.4,69.5c2.4-0.3,5.2-1.6,5.7-4.7C47.1,59.2,47,53.5,48,48c1.1-5.4-2.3-5.4-5.4-4.8   c-2.3,0.5-5.7-2-6.7,1.3c-1.3,4.2-1.3,8.8-2.3,13.2C32.1,64.8,34.4,69.5,40.4,69.5z"/>
	<path class="st0" d="M13.7,10.7c32.2,0,64.5,0,96.7,0c5,2,3.5,6.4,3.2,10c-0.2,2.9-2.9,3.7-5.7,3.7c-30.6,0-61.2,0-91.8,0   c-2.8,0-5.6-0.6-5.7-3.7C10.3,17.1,8.6,12.7,13.7,10.7z"/>
	<path class="st0" d="M47.6,43.9l-11.2-0.4c0,0-0.1-4.2,0-4.4c0.1-0.1,11.7-5.1,11.8-5.1s5.4,4.6,5.4,5.1s0,0.4,0,0.4l0.4-0.5"/>
	<path class="st0" d="M113.3,45c0,0-25.8-7.5-27.2-7.5c-1.4,0-72,1.9-72,1.9l1.5,4.4L113.3,45z"/>
</g>
</svg>