<?xml version="1.0" encoding="UTF-8"?>
<!-- Generator: Adobe Illustrator 23.0.0, SVG Export Plug-In . SVG Version: 6.00 Build 0)  -->
<svg version="1.1" id="Layer_1" xmlns="http://www.w3.org/2000/svg" xmlns:xlink="http://www.w3.org/1999/xlink" x="0px" y="0px" viewBox="0 0 149 120.4" style="enable-background:new 0 0 149 120.4;" xml:space="preserve">
<style type="text/css">
	.st0{fill:#4A4A4A;}
</style>
<g>
	<path class="st0" d="M77.7,4.9c2.3,0.2,4.6,0.5,6.9,0.8c8.9,1.4,16.8,5,24,10.2c0.3,0.2,0.8,0.6,1.4,0.9c1.5-1.7,3-3.3,4.5-4.9   c0.1,0.1,0.3,0.1,0.6,0.2c0.6,5.5,1.1,11.1,1.7,16.8c-5.7-0.6-11.2-1-17.1-1.6c1.8-1.7,3.5-3.2,5.3-4.9   c-12.9-8.9-26.5-12.2-41.6-7.9c-17.4,5-28,16.6-33.2,33.8c0.7,0.2,1.3,0.5,1.9,0.7c8.7,2.6,14.8,11,14.3,19.4   c-0.7,10-7.2,17.4-16.7,19C18.7,89,8.2,81,7.1,70.2c0-0.3-0.2-0.7-0.2-1c0-0.8,0-1.6,0-2.5c-0.1-0.5,0-0.7,0.1-1   c1-7.9,5.1-13.4,12.6-16.1c2.1-0.8,3-1.8,3.5-3.9C29.8,22.9,45,9.7,68.4,5.8c2.5-0.5,4.9-0.6,7.4-0.9C76.4,4.9,77,4.9,77.7,4.9z    M31.2,68.4c0.5-2.2,1-4.1,1-5.9c0-3.5-3.1-6.3-6.3-5.9c-3.4,0.3-5.7,3.3-5.3,6.9c0.1,1.3,0.5,2.5,0.8,3.8c0.2,0.9,0,1.6-0.7,2.3   c-1.7,1.6-3.3,3.3-3.9,5.6c-0.6,2.2,0.3,4.2,2.5,4.7c4.5,1,9,1.5,13.6,0.2c3.2-0.9,4.1-3.1,2.9-6.2c-0.3-0.9-0.9-1.7-1.5-2.5   C33.1,70.2,32,69.2,31.2,68.4z"/>
	<path class="st0" d="M70.2,115c-2.3-0.5-4.7-0.8-7.1-1.4c-7.3-1.7-13.8-5-19.9-9.2c-0.5-0.3-0.9-0.7-1.4-1   c-1.8,1.7-3.5,3.4-5.5,5.4c-0.6-5.7-1.1-11.2-1.7-16.9c5.6,0.6,11.1,1,16.9,1.6c-1.7,1.6-3.1,3-4.7,4.5c15,10.5,30.9,12.8,47.6,5.7   c13.9-5.9,22.7-16.7,26.9-31.4c-3.7-1-6.9-2.5-9.5-4.9c-6.2-5.7-8.1-14.7-4.7-22.5c3.3-7.5,11.3-12.2,19.5-11.5   c9.1,0.8,16.3,7.4,17.8,16.6c0,0.3,0.2,0.6,0.2,0.8c0,1.6,0,3.1,0,4.7c-0.1,0.2-0.2,0.6-0.3,0.8c-1.6,7.6-5.9,12.9-13.4,15.3   c-1.6,0.6-2.3,1.5-2.7,3c-6.3,21-19.8,34.5-41.3,39.3c-2.5,0.6-5.1,0.9-7.6,1.5C76.6,115,73.4,115,70.2,115z M121,53.2   c-0.5,0.3-0.9,0.7-1.1,1c-1.3,1.7-2.9,3.3-3.8,5.1c-1.1,2.5-0.1,4.7,2.4,5.4c4.7,1.1,9.4,1.5,13.9,0c2.7-0.9,3.7-2.9,2.3-5.5   c-1-1.9-2.5-3.7-3.9-5.3c-0.6-0.7-0.8-1.1-0.5-2.1c0.6-1.5,0.9-3.1,0.9-4.6c0-3.1-2.2-5.5-5.3-5.8c-2.9-0.3-5.4,1.6-6.2,4.6   C119.1,48.6,120,50.9,121,53.2z"/>
	<path class="st0" d="M100.4,61.2c2.4,1.5,3.5,3.3,3,6.1s-2.1,4.1-4.8,4.3C94.8,71.8,91,72,87,72.2c0-7.1,0-13.9,0-20.7   c2.6,0,5.4,0,8,0c0.6,0,1.1,0.1,1.7,0.1c2.4,0,4.2,0.8,5.1,3.2C102.8,57.3,102.4,59.4,100.4,61.2z M91.1,63.3c0,1.7,0,3.1,0,4.7   c2.2,0,4.2,0.1,6.4,0c1.1-0.1,1.8-0.9,1.8-2.1c0-1.3-0.6-1.9-1.7-2.1C95.5,63.6,93.4,63.4,91.1,63.3z M91.1,59.4   c1.8,0,3.7,0.1,5.4-0.1c0.6-0.1,1.4-1.1,1.5-1.8c0.1-0.6-0.6-1.8-1-1.9c-1.9-0.3-3.9-0.5-5.8-0.6C91.1,56.7,91.1,58.1,91.1,59.4z"/>
	<path class="st0" d="M50.3,72.2c0-7.1,0-13.9,0-21.1c4,0.2,8,0.2,11.8,0.9c3.2,0.6,4.5,4.1,3,7.2c-0.3,0.7-0.7,1.3-1,1.9   c0.6,0.7,1.1,1.3,1.6,1.9c2.6,3.5,0.7,8-3.7,8.4C58.1,71.9,54.2,72,50.3,72.2z M54.4,63.3c0,1.7,0,3.2,0,4.7c2.1,0,3.9,0,5.8,0   c1.3,0,2.2-0.6,2.3-1.9c0.1-1.4-0.6-2.2-1.8-2.3C58.6,63.6,56.4,63.4,54.4,63.3z M54.4,59.4c1.8,0,3.7,0.1,5.4,0   c1-0.1,1.6-0.9,1.6-1.9c0-1-0.3-1.9-1.5-1.9c-1.8-0.1-3.7,0-5.5,0C54.4,56.8,54.4,58.1,54.4,59.4z"/>
	<path class="st0" d="M74.9,68c1.8,0,3.1,0,4.3,0c1.3,0,2.5,0,3.9,0c0,1.4,0,2.5,0,3.8c-0.3,0-0.7,0.1-1,0.1c-3.9,0-7.8,0-11.8,0   c-1,0-1.4-0.3-1.4-1.4c0-1.5,0.6-2.6,1.6-3.7c2.3-2.2,4.5-4.5,6.6-6.7c1.9-2.1,2.1-3.4,0.9-4.7c-1.1-1.3-2.3-1.3-4.7,0.2   c-0.6,0.3-1.1,0.8-1.8,1.3c-0.8-0.5-1.7-1-2.7-1.6c1.4-3,3.8-4.2,6.7-4.5c2.6-0.2,5.4,1.1,6.5,3.3c1.3,2.4,0.9,4.8-1,7.1   c-0.9,1.1-1.9,2.2-2.9,3.2C77.2,65.6,76.3,66.6,74.9,68z"/>
</g>
</svg>