<?xml version="1.0" encoding="UTF-8"?>
<!-- Generator: Adobe Illustrator 23.0.0, SVG Export Plug-In . SVG Version: 6.00 Build 0)  -->
<svg version="1.1" id="Layer_1" xmlns="http://www.w3.org/2000/svg" xmlns:xlink="http://www.w3.org/1999/xlink" x="0px" y="0px" viewBox="0 0 135.4 120.2" style="enable-background:new 0 0 135.4 120.2;" xml:space="preserve">
<style type="text/css">
	.st0{display:none;}
	.st1{display:inline;fill:#434A54;}
	.st2{fill:#494949;}
	.st3{fill:#B20606;}
</style>
<g class="st0">
	<path class="st1" d="M88.3,107.4c-0.1,0-0.2,0-0.2,0c-0.2,0-0.4,0-0.7,0c-0.3,0-0.4,0-0.7,0c-1.2,0-2.5,0-3.7,0c-0.2,0-0.4,0-0.7,0   c-0.2,0-0.4,0-0.7,0c-0.1,0-0.2,0-0.2,0c-0.2,0-0.4,0-0.7,0c-0.2,0-0.4,0-0.7,0c-1.2,0-2.5,0-3.7,0c-0.2,0-0.4,0-0.7,0   c-0.3,0-0.4,0-0.7,0c-0.1,0-0.2,0-0.2,0c-0.2,0-0.4,0-0.7,0c-0.3,0-0.4,0-0.7,0c-1.2,0-2.5,0-3.7,0c-0.2,0-0.4,0-0.7,0   c-0.3,0-0.4,0-0.7,0c-0.1,0-0.2,0-0.2,0c-0.2,0-0.4,0-0.7,0c-0.3,0-0.4,0-0.7,0c-1.2,0-2.5,0-3.7,0c-0.2,0-0.4,0-0.7,0   c-0.2,0-0.4,0-0.7,0c-0.1,0-0.2,0-0.2,0c-0.2,0-0.4,0-0.7,0c-0.2,0-0.4,0-0.7,0c-1.2,0-2.5,0-3.7,0c-0.2,0-0.4,0-0.6,0   s-0.4,0-0.6,0c-0.1,0-0.1,0-0.2,0c-0.2,0-0.4,0-0.6,0s-0.4,0-0.6,0c-1.2,0-2.5,0-3.7,0c-0.2,0-0.4,0-0.6,0s-0.4,0-0.6,0   c-0.1,0-0.1,0-0.2,0c-0.2,0-0.4,0-0.6,0s-0.4,0-0.6,0c-1.2,0-2.5,0-3.7,0c-0.2,0-0.4,0-0.6,0s-0.4,0-0.6,0c-0.1,0-0.1,0-0.2,0   c-0.2,0-0.4,0-0.6,0s-0.4,0-0.6,0c-6.5,0.2-5.7-4.4-5.7-8.6c0-15.7,0-31.4,0-47.1c0-0.3-0.2-0.6-0.4-0.9c-3.2,2.6-5.3,1.6-6.8-1.9   c0-0.4,0-0.7,0-1.1c0.2-0.6,0.5-1.1,0.6-1.7c2-7.8,6.7-14.8,6.6-23.3c0-2.5,1.4-4.1,4.1-4.1c5.4,0,10.9,0,16.3,0   c22.9,0,45.8,0,68.6,0c2.3,0,3.9,1.5,3.9,3.5c-0.1,9.3,4.8,17,7.3,25.5c0,0.6,0,1.2,0,1.8c-1.1,2.5-3.2,3.3-5.4,2.1   c-2.2-1.3-1.8-0.1-1.8,1.3c0,15.2,0,30.3,0,45.4c0,4.3,1.2,9.3-5.9,9.1c-0.2,0-0.4,0-0.7,0c-0.2,0-0.4,0-0.7,0c-0.1,0-0.2,0-0.2,0   c-0.2,0-0.4,0-0.7,0c-0.2,0-0.4,0-0.7,0c-5.2,0.5-3.7-3.3-3.7-5.9c-0.1-11.8,0-23.7,0-35.6c0-0.8-0.2-1.1-1.1-1.1   c-6.4,0-12.9,0-19.3,0c-1,0-1.3,0.3-1.3,1.3c0,12.7,0,25.5,0,38.2c0,1-0.1,2.1-0.2,3.1c-0.2,0-0.4,0-0.7,0c-1.2,0-2.5,0-3.7,0   c-0.2,0-0.4,0-0.7,0C88.4,107.4,88.5,107.4,88.3,107.4z M64.7,64.9c-5.3,0-10.6,0-15.9,0c-0.9,0-1.1,0.3-1.1,1.2   c0,8.3,0.4,16.7-0.1,25c-0.3,4.9,2.5,4.2,5.3,4.2c8.1,0,16.3,0,24.4,0c2.6,0,5.1,0.5,4.8-3.9c-0.5-8.3-0.2-16.7-0.1-25.1   c0-1-0.3-1.4-1.3-1.4C75.3,64.9,70,64.9,64.7,64.9z M95.1,43.3C95,43.3,95,43.3,95.1,43.3c0,1.2,0.1,2.3,0.2,3.4   c0.2,2.9,0.6,5.8,3.6,7.2c2.6,1.3,5,0.9,7.1-1.1c3.5-3.4,1-7.3,0.9-11c-0.5-10-1.6-11-11.2-10.8c-1.9,0-1.6,1-1.5,2.1   C94.4,36.5,94.7,39.9,95.1,43.3z M113.9,30.9c-0.3,1-2.3-1.2-1.8,1.1c0.9,4.7,2,9.4,2.9,14.1c0.7,3.9,1.1,8.1,6.3,8.5   c5.1,0.4,7.6-3.2,5.2-10c-1.6-4.7,1.1-12.7-7.7-13.6C117.1,30.8,115.6,30.9,113.9,30.9z M87.4,35.9c-0.8-1.7,1.6-5.6-3.3-5.1   c-2,0.2-4,0.1-6,0c-1.6-0.1-2,0.6-2,2.1c-0.1,4.8-0.3,9.5-0.5,14.3c-0.2,3.7,1.2,6.4,4.9,7.3c3.2,0.8,6-0.6,7-3.8   C88.8,45.9,87.2,41,87.4,35.9z M42.5,54.6c0.5-0.2,1.8-0.3,2.6-1.1c4.8-4.3,3.3-10.8,5.1-16.1c1-2.9,3.6-7.5-3.5-6.5h-0.1   c-2.1,0.4-5.1-1.2-6.2,1.3c-1.6,3.6-2.3,7.6-3.5,11.4C34.8,50.4,36.6,54.6,42.5,54.6z M62.3,54.6c2.2-0.3,4.7-1.4,5.2-4.2   c0.8-5,0.7-10.2,1.7-15.1s-2.1-4.9-4.9-4.3c-2,0.5-5.1-1.8-6,1.1c-1.2,3.8-1.2,7.9-2,11.9C54.8,50.4,56.9,54.6,62.3,54.6z"/>
	<path class="st1" d="M38.3,1.8c29,0,57.9,0,86.9,0c4.5,1.8,3.1,5.8,2.9,9c-0.2,2.6-2.6,3.3-5.1,3.3c-27.5,0-55,0-82.5,0   c-2.5,0-5-0.5-5.1-3.4C35.3,7.6,33.7,3.6,38.3,1.8z"/>
	<path class="st1" d="M68.8,31.6l-10.1-0.4c0,0-0.1-3.8,0-3.9s10.5-4.5,10.6-4.5s4.9,4.2,4.9,4.5s0,0.4,0,0.4l0.4-0.5"/>
	<path class="st1" d="M127.8,32.6c0,0-23.2-6.7-24.5-6.7s-64.7,1.7-64.7,1.7l1.3,3.9L127.8,32.6z"/>
</g>
<g>
	<g>
		<path class="st2" d="M113.5,32.2c-0.6-0.2-1.1-0.5-1.6-0.7c-5.5-2.5-11-5-16.4-7.6c-1.4-0.6-2-1.7-1.6-2.9    c0.5-1.4,1.9-1.9,3.5-1.1c5.1,2.4,10.2,4.7,15.4,7.1c2.4,1.1,4.9,2.1,7.2,3.4c0.7,0.4,1.4,1,1.7,1.6c4.1,7.6,8.1,15.3,12.2,22.9    c1.1,2.1,0.6,3.1-1.6,3.9c-3.2,1.1-6.5,2.1-9.6,3.2c-1,0.4-1.4,0.7-1.4,2c0,10.1,0,20.1,0,30.1c0,2.2-0.2,2.6-2.4,3.4    c-16.7,6.9-33.3,13.6-50,20.3c-0.6,0.2-1.6,0.1-2.4-0.2c-13.2-5.4-26.5-10.7-39.7-16.2c-3.4-1.4-6.7-2.7-10.1-4.1    c-1.4-0.5-2-1.5-1.9-2.9c0-9.8,0-19.7,0-29.5c0-0.2,0-0.6,0-1c-3.5-1-6.9-2-10.2-3.1c-0.4-0.1-0.6-0.2-1-0.2    c-2-0.6-2.5-1.9-1.6-3.7c2.5-5.4,5.2-10.7,7.8-16.2c1.5-3,2.9-6,4.4-8.8c0.4-0.6,0.9-1.2,1.5-1.5c7.8-3.4,15.6-6.7,23.4-10    c0.9-0.4,2-0.2,2.9,0.1c0.5,0.2,0.9,1.5,0.7,2c-0.2,0.7-1,1.6-1.7,1.9C35.6,26.8,30,29,24.4,31.4c-0.5,0.2-1,0.4-1.7,0.7    c4.5,1.7,8.6,3.2,12.8,4.9c10.5,4,20.9,8,31.4,12c0.6,0.2,1.6,0.4,2.2,0.1c14.6-5.5,29-11,43.6-16.4    C113,32.5,113.1,32.5,113.5,32.2z M70.9,62.6c-0.1,0-0.2,0-0.2,0c0,16.4,0,33,0,49.7c0.6-0.2,1-0.4,1.5-0.5    c14.6-6,29.2-12,43.9-17.9c0.9-0.4,1.1-0.7,1.1-1.7c0-9,0-17.8,0-26.8c0-0.4,0-0.6-0.1-1.1c-0.5,0.1-0.9,0.2-1.2,0.4    c-11.5,3.7-22.9,7.5-34.3,11.2c-2.9,1-3.5,0.6-4.9-2C74.8,70.2,72.8,66.4,70.9,62.6z M66.2,63.6c-0.1,0-0.1,0-0.2,0    c-1.5,3.4-2.9,6.7-4.4,10.1c-1,2.5-1.6,2.7-4.4,2c-10.3-3-20.8-5.9-31.1-8.8c-2.1-0.6-4.1-1.1-6.5-1.7c0,0.9,0,1.5,0,2.1    c0,8.2,0,16.3,0,24.5c0,1.1,0.4,1.7,1.4,2.1c11.8,4.9,23.7,9.6,35.5,14.5c3.1,1.2,6.4,2.6,9.6,3.9C66.2,95.9,66.2,79.8,66.2,63.6z     M17.8,35.1c-3.6,7.2-7.1,14.5-10.7,21.7c16.9,4.9,33.6,9.6,50.5,14.5c2.6-6.1,5.2-12.1,7.7-18.1C49.3,47.1,33.7,41.1,17.8,35.1z     M80.5,71.2C96.7,66,112.8,60.8,129,55.4c-3.6-6.9-7-13.5-10.6-20.2c-15.7,6.1-31.3,12-46.8,17.9c2.9,5.9,5.7,11.6,8.5,17.2    C80.1,70.6,80.2,70.9,80.5,71.2z"/>
	</g>
	<path class="st3" d="M61.4,16.1c1.1-3.2,2.9-6.9,4.1-10c-1.8,3.7-10,23.1-7.3,16.5c-0.4,0.7-0.7,1.4-1,2.2c0,0-0.4,1-0.1,0.1   c-0.9,1.9-0.3,0.8,0.3-0.5c0,0.2-0.5,1.1-0.4,1c-0.2,0.3-0.3,0.7-0.5,1c0.1-0.2,0.2-0.4,0.3-0.7c-0.6,1.3-0.4,0.7-0.8,1.6   c0.9-2.5,0.5-1.5,1.3-3.4c-0.8,1.7-1.4,2.9-1.8,3.7c0.3-0.9,0.5-2,0.1-1c-0.2,0.3-0.8,1.8-0.6,1.2c-0.5,1.2,0-0.1,0-0.3   c-0.1-0.3-0.5,1.2-0.5,1.2c0-0.1,0.1-0.4,0-0.1c-0.5,0.6,0.8-2.3,0-0.5c0-0.2,0.2-0.8-0.1-0.2c0-0.3-0.2,0.3-0.2,0.3   c0.3-1.3-0.1-0.6-0.5-0.1c0.1-0.6-0.1-0.3,0.1-0.9c-0.1,0.4-0.4,1.1-0.2,0.3c0.1-0.4-0.2,0.2-0.2,0.3c0.2-0.8,0.1-0.9,0.1-1.4   c0.1-0.3-0.1-0.3,0-0.6c-0.2,0.5,0-0.2-0.2,0.2c0-0.2,0-0.1,0-0.1c0,0.1-0.1,0.2-0.1,0.3c0,0-0.1,0.4-0.1,0.3c0,0,0-0.1,0,0   c0,0,0,0,0,0c-0.1,0.2-0.4,1.1-0.3,0.7c0-0.1,0-0.1-0.1,0c-0.3,0.4,0.3-1.2,0.1-1c0-0.3,0.2-0.7,0.1-0.9c-0.1,0.3-0.2,1-0.2,0.6   c-0.2,0.4,0.1-0.3,0-0.4c0-0.1,0-0.5,0.1-0.5c0-0.5,0.1,0.1,0.2-0.7c0,0-0.1,0.1-0.1,0.2c0.1,0,0,0.2,0,0c-0.1,0.2,0-0.1,0-0.2   c0,0,0,0.1,0,0.1c0-0.1,0.1-0.2,0.1-0.2c0,0,0-0.1,0,0c0.1-0.5,0.1-1,0.2-1.5c-0.2,0.5-0.6,2.5-0.5,1.5c0,0.1,0.1-0.6,0-0.4   c0.1-0.5-0.1-0.4,0-1c-0.2,0.8,0-0.3-0.2,0.4c0-0.1,0-0.2,0-0.2c-0.1,0.2-0.2,1.2-0.2,1.1c-0.2,0.5-0.2,1.1-0.4,1.6   c0-0.2,0.1-0.8,0-0.3c-0.2,0.5,0.2-1.4,0.2-2.1c0,0.1-0.1,0.2-0.1,0.4c0-0.3,0.3-1.5,0.2-1.4c0-0.1,0.1-0.8,0-0.3   c0-0.2,0.1-0.5,0.1-0.7c-0.9,4.7,0.2-2,0.3-3.9c0,0,0,0.1,0,0.2c0.1-0.3,0.1-0.8,0.1-1.1c0,0.4-0.1,0.8-0.1,1.1   c-0.1,1.5-0.4,3.2-0.7,4.8c0.4-1.8,0.6-4.1,0.8-5.6c0.1-0.4,0-1.3,0.1-1.4c0.2-1.8-0.2-3.7-0.5-5.4c0,0.1,0-0.1,0-0.2c0,0,0,0,0,0   c0,0,0-0.1,0,0c0-0.1-0.1,0-0.1-0.1c0,0-0.1,0-0.1,0c-0.6,0.7-1.2,2.4-1.7,3.2c-0.4,1-1.2,2.7-1.5,3.6c-0.6,1.7-1.3,3.3-1.9,5   c0.4-1,0.9-2.1,1.3-3.2c0,0.1-0.1,0.2-0.1,0.4c0.1-0.2,0,0,0,0.1c0.2-0.2-0.4,0.6-0.2,0.7c-0.3,0.6-0.3,0.8-0.7,2   c0,0,0,0.1-0.1,0.1c0,0.4-0.8,1.8-0.7,1.9c-0.3,0.9-0.6,1.8-1,2.6c0-0.2-0.2,0.1,0-0.4c0,0,0,0,0,0.1c0-0.1,0.1-0.2,0.1-0.3   c-0.2,0.4-0.2,0.9-0.4,1.2c0-0.4,0.2-0.6,0.1-0.6c-0.2,0.3-0.3,1.1-0.4,1c0-0.3,0.1-0.7,0-0.6c-0.4,1.1,0.3-1.4,0-0.5   c0-0.1-0.1,0.1-0.1,0.1c0,0,0,0,0-0.1c0,0,0,0,0,0c-0.3,0.8-0.3,0.7-0.5,1c0-0.2,0.2-0.4,0.2-0.7c-0.1,0.1-0.1,0.4-0.2,0.5   c0.2-0.6-0.1-0.1-0.3,0.4c0.3-1.4,0.1-0.6,0-0.4c-0.1-0.2-0.5,1.1-0.3,0.2c-0.2,0.1-0.2,0.5-0.2,0.3c0.3-0.8,0-0.4-0.2,0.1   c0-0.3,0.1-0.7-0.1-0.2c0-0.4,0.2-0.9-0.1-0.2c0-0.3-0.1-0.2-0.2,0c0-0.4,0-0.4-0.2,0c0.2-0.4,0.1-0.7-0.1-0.1c0,0,0-0.2,0-0.1   c0.1-0.6,0-0.4-0.2,0.1c0-0.9-0.3,0-0.4,0.5c0.1-0.5,0.2-1,0.3-1.5c-0.1,0.1-0.1,0.3-0.2,0.5c0-0.4,0.1-0.8,0.2-1.1   c-0.2,0.8-0.6,2.3-0.3,0.6c-0.2,0.5,0.2-1.8-0.2-0.4c0.4-4.4,4.1-13.8,7.5-19.4c-3.4,5.4-5.4,12.4-7.3,18.1c0,0.3,0.1-0.3,0.1-0.2   c2.3-10.9,13.7-32.4,15-8.9c0.1-0.2,0.3-0.8,0.2-0.6c0.4-1,0.8-2.1,1.2-2.9c0.2-0.5,0.8-1.7,1-2.2c0.3-0.6,0.6-1.3,0.9-1.9   c0.1-0.3,0.3-0.6,0.5-1c-0.6,1-1.3,2.6-0.6,1c0.2-0.3,0.8-1.7,1-2.1c0.3-0.5,0.5-1.1,0.8-1.4c0.1,0.7,0,0.1,0.3-0.3   c-0.3,0.9,0.1-0.2,0.2-0.2c0,0.2,0,0.3,0,0.4c0.1,0,0.2-0.4,0.2,0c-0.3,0.6,0,0.3,0,0.4c0.3-0.4,0.3-0.4,0.4-0.5   c-0.1,0.3-0.2,0.5,0.1,0.1C63,4.1,63.2,4,63.5,3.7c0.1,0.2-0.3,0.6-0.1,0.6c0-0.1,0.2-0.5,0.2-0.3c0.1,0.1,0,0,0.2-0.1   c0.1-0.2,0.1-0.2,0,0c0.2,0,0.1-0.2,0.2-0.1c-0.4,0.9,0.3-0.4,0.2,0.2C64.3,3.8,64,4.6,64.3,4c0,0.3,0.3-0.2,0.1,0.2   c0.1,0,0.2-0.4,0.1-0.1c-0.2,0.2,0.1,0.2,0.1,0c0.1,0.2,0,0.5,0.2,0.1c0,0.6,0.2,0.1,0.4-0.2c0,0.2-0.3,1.3,0,0.7   c0,0.2,0,0.5-0.1,0.7c0.4-1.1,0.4-0.8,0.2,0.3c0.1,0.1,0.1-0.2,0.2-0.3c-0.1,0.2,0,0.7,0.1,0.5C66,5.5,65.2,7.5,64.9,8   C63.7,10.6,62.5,13.4,61.4,16.1z"/>
	<path class="st3" d="M45.5,25.8L45.5,25.8C45.6,25.6,45.5,25.8,45.5,25.8z"/>
	<path class="st3" d="M47,22.3C47,22.3,47,22.4,47,22.3C47,22.4,47,22.3,47,22.3z"/>
	<path class="st3" d="M47.2,10.9C47.2,10.9,47.2,11,47.2,10.9C47.2,10.9,47.2,10.9,47.2,10.9z"/>
	<path class="st3" d="M52,4.8c-2.4,0.9-3.7,3.8-4.8,6.1C47.9,8.7,50.7,4.8,52,4.8z"/>
	<path class="st3" d="M47.4,21.3C47.4,21.3,47.4,21.2,47.4,21.3C47.4,21.2,47.4,21.3,47.4,21.3z"/>
	<path class="st3" d="M47.4,21.1c0-0.1,0.1-0.1,0-0.1C47.5,21,47.4,21.1,47.4,21.1z"/>
	<path class="st3" d="M47.7,20.6c0,0-0.1,0.1-0.1,0.2C47.5,20.9,47.7,20.6,47.7,20.6z"/>
	<path class="st3" d="M49.1,16.3C49.1,16.3,49.1,16.3,49.1,16.3C49.1,16.3,49.1,16.3,49.1,16.3z"/>
	<path class="st3" d="M49.2,16.1C49.2,16.1,49.2,16.1,49.2,16.1C49.2,16.1,49.2,16.1,49.2,16.1z"/>
	<path class="st3" d="M49.3,15.9L49.3,15.9C49.4,15.7,49.3,15.8,49.3,15.9z"/>
	<path class="st3" d="M49.6,15.1C49.6,15.1,49.6,15.2,49.6,15.1C49.6,15.2,49.6,15.2,49.6,15.1z"/>
	<path class="st3" d="M49.6,15.1C49.6,15.1,49.6,15.1,49.6,15.1C49.6,15.1,49.6,15,49.6,15.1z"/>
	<path class="st3" d="M50.7,12.5"/>
	<path class="st3" d="M51.9,25.3C51.9,25.3,51.9,25.3,51.9,25.3C51.9,25.3,51.9,25.3,51.9,25.3z"/>
	<path class="st3" d="M52.2,21.7c0,0.4,0,0.1,0-0.1C52.3,21.3,52.2,21.6,52.2,21.7z"/>
	<path class="st3" d="M52.3,20.8c0,0-0.1,0.4,0,0.3C52.3,21,52.3,20.9,52.3,20.8z"/>
	<path class="st3" d="M52.3,21.3C52.3,21.3,52.3,21.3,52.3,21.3C52.3,21.3,52.3,21.3,52.3,21.3z"/>
	<path class="st3" d="M52.4,20.6C52.4,20.6,52.4,20.6,52.4,20.6C52.4,20.6,52.4,20.6,52.4,20.6z"/>
	<path class="st3" d="M52.4,4.7C52.4,4.7,52.6,4.7,52.4,4.7L52.4,4.7z"/>
	<path class="st3" d="M52.5,22.9C52.5,23,52.5,23,52.5,22.9C52.5,23,52.5,22.9,52.5,22.9z"/>
	<path class="st3" d="M52.5,11.1C52.5,11,52.5,11,52.5,11.1C52.5,11,52.5,11.1,52.5,11.1z"/>
	<path class="st3" d="M52.7,4.7C52.6,4.7,52.6,4.7,52.7,4.7C52.7,4.8,52.7,4.8,52.7,4.7z"/>
	<path class="st3" d="M52.6,27.4C52.6,27.4,52.6,27.4,52.6,27.4C52.6,27.3,52.6,27.3,52.6,27.4z"/>
	<path class="st3" d="M52.7,4.7C52.7,4.7,52.7,4.7,52.7,4.7C52.6,4.7,52.6,4.7,52.7,4.7z"/>
	<path class="st3" d="M52.7,24.4C52.7,24.4,52.7,24.4,52.7,24.4C52.7,24.4,52.7,24.4,52.7,24.4z"/>
	<path class="st3" d="M52.7,24.1c0,0,0-0.1,0-0.1C52.7,24,52.7,24,52.7,24.1z"/>
	<path class="st3" d="M52.7,17.4C52.7,17.4,52.7,17.4,52.7,17.4C52.7,17.4,52.7,17.4,52.7,17.4z"/>
	<path class="st3" d="M52.7,24.2"/>
	<path class="st3" d="M52.7,23.9C52.7,23.9,52.7,23.9,52.7,23.9C52.7,23.9,52.7,23.9,52.7,23.9z"/>
	<path class="st3" d="M52.7,18.2C52.7,18.2,52.7,18.2,52.7,18.2C52.7,18.2,52.7,18.2,52.7,18.2z"/>
	<path class="st3" d="M52.8,13.3C52.8,13.3,52.8,13.3,52.8,13.3C52.8,13.3,52.8,13.3,52.8,13.3z"/>
	<path class="st3" d="M52.9,25.4C52.9,25.4,52.9,25.4,52.9,25.4c0,0.2-0.1,0.4-0.1,0.6C52.9,25.7,52.9,25.6,52.9,25.4z"/>
	<path class="st3" d="M52.8,15.7C52.8,15.7,52.8,15.7,52.8,15.7C52.8,15.8,52.8,15.7,52.8,15.7z"/>
	<path class="st3" d="M52.8,25.4C52.8,25.4,52.8,25.4,52.8,25.4C52.8,25.5,52.8,25.4,52.8,25.4z"/>
	<path class="st3" d="M55.7,8.5c0-0.1,0.1,0.1,0.1,0.1c-0.1-0.2,0.1-0.3,0-0.1c0.1,0.5,0,0,0,0.5c0.1-0.2,0.1,0.4,0.2,0.9   c-0.2-1,0-0.5,0.1,0.4c-0.1-0.5-0.1,0,0,0.3c0.3,2.1,0.5,3.8,0.3,5.9c0-0.1,0.1-0.2,0.1-0.4c0-0.2,0-1.7,0.1-1.2   c0-0.5,0.1-1.6-0.1-3c0-0.1-0.1-0.3,0-0.5c-0.4-1.7-0.5-4.4-2.1-6c0.4,0.5,0,0.2-0.2-0.1c0.6,0.5,0-0.2,0,0C54,4.9,52.4,4.6,53,4.8   C54.6,5.1,55.4,7,55.7,8.5z"/>
	<path class="st3" d="M52.9,4.7c0.1,0,0.2,0,0.2,0C53,4.7,52.9,4.7,52.9,4.7z"/>
	<path class="st3" d="M52.9,25.3C52.9,25.3,52.9,25.2,52.9,25.3C52.9,25.2,52.9,25.3,52.9,25.3z"/>
	<path class="st3" d="M53.4,26.6C53.4,26.6,53.4,26.7,53.4,26.6C53.4,26.7,53.4,26.6,53.4,26.6z"/>
	<path class="st3" d="M53.4,26.8"/>
	<path class="st3" d="M53.4,27.3C53.4,27.3,53.4,27.3,53.4,27.3C53.4,27.3,53.4,27.3,53.4,27.3z"/>
	<path class="st3" d="M53.6,26.9c0.1-0.3,0.3-1.1,0-0.4c0,0,0,0,0,0c-0.1,0.2-0.1,0.3-0.1,0.4C53.3,27.4,53.5,27.4,53.6,26.9z"/>
	<path class="st3" d="M53.5,27.4C53.4,27.4,53.4,27.4,53.5,27.4C53.5,27.4,53.5,27.4,53.5,27.4z"/>
	<path class="st3" d="M53.6,4.9c-0.1,0-0.1-0.1-0.1-0.1C53.4,4.8,53.6,4.9,53.6,4.9z"/>
	<path class="st3" d="M53.5,27.5c0,0-0.1,0.1,0,0.1C53.5,27.6,53.5,27.5,53.5,27.5z"/>
	<path class="st3" d="M53.6,27.8C53.6,27.8,53.5,27.9,53.6,27.8C53.6,27.8,53.6,27.7,53.6,27.8z"/>
	<path class="st3" d="M53.6,27.8C53.6,27.8,53.6,27.8,53.6,27.8C53.6,27.9,53.6,27.8,53.6,27.8z"/>
	<path class="st3" d="M53.9,27.9C53.9,27.9,53.9,27.9,53.9,27.9C54,27.7,53.8,27.9,53.9,27.9z"/>
	<path class="st3" d="M53.9,5.2C53.9,5.2,53.9,5.2,53.9,5.2C54,5.2,53.9,5.2,53.9,5.2z"/>
	<path class="st3" d="M54,5.4C54,5.3,54,5.3,54,5.4C54,5.3,54,5.4,54,5.4z"/>
	<path class="st3" d="M54.2,5c-0.1,0-0.1-0.1-0.1-0.1C54.1,4.9,54.2,5,54.2,5z"/>
	<path class="st3" d="M54.2,5C54.3,5.1,54.2,5,54.2,5C54.2,5,54.2,5,54.2,5z"/>
	<path class="st3" d="M54.3,5.6c0.1,0.1,0.1,0.1,0.2,0.2C54.5,5.8,54.3,5.5,54.3,5.6z"/>
	<path class="st3" d="M54.3,5.3C54.4,5.3,54.3,5.3,54.3,5.3C54.3,5.3,54.3,5.3,54.3,5.3z"/>
	<path class="st3" d="M54.3,5.1C54.6,5.4,54.5,5.3,54.3,5.1C54.3,5.1,54.3,5.1,54.3,5.1z"/>
	<path class="st3" d="M54.5,5.2c0,0-0.1-0.1-0.1-0.1C54.3,5,54.4,5.1,54.5,5.2z"/>
	<path class="st3" d="M54.5,5.9C54.5,5.8,54.5,5.8,54.5,5.9C54.5,5.8,54.5,5.9,54.5,5.9z"/>
	<path class="st3" d="M54.5,5.9c0,0.1,0.3,0.4,0.1,0.1C54.5,6,54.5,6,54.5,5.9z"/>
	<path class="st3" d="M54.6,5.9C54.6,5.9,54.6,5.9,54.6,5.9C54.6,5.9,54.6,6,54.6,5.9z"/>
	<path class="st3" d="M54.6,5.3"/>
	<path class="st3" d="M54.6,5.4C54.6,5.4,54.6,5.4,54.6,5.4C54.6,5.4,54.6,5.4,54.6,5.4z"/>
	<path class="st3" d="M54.7,27.6L54.7,27.6C54.7,27.5,54.7,27.6,54.7,27.6z"/>
	<path class="st3" d="M54.7,6.2C54.7,6.2,54.7,6.2,54.7,6.2C54.7,6.2,54.7,6.2,54.7,6.2z"/>
	<path class="st3" d="M54.8,6.3L54.8,6.3C54.8,6.4,54.7,6.2,54.8,6.3z"/>
	<path class="st3" d="M54.9,5.7C54.9,5.8,54.8,5.6,54.9,5.7C54.7,5.5,54.8,5.5,54.9,5.7z"/>
	<path class="st3" d="M54.9,27.8c0,0-0.1,0.1-0.1,0.1C54.9,27.9,54.9,27.8,54.9,27.8z"/>
	<path class="st3" d="M55,6.7C55,6.7,55,6.7,55,6.7C55,6.7,55,6.7,55,6.7z"/>
	<path class="st3" d="M55,5.8C55,5.9,55,5.9,55,5.8C55,5.8,55,5.8,55,5.8z"/>
	<path class="st3" d="M55.1,6.1C55.1,6.1,55.1,6.2,55.1,6.1C55.1,6.1,55.1,6,55.1,6.1z"/>
	<path class="st3" d="M55.1,6C55.1,6.1,55.1,6,55.1,6C55.1,6,55.1,6,55.1,6z"/>
	<path class="st3" d="M55.4,6.8C55.4,6.9,55.4,6.9,55.4,6.8C55.4,6.9,55.4,6.8,55.4,6.8z"/>
	<path class="st3" d="M55.5,7.9C55.5,7.9,55.4,7.9,55.5,7.9C55.4,7.9,55.5,7.9,55.5,7.9z"/>
	<path class="st3" d="M55.4,7C55.4,7,55.5,7,55.4,7C55.5,7,55.4,7,55.4,7z"/>
	<path class="st3" d="M55.5,8.2c0.2,0.6,0.4,1.5,0.5,2.2c0-0.2,0-0.4-0.1-0.5C55.9,9.4,55.7,8.8,55.5,8.2z"/>
	<path class="st3" d="M55.6,8.9l0,0.2C55.7,9.3,55.6,8.9,55.6,8.9z"/>
	<path class="st3" d="M55.6,7.1c0,0.1,0.1,0.2,0.1,0.2C55.6,7.2,55.5,6.6,55.6,7.1z"/>
	<path class="st3" d="M55.7,9.3c0,0.2,0,0.3,0.1,0.4C55.8,9.7,55.7,9.4,55.7,9.3z"/>
	<path class="st3" d="M55.7,7.5C55.7,7.5,55.7,7.5,55.7,7.5C55.7,7.4,55.7,7.5,55.7,7.5z"/>
	<path class="st3" d="M55.7,26.3L55.7,26.3C55.8,26.2,55.7,26.3,55.7,26.3z"/>
	<path class="st3" d="M55.8,7.6"/>
	<path class="st3" d="M55.8,26.5C55.8,26.5,55.8,26.5,55.8,26.5C55.8,26.4,55.8,26.4,55.8,26.5z"/>
	<path class="st3" d="M55.9,25.9c-0.2,0.3,0,0.3-0.2,0.5C55.9,26.4,55.9,26,55.9,25.9z"/>
	<path class="st3" d="M55.8,9.9C55.8,9.9,55.8,9.9,55.8,9.9C55.8,9.9,55.8,9.9,55.8,9.9z"/>
	<path class="st3" d="M55.8,11.3C55.8,11.3,55.8,11.3,55.8,11.3C55.8,11.3,55.8,11.3,55.8,11.3z"/>
	<path class="st3" d="M55.8,10L55.8,10C55.8,9.9,55.8,10,55.8,10z"/>
	<path class="st3" d="M55.8,10.1C55.8,10.1,55.8,10.1,55.8,10.1C55.8,10.1,55.8,10.1,55.8,10.1z"/>
	<path class="st3" d="M55.9,10.4l0-0.2C55.8,10.1,55.8,10.4,55.9,10.4z"/>
	<path class="st3" d="M55.9,26.4C55.8,26.4,55.8,26.4,55.9,26.4C55.9,26.4,55.9,26.4,55.9,26.4z"/>
	<path class="st3" d="M55.9,10.4c-0.1,0.1,0,0.3,0,0.4C56,11.4,56,10.7,55.9,10.4z"/>
	<path class="st3" d="M55.9,26.4c0.1-0.3,0.2-0.5,0.3-0.8C56.3,25.3,55.9,26.2,55.9,26.4z"/>
	<path class="st3" d="M55.9,8.4C55.9,8.4,55.9,8.4,55.9,8.4C55.9,8.4,55.9,8.3,55.9,8.4z"/>
	<path class="st3" d="M55.9,9.6C55.9,9.6,55.9,9.6,55.9,9.6C55.9,9.6,55.9,9.6,55.9,9.6z"/>
	<path class="st3" d="M56,25.8c0,0,0.1-0.1,0-0.1C56,25.7,55.9,25.8,56,25.8z"/>
	<path class="st3" d="M56,8.2"/>
	<path class="st3" d="M56.1,11.7c0-0.1,0-0.2,0-0.3C56,10.8,55.9,11.5,56.1,11.7z"/>
	<path class="st3" d="M56.1,8.4c0,0,0-0.1,0-0.1C56,8.3,56,8.4,56.1,8.4z"/>
	<path class="st3" d="M56.1,10.3C56.1,10.2,56,10.3,56.1,10.3C56.1,10.3,56.1,10.3,56.1,10.3z"/>
	<path class="st3" d="M56.1,10.6c0,0.1,0,0.4,0.1,0.5C56.1,11.1,56.1,10.6,56.1,10.6z"/>
	<path class="st3" d="M56.1,8.6C56.1,8.6,56.1,8.6,56.1,8.6C56.1,8.6,56.1,8.6,56.1,8.6z"/>
	<path class="st3" d="M56.1,11.8c0,0.1,0,0.4,0,0.4C56.2,12.5,56.1,11.9,56.1,11.8z"/>
	<path class="st3" d="M56.1,10.5C56.1,10.5,56.1,10.5,56.1,10.5C56.1,10.5,56.1,10.5,56.1,10.5z"/>
	<path class="st3" d="M56.1,10.6c0,0.3,0.1,0.8,0.1,1.1c-0.1-0.1,0-0.4-0.1-0.4c0,0.7,0.2,1.3,0.2,1.6c0.1,0.2,0.1-0.6,0-1.2   C56.3,11.4,56.2,10.9,56.1,10.6z"/>
	<path class="st3" d="M56.1,26.1L56.1,26.1C56.2,26,56.1,26.1,56.1,26.1z"/>
	<path class="st3" d="M56.3,9.9c0-0.1-0.1-0.3-0.1-0.4C56.1,9.1,56.2,9.8,56.3,9.9z"/>
	<path class="st3" d="M56.2,12.5c0,0,0-0.1,0-0.1C56.2,12.4,56.1,12.5,56.2,12.5z"/>
	<path class="st3" d="M56.2,9.1c0.1,0.4,0,0-0.1-0.2C56.2,8.9,56.2,9.1,56.2,9.1z"/>
	<path class="st3" d="M56.2,12.8C56.2,12.8,56.2,12.8,56.2,12.8C56.2,12.8,56.2,12.8,56.2,12.8z"/>
	<path class="st3" d="M56.2,25.3c0,0,0.1-0.1,0.1-0.1C56.3,25.1,56.2,25.2,56.2,25.3z"/>
	<path class="st3" d="M56.2,13.7C56.2,13.7,56.2,13.7,56.2,13.7C56.2,13.8,56.2,13.7,56.2,13.7z"/>
	<path class="st3" d="M56.3,26.6c0,0-0.1,0.1,0,0.1C56.2,26.7,56.3,26.7,56.3,26.6z"/>
	<path class="st3" d="M56.2,14.3C56.2,14.3,56.2,14.3,56.2,14.3C56.2,14.3,56.2,14.3,56.2,14.3z"/>
	<path class="st3" d="M56.2,14.7L56.2,14.7C56.2,14.5,56.2,14.7,56.2,14.7z"/>
	<path class="st3" d="M56.3,25.4L56.3,25.4C56.3,25.2,56.2,25.3,56.3,25.4z"/>
	<path class="st3" d="M56.3,26.6c0.1-0.2,0.1-0.2,0.1-0.3C56.4,26.2,56.3,26.6,56.3,26.6z"/>
	<path class="st3" d="M56.3,9.9L56.3,9.9C56.3,9.7,56.3,9.9,56.3,9.9z"/>
	<path class="st3" d="M56.5,24.7c0,0.1-0.2,0.4-0.1,0.4C56.4,25,56.4,24.8,56.5,24.7z"/>
	<path class="st3" d="M56.3,10.2c0,0,0,0.3,0,0.3C56.4,10.4,56.3,10.3,56.3,10.2z"/>
	<path class="st3" d="M56.3,9.6C56.3,9.7,56.3,9.6,56.3,9.6C56.3,9.6,56.3,9.6,56.3,9.6z"/>
	<path class="st3" d="M56.5,24.8c0,0.1-0.2,0.3-0.1,0.4C56.4,25,56.5,24.9,56.5,24.8z"/>
	<path class="st3" d="M56.4,15.5c0.1-0.7,0-1.4,0-2.1C56.3,12.3,56.4,14.9,56.4,15.5z"/>
	<path class="st3" d="M56.4,10.1l0,0.1C56.4,10.2,56.3,9.8,56.4,10.1z"/>
	<path class="st3" d="M56.5,10.6c0,0,0-0.2-0.1-0.3C56.5,10.3,56.4,10.5,56.5,10.6z"/>
	<path class="st3" d="M56.5,25.1c0,0,0-0.1,0-0.1C56.6,24.8,56.3,25.7,56.5,25.1z"/>
	<path class="st3" d="M56.5,10.2C56.5,10.3,56.5,10.3,56.5,10.2C56.4,10.3,56.4,10.2,56.5,10.2z"/>
	<path class="st3" d="M56.5,10.9c0,0.1,0,0.3,0.1,0.5c0-0.2-0.1-0.6-0.1-0.8C56.5,10.7,56.5,10.9,56.5,10.9z"/>
	<path class="st3" d="M56.5,26.2C56.5,26.1,56.4,26.2,56.5,26.2C56.5,26.2,56.5,26.2,56.5,26.2z"/>
	<path class="st3" d="M56.5,10.5c0,0.3,0.1,0.4,0.1,0.6C56.6,11.1,56.5,10.7,56.5,10.5z"/>
	<path class="st3" d="M56.5,24.8C56.6,24.7,56.6,24.6,56.5,24.8C56.5,24.7,56.5,24.7,56.5,24.8z"/>
	<path class="st3" d="M56.5,26C56.5,26,56.5,26,56.5,26C56.6,26,56.6,26,56.5,26z"/>
	<path class="st3" d="M56.6,24.6C56.6,24.6,56.6,24.6,56.6,24.6C56.6,24.6,56.6,24.6,56.6,24.6z"/>
	<path class="st3" d="M56.6,11.6C56.6,11.6,56.6,11.5,56.6,11.6C56.6,11.5,56.6,11.5,56.6,11.6z"/>
	<path class="st3" d="M56.7,11.7c-0.1-0.1,0-0.3-0.1-0.4C56.7,11.3,56.6,11.5,56.7,11.7z"/>
	<path class="st3" d="M56.6,15.9c0-0.1,0-0.1,0-0.2C56.6,15.4,56.6,15.9,56.6,15.9z"/>
	<path class="st3" d="M56.7,24.5C56.6,24.4,56.6,24.5,56.7,24.5C56.6,24.5,56.6,24.5,56.7,24.5z"/>
	<path class="st3" d="M56.7,15.2c-0.1,0,0,0.1,0,0.1C56.7,15.3,56.7,15.3,56.7,15.2L56.7,15.2z"/>
	<path class="st3" d="M56.7,11.9C56.7,12,56.6,11.9,56.7,11.9C56.6,11.9,56.7,11.9,56.7,11.9z"/>
	<path class="st3" d="M56.7,15.5C56.7,15.5,56.6,15.6,56.7,15.5C56.7,15.6,56.7,15.5,56.7,15.5z"/>
	<path class="st3" d="M56.7,14.9c0,0.1,0,0.2,0,0.3C56.7,15.1,56.7,14.9,56.7,14.9z"/>
	<path class="st3" d="M56.7,11.8C56.7,11.8,56.7,11.8,56.7,11.8C56.7,11.7,56.7,11.8,56.7,11.8z"/>
	<path class="st3" d="M56.7,12.5c0,0,0,0.3,0,0.3C56.7,12.6,56.7,12.6,56.7,12.5z"/>
	<path class="st3" d="M56.7,11.8C56.7,11.8,56.7,11.9,56.7,11.8C56.7,11.9,56.7,11.9,56.7,11.8z"/>
	<path class="st3" d="M56.7,24.7C56.7,24.7,56.7,24.6,56.7,24.7C56.8,24.5,56.7,24.6,56.7,24.7z"/>
	<path class="st3" d="M56.7,12.1C56.7,12.1,56.7,12,56.7,12.1C56.7,12.1,56.7,12.1,56.7,12.1z"/>
	<path class="st3" d="M56.8,15.7c0.1-1.2,0-2.4-0.1-3.5C56.8,13.2,56.9,14.5,56.8,15.7z"/>
	<path class="st3" d="M56.7,24.2L56.7,24.2C56.8,24.1,56.7,24.2,56.7,24.2z"/>
	<path class="st3" d="M56.7,13.4C56.7,13.4,56.7,13.4,56.7,13.4C56.8,13.5,56.8,13.4,56.7,13.4z"/>
	<path class="st3" d="M56.7,13.6L56.7,13.6C56.8,13.6,56.8,13.5,56.7,13.6z"/>
	<path class="st3" d="M56.8,23.9c0,0-0.1,0.1-0.1,0.1C56.8,24,56.8,24,56.8,23.9z"/>
	<path class="st3" d="M56.8,14.2c0,0,0-0.1,0-0.2C56.7,14,56.7,14.2,56.8,14.2z"/>
	<path class="st3" d="M56.8,24.5C56.8,24.5,56.7,24.5,56.8,24.5C56.8,24.5,56.8,24.5,56.8,24.5z"/>
	<path class="st3" d="M56.8,14.5c0,0,0-0.1,0-0.1C56.8,14.4,56.8,14.5,56.8,14.5z"/>
	<path class="st3" d="M56.8,24L56.8,24C56.9,23.8,56.8,24,56.8,24z"/>
	<path class="st3" d="M56.9,24.8C56.9,24.8,56.9,24.7,56.9,24.8C57,24.5,56.7,25.1,56.9,24.8z"/>
	<path class="st3" d="M56.8,15.5c0,0,0-0.1,0-0.1C56.9,15,56.8,15.2,56.8,15.5z"/>
	<path class="st3" d="M56.9,15.1C56.9,15.1,56.9,15,56.9,15.1C56.9,15,56.8,15.1,56.9,15.1z"/>
	<path class="st3" d="M56.9,14.7C56.9,14.7,56.9,14.7,56.9,14.7C56.9,14.7,56.9,14.7,56.9,14.7z"/>
	<path class="st3" d="M57,24C56.9,24,56.9,24.2,57,24C57,24,57,24,57,24z"/>
	<path class="st3" d="M57.1,24.3C57.1,24.3,57.1,24.3,57.1,24.3C57.1,24.3,57.1,24.2,57.1,24.3z"/>
	<path class="st3" d="M57.1,24.1C57.1,24.1,57.1,24.1,57.1,24.1C57.2,24.1,57.2,24.1,57.1,24.1z"/>
	<path class="st3" d="M57.1,24c0.1,0.1,0.1-0.3,0.1-0.1C57.3,23.6,57.2,23.8,57.1,24z"/>
	<path class="st3" d="M57.2,24.2C57.2,24.2,57.2,24.3,57.2,24.2C57.2,24.3,57.2,24.2,57.2,24.2z"/>
	<path class="st3" d="M57.4,23.6C57.4,23.4,57.2,23.8,57.4,23.6C57.3,23.8,57.3,23.7,57.4,23.6z"/>
	<path class="st3" d="M57.3,24C57.3,24,57.3,24,57.3,24C57.3,24,57.3,24,57.3,24z"/>
	<path class="st3" d="M57.4,24.1C57.4,24.2,57.4,24.2,57.4,24.1C57.4,24.2,57.4,24.1,57.4,24.1z"/>
	<path class="st3" d="M57.4,23.4L57.4,23.4C57.4,23.5,57.4,23.5,57.4,23.4z"/>
	<path class="st3" d="M57.4,24.1C57.4,24.1,57.4,24.1,57.4,24.1C57.4,24.1,57.4,24.1,57.4,24.1z"/>
	<path class="st3" d="M57.6,23.6C57.6,23.6,57.5,23.7,57.6,23.6C57.5,23.7,57.6,23.6,57.6,23.6z"/>
	<path class="st3" d="M60.1,17.6c0.1-0.7-0.7,1.2-0.8,1.5c-0.1,0,0,0.1-0.1,0.1c0,0,0.2,0.1,0.1,0.1c0,0.1,0,0.1-0.1,0   c-0.1,0.2-0.1,0.1-0.2,0.5c0.1-0.1,0.3-0.4,0,0.1c-0.1,0.1,0,0-0.1-0.1c0,0.1-0.2,0.3-0.1,0.3c-0.4,1-1.1,2.3-1.3,3   c0.8-1,0.9-2.2,1.9-3.8c0,0,0-0.1,0-0.1c-0.1-0.3,0.4-0.7,0.5-1.1c0,0.1-0.2,0.1-0.1-0.1c0,0-0.1,0.3,0,0c0.1-0.1,0-0.1,0.1-0.2   C60,17.8,60.1,17.5,60.1,17.6z"/>
	<path class="st3" d="M57.7,22.2L57.7,22.2C57.7,22.1,57.6,22.2,57.7,22.2z"/>
	<path class="st3" d="M58.2,21.4c-0.1,0.1-0.3,0.8-0.5,1.2C57.6,22.8,58.1,21.6,58.2,21.4z"/>
	<path class="st3" d="M57.8,22.8c0,0.1-0.1,0.3,0,0.1C57.8,22.9,57.9,22.8,57.8,22.8z"/>
	<path class="st3" d="M57.8,21.7C57.9,21.7,57.9,21.7,57.8,21.7C57.9,21.7,57.9,21.7,57.8,21.7z"/>
	<path class="st3" d="M57.9,22.8C57.9,22.8,57.8,22.8,57.9,22.8C57.9,22.8,57.9,22.8,57.9,22.8z"/>
	<path class="st3" d="M57.9,23.1c0.3-0.6,0.6-1.3,0.9-1.9C58.6,21.5,58.1,22.6,57.9,23.1z"/>
	<path class="st3" d="M57.9,22.7C57.9,22.7,57.9,22.7,57.9,22.7C57.9,22.6,57.9,22.7,57.9,22.7z"/>
	<path class="st3" d="M58,22.5C58,22.4,58,22.5,58,22.5C58,22.6,58,22.5,58,22.5z"/>
	<path class="st3" d="M58.1,22.6C58.1,22.6,58.1,22.6,58.1,22.6C58.2,22.6,58.2,22.6,58.1,22.6z"/>
	<path class="st3" d="M58.2,21.1C58.2,21,58.2,21,58.2,21.1C58.2,21,58.1,21,58.2,21.1z"/>
	<path class="st3" d="M58.6,20.4c0,0-0.4,0.8-0.4,0.8C58.1,21.8,59,19.6,58.6,20.4z"/>
	<path class="st3" d="M58.2,22.2L58.2,22.2C58.2,22.3,58.2,22.3,58.2,22.2z"/>
	<path class="st3" d="M58.2,20.9C58.2,20.8,58.2,20.8,58.2,20.9C58.2,21.2,58.4,20.3,58.2,20.9z"/>
	<path class="st3" d="M58.2,22.2C58.3,22.2,58.3,22.1,58.2,22.2C58.3,22.1,58.2,22.2,58.2,22.2z"/>
	<path class="st3" d="M58.2,12.2"/>
	<path class="st3" d="M58.4,20.5C58.6,20.2,58.3,20.4,58.4,20.5C58.3,20.7,58.4,20.6,58.4,20.5z"/>
	<path class="st3" d="M58.4,21.8L58.4,21.8C58.4,21.9,58.4,21.8,58.4,21.8z"/>
	<path class="st3" d="M58.6,20c-0.1,0-0.1,0.2-0.1,0.2C58.4,20.5,58.6,20.1,58.6,20z"/>
	<path class="st3" d="M58.6,21.3c0,0-0.1,0.1-0.1,0.2C58.6,21.4,58.6,21.3,58.6,21.3z"/>
	<path class="st3" d="M58.6,20.4l0.1-0.3C58.7,20.1,58.6,20.4,58.6,20.4z"/>
	<path class="st3" d="M58.7,20l0-0.1C58.7,19.8,58.6,20,58.7,20z"/>
	<path class="st3" d="M58.7,19.8C58.7,19.8,58.7,19.8,58.7,19.8C58.7,19.8,58.7,19.8,58.7,19.8z"/>
	<path class="st3" d="M58.7,19.8L58.7,19.8C58.8,19.7,58.7,19.8,58.7,19.8z"/>
	<path class="st3" d="M59.2,19.1c-0.1,0.2-0.3,0.6-0.4,0.9C58.8,20.1,59.1,19.3,59.2,19.1z"/>
	<path class="st3" d="M58.8,21.1C58.8,21.1,58.8,21.1,58.8,21.1C58.8,21.1,58.8,21.1,58.8,21.1z"/>
	<path class="st3" d="M58.9,19.5C58.9,19.5,58.8,19.5,58.9,19.5C58.7,19.8,58.9,19.5,58.9,19.5z"/>
	<path class="st3" d="M58.8,20C58.8,20,58.8,20,58.8,20C58.8,20,58.8,20,58.8,20z"/>
	<path class="st3" d="M58.8,20.9C58.8,21,58.8,21,58.8,20.9C58.9,21,58.9,20.9,58.8,20.9z"/>
	<path class="st3" d="M59,20.7c0,0.1-0.1,0.2-0.1,0.2C58.9,20.8,59,20.7,59,20.7z"/>
	<path class="st3" d="M59.1,20.3c0,0-0.3,0.7-0.1,0.3C59,20.5,59,20.4,59.1,20.3z"/>
	<path class="st3" d="M58.9,19.3L58.9,19.3C58.9,19.5,59,19.3,58.9,19.3z"/>
	<path class="st3" d="M58.9,10.6C58.9,10.6,59,10.6,58.9,10.6C58.9,10.6,58.9,10.6,58.9,10.6z"/>
	<path class="st3" d="M59.1,20.3c-0.1,0-0.1,0.3-0.1,0.3C59,20.5,59.1,20.5,59.1,20.3z"/>
	<path class="st3" d="M59.1,20.1c0,0-0.1,0.1-0.1,0.2C59.1,20.2,59,20.1,59.1,20.1z"/>
	<path class="st3" d="M59.1,20.2c0,0-0.1,0.1-0.1,0.2C59.1,20.3,59.2,20.2,59.1,20.2z"/>
	<path class="st3" d="M59.1,10.2C59.1,10.2,59.2,10.2,59.1,10.2C59.1,10.2,59.1,10.2,59.1,10.2z"/>
	<path class="st3" d="M59.2,19.9c0,0,0.1-0.2,0.1-0.2C59.3,19.6,59.1,19.9,59.2,19.9z"/>
	<path class="st3" d="M59.2,20.2C59.2,20.1,59.1,20.2,59.2,20.2C59.2,20.2,59.2,20.2,59.2,20.2z"/>
	<path class="st3" d="M59.2,20C59.2,20.1,59.1,20.2,59.2,20C59.2,20.1,59.2,20,59.2,20z"/>
	<path class="st3" d="M59.2,19.9C59.2,19.9,59.2,20,59.2,19.9C59.2,19.9,59.3,19.9,59.2,19.9z"/>
	<path class="st3" d="M59.4,19.6C59.4,19.7,59.3,19.8,59.4,19.6C59.4,19.7,59.5,19.6,59.4,19.6z"/>
	<path class="st3" d="M59.5,18.4C59.5,18.4,59.5,18.4,59.5,18.4C59.5,18.4,59.6,18.4,59.5,18.4z"/>
	<path class="st3" d="M59.6,19.4"/>
	<path class="st3" d="M59.6,18.2C59.6,18.2,59.6,18.3,59.6,18.2C59.5,18.4,59.6,18.2,59.6,18.2z"/>
	<path class="st3" d="M59.6,19.2"/>
	<path class="st3" d="M59.7,18.2c0,0,0.1-0.1,0.1-0.1C59.7,18.1,59.7,18.1,59.7,18.2z"/>
	<path class="st3" d="M59.8,18.9C59.7,19,59.7,19.2,59.8,18.9C59.7,19,59.8,18.9,59.8,18.9z"/>
	<path class="st3" d="M59.9,18.6C59.9,18.6,59.9,18.6,59.9,18.6C59.9,18.6,59.8,18.6,59.9,18.6z"/>
	<path class="st3" d="M60,18.5C60,18.5,59.9,18.5,60,18.5C59.9,18.6,60,18.5,60,18.5z"/>
	<path class="st3" d="M60,18.5C60,18.4,59.9,18.5,60,18.5C60,18.4,60,18.4,60,18.5z"/>
	<path class="st3" d="M60,18.1L60,18.1C60,18.1,60,18.1,60,18.1z"/>
	<path class="st3" d="M60.1,17.7C60.1,17.7,60.1,17.7,60.1,17.7C60.1,17.6,60.1,17.7,60.1,17.7z"/>
	<path class="st3" d="M60.1,18.1C60.1,18.1,60,18.3,60.1,18.1C60.1,18.2,60.1,18.1,60.1,18.1z"/>
	<path class="st3" d="M60.1,18.3"/>
	<path class="st3" d="M60.1,18.3C60.1,18.2,60.2,18.2,60.1,18.3C60.2,18.1,60.2,18.2,60.1,18.3z"/>
	<path class="st3" d="M60.2,18C60.2,18,60.2,18,60.2,18C60.2,18.1,60.2,18,60.2,18z"/>
	<path class="st3" d="M60.2,17.5C60.2,17.5,60.2,17.4,60.2,17.5C60.1,17.4,60.2,17.5,60.2,17.5z"/>
	<path class="st3" d="M60.2,17.3C60.1,17.3,60.2,17.3,60.2,17.3C60.2,17.3,60.2,17.3,60.2,17.3z"/>
	<path class="st3" d="M60.2,17.3C60.2,17.3,60.2,17.3,60.2,17.3C60.2,17.3,60.2,17.3,60.2,17.3z"/>
	<path class="st3" d="M60.3,17.3C60.2,17.2,60.2,17.2,60.3,17.3C60.2,17.3,60.2,17.3,60.3,17.3z"/>
	<path class="st3" d="M60.3,7.4C60.3,7.4,60.3,7.3,60.3,7.4C60.4,7.2,60.3,7.3,60.3,7.4z"/>
	<path class="st3" d="M60.3,17c0.2-0.1,1.1-2.2,1.4-3.1C61.7,13.9,60.6,16.4,60.3,17z"/>
	<path class="st3" d="M60.4,7C60.4,7.1,60.4,7.1,60.4,7C60.4,7.1,60.5,7.1,60.4,7z"/>
	<path class="st3" d="M60.7,6.4C60.8,6.3,60.8,6.3,60.7,6.4C60.8,6.3,60.7,6.3,60.7,6.4z"/>
	<path class="st3" d="M61.9,4.4L61.9,4.4C61.9,4.5,62,4.4,61.9,4.4z"/>
	<path class="st3" d="M68,14.6c0.3-0.1-0.1,0.1-0.1,0.2c0.1-0.1,0.3-0.1,0.1-0.1c1,0,2.4-0.2,3.4-0.4c0.1,0,0.5-0.1,0.4,0   c-0.4,0-0.8,0.2-1.2,0.2c0.3,0,0.8-0.1,1.1,0c-0.1-0.1,0.2,0,0.2-0.1c0,0.1-0.1,0-0.2,0.1c0.9-0.1,0.3-0.1-0.2,0   c0.1-0.1,0.5-0.1,0.4-0.1c0.1,0.1,0.3-0.1,0.4,0c-0.1,0-0.2,0-0.3,0.1c0.4,0,0.3,0,0.6,0c0.1,0-0.2,0.2,0.1,0   c0.3,0-0.4,0.1-0.4,0.1c-0.2,0.1-0.5,0.1-0.5,0.1c0.7-0.1-0.1,0.1-0.5,0.1c0.3,0,1.3-0.2,1,0c0.5,0,1.1-0.2,0.3,0.1   c-0.3,0.3,0.2,0.1,0.7,0.1c-0.3,0.1,0.4,0,0.1,0c-0.8,0.2,0.1,0.2,0.2,0.1c0.2-0.1-0.1,0.1,0.2,0c-0.1,0.2-0.7,0.1-0.6,0.3   c0,0,0.3-0.1,0.3,0c-0.4,0,0.1,0.2,0.2,0.1c-0.2,0.1-0.2,0.1-0.3,0.2c0.1,0-0.1,0,0,0.1c0.2,0,0.2,0.2,0.3,0.1   c0.3,0,0.1,0.2-0.1,0.4c0.2,0,0.5-0.2,0.1,0c-0.1,0.1,0.1,0.1,0.1,0.1c0,0.1-0.1,0.1-0.1,0.1c-0.2,0.2-0.2-0.1-0.6,0.3   c0.1,0,0.3,0,0.3-0.1c0.2,0.1,0.1,0,0,0.2c-0.1,0.1-0.3,0.3-0.1,0.4c-0.2,0.2,0.3,0,0.2,0c0.3,0,0.3-0.1,0.3,0   c0.1,0.2-0.8,0.4-0.7,0.6c-0.4,0.3,0.3,0,0.4,0c-0.2,0.3-1.3,0.6-1.5,0.6c-0.1,0-0.2,0-0.3,0c0.3,0,1.9-0.5,1.2-0.4   c-0.5,0.1-1.2,0.3-1.5,0.3c-0.6,0-1.2,0.2-1.7,0.2c0,0-0.1,0-0.1,0c-0.3,0.1-1.5,0.1-2,0.3c-0.1,0-0.1,0-0.2,0   c-0.1-0.1-0.3,0.1-0.3,0c0,0-1.1,0.1-0.7,0.2c-0.3,0.1-0.3,0.5-0.5,0.8c0.5-1.5-0.2,0.3-0.4,0.8c1.3-3.7-0.9,1.4-1.4,2.7   c0.1,0-0.2,0.2,0,0.1C64,23.7,64,23.9,63.9,24c0.1,0-0.1,0.1,0,0c0,0,0,0,0,0c-0.3,0.3,0.3-0.1,0.3,0.1c0.1,0,0.6-0.2,0.5-0.1   c-0.3,0-0.7,0.2-1,0.2c0.5,0.2,2.1-0.5,0.6-0.1c0.3-0.1,0.5-0.2,1-0.3c-0.1,0.1-0.3,0.1-0.4,0.2c0.2,0,0.6-0.3,0.8-0.3   c-0.8,0.4,1.2-0.6,0.2,0c0.2-0.1,0.5-0.3,0.7-0.4c-0.5,0.4-1.7,0.9-1.9,1c0.9-0.2-0.1,0.2-0.8,0.3c1.9-0.5,1.8-0.3,3.7-1.6   c0,0.1-0.7,0.4-0.5,0.4c-0.3,0.2-0.7,0.4-1,0.6c0.5-0.3-0.2,0.2-0.5,0.3c0.1,0,0.6-0.3,0.2,0c0.3-0.1,0.7-0.3,0.6-0.3   c0.7-0.4,1.3-0.7,1.9-1.1c0,0.1-0.2,0.1-0.3,0.2c0.3-0.1,0.5-0.4,0.8-0.6c-0.3,0.3-0.8,0.6-1.2,0.9c0.2-0.1,0.1,0-0.1,0.1   c0.8-0.4,1.2-0.9,1.6-1.3c0,0.1-0.4,0.4-0.1,0.2c-0.2,0.2,0.2-0.2,0.4-0.3c-0.2,0.4-1.9,1.6-1.5,1.3c0.6-0.3,0.9-0.6,0.2,0   c0.3-0.2,0.7-0.3,0.7-0.4c0-0.1,0.2-0.1,0.2-0.2c-0.2,0.2-0.8,0.7-0.6,0.6c-0.1,0-0.1,0.1-0.1,0.1c-0.5,0.6,0.9-0.3,0.8-0.2   c0.2-0.1,0.2-0.2,0.3-0.2c-0.1,0.1-0.6,0.6-0.4,0.5c-0.1,0.1,0.1,0,0.2,0c-0.2,0.2-0.4,0.4-0.6,0.6c0.6-0.5,1.3-1.1,0.3-0.1   c0.8-0.5,0.5-0.3-0.1,0.3c-0.1-0.1-0.9,0.6-1.6,1.2c0.5-0.2,2-1.2,1.2-0.6c0.1,0-0.4,0.4-0.3,0.3c-0.1,0.1-0.3,0.2-0.4,0.3   c0.3-0.1-0.1,0.3-0.3,0.3c0.1,0,0.2-0.2,0.3-0.2c-0.3,0.2-0.2,0.2,0.1,0.1c-0.1,0-0.1,0.1-0.2,0.2c0.2,0,0.9-0.6,0.9-0.5   c0.4-0.2,0.8-0.6,1.2-0.9c-0.1,0.1-0.5,0.5-0.1,0.2c0.4-0.1-1,0.9-1.4,1.3c0.1-0.1,0.2-0.1,0.3-0.2c-0.5,0.4-1.9,1.2-1.4,1   c-0.1,0.1-0.4,0.3-0.5,0.4c4.5-2.2-3.7,2.3-5.9,1.9c0.1-0.1,0.2-0.1,0.3-0.1c-0.5,0-1.1,0.1-1.6,0.1c2.9-0.2,5.7-0.8,8.2-2.4   c-2.3,1.3-5.1,2.2-7.8,2.3c-0.2,0-0.5,0-0.9,0.1c-0.9,0.1-1,0.2-1.2,0.1c-0.6-0.4,1.3-4.7,2.9-8.9c1.1-2.9,1.9-5,3.4-8.3   c0.4-1,1.4-2.6,2-3.3c1.2-1.5,2.6-2.6,4.3-3.4c-1.1,0.5-2.1,1.1-3,2c0-0.1,0.2-0.2,0.3-0.3c-0.3,0.2,0.2-0.2,0,0   c0-0.1,0.2-0.2,0.1,0c1.3-1,1-0.8,2.4-1.7c0,0.1,0.1,0,0.1,0c-0.2,0,0.7-0.3,0.9-0.4c-0.4,0.2,1.5-0.5,1.1-0.4c1-0.2,2-0.4,2.9-0.3   c-0.1,0.1-0.4,0.1-0.4,0.2c0,0-0.2,0-0.3,0c0.4,0,1-0.1,1.4,0c-0.4,0-0.8,0-0.7,0c0.4,0.1,1.1,0,1.2,0.2c-0.4,0-0.7,0-0.7,0.1   c1.3,0.2-1.5,0-0.4,0.2c-0.1,0.1,0,0,0.1,0c0,0-0.2,0-0.1,0c0.2,0,1.5,0.2,0.8,0.2c0.1,0.1,0.3,0.1,0.4,0.1c-0.2,0-0.5-0.1-0.7-0.1   c0.2,0.1,0.4,0.1,0.5,0.1c-0.6-0.1-0.1,0.1,0.5,0.3c-1.3-0.1-0.6,0-0.4,0.1c0.3,0.4,0.5,0.3,0.5,0.5c-0.2,0-0.4-0.1-0.5-0.1   c0.2,0.1,0.4,0.2,0.6,0.3c-0.2,0-0.6,0-0.2,0.1c-0.3,0-0.8-0.1-0.2,0.1c-0.2,0.1-0.2,0.1,0,0.1c-0.3,0.1-0.3,0,0,0.1   c-0.3-0.1-0.6,0-0.1,0.1c-0.2,0.1-0.6,0.1,0,0.2c-0.6,0.1,0,0.2,0.3,0.4c-1-0.1-0.6,0.1-1.4,0.1c0.5,0,1.5,0.1,0.4,0.1   C76.5,7.8,74.7,8,75.8,8c-0.2,0-0.7,0.3-0.4,0.3c0-0.1,0.2-0.1,0.2,0.1C71.7,8.4,68.3,13.3,68,14.6z"/>
	<path class="st3" d="M58.3,29.3C58.3,29.3,58.3,29.3,58.3,29.3C58.2,29.3,58.3,29.3,58.3,29.3z"/>
	<path class="st3" d="M58.7,26.2C58.7,26.2,58.7,26.3,58.7,26.2C58.7,26.2,58.7,26.2,58.7,26.2z"/>
	<path class="st3" d="M60.1,22.5C60.1,22.5,60.1,22.5,60.1,22.5C60.1,22.4,60.1,22.5,60.1,22.5z"/>
	<path class="st3" d="M60.7,29.1C60.7,29,60.7,29.1,60.7,29.1C60.7,29.1,60.7,29.1,60.7,29.1z"/>
	<path class="st3" d="M60.9,20.6C60.9,20.6,60.9,20.6,60.9,20.6C60.9,20.6,60.9,20.6,60.9,20.6z"/>
	<path class="st3" d="M61.2,19.7C61.2,19.7,61.2,19.7,61.2,19.7C61.2,19.7,61.2,19.7,61.2,19.7z"/>
	<path class="st3" d="M61.3,29.1C61.3,29.1,61.3,29.1,61.3,29.1C61.3,29.1,61.3,29.1,61.3,29.1z"/>
	<path class="st3" d="M62,28.8C62,28.8,61.9,28.8,62,28.8C61.9,28.8,62,28.8,62,28.8z"/>
	<path class="st3" d="M62.9,24.7L62.9,24.7C62.9,24.7,62.8,24.8,62.9,24.7z"/>
	<path class="st3" d="M63,24.4C63,24.4,63.1,24.3,63,24.4C63,24.3,63,24.4,63,24.4z"/>
	<path class="st3" d="M63.4,24c-0.1,0.2-0.3,0.6-0.3,0.8C63.1,24.6,63.3,24.2,63.4,24z"/>
	<path class="st3" d="M64.2,22.3c0.2,0,0,0.3,0,0.1c0,0.1-0.4,0.5-0.2,0.6c0-0.3,0.2-0.3,0,0c0,0.1-0.5,0.5-0.5,1   c0.1,0-0.5,0.9-0.2,0.8c0,0.1,0.3-0.1,0.3-0.1c-0.4,0,0-0.3,0.1-0.4c-0.1,0.1,0,0.1-0.1,0.1c0,0,0,0,0,0c0-0.2,0,0.1,0.1-0.2   c0,0,0-0.1,0-0.1c0,0,0-0.1,0.1-0.2c0,0,0,0,0,0c0.1-0.1,0.2-0.3,0.1-0.3c0.1-0.1,0.3-1,0.6-1.2c0.1-0.4,0.9-2.2,0.6-1.7   c0.2-0.3,0.1-0.7,0.3-0.8l0-0.1C65.3,19.2,64.5,21.8,64.2,22.3z"/>
	<path class="st3" d="M63.3,23.8C63.3,23.8,63.3,23.8,63.3,23.8C63.2,23.8,63.2,23.9,63.3,23.8z"/>
	<path class="st3" d="M63.4,23.6c-0.1,0,0,0.1-0.1,0.1C63.3,23.8,63.3,23.7,63.4,23.6z"/>
	<path class="st3" d="M63.7,23.1c-0.1,0-0.2,0.6-0.1,0.2c0,0.1-0.3,0.6-0.1,0.4c-0.3,0.5,0.1,0,0.2-0.4   C63.7,23.3,63.7,23.2,63.7,23.1z"/>
	<path class="st3" d="M63.4,23.5C63.3,23.6,63.5,23.5,63.4,23.5C63.6,23.2,63.3,23.4,63.4,23.5z"/>
	<path class="st3" d="M63.4,24.5C63.4,24.5,63.5,24.5,63.4,24.5C63.4,24.5,63.5,24.4,63.4,24.5z"/>
	<path class="st3" d="M63.4,24.5C63.4,24.5,63.5,24.4,63.4,24.5C63.4,24.5,63.4,24.5,63.4,24.5z"/>
	<path class="st3" d="M63.5,24.3C63.5,24.3,63.4,24.5,63.5,24.3C63.5,24.4,63.5,24.3,63.5,24.3z"/>
	<path class="st3" d="M63.5,24.3C63.5,24.3,63.5,24.3,63.5,24.3C63.5,24.3,63.5,24.3,63.5,24.3z"/>
	<path class="st3" d="M63.6,23.1c-0.1,0-0.1,0.1-0.1,0.2C63.4,23.5,63.6,23.2,63.6,23.1z"/>
	<path class="st3" d="M63.6,24.7C63.6,24.7,63.6,24.7,63.6,24.7L63.6,24.7C63.6,24.7,63.6,24.7,63.6,24.7z"/>
	<path class="st3" d="M63.6,23.1L63.6,23.1C63.6,22.9,63.5,23.1,63.6,23.1z"/>
	<path class="st3" d="M63.6,23.3C63.6,23.3,63.7,23,63.6,23.3C63.6,23.3,63.6,23.3,63.6,23.3z"/>
	<path class="st3" d="M63.7,25.1C63.6,25.1,63.6,25.2,63.7,25.1C63.7,25.1,63.7,25.1,63.7,25.1z"/>
	<path class="st3" d="M63.7,24.7C63.6,24.8,63.7,24.7,63.7,24.7C63.7,24.7,63.5,24.7,63.7,24.7z"/>
	<path class="st3" d="M63.6,23C63.6,23,63.6,22.9,63.6,23C63.6,22.9,63.6,22.9,63.6,23z"/>
	<path class="st3" d="M63.6,25.1L63.6,25.1C63.8,25.1,63.7,25.1,63.6,25.1z"/>
	<path class="st3" d="M63.6,22.9L63.6,22.9C63.7,22.9,63.6,22.9,63.6,22.9z"/>
	<path class="st3" d="M64,23.5c-0.2,0.2-0.5,1.2-0.2,0.6c-0.1,0,0.1-0.1,0,0C63.9,23.9,63.9,23.7,64,23.5C64,23.5,64,23.5,64,23.5z"/>
	<path class="st3" d="M63.8,22.6c0,0.1-0.1,0.1-0.1,0.2C63.7,22.8,63.8,22.6,63.8,22.6z"/>
	<path class="st3" d="M63.7,24.7C63.9,24.7,64,24.6,63.7,24.7c0.1-0.1,0.1-0.1,0.1-0.1L63.7,24.7C63.7,24.7,63.8,24.7,63.7,24.7z"/>
	<path class="st3" d="M63.8,24C63.7,24,63.7,24,63.8,24C63.8,24,63.8,24,63.8,24z"/>
	<path class="st3" d="M63.7,24L63.7,24C63.8,24,63.7,24.1,63.7,24z"/>
	<path class="st3" d="M64.2,22.1c-0.1,0.2-0.7,1.6-0.3,0.7C64,22.5,64.1,22.3,64.2,22.1z"/>
	<path class="st3" d="M63.8,23.9C63.8,23.9,63.8,23.9,63.8,23.9C63.8,23.9,63.8,23.9,63.8,23.9z"/>
	<path class="st3" d="M63.8,23.1C63.8,23.1,63.8,23,63.8,23.1C63.8,23.1,63.8,23.1,63.8,23.1z"/>
	<path class="st3" d="M63.8,24.9L63.8,24.9C63.9,24.8,63.8,24.8,63.8,24.9z"/>
	<path class="st3" d="M63.8,24.1C63.8,24.1,63.8,24.1,63.8,24.1L63.8,24.1z"/>
	<path class="st3" d="M63.9,25C63.9,25,63.8,25.1,63.9,25C63.9,25,63.9,25,63.9,25z"/>
	<path class="st3" d="M63.9,22.3L63.9,22.3C63.8,22.6,63.9,22.4,63.9,22.3z"/>
	<path class="st3" d="M63.9,24.4C63.9,24.4,63.9,24.4,63.9,24.4C63.9,24.4,63.9,24.4,63.9,24.4z"/>
	<path class="st3" d="M63.9,23.6C63.8,23.7,63.9,23.7,63.9,23.6C63.9,23.6,63.9,23.6,63.9,23.6z"/>
	<path class="st3" d="M63.9,22.8C63.9,22.8,63.9,22.8,63.9,22.8C63.9,22.8,63.9,22.8,63.9,22.8z"/>
	<path class="st3" d="M64,24.5C64,24.5,64,24.5,64,24.5C64,24.5,64,24.5,64,24.5z"/>
	<path class="st3" d="M64,24.6C64,24.6,63.9,24.6,64,24.6L64,24.6z"/>
	<path class="st3" d="M64,23.5C64,23.5,64,23.5,64,23.5C64,23.5,64,23.5,64,23.5z"/>
	<path class="st3" d="M64,24.6C64,24.6,64,24.6,64,24.6C64,24.6,64,24.6,64,24.6z"/>
	<path class="st3" d="M64,23.4c0,0,0.1-0.2,0.1-0.2C64,23.2,64,23.3,64,23.4C64,23.3,64,23.4,64,23.4z"/>
	<path class="st3" d="M64.1,23.1C64,23.1,64,23.2,64.1,23.1C64.1,23.2,64,23.1,64.1,23.1z"/>
	<path class="st3" d="M64,23.4C64,23.4,64,23.4,64,23.4C64.1,23.4,64.1,23.4,64,23.4z"/>
	<path class="st3" d="M64,23.4C64,23.4,64,23.4,64,23.4C64.1,23.3,64.1,23.3,64,23.4z"/>
	<path class="st3" d="M64.1,24.6C64.1,24.6,64.1,24.6,64.1,24.6C64.1,24.5,64.1,24.6,64.1,24.6z"/>
	<path class="st3" d="M64.1,25C64.1,25,64.1,24.9,64.1,25C64.1,25,64.1,25,64.1,25z"/>
	<path class="st3" d="M64.1,12.7"/>
	<path class="st3" d="M64.2,23.2c0,0-0.1,0.1-0.1,0.1C64.1,23.3,64.1,23.2,64.2,23.2z"/>
	<path class="st3" d="M64.2,22.8c0,0.1-0.1,0.1-0.1,0.2C64.1,23.1,64.2,22.8,64.2,22.8z"/>
	<path class="st3" d="M64.1,24.5C64.1,24.5,64.2,24.4,64.1,24.5C64.1,24.5,64.1,24.5,64.1,24.5z"/>
	<path class="st3" d="M64.1,23.2C64.1,23.2,64.2,23.2,64.1,23.2C64.1,23.1,64.1,23.2,64.1,23.2z"/>
	<path class="st3" d="M64.2,23.1C64.2,23.1,64.1,23.1,64.2,23.1C64.1,23.1,64.2,23.1,64.2,23.1z"/>
	<path class="st3" d="M64.1,24.3C64.1,24.3,64.1,24.3,64.1,24.3C64.1,24.3,64.2,24.3,64.1,24.3z"/>
	<path class="st3" d="M64.1,24.8C64.1,24.8,64.2,24.8,64.1,24.8C64.2,24.8,64.2,24.8,64.1,24.8z"/>
	<path class="st3" d="M64.1,24.3C64.2,24.3,64.2,24.3,64.1,24.3C64.2,24.3,64.2,24.3,64.1,24.3z"/>
	<path class="st3" d="M64.2,23.1C64.2,23.1,64.1,23.2,64.2,23.1C64.2,23.1,64.2,23.1,64.2,23.1z"/>
	<path class="st3" d="M64.2,23C64.2,23,64.2,23.1,64.2,23C64.2,23,64.2,23,64.2,23z"/>
	<path class="st3" d="M64.2,24.9C64.2,24.9,64.2,24.9,64.2,24.9C64.2,24.9,64.2,24.9,64.2,24.9z"/>
	<path class="st3" d="M64.2,24.8C64.3,24.8,64.3,24.7,64.2,24.8C64.2,24.8,64.2,24.8,64.2,24.8z"/>
	<path class="st3" d="M64.3,24.9C64.3,24.9,64.2,24.9,64.3,24.9C64.3,24.9,64.3,24.9,64.3,24.9z"/>
	<path class="st3" d="M64.4,22.7c-0.1,0.1-0.1,0.3,0,0.1C64.3,22.8,64.4,22.7,64.4,22.7z"/>
	<path class="st3" d="M64.4,24.5C64.5,24.5,64.4,24.4,64.4,24.5C64.3,24.5,64.4,24.5,64.4,24.5z"/>
	<path class="st3" d="M64.4,22.3C64.4,22.3,64.4,22.4,64.4,22.3C64.4,22.4,64.4,22.3,64.4,22.3z"/>
	<path class="st3" d="M64.7,24.8c-0.1,0-0.2,0.1-0.2,0.1C64.2,24.9,64.6,24.9,64.7,24.8z"/>
	<path class="st3" d="M64.6,24.6C64.6,24.7,64.5,24.7,64.6,24.6C64.4,24.8,65,24.5,64.6,24.6z"/>
	<path class="st3" d="M64.5,22.3"/>
	<path class="st3" d="M64.6,21C64.6,21,64.6,21,64.6,21C64.6,21.1,64.7,21,64.6,21z"/>
	<path class="st3" d="M64.6,22"/>
	<path class="st3" d="M64.7,20.9C64.7,20.9,64.7,20.9,64.7,20.9C64.7,20.9,64.7,20.9,64.7,20.9z"/>
	<path class="st3" d="M64.8,24.8c0-0.1-0.1,0-0.1,0C64.7,24.9,64.7,24.8,64.8,24.8z"/>
	<path class="st3" d="M64.8,20.7c0,0-0.1,0.1-0.1,0.1C64.6,21,64.7,20.7,64.8,20.7z"/>
	<path class="st3" d="M64.7,21.6C64.7,21.6,64.7,21.6,64.7,21.6C64.7,21.6,64.7,21.6,64.7,21.6z"/>
	<path class="st3" d="M64.8,21.7c-0.1,0.1-0.1,0.3,0,0.1C64.8,21.8,64.8,21.7,64.8,21.7z"/>
	<path class="st3" d="M64.8,24.8C64.8,24.7,64.8,24.7,64.8,24.8C64.8,24.7,64.8,24.7,64.8,24.8z"/>
	<path class="st3" d="M64.8,20.7c0,0,0.1-0.2,0.1-0.2C64.9,20.5,64.9,20.6,64.8,20.7z"/>
	<path class="st3" d="M65.7,24.3c-0.3,0.2-0.5,0.2-0.7,0.4C64.8,24.8,65.6,24.4,65.7,24.3z"/>
	<path class="st3" d="M65,21.2C65,21.2,64.9,21.3,65,21.2C65,21.2,65,21.2,65,21.2z"/>
	<path class="st3" d="M65,21.2C65,21.2,65,21.2,65,21.2C65,21.2,65,21.2,65,21.2z"/>
	<path class="st3" d="M65,24.1C65,24.1,65,24.1,65,24.1C65,24.1,65,24.1,65,24.1z"/>
	<path class="st3" d="M65.1,21.1C65,21.1,65,21.1,65.1,21.1C65.1,21.1,65.1,21.1,65.1,21.1z"/>
	<path class="st3" d="M65.1,20.2C65.1,20.2,65.1,20.2,65.1,20.2C65.1,20.2,65.1,20.2,65.1,20.2z"/>
	<path class="st3" d="M65.1,21C65.1,20.9,65,21,65.1,21C65.2,20.9,65.2,20.9,65.1,21z"/>
	<path class="st3" d="M65.1,24C65.1,24.1,65.1,24.1,65.1,24C65.1,24,65.1,24,65.1,24z"/>
	<path class="st3" d="M65.1,20.5L65.1,20.5C65.1,20.6,65.2,20.5,65.1,20.5z"/>
	<path class="st3" d="M65.2,24.7C65.2,24.6,65.1,24.6,65.2,24.7C65.1,24.7,65.2,24.7,65.2,24.7z"/>
	<path class="st3" d="M65.6,23.8c-0.2,0.1-0.3,0.1-0.4,0.2C65.2,24,65.5,23.9,65.6,23.8z"/>
	<path class="st3" d="M65.3,20.5C65.3,20.4,65.2,20.6,65.3,20.5C65.2,20.8,65.3,20.6,65.3,20.5z"/>
	<path class="st3" d="M65.2,20.7"/>
	<path class="st3" d="M65.3,24.4L65.3,24.4C65.2,24.4,65.3,24.4,65.3,24.4z"/>
	<path class="st3" d="M65.3,20.6C65.3,20.6,65.2,20.7,65.3,20.6C65.3,20.6,65.4,20.5,65.3,20.6z"/>
	<path class="st3" d="M65.3,19.9C65.3,19.8,65.3,20,65.3,19.9C65.3,19.9,65.3,19.9,65.3,19.9z"/>
	<path class="st3" d="M65.5,24.5C65,24.7,65.6,24.6,65.5,24.5c0.1-0.1,0.2-0.1,0.3-0.2C66,24.2,65.2,24.6,65.5,24.5z"/>
	<path class="st3" d="M65.3,20.4C65.3,20.4,65.3,20.5,65.3,20.4C65.3,20.5,65.3,20.4,65.3,20.4z"/>
	<path class="st3" d="M65.4,20.3C65.4,20.3,65.3,20.4,65.4,20.3C65.3,20.4,65.4,20.4,65.4,20.3z"/>
	<path class="st3" d="M65.3,10.3C65.3,10.3,65.3,10.3,65.3,10.3C65.3,10.3,65.3,10.3,65.3,10.3z"/>
	<path class="st3" d="M65.4,10.2C65.4,10.2,65.4,10.2,65.4,10.2C65.4,10.2,65.4,10.2,65.4,10.2z"/>
	<path class="st3" d="M65.4,19.5c0,0,0,0.1,0,0.1C65.4,19.6,65.4,19.6,65.4,19.5z"/>
	<path class="st3" d="M65.4,19.4C65.4,19.4,65.4,19.4,65.4,19.4C65.5,19.4,65.5,19.4,65.4,19.4z"/>
	<path class="st3" d="M65.5,19.4C65.5,19.4,65.5,19.4,65.5,19.4C65.5,19.4,65.5,19.4,65.5,19.4z"/>
	<path class="st3" d="M65.6,27.8c0,0-0.1,0-0.1,0.1C65.5,27.8,65.6,27.8,65.6,27.8z"/>
	<path class="st3" d="M65.5,19.3C65.5,19.3,65.5,19.4,65.5,19.3C65.5,19.3,65.5,19.3,65.5,19.3z"/>
	<path class="st3" d="M65.6,24.5C65.6,24.5,65.6,24.5,65.6,24.5C65.6,24.5,65.6,24.5,65.6,24.5z"/>
	<path class="st3" d="M65.7,23.7c-0.1,0-0.1,0-0.1,0.1C65.6,23.9,65.7,23.8,65.7,23.7z"/>
	<path class="st3" d="M65.7,24.5L65.7,24.5C65.6,24.5,65.7,24.5,65.7,24.5z"/>
	<path class="st3" d="M65.7,27.8C65.7,27.8,65.8,27.7,65.7,27.8C65.8,27.7,65.7,27.8,65.7,27.8z"/>
	<path class="st3" d="M65.7,24.3C65.7,24.3,65.7,24.3,65.7,24.3C65.7,24.3,65.7,24.3,65.7,24.3z"/>
	<path class="st3" d="M65.8,9.6L65.8,9.6C65.7,9.7,65.8,9.6,65.8,9.6z"/>
	<path class="st3" d="M65.9,24.2C65.9,24.2,65.9,24.2,65.9,24.2C65.8,24.3,65.8,24.3,65.9,24.2z"/>
	<path class="st3" d="M65.8,27.8C65.8,27.8,65.9,27.8,65.8,27.8C65.8,27.8,65.8,27.8,65.8,27.8z"/>
	<path class="st3" d="M65.9,19.3C65.9,19.3,65.9,19.3,65.9,19.3C65.9,19.3,65.9,19.3,65.9,19.3z"/>
	<path class="st3" d="M65.9,19.2C65.9,19.3,65.9,19.3,65.9,19.2C65.9,19.3,65.9,19.2,65.9,19.2z"/>
	<path class="st3" d="M65.9,27.7c0.1,0,0.7-0.3,0.4-0.2C66.2,27.6,66,27.7,65.9,27.7z"/>
	<path class="st3" d="M66,9.4C66,9.4,66,9.3,66,9.4C66,9.3,66,9.4,66,9.4z"/>
	<path class="st3" d="M66.1,19.2C66.1,19.2,66.1,19.3,66.1,19.2C66.1,19.3,66.1,19.3,66.1,19.2z"/>
	<path class="st3" d="M66.1,9.2C66.1,9.2,66.1,9.2,66.1,9.2C66.1,9.2,66.1,9.2,66.1,9.2z"/>
	<path class="st3" d="M66.4,19.1C66.4,19.1,66.4,19.2,66.4,19.1C66.4,19.2,66.4,19.2,66.4,19.1z"/>
	<path class="st3" d="M66.6,27.4C66.6,27.4,66.6,27.4,66.6,27.4C66.6,27.4,66.6,27.4,66.6,27.4z"/>
	<path class="st3" d="M66.8,27.3c0.3-0.1,0.6-0.3,0.1-0.1C66.8,27.3,66.7,27.3,66.8,27.3z"/>
	<path class="st3" d="M67.3,15.1C67.2,15.1,67.2,15.2,67.3,15.1C67.2,15.2,67.2,15.2,67.3,15.1z"/>
	<path class="st3" d="M67.3,19.1"/>
	<path class="st3" d="M67.3,14.9c0.1,0,0.2-0.4,0.1-0.3C67.4,14.8,67.3,14.9,67.3,14.9z"/>
	<path class="st3" d="M67.4,14.6c0.1,0,0.1-0.2,0.1-0.3c0,0.1,0,0.1-0.1,0.1C67.5,14.5,67.5,14.5,67.4,14.6z"/>
	<path class="st3" d="M67.7,15.1C67.7,15.2,67.7,15.2,67.7,15.1C67.8,15,67.2,15.3,67.7,15.1z"/>
	<path class="st3" d="M67.6,14.3C67.6,14.3,67.6,14.3,67.6,14.3C67.6,14.3,67.6,14.3,67.6,14.3z"/>
	<path class="st3" d="M67.7,26.2C67.7,26.2,67.8,26.2,67.7,26.2C67.7,26.2,67.7,26.2,67.7,26.2z"/>
	<path class="st3" d="M67.8,23.4c0,0,0.2-0.1,0.2-0.1C67.9,23.4,67.9,23.4,67.8,23.4z"/>
	<path class="st3" d="M67.9,23.7L67.9,23.7C67.8,23.8,67.9,23.7,67.9,23.7z"/>
	<path class="st3" d="M68,15.1C68,15.1,68,15.1,68,15.1C67.5,15.2,68.7,15.1,68,15.1z"/>
	<path class="st3" d="M67.9,23.6C67.9,23.6,67.9,23.6,67.9,23.6C67.9,23.6,67.9,23.6,67.9,23.6z"/>
	<path class="st3" d="M75.1,8.3c-3-0.1-7.3,4.2-7.2,6.5C68.7,12.2,71.5,8.6,75.1,8.3C75,8.3,75.1,8.3,75.1,8.3z"/>
	<path class="st3" d="M68.2,25.4C68.3,25.4,68.3,25.3,68.2,25.4C68.3,25.3,68.3,25.3,68.2,25.4z"/>
	<path class="st3" d="M68.3,15.1C68.3,15.1,68.3,15,68.3,15.1C68.3,15,68.3,15,68.3,15.1z"/>
	<path class="st3" d="M68.3,15.1C68.3,15.1,68.3,15.1,68.3,15.1C68.3,15.1,68.3,15.1,68.3,15.1z"/>
	<path class="st3" d="M68.3,15C68.3,15,68.3,15.1,68.3,15C68.3,15,68.3,15,68.3,15z"/>
	<path class="st3" d="M68.4,15.1c0.1-0.1,0.5,0,0.7-0.1c0,0.1,0.1,0,0.1,0.1c0-0.2,0-0.1,0.1-0.1c0,0,0.3,0,0.1-0.1   c0,0-0.1,0.1-0.1,0c0.2,0,0.5,0.1,0.9,0c0.1-0.1,0.6,0,0.7-0.1c-0.1-0.1-0.5-0.1-0.5,0c-0.2,0.1,0.1-0.1-0.1-0.1c0,0-0.1,0-0.1,0   c0,0-0.1,0-0.1,0c-0.3-0.1-0.7,0.2-1.1,0c0,0.2-0.3,0-0.5,0.1c0.2,0-0.1,0.2,0,0.1C68.7,14.9,68.5,15,68.4,15.1   C68.4,15,68.4,15,68.4,15.1C68.3,15.1,68.4,15.1,68.4,15.1z"/>
	<path class="st3" d="M68.3,15C68.4,15.1,68.4,15,68.3,15C68.4,15,68.3,15,68.3,15z"/>
	<path class="st3" d="M68.4,25.2"/>
	<path class="st3" d="M68.4,15C68.4,15,68.5,15,68.4,15C68.5,15,68.5,15,68.4,15z"/>
	<path class="st3" d="M68.5,14.8C68.5,14.8,68.5,14.8,68.5,14.8C68.5,14.8,68.5,14.8,68.5,14.8z"/>
	<path class="st3" d="M68.6,14.8C68.6,14.8,68.6,14.8,68.6,14.8C68.6,14.8,68.6,14.8,68.6,14.8z"/>
	<path class="st3" d="M68.6,14.7C68.6,14.7,68.6,14.7,68.6,14.7C68.6,14.7,68.6,14.7,68.6,14.7z"/>
	<path class="st3" d="M68.6,14.9C68.6,14.9,68.6,14.9,68.6,14.9C68.6,14.9,68.6,14.9,68.6,14.9z"/>
	<path class="st3" d="M68.6,14.7"/>
	<path class="st3" d="M68.7,15.1C68.7,15.1,68.7,15.1,68.7,15.1C68.7,15.1,68.7,15.1,68.7,15.1z"/>
	<path class="st3" d="M68.7,14.7C68.7,14.8,68.7,14.8,68.7,14.7C68.7,14.7,68.7,14.7,68.7,14.7z"/>
	<path class="st3" d="M68.7,15.2C68.7,15.2,68.8,15.2,68.7,15.2C68.8,15.2,68.8,15.2,68.7,15.2z"/>
	<path class="st3" d="M68.8,14.8C68.8,14.8,68.8,14.7,68.8,14.8C68.7,14.7,68.8,14.8,68.8,14.8z"/>
	<path class="st3" d="M68.9,23.8C68.9,23.8,68.9,23.8,68.9,23.8C68.6,24,69,23.8,68.9,23.8z"/>
	<path class="st3" d="M68.8,14.8C68.8,14.8,68.8,14.8,68.8,14.8C68.8,14.8,68.8,14.8,68.8,14.8z"/>
	<path class="st3" d="M68.8,15.2C68.8,15.2,68.8,15.2,68.8,15.2C68.9,15.2,68.8,15.1,68.8,15.2z"/>
	<path class="st3" d="M68.9,24.4c0,0,0.1-0.1,0.1-0.1C69,24.3,68.9,24.4,68.9,24.4z"/>
	<path class="st3" d="M69,14.7C69,14.8,69,14.7,69,14.7C68.9,14.7,68.9,14.8,69,14.7z"/>
	<path class="st3" d="M69.1,24L69.1,24C68.9,24.2,69.4,23.8,69.1,24z"/>
	<path class="st3" d="M69.1,24C69.1,24,69.2,24,69.1,24C69.2,23.9,69.1,24,69.1,24z"/>
	<path class="st3" d="M69.1,14.7"/>
	<path class="st3" d="M69.5,15.2C69.6,15.2,69.6,15.2,69.5,15.2C69.5,15.1,68.8,15.2,69.5,15.2z"/>
	<path class="st3" d="M69.3,14.7C69.3,14.7,69.4,14.7,69.3,14.7C69.3,14.7,69.3,14.7,69.3,14.7z"/>
	<path class="st3" d="M69.3,15.3C69.3,15.3,69.3,15.3,69.3,15.3C69.3,15.3,69.3,15.3,69.3,15.3z"/>
	<path class="st3" d="M69.4,14.9C69.5,14.8,69.4,14.8,69.4,14.9C69.3,14.9,69.4,14.9,69.4,14.9z"/>
	<path class="st3" d="M69.4,15.3C69.4,15.3,69.4,15.3,69.4,15.3C69.4,15.3,69.4,15.3,69.4,15.3C69.5,15.3,69.5,15.3,69.4,15.3z"/>
	<path class="st3" d="M69.4,14.8C69.4,14.8,69.4,14.8,69.4,14.8C69.4,14.8,69.4,14.8,69.4,14.8z"/>
	<path class="st3" d="M69.6,5.8C69.4,5.9,69.3,6,69.6,5.8C69.6,5.8,69.6,5.8,69.6,5.8z"/>
	<path class="st3" d="M69.5,14.8C69.5,14.8,69.5,14.7,69.5,14.8C69.5,14.8,69.4,14.7,69.5,14.8z"/>
	<path class="st3" d="M69.5,15.3C69.5,15.3,69.5,15.3,69.5,15.3C69.5,15.3,69.5,15.3,69.5,15.3z"/>
	<path class="st3" d="M69.5,14.7C69.5,14.7,69.5,14.7,69.5,14.7C69.5,14.7,69.5,14.7,69.5,14.7z"/>
	<path class="st3" d="M69.5,14.8C69.5,14.8,69.6,14.8,69.5,14.8C69.6,14.8,69.5,14.7,69.5,14.8z"/>
	<path class="st3" d="M69.5,14.8C69.5,14.9,69.6,14.8,69.5,14.8C69.6,14.8,69.5,14.8,69.5,14.8z"/>
	<path class="st3" d="M69.5,15.3C69.5,15.3,69.5,15.3,69.5,15.3C69.5,15.3,69.5,15.3,69.5,15.3z"/>
	<path class="st3" d="M69.6,15.3C69.6,15.3,69.6,15.3,69.6,15.3C69.6,15.3,69.6,15.3,69.6,15.3z"/>
	<path class="st3" d="M69.6,15.1C69.6,15.1,69.6,15.1,69.6,15.1C69.6,15.1,69.6,15.1,69.6,15.1z"/>
	<path class="st3" d="M69.6,14.7c0,0,0.1,0,0.1,0C69.7,14.7,69.6,14.7,69.6,14.7z"/>
	<path class="st3" d="M69.6,14.8c0,0,0.2,0,0.1,0C69.7,14.7,69.6,14.8,69.6,14.8z"/>
	<path class="st3" d="M69.6,15.3c0,0.1,0.1,0,0.1,0C69.9,15.3,69.7,15.2,69.6,15.3z"/>
	<path class="st3" d="M69.6,15.1c0.1,0,0.4-0.1,0.2,0c0.1,0,0.4,0,0.3-0.1c0,0,0.1,0,0.1,0.1C70.3,15,69.8,15.1,69.6,15.1z"/>
	<path class="st3" d="M69.8,15.1c0,0-0.1,0-0.1,0C69.7,15.1,69.7,15.2,69.8,15.1z"/>
	<path class="st3" d="M69.8,14.7C69.8,14.7,69.8,14.7,69.8,14.7C69.7,14.6,69.7,14.7,69.8,14.7z"/>
	<path class="st3" d="M69.9,15.3C69.8,15.2,69.8,15.2,69.9,15.3C69.7,15.2,69.9,15.4,69.9,15.3C69.9,15.3,69.9,15.3,69.9,15.3   C69.9,15.2,69.9,15.2,69.9,15.3z"/>
	<path class="st3" d="M69.9,5.6c0,0-0.1,0-0.1,0.1C69.9,5.7,69.9,5.7,69.9,5.6z"/>
	<path class="st3" d="M69.9,14.7C69.9,14.7,69.9,14.7,69.9,14.7C69.9,14.7,69.9,14.7,69.9,14.7z"/>
	<path class="st3" d="M69.9,15.3C70,15.2,70,15.3,69.9,15.3C70.1,15.2,69.9,15.2,69.9,15.3z"/>
	<path class="st3" d="M70.8,14.6c-0.3,0-0.5,0-0.9,0.1C70,14.7,70.6,14.6,70.8,14.6z"/>
	<path class="st3" d="M70,14.7C70,14.7,70.1,14.7,70,14.7C70.1,14.7,70,14.7,70,14.7z"/>
	<path class="st3" d="M70.1,15.2C70.1,15.2,70.1,15.2,70.1,15.2C70.1,15.2,70.1,15.3,70.1,15.2z"/>
	<path class="st3" d="M70.1,5.5C70.1,5.5,70.1,5.6,70.1,5.5C70.1,5.6,70.1,5.5,70.1,5.5z"/>
	<path class="st3" d="M70.2,15.1c0.1,0.1,0.3,0,0.5-0.1C70.8,14.9,70.3,15,70.2,15.1z"/>
	<path class="st3" d="M70.3,14.7C70.3,14.7,70.3,14.7,70.3,14.7C70.3,14.7,70.3,14.7,70.3,14.7z"/>
	<path class="st3" d="M70.4,15.2C70.4,15.2,70.4,15.2,70.4,15.2C70.4,15.2,70.4,15.2,70.4,15.2z"/>
	<path class="st3" d="M70.4,14.7C70.4,14.7,70.4,14.7,70.4,14.7C70.4,14.6,70.4,14.7,70.4,14.7z"/>
	<path class="st3" d="M70.4,14.6C70.5,14.6,70.5,14.7,70.4,14.6C70.5,14.6,70.4,14.6,70.4,14.6z"/>
	<path class="st3" d="M70.6,5.2C70.6,5.2,70.6,5.2,70.6,5.2C70.6,5.2,70.6,5.2,70.6,5.2z"/>
	<path class="st3" d="M70.6,15.2C70.6,15.2,70.6,15.2,70.6,15.2C70.6,15.2,70.6,15.2,70.6,15.2z"/>
	<path class="st3" d="M70.6,14.6C70.6,14.6,70.6,14.5,70.6,14.6C70.6,14.5,70.6,14.5,70.6,14.6z"/>
	<path class="st3" d="M70.6,14.7C70.6,14.8,70.6,14.8,70.6,14.7C70.6,14.7,70.6,14.7,70.6,14.7z"/>
	<path class="st3" d="M70.7,14.8C70.7,14.8,70.7,14.8,70.7,14.8C70.7,14.7,70.6,14.7,70.7,14.8z"/>
	<path class="st3" d="M70.7,5.2C70.7,5.2,70.7,5.2,70.7,5.2C70.7,5.2,70.7,5.2,70.7,5.2z"/>
	<path class="st3" d="M70.7,14.7C70.7,14.7,70.7,14.7,70.7,14.7C70.7,14.7,70.7,14.7,70.7,14.7z"/>
	<path class="st3" d="M70.7,5.2C70.8,5.2,70.8,5.2,70.7,5.2C70.8,5.2,70.7,5.2,70.7,5.2z"/>
	<path class="st3" d="M70.8,14.8C70.8,14.7,70.8,14.7,70.8,14.8C70.8,14.7,70.7,14.7,70.8,14.8z"/>
	<path class="st3" d="M70.9,5.1C70.9,5.1,70.9,5.1,70.9,5.1C70.9,5.1,70.9,5.1,70.9,5.1z"/>
	<path class="st3" d="M71.1,14.8C71.1,14.9,71.1,14.8,71.1,14.8C71.1,14.8,71.1,14.8,71.1,14.8z"/>
	<path class="st3" d="M71.1,14.6C71.1,14.6,71.1,14.6,71.1,14.6C71.1,14.6,71.1,14.6,71.1,14.6z"/>
	<path class="st3" d="M71.1,5C71.1,5,71.2,5,71.1,5C71.1,5,71.1,5,71.1,5z"/>
	<path class="st3" d="M71.2,14.8C71.2,14.9,71.2,14.8,71.2,14.8C71.1,14.8,71.1,14.9,71.2,14.8z"/>
	<path class="st3" d="M71.2,14.8c0,0.1,0.1,0.1,0.1,0C71.2,14.9,71.2,14.8,71.2,14.8z"/>
	<path class="st3" d="M71.3,14.7C71.3,14.7,71.3,14.7,71.3,14.7C71.3,14.7,71.3,14.7,71.3,14.7z"/>
	<path class="st3" d="M71.3,14.5C71.3,14.6,71.3,14.6,71.3,14.5C71.3,14.5,71.3,14.5,71.3,14.5z"/>
	<path class="st3" d="M71.3,14.6C71.3,14.6,71.3,14.5,71.3,14.6C71.3,14.5,71.3,14.5,71.3,14.6z"/>
	<path class="st3" d="M71.4,14.8C71.4,14.8,71.4,14.8,71.4,14.8C71.3,14.8,71.4,14.8,71.4,14.8z"/>
	<path class="st3" d="M71.4,15C71.4,15,71.5,15,71.4,15C71.4,15,71.4,15,71.4,15z"/>
	<path class="st3" d="M71.4,14.7C71.4,14.7,71.4,14.7,71.4,14.7C71.4,14.7,71.4,14.7,71.4,14.7z"/>
	<path class="st3" d="M71.4,15.1C71.4,15.1,71.4,15.2,71.4,15.1C71.4,15.1,71.4,15.2,71.4,15.1z"/>
	<path class="st3" d="M71.4,15.2C71.4,15.1,71.4,15.2,71.4,15.2C71.4,15.2,71.5,15.2,71.4,15.2z"/>
	<path class="st3" d="M71.4,14.8C71.4,14.8,71.4,14.8,71.4,14.8C71.4,14.7,71.4,14.8,71.4,14.8z"/>
	<path class="st3" d="M71.5,15.1C71.5,15.1,71.5,15.1,71.5,15.1C71.5,15.1,71.5,15.1,71.5,15.1z"/>
	<path class="st3" d="M71.6,14.7C71.7,14.7,71.6,14.7,71.6,14.7C71.5,14.8,71.8,14.7,71.6,14.7z"/>
	<path class="st3" d="M71.6,15.1C71.6,15.1,71.6,15.1,71.6,15.1C71.6,15.1,71.6,15.1,71.6,15.1z"/>
	<path class="st3" d="M71.6,15C71.7,15,71.7,14.9,71.6,15C71.6,14.9,71.6,14.9,71.6,15z"/>
	<path class="st3" d="M71.7,15.1C71.7,15.1,71.7,15.1,71.7,15.1C71.7,15.1,71.7,15.1,71.7,15.1z"/>
	<path class="st3" d="M71.7,15.1C71.7,15.1,71.7,15.1,71.7,15.1C71.7,15.1,71.7,15,71.7,15.1z"/>
	<path class="st3" d="M71.9,15.1c-0.1,0-0.1,0.1-0.1,0C71.7,15.1,72,15.2,71.9,15.1z"/>
	<path class="st3" d="M71.9,15c0,0-0.1,0-0.1,0C71.7,15.1,71.9,15.1,71.9,15z"/>
	<path class="st3" d="M71.9,14.9C71.9,14.9,71.9,14.9,71.9,14.9c-0.1,0-0.1,0-0.1,0C71.7,14.9,71.9,14.9,71.9,14.9z"/>
	<path class="st3" d="M71.9,14.9C71.9,14.9,72,14.9,71.9,14.9C71.9,14.9,71.9,14.9,71.9,14.9z"/>
	<path class="st3" d="M72,15.1C72,15,71.9,15.1,72,15.1C71.9,15.1,72,15.1,72,15.1z"/>
	<path class="st3" d="M72,15C72,15,72,15,72,15C72,15,72,15,72,15z"/>
	<path class="st3" d="M72.4,15c0.2-0.1-0.2,0-0.3,0C71.9,15.1,72.3,15,72.4,15z"/>
	<path class="st3" d="M72.1,14.5C72.1,14.5,72.1,14.5,72.1,14.5C72.1,14.5,72.1,14.5,72.1,14.5z"/>
	<path class="st3" d="M72.2,14.5C72.2,14.5,72.2,14.5,72.2,14.5C72.2,14.5,72.2,14.5,72.2,14.5z"/>
	<path class="st3" d="M72.2,15.1C72.2,15.1,72.2,15,72.2,15.1C72.2,15.1,72.2,15.1,72.2,15.1z"/>
	<path class="st3" d="M72.3,14.5C72.5,14.5,72.3,14.4,72.3,14.5C72.3,14.5,72.3,14.5,72.3,14.5C72.2,14.5,72.3,14.5,72.3,14.5z"/>
	<path class="st3" d="M72.3,14.8C72.3,14.8,72.3,14.8,72.3,14.8C72.2,14.8,72.3,14.9,72.3,14.8z"/>
	<path class="st3" d="M72.4,15c-0.2,0.1,0.1,0,0.1-0.1C72.4,15,72.3,15,72.4,15z"/>
	<path class="st3" d="M72.4,14.5C72.5,14.5,72.5,14.5,72.4,14.5C72.4,14.5,72.4,14.5,72.4,14.5z"/>
	<path class="st3" d="M72.5,15.1C72.4,15.1,72.4,15.1,72.5,15.1C72.4,15.1,72.5,15.1,72.5,15.1z"/>
	<path class="st3" d="M72.4,14.9C72.5,14.9,72.5,14.9,72.4,14.9C72.5,14.9,72.4,14.9,72.4,14.9z"/>
	<path class="st3" d="M72.5,14.9C72.5,14.9,72.5,15,72.5,14.9C72.5,14.9,72.5,14.9,72.5,14.9z"/>
	<path class="st3" d="M72.6,18.1C72.6,18.1,72.6,18.1,72.6,18.1C72.6,18.1,72.6,18.1,72.6,18.1z"/>
	<path class="st3" d="M72.7,18.2C72.7,18.2,72.8,18.1,72.7,18.2C72.7,18.1,72.7,18.1,72.7,18.2z"/>
	<path class="st3" d="M72.8,4.5C72.8,4.5,72.8,4.5,72.8,4.5C72.8,4.5,72.8,4.5,72.8,4.5z"/>
	<path class="st3" d="M72.9,18C72.9,18.1,72.9,18,72.9,18C72.7,18.1,73,18.1,72.9,18z"/>
	<path class="st3" d="M73.2,15.4C73.2,15.4,73.2,15.4,73.2,15.4C73.1,15.4,73.2,15.5,73.2,15.4z"/>
	<path class="st3" d="M73.2,15.1C73.2,15.2,73.2,15.1,73.2,15.1C73.2,15.1,73.2,15.1,73.2,15.1z"/>
	<path class="st3" d="M73.3,17C73.3,17,73.3,17,73.3,17C73.3,17,73.3,17,73.3,17z"/>
	<path class="st3" d="M73.3,16.9"/>
	<path class="st3" d="M73.5,16C73.5,16.1,73.5,16,73.5,16C73.5,16,73.4,16,73.5,16z"/>
	<path class="st3" d="M73.5,16.5C73.5,16.5,73.5,16.5,73.5,16.5C73.5,16.5,73.5,16.5,73.5,16.5z"/>
	<path class="st3" d="M73.6,16.3C73.6,16.4,73.6,16.3,73.6,16.3C73.5,16.3,73.6,16.4,73.6,16.3z"/>
	<path class="st3" d="M73.6,16.3C73.6,16.3,73.6,16.3,73.6,16.3C73.6,16.3,73.6,16.3,73.6,16.3z"/>
	<path class="st3" d="M75,4.3L75,4.3C74.8,4.4,75,4.4,75,4.3z"/>
	<path class="st3" d="M99,10.4c0.6-1.3,1.1-2.5,1.5-3.9c-2.3,6.1-5.5,11.6-8.8,17.1c-0.6,1-1.3,1.9-2,3c0.4-0.4,1.4-2,1.3-1.7   c0,0-0.1,0.2,0,0.1c0,0.1-0.1,0.2-0.1,0c-0.2,0.3-0.2,0.4-0.4,0.6c0-0.2-0.2,0.2-0.3,0.3c0.2,0-0.6,1-0.8,1.3   c0.1-0.2-0.6,0.8-0.5,0.6c-0.3,0.3-1.2,1.8-1.2,1.2c0,0,0.1-0.1,0.1-0.2c-0.1,0.1-0.6,1-0.4,0.5c0.2-0.2,0,0,0.1-0.2   c-0.8,1.2-0.1-0.2-0.6,0.3c0-0.1,0.5-0.9,0.2-0.5c0-0.1,0,0-0.1,0c0.1-0.3-0.7,0.7-0.4,0.2c-0.4,0.3-0.1,0,0-0.2   c-0.4,0.3-0.1-0.1-0.6,0.4c0.4-0.8,0.2-0.4,0-0.3c0-0.2-0.6,0.5-0.3,0c-0.6,0.4,0.4-0.6-0.4,0.1c0.1-0.2,0.1-0.7-0.1-0.4   c0.1-0.4-0.3,0.2-0.1-0.3c-0.5,0.3,0.1,0-0.1-0.2c-0.1,0.2-0.1,0.1-0.2,0.1c0.2-0.6-0.3,0.2-0.1-0.1c0-0.3-0.1-0.2-0.1,0   c-0.1-0.1-0.2,0.1-0.4,0.3c0-0.1,0.2-0.5,0.2-0.4c0.1-0.1,0.1-0.4,0.1-0.2c0.1-0.4,0,0,0-0.1c0.3-1.1-0.7,1,0-0.3   c0,0-0.2,0.2-0.1,0c0-0.2,0-0.5-0.1-0.7c-0.1,0.2-0.1-0.2-0.1-0.3c0,0.4-0.1-0.2-0.1,0.2c-0.1-0.4-0.1,0.5-0.1,0.4   C84,27.5,84,27.8,84,28.1c-0.1-0.2-0.2-0.3-0.2-1.2c0,0.1,0,0.1,0,0.2c0-0.9-0.1-0.9-0.1-1.3c-0.1,0.4-0.1,0.8-0.1,1.2   c-0.2-0.9,0-2.8,0.1-3.3c0.1-0.2,0-0.4,0.1-0.6c-0.2,1.1-0.3,2.2-0.3,3.3c0.2-2.7,0.5-5.2,1.1-7.8c0,0,0,0.1,0,0.1   c0.3-1.3,0.6-3,0.9-4.4c-0.2,0.3-0.5,0.6-0.7,1c0-0.1-0.1,0.1-0.1,0.1c0,0,0.1-0.1,0.1-0.1c-2.3,3.2-4.2,6.6-6.1,9.9   c0.5-0.7,1.6-2.6,0.7-1c0-0.1-0.1,0.2-0.2,0.3c0.2,0-0.5,0.9-0.6,1.2c0.1-0.3-0.5,0.8-0.4,0.6c-0.3,0.4-0.9,1.8-0.9,1.2   c0,0,0-0.1,0.1-0.1c-0.1,0.1-0.4,1-0.3,0.5c0.2-0.3,0,0,0-0.2c-0.6,1.3-0.1-0.2-0.5,0.3c0.3-0.9,0-0.5-0.1,0.3   c0-0.3,0.1-0.5,0.1-0.8c0,0,0,0,0,0c-0.2,0.2-0.1,0.4-0.2,0.3c0,0,0,0.1,0,0c-0.1,0.1-0.2,0.5-0.1,0.1c-0.3,0.3-0.1,0,0-0.2   c-0.2,0.1-0.3,0.9-0.2,0.4c-0.1,0.2-0.1,0.4-0.1,0.6c0-0.2,0.1-0.6,0-0.7c0,0,0,0.1,0,0c-0.1-0.1-0.1,0.9-0.1,1c0-0.1,0-0.4,0-0.1   c-0.1,0.5-0.1-0.3,0-0.8c-0.1,0,0.2-0.6,0-0.3c-0.2,1.1-0.1-0.4-0.2,0.5c-0.1-0.3-0.1,0.4-0.1,0.4c0-0.4,0-0.6-0.1-0.6   c0.1-0.6-0.4,0.7-0.2,0.1c-0.1,0-0.1,0.5-0.1,0.3c-0.1,0.6-0.1-0.3-0.1-0.2c-0.1,0.1,0-0.2-0.1-0.5c0,0.4-0.1,1.1-0.1,0.3   c0-0.4-0.1,0.6-0.1,0.2c0,0.1-0.1-0.5,0-0.5c0-0.2,0-0.2,0.1,0c0-0.2,0-0.7-0.1-0.5c-0.3,0.9,0-0.7-0.5,0.4c0-0.3,0.2-0.6,0.2-0.9   c0,0.1-0.1,0.2-0.1,0.2c0.1-1.1-0.3,0.9-0.3,1.1c0-0.1,0-0.5-0.1-0.1c-0.2,0.3,0-0.8-0.1-1.1c0,0.1,0,0.1,0,0.2c0-0.9,0-0.9,0-1.4   c-0.1,0.4-0.1,0.9-0.1,1.3c-0.2-1,0.1-2.9,0.2-3.5c0.1-0.2,0.1-0.4,0.1-0.7c-0.2,1.2-0.4,2.3-0.4,3.5c0.3-2.9,0.7-5.5,1.4-8.2   c0,0,0,0.1,0,0.1c0.9-3.6,1.7-7.2,3-10.6c-0.4,0.7-1,2.7-0.5,1c0,0.1,0.1-0.2,0.2-0.3c-0.2,0.1,0.3-1,0.3-1.2   c0,0.2,0.4-0.8,0.3-0.6c0.1-0.4,0.7-2,0.7-1.1c0.1-0.1,0.3-1,0.2-0.5c-0.1,0.3,0,0,0,0.1c0.4-1.2,0.2,0.1,0.4-0.4   c0,0.2-0.2,0.8,0,0.4c0.1,0.1,0.4-0.5,0.4-0.4c0,0.3-0.2,0.5,0.1,0.1c-0.2,0.4,0.2,0,0.3-0.2c-0.3,1.3,0.4-0.3,0.3,0.2   c0.4-0.4-0.1,0.6,0.4-0.2c0,0.2,0,0.4,0.1,0.1c-0.1,0.7,0.4-0.2,0.3,0.4C81.4,4.6,81,5.6,81.4,5c0,0,0,0.1,0,0c0,0.3,0.1,0.3,0.2,0   c0,0.5,0.2,0.1,0.3-0.2c-0.1,0.9,0.1,0.5,0,1.3c0.1-0.2,0.1-0.6,0.2-0.8c0,0.2,0,0.3-0.1,0.5c0.2-0.4,0,1.2,0.2,0.3   c0.5,1.6-1.5,5.1-1.9,7.8c-0.5,1.4,3.9-5,5.4-6.7c-0.6,0.8-1.3,1.7-2,2.5c0.5-0.6,1-1.3,1.6-1.9c-0.1,0.2,0.1-0.1,0.1-0.1   c-0.3,0.2,0.2-0.3,0.3-0.4c0,0.1-0.3,0.3-0.3,0.4c0.3-0.3,0.6-0.8,0.9-1.1c-0.2,0.1-0.3,0.4-0.4,0.5c0.2-0.4-0.8,0.9-0.9,1   c0.1-0.2,0.8-1,0.7-0.9c0.3-0.2,0.5-0.6,0.7-0.8c-0.2,0.2-0.3,0.4-0.4,0.6c0.2-0.2,0.5-0.6,0.7-0.8c0,0.1-0.1,0.1-0.2,0.2   c0.7-0.7,0.2,0,0.7-0.7c-0.4,0.7-1.5,1.8-1.5,2c1.3-1.5-0.2,0.3-0.7,1c1-1.2,3.2-3.5,2.7-2.9c-0.1,0.2-0.4,0.4-0.5,0.7   c0.2-0.4-0.1,0.5,0.2-0.2c0,0.1-0.1,0.3,0,0.2c0,0,0.1-0.2,0-0.1c0.2-0.3,1.3-1.5,1-1c0.2-0.1,0.3-0.4,0.5-0.5   c-0.3,0.4-0.7,0.8-0.7,1c0.3-0.3,0.6-0.6,0.8-1c-0.2,0.2,0-0.1,0.1-0.3c0,0.1-0.2,0.3,0,0.1c0.8-0.6-1.6,1.9-0.1,0.6   c-0.3,0.3-0.3,0.5,0,0.1c-0.1,0.3,0.4-0.3,0.3-0.3c-0.1,0.2-0.4,0.6-0.3,0.5c-0.2,0.1-0.2,0.5,0,0.1c0,0.2,0.6-0.4,0.3,0   c0.1,0,0.3-0.4,0.3-0.2c0.4-0.5-0.1,0.3,0,0.2c0.2-0.1-0.3,0.5,0.1,0c0.4-0.6-0.2,0.5,0.2,0c0,0.1-0.2,0.6,0,0.2   c-0.2,0.2-0.1,0,0-0.1c0,0.3,0,0.1,0.1,0.1c-0.1,0.4,0.1-0.1,0.1,0c0,0,0,0,0-0.1c-0.1,0.4,0,0.3,0.1,0.2c0,0.2,0.1,0.3,0.1,0   c0,0.1-0.1,0.1-0.1,0.2c0-0.1,0.1-0.3,0.2-0.3c-0.2,0.5,0.1,0.4,0.2-0.1c0,0.2-0.1,1.2,0.1,0.6c0,0.2,0,0.4,0,0.6   c0.1-0.2,0.1-0.6,0.2-0.8c0,0.2,0,0.3,0,0.5c0.2-0.3,0,1.1,0.2,0.3c0.5,1.9-1.7,6.5-2,9.6c0.3-2.9,1.4-6.3,2-9   c-1.4,3.9-2.3,8.7-3.2,12.6c0.2-0.3,0.4-0.7,0.6-1.1c0,0,0,0,0,0c0.5-0.9,1.1-1.9,1.6-2.8c-0.5,1.6-1.9,3-2.4,4.6   c1-1.7,2.8-4.2,3.3-5.7c1.7-2.7,3.1-5.8,4.6-8.8c-0.4,1-0.9,2-1.4,3C95.2,9,95.6,8.1,96,7.3c0,0.2,0.1-0.1,0.1-0.1   c-0.2,0.3,0.2-0.4,0.2-0.5c0,0-0.2,0.4-0.2,0.5c0.2-0.4,0.4-0.9,0.6-1.4c-0.1,0.2-0.2,0.4-0.3,0.6c0.1-0.5-0.5,1.1-0.6,1.2   c0.1-0.2,0.6-1.2,0.5-1.1c0.2-0.3,0.3-0.8,0.5-1.1c-0.1,0.2-0.2,0.5-0.3,0.7c0.2-0.3,0.3-0.7,0.5-1c0,0.1-0.1,0.1-0.1,0.2   c0.2-0.2,0.5-1.1,0.3-0.3c0.1-0.2,0.2-0.4,0.3-0.6c-0.3,0.9-0.7,1.7-1,2.5c0.1,0,0.1-0.2,0.1,0c0.9-1.9-0.1,0.4-0.5,1.2   c0.7-1.4,2.2-4.5,1.9-3.7c-0.1,0.3-0.3,0.6-0.3,0.9c0.2-0.5,0,0.3-0.1,0.5c0.1-0.1,0.2-0.5,0.1-0.1c0.2-0.2,0.3-0.5,0.2-0.5   c0.2-0.3,0.9-2,0.7-1.3c0.1-0.2,0.2-0.5,0.3-0.7c-0.1,0.4-0.3,0.8-0.4,1.1c0.1-0.1,0.1,0,0,0.1c0.2-0.4,0.4-0.8,0.5-1.2   c-0.2,0.2,0-0.1,0.1-0.3c0,0.1-0.1,0.4,0,0.1c0.4-0.7-0.3,1-0.4,1.3c0.1,0.2,0.3-0.9,0.4-0.6c-0.2,0.4-0.1,0.6,0,0.1   c0,0.4,0.3-0.4,0.2-0.2c0-0.1,0.1-0.1,0.1-0.2c0,0.3-0.2,0.8-0.1,0.6c-0.2,0.8,0.5-0.4,0.3,0c0.1,0,0.2-0.5,0.2-0.3   c0.2-0.6,0,0.3,0.1,0.3c0.2-0.1,0,0.3-0.1,0.5c0.2-0.6,0.4-1.2,0.2-0.2C99.9,4.1,100,4,100,3.8c0,0.1-0.2,1.3-0.2,0.7   c-0.2,0.5-0.3,1-0.4,1.4c0.4-0.8,0.7-1.6,0.4-0.3c0.2-0.2,0.1,0.3,0,0.3c0.1-0.1,0-0.2,0.1-0.2c0,0.2,0,0.3,0.1,0   c0,0.1,0,0.1,0,0.2c0.1-0.1,0.3-0.8,0.3-0.7c0.2-0.3,0.3-0.7,0.4-1c0,0.1-0.1,0.5,0,0.2c0.2-0.3-0.2,0.9-0.3,1.3   c0-0.1,0.1-0.2,0.1-0.3c-0.3,1-0.3,1.1-0.4,1.6c0.2-0.4,0.4-1,0.5-1.4c-0.2,1.2-1,3.3-1.4,3.9c-0.1,0.1-0.1,0.3-0.2,0.4   C99.1,10.1,99,10.3,99,10.4z"/>
	<path class="st3" d="M73.5,25.2c0,0,0,0.1,0,0.1C73.5,25.6,73.6,25.3,73.5,25.2z"/>
	<path class="st3" d="M73.5,25.6C73.5,25.6,73.5,25.6,73.5,25.6c0,0-0.1,0.2,0,0.2C73.5,25.8,73.5,25.7,73.5,25.6z"/>
	<path class="st3" d="M73.6,25.1C73.6,25.1,73.6,25.2,73.6,25.1C73.6,25.1,73.6,25.1,73.6,25.1z"/>
	<path class="st3" d="M74.6,27.8c0,0,0,0.1,0,0.1C74.6,27.9,74.7,27.8,74.6,27.8z"/>
	<path class="st3" d="M74.8,28.1C74.8,28.1,74.7,28.2,74.8,28.1C74.8,28.1,74.8,27.9,74.8,28.1z"/>
	<path class="st3" d="M74.8,28.1C74.8,28.1,74.8,28.1,74.8,28.1C74.8,28.2,74.8,28.1,74.8,28.1z"/>
	<path class="st3" d="M75.1,28c0,0,0,0.1,0,0.1C75.1,28.1,75.1,28,75.1,28z"/>
	<path class="st3" d="M75.3,27.9L75.3,27.9C75.3,27.9,75.3,27.9,75.3,27.9z"/>
	<path class="st3" d="M75.3,28C75.3,28,75.3,28,75.3,28C75.3,28,75.3,28,75.3,28z"/>
	<path class="st3" d="M75.7,27.8C75.7,27.8,75.7,27.8,75.7,27.8C75.7,27.8,75.7,27.8,75.7,27.8z"/>
	<path class="st3" d="M76.1,27.8c0,0,0,0.1,0,0.1C76.1,27.8,76.1,27.8,76.1,27.8z"/>
	<path class="st3" d="M76.1,13"/>
	<path class="st3" d="M76.1,27.7c0,0,0,0.1,0,0.1C76.1,27.7,76.2,27.7,76.1,27.7z"/>
	<path class="st3" d="M76.6,11.1C76.6,11.1,76.7,11,76.6,11.1C76.6,11,76.6,11.1,76.6,11.1z"/>
	<path class="st3" d="M77.3,27.4L77.3,27.4C77.4,27.3,77.3,27.4,77.3,27.4z"/>
	<path class="st3" d="M77.4,8.3C77.4,8.3,77.4,8.2,77.4,8.3C77.4,8.1,77.4,8.3,77.4,8.3z"/>
	<path class="st3" d="M77.5,8C77.5,8,77.4,8,77.5,8C77.5,8,77.5,8,77.5,8z"/>
	<path class="st3" d="M77.7,7.2C77.7,7.3,77.7,7.3,77.7,7.2C77.7,7.3,77.7,7.3,77.7,7.2z"/>
	<path class="st3" d="M78.6,25.5C78.6,25.5,78.6,25.6,78.6,25.5C78.6,25.5,78.6,25.5,78.6,25.5z"/>
	<path class="st3" d="M78.6,5.4C78.6,5.4,78.7,5.4,78.6,5.4C78.6,5.4,78.6,5.4,78.6,5.4z"/>
	<path class="st3" d="M79,16.9c-0.1,0.1-0.2,0.4-0.1,0.3C79,17,79,16.9,79,16.9z"/>
	<path class="st3" d="M79,24.8C79,24.8,79,24.8,79,24.8C79,24.8,78.9,24.8,79,24.8z"/>
	<path class="st3" d="M79.1,24.7C79.2,24.6,79.2,24.5,79.1,24.7C79.1,24.6,79.1,24.7,79.1,24.7z"/>
	<path class="st3" d="M79.1,16.4c0.1-0.1,0.1-0.1,0.1-0.3c0,0,0,0,0,0C79.1,16.2,79.1,16.3,79.1,16.4z"/>
	<path class="st3" d="M79.2,16.2c0,0,0.1-0.2,0.1-0.1c0.2-0.6,0.4-1.4,0.5-2C79.6,14.7,79.4,15.4,79.2,16.2   C79.2,16.1,79.2,16.1,79.2,16.2z"/>
	<path class="st3" d="M79.9,15.5c-0.2,0.4-0.5,0.6-0.5,0.9c0.1-0.2,0.2-0.3,0.3-0.5C79.8,15.8,79.9,15.6,79.9,15.5z"/>
	<path class="st3" d="M80.3,14.1c-0.6,0.8-0.9,2.2-0.1,0.5C80,14.9,80.3,14.3,80.3,14.1C80.3,14.1,80.3,14.1,80.3,14.1z"/>
	<path class="st3" d="M79.9,14.6C79.9,14.6,79.9,14.6,79.9,14.6C79.9,14.6,79.9,14.6,79.9,14.6z"/>
	<path class="st3" d="M80,14.3c0.4-0.1,1.7-5.7,2.4-7.5c-0.8,2-1.6,5-2.3,7.2C80,14.1,80,14.2,80,14.3z"/>
	<path class="st3" d="M80,15.6c0.2-0.3,0.3-0.5,0.5-0.7C80.6,14.6,80,15.4,80,15.6z"/>
	<path class="st3" d="M80.5,14.6C80.5,14.6,80.5,14.7,80.5,14.6C80.6,14.7,80.6,14.6,80.5,14.6z"/>
	<path class="st3" d="M80.5,21.9L80.5,21.9C80.6,21.8,80.5,21.9,80.5,21.9z"/>
	<path class="st3" d="M80.6,14.6C80.6,14.6,80.6,14.6,80.6,14.6C80.6,14.6,80.6,14.6,80.6,14.6z"/>
	<path class="st3" d="M80.6,14.6C80.6,14.6,80.6,14.6,80.6,14.6C80.6,14.6,80.6,14.6,80.6,14.6z"/>
	<path class="st3" d="M80.6,14.5C80.7,14.5,80.7,14.4,80.6,14.5C80.6,14.5,80.6,14.5,80.6,14.5z"/>
	<path class="st3" d="M83.8,10.1c-0.3,0.5-2.1,2.7-2.8,3.7c0.1-0.1,0.2-0.1,0,0.1C81,14,81.2,13.6,81,14c0-0.1-0.2,0.4-0.2,0.3   c-0.2,0.7,1-1.3,1.3-1.5c-0.1-0.1,0-0.2,0-0.1c0.2-0.1,0,0,0.1-0.2c0,0.2,0.4-0.5,0.1-0.2c-0.2,0.5,0-0.2,0.2-0.2   c-0.2,0.3,0.1,0.1,0.2-0.1c0.8-1,1.3-1.8,2.1-2.7C84.6,9.1,83.9,10.2,83.8,10.1z"/>
	<path class="st3" d="M80.7,13.9C80.8,13.9,80.8,13.9,80.7,13.9C80.8,13.9,80.8,13.9,80.7,13.9z"/>
	<path class="st3" d="M80.8,21.5C80.8,21.5,80.8,21.5,80.8,21.5C80.8,21.5,80.8,21.5,80.8,21.5z"/>
	<path class="st3" d="M80.8,14.3C80.8,14.3,80.8,14.2,80.8,14.3C80.8,14.3,80.8,14.2,80.8,14.3z"/>
	<path class="st3" d="M80.8,13.7C80.8,13.7,80.9,13.7,80.8,13.7C80.8,13.7,80.8,13.8,80.8,13.7z"/>
	<path class="st3" d="M80.8,13.8C80.8,13.9,80.9,13.7,80.8,13.8C81,13.6,80.8,13.8,80.8,13.8z"/>
	<path class="st3" d="M80.9,13.7"/>
	<path class="st3" d="M81,13.9L81,13.9C81,13.8,80.9,13.9,81,13.9z"/>
	<path class="st3" d="M81,13.5C81,13.5,81.1,13.5,81,13.5C81,13.5,81,13.6,81,13.5z"/>
	<path class="st3" d="M81.1,13.4C81.1,13.4,81.1,13.4,81.1,13.4C81.1,13.4,81.1,13.4,81.1,13.4z"/>
	<path class="st3" d="M81.3,13.8c0,0-0.1,0.1-0.1,0.1C81.2,13.9,81.2,13.9,81.3,13.8z"/>
	<path class="st3" d="M81.2,13.4C81.2,13.4,81.2,13.3,81.2,13.4C81.2,13.4,81.2,13.4,81.2,13.4z"/>
	<path class="st3" d="M81.3,13.8C81.4,13.9,81.4,13.8,81.3,13.8C81.5,13.7,81.3,13.8,81.3,13.8z"/>
	<path class="st3" d="M81.4,13.1C81.4,13,81.5,12.8,81.4,13.1C81.4,13,81.4,13,81.4,13.1z"/>
	<path class="st3" d="M81.5,13.7C81.5,13.7,81.5,13.6,81.5,13.7C81.5,13.6,81.4,13.6,81.5,13.7z"/>
	<path class="st3" d="M81.6,12.9"/>
	<path class="st3" d="M81.7,20"/>
	<path class="st3" d="M81.7,12.7"/>
	<path class="st3" d="M81.8,12.4C81.9,12.4,82,12.2,81.8,12.4C81.9,12.4,81.8,12.4,81.8,12.4z"/>
	<path class="st3" d="M82,13c0.2-0.2,0.4-0.5,0.6-0.7C82.7,12,82.1,12.8,82,13z"/>
	<path class="st3" d="M82.2,12.2c0,0-0.1,0.1-0.1,0.2C82,12.5,82.2,12.2,82.2,12.2z"/>
	<path class="st3" d="M82.1,12.1L82.1,12.1C82.1,12.2,82.1,12.1,82.1,12.1z"/>
	<path class="st3" d="M82.2,12.1C82.2,12,82.3,11.9,82.2,12.1C82.2,12,82.1,12.1,82.2,12.1z"/>
	<path class="st3" d="M82.2,11.9C82.2,12,82.3,11.9,82.2,11.9C82.2,11.9,82.2,11.9,82.2,11.9z"/>
	<path class="st3" d="M82.2,12.9L82.2,12.9C82.4,12.7,82.2,12.8,82.2,12.9z"/>
	<path class="st3" d="M82.3,11.9c0,0,0.1-0.1,0.1-0.1C82.3,11.9,82.3,11.9,82.3,11.9z"/>
	<path class="st3" d="M82.3,12c0,0,0.1-0.1,0.1-0.1C82.4,11.9,82.3,12,82.3,12z"/>
	<path class="st3" d="M82.3,11.8c0.1,0,0.2-0.2,0.2-0.3C82.5,11.6,82.4,11.7,82.3,11.8z"/>
	<path class="st3" d="M82.4,12.7C82.4,12.6,82.4,12.7,82.4,12.7C82.6,12.4,82.4,12.6,82.4,12.7z"/>
	<path class="st3" d="M82.4,11.8c0,0,0.4-0.6,0.2-0.3C82.5,11.6,82.4,11.7,82.4,11.8z"/>
	<path class="st3" d="M82.5,12.2C82.5,12.2,82.5,12.2,82.5,12.2C82.5,12.2,82.5,12.2,82.5,12.2z"/>
	<path class="st3" d="M82.6,12.4L82.6,12.4C82.5,12.5,82.6,12.4,82.6,12.4z"/>
	<path class="st3" d="M82.6,11.5c0-0.1,0.1-0.1,0.1-0.2C82.7,11.3,82.6,11.4,82.6,11.5z"/>
	<path class="st3" d="M82.6,12.4C82.6,12.4,82.6,12.4,82.6,12.4C82.6,12.4,82.6,12.4,82.6,12.4z"/>
	<path class="st3" d="M82.7,12.2L82.7,12.2C82.7,12.4,82.7,12.3,82.7,12.2z"/>
	<path class="st3" d="M82.6,12c0.2-0.1,0.6-0.7,0.3-0.3c0.1-0.1,0.6-0.7,0.4-0.6c0.1-0.1,0.2-0.3,0.1-0.1   C83.5,10.7,82.8,11.8,82.6,12z"/>
	<path class="st3" d="M82.9,11.8L82.7,12C82.7,12.1,82.9,11.8,82.9,11.8z"/>
	<path class="st3" d="M82.7,12.2c0.1,0,0.1-0.1,0.2-0.2C83.1,11.8,82.8,12.1,82.7,12.2z"/>
	<path class="st3" d="M82.7,11.2C82.8,11.2,82.8,11.2,82.7,11.2C82.7,11.2,82.7,11.2,82.7,11.2z"/>
	<path class="st3" d="M82.9,11.1c0.4-0.5,1-1.2,1.4-1.8C83.7,9.8,83.4,10.4,82.9,11.1C82.9,11,82.9,11,82.9,11.1z"/>
	<path class="st3" d="M83.2,11.6C83,11.8,83,12.1,83.2,11.6C83.2,11.7,83.2,11.6,83.2,11.6z"/>
	<path class="st3" d="M83,10.9c0,0,0.1-0.1,0.1-0.1C83.1,10.8,83.1,10.9,83,10.9z"/>
	<path class="st3" d="M83.2,11.6c0.1,0.1,0.1-0.2,0.2-0.1C83.4,11.2,83.2,11.6,83.2,11.6z"/>
	<path class="st3" d="M83.4,11.3C83.4,11.3,83.4,11.3,83.4,11.3C83.4,11.3,83.5,11.3,83.4,11.3z"/>
	<path class="st3" d="M83.4,10.5L83.4,10.5C83.4,10.4,83.4,10.4,83.4,10.5z"/>
	<path class="st3" d="M83.5,10.9C83.6,10.8,83.6,10.9,83.5,10.9c0.3-0.3,0.5-0.7,0.8-1C84.4,9.7,83.6,10.7,83.5,10.9z"/>
	<path class="st3" d="M83.6,10.2C83.6,10.3,83.7,10.2,83.6,10.2C83.6,10.1,83.6,10.2,83.6,10.2z"/>
	<path class="st3" d="M83.6,25.4c0,0,0,0.2,0,0.2C83.7,25.5,83.7,25.4,83.6,25.4z"/>
	<path class="st3" d="M83.7,25.7c0,0-0.1,0.3,0,0.2C83.7,25.9,83.7,25.8,83.7,25.7z"/>
	<path class="st3" d="M83.7,10.1C83.7,10.1,83.7,10,83.7,10.1C83.7,10,83.7,10.1,83.7,10.1z"/>
	<path class="st3" d="M83.7,25.2C83.7,25.2,83.7,25.3,83.7,25.2C83.7,25.2,83.7,25.2,83.7,25.2z"/>
	<path class="st3" d="M83.9,9.7C83.9,9.7,83.9,9.7,83.9,9.7C83.8,9.7,83.8,9.7,83.9,9.7z"/>
	<path class="st3" d="M83.9,10.7C83.9,10.7,83.9,10.7,83.9,10.7C83.9,10.7,83.9,10.7,83.9,10.7z"/>
	<path class="st3" d="M84,9.8C83.9,10,84,9.8,84,9.8C84,9.8,84,9.8,84,9.8z"/>
	<path class="st3" d="M84.1,9.7C84.1,9.7,84.1,9.7,84.1,9.7C84.1,9.8,84.1,9.7,84.1,9.7z"/>
	<path class="st3" d="M84.2,10.3L84.2,10.3C84.2,10.3,84.3,10.3,84.2,10.3z"/>
	<path class="st3" d="M84.2,9.6c0,0,0.1-0.1,0.1-0.2C84.3,9.5,84.2,9.5,84.2,9.6z"/>
	<path class="st3" d="M84.5,27.1C84.5,27.1,84.5,27.1,84.5,27.1C84.5,27.1,84.5,27.1,84.5,27.1z"/>
	<path class="st3" d="M84.5,27.2"/>
	<path class="st3" d="M84.6,27.1C84.6,27.1,84.6,27.1,84.6,27.1C84.6,27.1,84.6,27.1,84.6,27.1z"/>
	<path class="st3" d="M84.7,27.8C84.7,27.8,84.6,27.8,84.7,27.8C84.7,27.8,84.7,27.8,84.7,27.8z"/>
	<path class="st3" d="M84.7,26.9c-0.1-0.1-0.1,0.1-0.1,0.2C84.7,27,84.7,27,84.7,26.9z"/>
	<path class="st3" d="M84.7,8.8C84.7,8.8,84.7,8.8,84.7,8.8C84.7,8.8,84.8,8.8,84.7,8.8z"/>
	<path class="st3" d="M84.7,27.5C84.7,27.5,84.8,27.4,84.7,27.5L84.7,27.5z"/>
	<path class="st3" d="M84.8,9.1L84.8,9.1C84.9,9,84.8,9.1,84.8,9.1z"/>
	<path class="st3" d="M85,8.9C85,8.8,84.8,9.1,85,8.9C85,8.9,85,8.9,85,8.9z"/>
	<path class="st3" d="M85.1,8.7c-0.1,0.1,0,0.1,0,0.1C85.4,8.3,85.1,8.9,85.1,8.7z"/>
	<path class="st3" d="M85,8.3L85,8.3C85,8.4,85.1,8.3,85,8.3z"/>
	<path class="st3" d="M85.2,8.3C85.2,8.3,85.2,8.4,85.2,8.3C85.2,8.4,85.3,8.3,85.2,8.3z"/>
	<path class="st3" d="M85.2,8.5C85.3,8.5,85.3,8.5,85.2,8.5C85.3,8.5,85.2,8.5,85.2,8.5z"/>
	<path class="st3" d="M85.4,8.4C85.3,8.3,85.4,8.3,85.4,8.4C85.3,8.3,85.3,8.4,85.4,8.4z"/>
	<path class="st3" d="M85.4,8.6l0.1-0.1C85.5,8.5,85.3,8.6,85.4,8.6z"/>
	<path class="st3" d="M85.6,8.6c0,0-0.1,0.1-0.1,0.1C85.5,8.7,85.6,8.7,85.6,8.6z"/>
	<path class="st3" d="M85.6,8.7c0,0.1-0.1,0.1-0.1,0.1C85.6,8.8,85.6,8.7,85.6,8.7z"/>
	<path class="st3" d="M85.7,7.9C85.7,7.9,85.6,7.9,85.7,7.9C85.5,8.1,85.9,7.7,85.7,7.9z"/>
	<path class="st3" d="M85.7,8.5L85.7,8.5C85.6,8.6,85.7,8.5,85.7,8.5z"/>
	<path class="st3" d="M85.7,8.2C85.7,8.2,85.8,8.2,85.7,8.2C85.7,8.2,85.7,8.2,85.7,8.2z"/>
	<path class="st3" d="M85.8,8.1C85.8,8.1,85.8,8,85.8,8.1C85.8,8.1,85.8,8.1,85.8,8.1z"/>
	<path class="st3" d="M85.8,8.2C85.8,8.3,85.8,8.3,85.8,8.2C85.8,8.3,85.9,8.3,85.8,8.2z"/>
	<path class="st3" d="M85.9,8.2C85.9,8.1,85.9,8.1,85.9,8.2C85.9,8.1,85.9,8.1,85.9,8.2z"/>
	<path class="st3" d="M86,8.1C86,8.1,86,8,86,8.1C86,8,85.9,8.1,86,8.1z"/>
	<path class="st3" d="M86.3,7.5c-0.1,0.1-0.2,0.2-0.3,0.3C85.9,8,86.3,7.5,86.3,7.5z"/>
	<path class="st3" d="M86.1,8c0.1,0,0.1-0.1,0.2-0.2C86.5,7.5,86.1,7.9,86.1,8z"/>
	<path class="st3" d="M86.3,7.7C86.1,8.1,86,8.2,86.3,7.7C86.3,7.7,86.3,7.7,86.3,7.7z"/>
	<path class="st3" d="M86.4,6.8C86.4,6.8,86.4,6.8,86.4,6.8C86.3,6.8,86.3,6.8,86.4,6.8z"/>
	<path class="st3" d="M86.5,7.6C86.5,7.5,86.4,7.6,86.5,7.6C86.3,7.7,86.5,7.6,86.5,7.6z"/>
	<path class="st3" d="M86.5,7.5L86.5,7.5C86.4,7.6,86.5,7.5,86.5,7.5z"/>
	<path class="st3" d="M86.5,6.6C86.5,6.7,86.5,6.6,86.5,6.6C86.5,6.6,86.5,6.6,86.5,6.6z"/>
	<path class="st3" d="M87.1,6.6c-0.2,0.3-0.4,0.5-0.6,0.7C86.4,7.5,87.1,6.8,87.1,6.6z"/>
	<path class="st3" d="M86.8,6.2c-0.1,0.1-0.2,0.2-0.2,0.3C86.5,6.6,86.8,6.3,86.8,6.2z"/>
	<path class="st3" d="M86.8,6.8L86.8,6.8C86.7,6.9,86.8,6.8,86.8,6.8z"/>
	<path class="st3" d="M86.9,7.1C86.9,7.1,86.8,7.2,86.9,7.1C86.8,7.2,86.9,7.1,86.9,7.1z"/>
	<path class="st3" d="M86.8,6.2c0,0,0.1-0.1,0.1-0.1C86.9,6.2,86.8,6.2,86.8,6.2z"/>
	<path class="st3" d="M87.1,6.8c-0.3,0.5,0.1,0,0.2-0.3C87.2,6.6,86.9,6.9,87.1,6.8z"/>
	<path class="st3" d="M87.2,6.8c0.1-0.1,0.2-0.2,0.2-0.3C87.3,6.6,87.3,6.7,87.2,6.8z"/>
	<path class="st3" d="M87.3,6.5C87.3,6.5,87.3,6.5,87.3,6.5C87.2,6.6,87.2,6.6,87.3,6.5z"/>
	<path class="st3" d="M87.2,6.7L87.2,6.7C87.2,6.8,87.3,6.8,87.2,6.7z"/>
	<path class="st3" d="M87.3,6.7c0,0,0.1-0.1,0.1-0.1C87.4,6.6,87.3,6.6,87.3,6.7z"/>
	<path class="st3" d="M87.4,22.4L87.4,22.4C87.4,22.4,87.4,22.4,87.4,22.4z"/>
	<path class="st3" d="M87.4,6.6C87.4,6.6,87.4,6.6,87.4,6.6L87.4,6.6z"/>
	<path class="st3" d="M87.5,22C87.5,22,87.5,22,87.5,22C87.5,22,87.5,22,87.5,22z"/>
	<path class="st3" d="M87.7,21.9c-0.1,0.1-0.1,0.3-0.1,0.5c0.1-0.1,0.1-0.1,0.1-0.2C87.6,22.1,87.6,22,87.7,21.9z"/>
	<path class="st3" d="M87.6,21.3C87.6,21.4,87.6,21.4,87.6,21.3C87.6,21.4,87.6,21.3,87.6,21.3z"/>
	<path class="st3" d="M87.6,21.2C87.6,21.3,87.6,21.3,87.6,21.2C87.6,21.1,87.7,20.9,87.6,21.2z"/>
	<path class="st3" d="M87.7,21.7L87.7,21.7C87.7,21.7,87.7,21.7,87.7,21.7z"/>
	<path class="st3" d="M87.7,21c0-0.1,0-0.1,0-0.1C87.8,20.6,87.6,21,87.7,21z"/>
	<path class="st3" d="M88,20.5c0,0.1-0.2,0.8-0.1,0.3c0,0.2-0.2,0.7-0.1,0.6c-0.2,0.5,0.1-0.1,0.1-0.6C87.9,20.8,87.9,20.6,88,20.5z   "/>
	<path class="st3" d="M87.8,20.4c-0.1,0-0.1,0.1-0.1,0.2C87.7,20.9,87.8,20.5,87.8,20.4z"/>
	<path class="st3" d="M87.9,21.8C87.8,21.9,87.9,21.7,87.9,21.8c0.2-0.2,0.3-0.9,0.1-0.4c0,0,0,0,0,0C87.8,21.7,87.6,22.4,87.9,21.8   z"/>
	<path class="st3" d="M87.8,20.4l0-0.1C87.8,20.3,87.8,20.4,87.8,20.4z"/>
	<path class="st3" d="M87.8,20.3C87.8,20.3,87.8,20.3,87.8,20.3C87.8,20.3,87.8,20.3,87.8,20.3z"/>
	<path class="st3" d="M88.2,19.7c0.1,0.6-0.1,0.2-0.3,1.7c0.3-0.4,0.2-0.5,0.3-0.6c0.1-0.9,0.3-1.3,0.5-2.2c0,0.1-0.1,0.2-0.1-0.1   c0.1,0.2,0-0.2,0.1-0.4C88.6,17.6,88.3,19.5,88.2,19.7z"/>
	<path class="st3" d="M87.8,20.2L87.8,20.2C87.9,20.1,87.8,20.2,87.8,20.2z"/>
	<path class="st3" d="M87.9,28.8L87.9,28.8C87.9,28.7,87.8,28.8,87.9,28.8z"/>
	<path class="st3" d="M87.9,19.9c0,0.1-0.1,0.3,0,0.1C87.9,20,87.9,19.9,87.9,19.9z"/>
	<path class="st3" d="M87.9,20.8c0-0.1,0.1-0.4,0-0.1C87.9,20.7,87.8,20.8,87.9,20.8z"/>
	<path class="st3" d="M88.1,19.6c-0.1,0.2-0.2,0.6-0.2,0.9c0.1-0.1,0.1-0.4,0.2-0.6C88.1,19.8,88.1,19.7,88.1,19.6z"/>
	<path class="st3" d="M87.9,19.9c0,0,0-0.1,0-0.1C87.9,19.8,87.9,19.9,87.9,19.9z"/>
	<path class="st3" d="M88,20.4C88,20.4,88,20.4,88,20.4C88,20.4,88,20.4,88,20.4z"/>
	<path class="st3" d="M88.1,21.2C88.1,21.2,88.1,21.2,88.1,21.2C88.1,21.2,88.1,21.2,88.1,21.2z"/>
	<path class="st3" d="M88.2,21C88.2,21,88.2,21,88.2,21C88.2,21,88.2,21,88.2,21z"/>
	<path class="st3" d="M88.2,20.6c0,0,0-0.1,0-0.1C88.2,20.4,88.2,20.6,88.2,20.6z"/>
	<path class="st3" d="M88.2,21.2C88.2,21.2,88.2,21.2,88.2,21.2C88.2,21.2,88.2,21.2,88.2,21.2z"/>
	<path class="st3" d="M88.3,20.9c0,0,0,0.1,0,0.1C88.2,21.2,88.3,21,88.3,20.9z"/>
	<path class="st3" d="M88.3,20.7C88.3,20.7,88.3,20.7,88.3,20.7C88.3,20.6,88.2,20.6,88.3,20.7z"/>
	<path class="st3" d="M88.3,18.9C88.3,18.9,88.3,18.9,88.3,18.9C88.2,19,88.3,18.9,88.3,18.9z"/>
	<path class="st3" d="M88.3,20.8c0,0-0.1,0.1,0,0.1C88.3,20.9,88.3,20.8,88.3,20.8z"/>
	<path class="st3" d="M88.3,20.1c0,0.1,0,0.1,0,0.2C88.3,20.4,88.4,20.1,88.3,20.1z"/>
	<path class="st3" d="M88.3,20.6c0-0.1,0.1-0.1,0-0.1C88.3,20.5,88.3,20.6,88.3,20.6z"/>
	<path class="st3" d="M88.3,18.7C88.3,18.7,88.3,18.8,88.3,18.7C88.3,18.9,88.3,18.7,88.3,18.7z"/>
	<path class="st3" d="M88.3,20.3C88.3,20.4,88.3,20.5,88.3,20.3C88.3,20.4,88.4,20.3,88.3,20.3z"/>
	<path class="st3" d="M88.4,20.5C88.4,20.5,88.4,20.5,88.4,20.5C88.3,20.5,88.3,20.5,88.4,20.5z"/>
	<path class="st3" d="M88.4,20.2L88.4,20.2C88.4,20.3,88.4,20.2,88.4,20.2z"/>
	<path class="st3" d="M88.4,18.6c0,0,0,0.1,0,0.1C88.4,18.7,88.4,18.6,88.4,18.6z"/>
	<path class="st3" d="M88.5,20C88.4,20,88.4,20.2,88.5,20C88.5,20,88.5,20,88.5,20z"/>
	<path class="st3" d="M88.5,5.5c0,0,0.1-0.1,0.1-0.1C88.5,5.4,88.5,5.5,88.5,5.5z"/>
	<path class="st3" d="M88.5,19.7"/>
	<path class="st3" d="M88.6,19.3C88.6,19.4,88.6,19.6,88.6,19.3C88.6,19.4,88.7,19.3,88.6,19.3z"/>
	<path class="st3" d="M88.7,5.7L88.7,5.7C88.6,5.8,88.7,5.8,88.7,5.7z"/>
	<path class="st3" d="M88.6,17.9C88.6,17.9,88.7,17.9,88.6,17.9C88.7,17.9,88.7,17.9,88.6,17.9z"/>
	<path class="st3" d="M88.7,18.2C88.6,18.2,88.6,18.3,88.7,18.2C88.7,18.2,88.7,18.2,88.7,18.2z"/>
	<path class="st3" d="M88.7,18.6L88.7,18.6C88.7,18.6,88.7,18.6,88.7,18.6z"/>
	<path class="st3" d="M88.7,19.1C88.7,19,88.7,19,88.7,19.1C88.7,19,88.6,19.1,88.7,19.1z"/>
	<path class="st3" d="M88.7,18.1C88.7,18,88.7,18,88.7,18.1C88.7,18,88.7,18.1,88.7,18.1z"/>
	<path class="st3" d="M88.7,17.9C88.7,17.8,88.7,17.8,88.7,17.9C88.7,17.9,88.7,17.9,88.7,17.9z"/>
	<path class="st3" d="M88.7,17.9C88.7,17.9,88.7,17.9,88.7,17.9C88.7,17.9,88.7,17.9,88.7,17.9z"/>
	<path class="st3" d="M88.7,19C88.7,19,88.7,19,88.7,19C88.7,19,88.8,19,88.7,19z"/>
	<path class="st3" d="M88.8,18.9C88.7,18.9,88.7,18.9,88.8,18.9C88.8,18.9,88.8,18.8,88.8,18.9z"/>
	<path class="st3" d="M88.7,17.8c0.2-0.9,0.5-1.9,0.7-3C89.4,14.8,88.7,17.2,88.7,17.8z"/>
	<path class="st3" d="M88.8,18.6C88.8,18.5,88.8,18.7,88.8,18.6C88.8,18.8,88.8,18.6,88.8,18.6z"/>
	<path class="st3" d="M88.8,18.7"/>
	<path class="st3" d="M88.8,18.5C88.8,18.5,88.8,18.5,88.8,18.5C88.8,18.5,88.8,18.5,88.8,18.5z"/>
	<path class="st3" d="M88.8,18.7C88.9,18.7,88.8,18.7,88.8,18.7C88.8,18.7,88.9,18.6,88.8,18.7z"/>
	<path class="st3" d="M89.5,5.7C89.5,5.7,89.5,5.7,89.5,5.7C89.3,5.9,89.6,5.7,89.5,5.7z"/>
	<path class="st3" d="M89.5,26.9C89.5,26.9,89.5,26.9,89.5,26.9C89.5,26.9,89.5,26.9,89.5,26.9z"/>
	<path class="st3" d="M89.8,5.9C89.8,5.9,89.9,5.8,89.8,5.9C89.8,5.8,89.7,6,89.8,5.9z"/>
	<path class="st3" d="M89.8,5.9C89.8,5.9,89.8,5.9,89.8,5.9C89.8,5.8,89.8,5.9,89.8,5.9z"/>
	<path class="st3" d="M90,26.2C90,26.2,90.1,26.2,90,26.2C90,26.2,90,26.2,90,26.2z"/>
	<path class="st3" d="M90,18.9c0.6-1.1,1.4-2.3,2-3.3C91.9,15.5,90.4,18,90,18.9z"/>
	<path class="st3" d="M90.2,26C90.3,25.9,90.3,25.8,90.2,26C90.2,26,90.1,26,90.2,26z"/>
	<path class="st3" d="M92,23L92,23C92,22.9,92,23,92,23z"/>
	<path class="st3" d="M92,15.3C92.1,15.3,92,15.3,92,15.3C92.1,15.3,92.1,15.3,92,15.3z"/>
	<path class="st3" d="M92.1,15.2C92.1,15.2,92.1,15.2,92.1,15.2C92.1,15.3,92.1,15.3,92.1,15.2z"/>
	<path class="st3" d="M92.1,15.3C92.1,15.3,92.1,15.3,92.1,15.3C92.2,15.3,92.1,15.2,92.1,15.3z"/>
	<path class="st3" d="M92.2,15.1c0,0,0,0.1,0,0.1C92.2,15.1,92.2,15.1,92.2,15.1z"/>
	<path class="st3" d="M92.2,14.5C92.2,14.5,92.2,14.5,92.2,14.5C92.2,14.5,92.2,14.5,92.2,14.5z"/>
	<path class="st3" d="M94.9,9.9c-0.1,0-0.1,0.1-0.1,0.2c0.2-0.1,0,0.2-0.1,0.3c0.1-0.5-0.6,1.2-0.8,1.4c0,0.1-0.5,1.2-0.8,1.5   c0,0.3-0.5,0.7-0.6,1.1c0.1-0.1,0.2-0.1,0,0.1c-0.1,0.1,0.1-0.4-0.1,0c0-0.1-0.1,0.3-0.1,0.1c0,0-0.1,0.5-0.1,0.3   c-0.2,0.7,0.9-1.5,1.1-1.7c-0.1-0.1,0-0.2,0-0.1c0.2-0.2,0,0,0.1-0.2c0.2,0,0.3-0.6,0,0c0.1-0.1,0.1-0.4,0.3-0.5   c-0.1,0.2,0.1,0.1,0.2-0.1c0.6-1.1,1-2.1,1.6-3.2C95.6,8.4,94.8,10.3,94.9,9.9z"/>
	<path class="st3" d="M92.2,14.9C92.3,14.9,92.3,14.9,92.2,14.9C92.3,14.9,92.3,14.9,92.2,14.9z"/>
	<path class="st3" d="M92.3,22.6C92.3,22.6,92.3,22.6,92.3,22.6C92.3,22.6,92.3,22.6,92.3,22.6z"/>
	<path class="st3" d="M92.3,14.3C92.3,14.3,92.3,14.3,92.3,14.3C92.3,14.3,92.2,14.4,92.3,14.3z"/>
	<path class="st3" d="M92.3,14.4C92.4,14.3,92.4,14.2,92.3,14.4C92.3,14.4,92.3,14.4,92.3,14.4z"/>
	<path class="st3" d="M92.3,14.3"/>
	<path class="st3" d="M92.4,14.5L92.4,14.5C92.4,14.4,92.4,14.5,92.4,14.5z"/>
	<path class="st3" d="M92.5,14.1C92.5,14.1,92.5,14,92.5,14.1C92.4,14.1,92.4,14.2,92.5,14.1z"/>
	<path class="st3" d="M92.5,14C92.5,14,92.6,14,92.5,14C92.5,14,92.5,14,92.5,14z"/>
	<path class="st3" d="M92.6,14C92.6,13.9,92.7,13.9,92.6,14C92.6,13.9,92.6,13.9,92.6,14z"/>
	<path class="st3" d="M92.7,14.4c0,0-0.1,0.1-0.1,0.1C92.7,14.5,92.7,14.4,92.7,14.4z"/>
	<path class="st3" d="M92.8,13.6C92.8,13.5,92.9,13.3,92.8,13.6C92.8,13.5,92.7,13.6,92.8,13.6z"/>
	<path class="st3" d="M92.8,14.4C92.8,14.4,92.9,14.3,92.8,14.4C92.9,14.2,92.8,14.4,92.8,14.4z"/>
	<path class="st3" d="M92.9,14.2C92.9,14.2,92.9,14.2,92.9,14.2C93,14.1,92.9,14.2,92.9,14.2z"/>
	<path class="st3" d="M92.9,13.3"/>
	<path class="st3" d="M93,13.1"/>
	<path class="st3" d="M93.2,12.9C93.2,12.8,93.3,12.6,93.2,12.9C93.2,12.8,93.1,12.9,93.2,12.9z"/>
	<path class="st3" d="M93.3,20.9"/>
	<path class="st3" d="M93.5,12.5c0,0-0.1,0.2-0.1,0.2C93.3,12.9,93.5,12.6,93.5,12.5z"/>
	<path class="st3" d="M93.4,13.4c0.2-0.2,0.4-0.7,0.5-0.9C93.9,12.4,93.5,13.2,93.4,13.4z"/>
	<path class="st3" d="M93.4,12.5L93.4,12.5C93.4,12.6,93.4,12.5,93.4,12.5z"/>
	<path class="st3" d="M93.5,12.3L93.5,12.3C93.4,12.5,93.5,12.4,93.5,12.3z"/>
	<path class="st3" d="M93.5,12.3C93.5,12.3,93.5,12.2,93.5,12.3C93.5,12.3,93.5,12.3,93.5,12.3z"/>
	<path class="st3" d="M93.5,12.3c0,0,0.1-0.1,0.1-0.2C93.6,12.2,93.5,12.2,93.5,12.3z"/>
	<path class="st3" d="M93.6,12.1c0.1,0,0.2-0.3,0.2-0.3C93.7,11.9,93.6,12,93.6,12.1z"/>
	<path class="st3" d="M93.6,12.4c0,0,0.1-0.1,0.1-0.2C93.6,12.2,93.6,12.3,93.6,12.4z"/>
	<path class="st3" d="M93.6,13.2L93.6,13.2C93.7,13,93.6,13.2,93.6,13.2z"/>
	<path class="st3" d="M93.9,11.7c-0.1,0.2-0.2,0.3-0.2,0.4c0,0,0.1,0,0-0.1C93.7,12,93.8,11.8,93.9,11.7z"/>
	<path class="st3" d="M93.7,13.1C93.7,13,93.8,13,93.7,13.1C93.9,12.7,93.7,13,93.7,13.1z"/>
	<path class="st3" d="M93.8,11.8c0-0.1,0.1-0.2,0.1-0.2C93.8,11.6,93.8,11.7,93.8,11.8z"/>
	<path class="st3" d="M93.8,12.5C93.8,12.5,93.8,12.5,93.8,12.5C93.8,12.5,93.8,12.5,93.8,12.5z"/>
	<path class="st3" d="M93.9,12.7L93.9,12.7C93.8,12.8,93.9,12.7,93.9,12.7z"/>
	<path class="st3" d="M93.9,11.5C93.9,11.5,93.9,11.5,93.9,11.5C93.9,11.5,93.9,11.5,93.9,11.5z"/>
	<path class="st3" d="M93.9,12.3c0.1-0.2,0.4-0.9,0.2-0.3c0.1-0.2,0.5-0.8,0.3-0.7c0.1-0.1,0.2-0.3,0.1-0.1   C94.6,10.8,94.1,12.1,93.9,12.3z"/>
	<path class="st3" d="M93.9,12.7C93.9,12.7,93.9,12.7,93.9,12.7C93.9,12.7,94,12.7,93.9,12.7z"/>
	<path class="st3" d="M94,12.5l-0.1,0.1C94,12.7,94.1,12.5,94,12.5z"/>
	<path class="st3" d="M94.1,12L94,12.3C94,12.4,94.1,12.1,94.1,12z"/>
	<path class="st3" d="M94,11.3C94,11.3,94,11.3,94,11.3C94,11.3,94,11.3,94,11.3z"/>
	<path class="st3" d="M94,11.3c0.4-0.6,0.8-1.4,1.1-2.1C94.7,9.9,94.4,10.5,94,11.3C94,11.2,94,11.3,94,11.3z"/>
	<path class="st3" d="M94,12.5c0.1,0,0.1-0.2,0.2-0.2C94.3,12,94.1,12.4,94,12.5z"/>
	<path class="st3" d="M94.1,11.1c0,0,0.1-0.1,0.1-0.2C94.2,11,94.2,11.1,94.1,11.1z"/>
	<path class="st3" d="M94.4,11.8C94.2,12,94.2,12.3,94.4,11.8C94.4,11.9,94.4,11.8,94.4,11.8z"/>
	<path class="st3" d="M94.4,11.8c0.1,0.1,0.1-0.2,0.1-0.2C94.6,11.3,94.4,11.7,94.4,11.8z"/>
	<path class="st3" d="M94.5,10.6L94.5,10.6C94.5,10.5,94.4,10.6,94.5,10.6z"/>
	<path class="st3" d="M94.6,11.4C94.6,11.4,94.6,11.4,94.6,11.4C94.6,11.4,94.6,11.4,94.6,11.4z"/>
	<path class="st3" d="M94.6,10.2C94.6,10.2,94.6,10.2,94.6,10.2C94.6,10.3,94.6,10.2,94.6,10.2z"/>
	<path class="st3" d="M94.6,11C94.7,10.9,94.7,11,94.6,11c0.2-0.4,0.4-0.8,0.6-1.2C95.3,9.6,94.7,10.8,94.6,11z"/>
	<path class="st3" d="M94.7,10.1C94.7,10.1,94.7,10.1,94.7,10.1C94.7,10.1,94.6,10.1,94.7,10.1z"/>
	<path class="st3" d="M94.8,9.7C94.8,9.7,94.8,9.7,94.8,9.7C94.7,9.7,94.7,9.7,94.8,9.7z"/>
	<path class="st3" d="M94.9,9.8C94.9,9.9,94.9,9.8,94.9,9.8C94.9,9.7,94.9,9.8,94.9,9.8z"/>
	<path class="st3" d="M95,10.7C95,10.7,94.9,10.7,95,10.7C95,10.7,95,10.7,95,10.7z"/>
	<path class="st3" d="M95,9.6C95,9.7,95,9.6,95,9.6C95,9.7,95,9.7,95,9.6z"/>
	<path class="st3" d="M95.1,9.5C95.1,9.5,95.1,9.5,95.1,9.5C95.1,9.5,95.1,9.5,95.1,9.5z"/>
	<path class="st3" d="M95.1,9.5c0-0.1,0.1-0.3,0-0.1C95.1,9.4,95,9.5,95.1,9.5z"/>
	<path class="st3" d="M95.2,10.2L95.2,10.2C95.2,10.3,95.3,10.2,95.2,10.2z"/>
	<path class="st3" d="M95.4,8.7C95.4,8.6,95.5,8.6,95.4,8.7C95.5,8.6,95.4,8.6,95.4,8.7z"/>
	<path class="st3" d="M95.6,8.8L95.6,8.8C95.6,8.7,95.6,8.8,95.6,8.8z"/>
	<path class="st3" d="M95.6,8.1C95.6,8.1,95.6,8.1,95.6,8.1C95.6,8.1,95.6,8.1,95.6,8.1z"/>
	<path class="st3" d="M95.7,8L95.7,8C95.6,8.1,95.7,8,95.7,8z"/>
	<path class="st3" d="M95.7,8.6C95.7,8.5,95.6,8.9,95.7,8.6C95.7,8.6,95.8,8.6,95.7,8.6z"/>
	<path class="st3" d="M95.7,8.4c-0.1,0.2,0,0.1,0,0.1C96,8,95.8,8.5,95.7,8.4z"/>
	<path class="st3" d="M95.7,8.3C95.7,8.3,95.7,8.3,95.7,8.3C95.7,8.2,95.7,8.3,95.7,8.3z"/>
	<path class="st3" d="M95.9,8L95.9,8C95.8,8.1,95.9,8,95.9,8z"/>
	<path class="st3" d="M95.9,8.1C95.9,8.1,95.9,8.1,95.9,8.1C95.9,8.1,95.9,8.1,95.9,8.1z"/>
	<path class="st3" d="M96,8C96,8,96,7.9,96,8C95.9,7.9,95.9,8,96,8z"/>
	<path class="st3" d="M96,8.3l0.1-0.1C96.1,8.1,96,8.3,96,8.3z"/>
	<path class="st3" d="M96.2,7.4C96.2,7.4,96.2,7.5,96.2,7.4C96.1,7.7,96.4,7.1,96.2,7.4z"/>
	<path class="st3" d="M96.2,8.2c0,0,0,0.1,0,0.1C96.2,8.4,96.3,8.2,96.2,8.2z"/>
	<path class="st3" d="M96.3,8.2c0,0.1-0.1,0.1-0.1,0.1C96.3,8.4,96.3,8.2,96.3,8.2z"/>
	<path class="st3" d="M96.3,7.7C96.3,7.7,96.3,7.7,96.3,7.7C96.3,7.7,96.3,7.7,96.3,7.7z"/>
	<path class="st3" d="M96.3,8.1L96.3,8.1C96.3,8,96.3,8.1,96.3,8.1z"/>
	<path class="st3" d="M96.4,7.5c0,0-0.1,0.1,0,0.1C96.3,7.6,96.4,7.6,96.4,7.5z"/>
	<path class="st3" d="M96.4,7.7C96.4,7.8,96.4,7.8,96.4,7.7C96.4,7.8,96.5,7.7,96.4,7.7z"/>
	<path class="st3" d="M96.5,7.6C96.5,7.6,96.5,7.6,96.5,7.6C96.5,7.6,96.5,7.6,96.5,7.6z"/>
	<path class="st3" d="M96.7,6.8c-0.1,0.1-0.3,0.5-0.1,0.4C96.6,7.1,96.7,6.9,96.7,6.8z"/>
	<path class="st3" d="M96.6,7.4C96.5,7.5,96.5,7.6,96.6,7.4C96.5,7.5,96.6,7.5,96.6,7.4z"/>
	<path class="st3" d="M96.6,6.1C96.6,6.1,96.6,6.1,96.6,6.1C96.6,6.1,96.6,6.1,96.6,6.1z"/>
	<path class="st3" d="M96.8,7c0,0.1-0.1,0.2-0.1,0.3C96.5,7.6,96.8,7.1,96.8,7z"/>
	<path class="st3" d="M96.8,7c-0.1,0.4-0.2,0.6,0,0.1C96.9,7.1,96.8,7.1,96.8,7z"/>
	<path class="st3" d="M96.7,5.9C96.7,6,96.7,5.9,96.7,5.9C96.7,5.9,96.7,5.9,96.7,5.9z"/>
	<path class="st3" d="M96.9,5.4c-0.1,0.2-0.1,0.2-0.2,0.4C96.7,5.9,96.9,5.5,96.9,5.4z"/>
	<path class="st3" d="M96.8,7C96.8,7,96.8,7,96.8,7C96.9,7,96.9,6.7,96.8,7z"/>
	<path class="st3" d="M96.9,6.8L96.9,6.8C96.8,6.9,96.9,6.8,96.9,6.8z"/>
	<path class="st3" d="M97.3,5.7c-0.1,0.4-0.3,0.7-0.4,1c0.1-0.2,0.2-0.4,0.3-0.6C97.2,6,97.3,5.8,97.3,5.7z"/>
	<path class="st3" d="M96.9,5.4c0,0,0.1-0.1,0-0.1C96.9,5.3,96.9,5.4,96.9,5.4z"/>
	<path class="st3" d="M97,6L97,6C97,6.1,97.1,6,97,6z"/>
	<path class="st3" d="M97.2,6.3c0,0-0.1,0.1-0.1,0.1C97.2,6.4,97.2,6.3,97.2,6.3z"/>
	<path class="st3" d="M97.4,5.6c-0.2,0.4-0.2,0.9,0,0.3C97.2,6,97.5,5.7,97.4,5.6z"/>
	<path class="st3" d="M97.3,5.7C97.3,5.7,97.3,5.7,97.3,5.7C97.3,5.7,97.3,5.7,97.3,5.7z"/>
	<path class="st3" d="M97.4,5.6C97.4,5.6,97.4,5.5,97.4,5.6C97.3,5.7,97.3,5.6,97.4,5.6z"/>
	<path class="st3" d="M97.4,5.8L97.4,5.8C97.4,5.9,97.5,5.8,97.4,5.8z"/>
	<path class="st3" d="M98.3,4.1c0.1,0,0.1-0.1,0.1-0.1C98.3,4.1,98.3,4.1,98.3,4.1z"/>
	<path class="st3" d="M98.6,4.3L98.6,4.3C98.5,4.4,98.6,4.3,98.6,4.3z"/>
	<path class="st3" d="M99.4,4c0,0-0.1,0.2,0,0.1C99.3,4.1,99.4,4,99.4,4z"/>
	<path class="st3" d="M99.6,4.1C99.6,4,99.7,4,99.6,4.1C99.6,4,99.6,4.1,99.6,4.1z"/>
	<path class="st3" d="M99.7,4.1C99.7,4.1,99.7,4,99.7,4.1C99.6,4,99.7,4.2,99.7,4.1z"/>
	<path class="st3" d="M99.7,4.4c0,0,0.1-0.1,0-0.1C99.8,4.3,99.7,4.4,99.7,4.4z"/>
	<path class="st3" d="M99.8,5.4C99.9,5.3,99.8,5.3,99.8,5.4C99.8,5.3,99.8,5.3,99.8,5.4z"/>
	<path class="st3" d="M99.8,5.2"/>
	<path class="st3" d="M99.9,7.7C99.9,7.7,99.9,7.8,99.9,7.7C99.9,7.7,99.9,7.7,99.9,7.7z"/>
	<path class="st3" d="M100,7.6c0-0.1,0-0.1,0.1-0.2C100.1,7.3,100,7.6,100,7.6z"/>
	<path class="st3" d="M100.2,6.9c0,0.1-0.1,0.2-0.1,0.3C100.1,7.1,100.3,6.9,100.2,6.9z"/>
</g>
</svg>