<?xml version="1.0" encoding="UTF-8"?>
<!-- Generator: Adobe Illustrator 23.0.0, SVG Export Plug-In . SVG Version: 6.00 Build 0)  -->
<svg version="1.1" id="Layer_1" xmlns="http://www.w3.org/2000/svg" xmlns:xlink="http://www.w3.org/1999/xlink" x="0px" y="0px" viewBox="0 0 135.4 120.2" style="enable-background:new 0 0 135.4 120.2;" xml:space="preserve">
<style type="text/css">
	.st0{display:none;}
	.st1{display:inline;fill:#434A54;}
	.st2{fill:#2D2D2D;}
	.st3{fill:#B49FFC;}
	.st4{fill:#2C2C2C;}
	.st5{fill:#2E2E2E;}
	.st6{fill:#1C1E2E;}
</style>
<g class="st0">
	<path class="st1" d="M88.3,107.4c-0.1,0-0.2,0-0.2,0c-0.2,0-0.4,0-0.7,0c-0.3,0-0.4,0-0.7,0c-1.2,0-2.5,0-3.7,0c-0.2,0-0.4,0-0.7,0   c-0.2,0-0.4,0-0.7,0c-0.1,0-0.2,0-0.2,0c-0.2,0-0.4,0-0.7,0c-0.2,0-0.4,0-0.7,0c-1.2,0-2.5,0-3.7,0c-0.2,0-0.4,0-0.7,0   c-0.3,0-0.4,0-0.7,0c-0.1,0-0.2,0-0.2,0c-0.2,0-0.4,0-0.7,0c-0.3,0-0.4,0-0.7,0c-1.2,0-2.5,0-3.7,0c-0.2,0-0.4,0-0.7,0   c-0.3,0-0.4,0-0.7,0c-0.1,0-0.2,0-0.2,0c-0.2,0-0.4,0-0.7,0c-0.3,0-0.4,0-0.7,0c-1.2,0-2.5,0-3.7,0c-0.2,0-0.4,0-0.7,0   c-0.2,0-0.4,0-0.7,0c-0.1,0-0.2,0-0.2,0c-0.2,0-0.4,0-0.7,0c-0.2,0-0.4,0-0.7,0c-1.2,0-2.5,0-3.7,0c-0.2,0-0.4,0-0.6,0   s-0.4,0-0.6,0c-0.1,0-0.1,0-0.2,0c-0.2,0-0.4,0-0.6,0s-0.4,0-0.6,0c-1.2,0-2.5,0-3.7,0c-0.2,0-0.4,0-0.6,0s-0.4,0-0.6,0   c-0.1,0-0.1,0-0.2,0c-0.2,0-0.4,0-0.6,0s-0.4,0-0.6,0c-1.2,0-2.5,0-3.7,0c-0.2,0-0.4,0-0.6,0s-0.4,0-0.6,0c-0.1,0-0.1,0-0.2,0   c-0.2,0-0.4,0-0.6,0s-0.4,0-0.6,0c-6.5,0.2-5.7-4.4-5.7-8.6c0-15.7,0-31.4,0-47.1c0-0.3-0.2-0.6-0.4-0.9c-3.2,2.6-5.3,1.6-6.8-1.9   c0-0.4,0-0.7,0-1.1c0.2-0.6,0.5-1.1,0.6-1.7c2-7.8,6.7-14.8,6.6-23.3c0-2.5,1.4-4.1,4.1-4.1c5.4,0,10.9,0,16.3,0   c22.9,0,45.8,0,68.6,0c2.3,0,3.9,1.5,3.9,3.5c-0.1,9.3,4.8,17,7.3,25.5c0,0.6,0,1.2,0,1.8c-1.1,2.5-3.2,3.3-5.4,2.1   c-2.2-1.3-1.8-0.1-1.8,1.3c0,15.2,0,30.3,0,45.4c0,4.3,1.2,9.3-5.9,9.1c-0.2,0-0.4,0-0.7,0c-0.2,0-0.4,0-0.7,0c-0.1,0-0.2,0-0.2,0   c-0.2,0-0.4,0-0.7,0c-0.2,0-0.4,0-0.7,0c-5.2,0.5-3.7-3.3-3.7-5.9c-0.1-11.8,0-23.7,0-35.6c0-0.8-0.2-1.1-1.1-1.1   c-6.4,0-12.9,0-19.3,0c-1,0-1.3,0.3-1.3,1.3c0,12.7,0,25.5,0,38.2c0,1-0.1,2.1-0.2,3.1c-0.2,0-0.4,0-0.7,0c-1.2,0-2.5,0-3.7,0   c-0.2,0-0.4,0-0.7,0C88.4,107.4,88.5,107.4,88.3,107.4z M64.7,64.9c-5.3,0-10.6,0-15.9,0c-0.9,0-1.1,0.3-1.1,1.2   c0,8.3,0.4,16.7-0.1,25c-0.3,4.9,2.5,4.2,5.3,4.2c8.1,0,16.3,0,24.4,0c2.6,0,5.1,0.5,4.8-3.9c-0.5-8.3-0.2-16.7-0.1-25.1   c0-1-0.3-1.4-1.3-1.4C75.3,64.9,70,64.9,64.7,64.9z M95.1,43.3C95,43.3,95,43.3,95.1,43.3c0,1.2,0.1,2.3,0.2,3.4   c0.2,2.9,0.6,5.8,3.6,7.2c2.6,1.3,5,0.9,7.1-1.1c3.5-3.4,1-7.3,0.9-11c-0.5-10-1.6-11-11.2-10.8c-1.9,0-1.6,1-1.5,2.1   C94.4,36.5,94.7,39.9,95.1,43.3z M113.9,30.9c-0.3,1-2.3-1.2-1.8,1.1c0.9,4.7,2,9.4,2.9,14.1c0.7,3.9,1.1,8.1,6.3,8.5   c5.1,0.4,7.6-3.2,5.2-10c-1.6-4.7,1.1-12.7-7.7-13.6C117.1,30.8,115.6,30.9,113.9,30.9z M87.4,35.9c-0.8-1.7,1.6-5.6-3.3-5.1   c-2,0.2-4,0.1-6,0c-1.6-0.1-2,0.6-2,2.1c-0.1,4.8-0.3,9.5-0.5,14.3c-0.2,3.7,1.2,6.4,4.9,7.3c3.2,0.8,6-0.6,7-3.8   C88.8,45.9,87.2,41,87.4,35.9z M42.5,54.6c0.5-0.2,1.8-0.3,2.6-1.1c4.8-4.3,3.3-10.8,5.1-16.1c1-2.9,3.6-7.5-3.5-6.5h-0.1   c-2.1,0.4-5.1-1.2-6.2,1.3c-1.6,3.6-2.3,7.6-3.5,11.4C34.8,50.4,36.6,54.6,42.5,54.6z M62.3,54.6c2.2-0.3,4.7-1.4,5.2-4.2   c0.8-5,0.7-10.2,1.7-15.1s-2.1-4.9-4.9-4.3c-2,0.5-5.1-1.8-6,1.1c-1.2,3.8-1.2,7.9-2,11.9C54.8,50.4,56.9,54.6,62.3,54.6z"/>
	<path class="st1" d="M38.3,1.8c29,0,57.9,0,86.9,0c4.5,1.8,3.1,5.8,2.9,9c-0.2,2.6-2.6,3.3-5.1,3.3c-27.5,0-55,0-82.5,0   c-2.5,0-5-0.5-5.1-3.4C35.3,7.6,33.7,3.6,38.3,1.8z"/>
	<path class="st1" d="M68.8,31.6l-10.1-0.4c0,0-0.1-3.8,0-3.9s10.5-4.5,10.6-4.5s4.9,4.2,4.9,4.5s0,0.4,0,0.4l0.4-0.5"/>
	<path class="st1" d="M127.8,32.6c0,0-23.2-6.7-24.5-6.7s-64.7,1.7-64.7,1.7l1.3,3.9L127.8,32.6z"/>
</g>
<g>
	<path class="st2" d="M94.4,77.2c2.6,0,5.2,0,7.8,0.1c2.5,0.1,4.2,1.9,4.1,4.3c-0.1,1.9-1.6,3.5-3.5,3.7c-0.5,0.1-1,0-1.5,0   c-15.1,0-30.3,0-45.4,0c-3.6,0-5-1.4-5-5.1c0-10.9,0-21.7,0-32.6c0-1.2-0.2-1.7-1.5-1.5c-1.1,0.1-2.1,0.1-3.2,0   c-0.9-0.1-1.3,0.2-1.4,1.2c-1.3,8.4-2.7,16.8-4.1,25.2c-0.1,0.5-0.2,1-0.2,1.5c-0.4,2.5-1.9,3.8-4.3,3.8c-5.3,0-10.5,0-15.8,0   c-0.8,0-1.5,0.2-2.2,0.7c-1.7,1.2-3.4,2.4-5.2,3.5c-0.6,0.4-0.8,0.8-0.8,1.5c0,4.5,0,9,0,13.5c0,0.8,0.2,1.1,1,1   c1.4-0.1,2.9-0.1,4.3,0c1.1,0.1,1.6-0.2,2-1.3c3.7-8.2,14.4-10,20.6-3.5c1.1,1.1,1.9,2.4,2.5,3.8c0.3,0.7,0.6,0.9,1.3,0.9   c14.7,0,29.4,0,44.1,0c1,0,1.1-0.5,1.4-1.2c2.3-5.1,7.7-8.2,13-7.5c5.9,0.9,10.2,5.1,11.1,10.8c0.9,6.2-2.9,12.1-8.9,14   c-6,1.8-12.4-1-15.1-6.7c-0.5-1.2-1.2-1.5-2.4-1.5c-14.3,0-28.6,0-42.9,0c-1,0-1.5,0.3-1.9,1.2c-2.3,4.8-6.2,7.5-11.5,7.5   c-5.3,0-9.2-2.7-11.5-7.5c-0.4-0.9-0.9-1.2-1.8-1.2c-3.1,0.1-6.1,0-9.2,0c-2.6,0-4.3-1.6-4.3-4.2c0-7,0-14.1,0-21.1   c0-1.7,0.8-2.9,2.1-3.8c3.2-2.1,6.4-4.3,9.6-6.4c0.7-0.4,1-0.9,1.1-1.7c1.4-8.9,2.9-17.7,4.3-26.6c0.4-2.6,1.9-3.9,4.5-3.9   c7.6,0,15.2,0,22.8,0c2.3,0,2.3,0,2.3-2.2c0-5,0-10.1,0-15.1c0-3.4,1.5-4.8,4.8-4.9c12.1,0,24.2,0,36.4,0c2.6,0,4.2,1.3,4.5,3.4   c0.4,2.6-1.4,4.6-4.1,4.6c-4.4,0-8.8,0-13.2,0c-6.4,0-12.8,0-19.2,0c-1,0-1.4,0.2-1.3,1.3c0.1,2.3,0.1,4.5,0.1,6.8   c0,0.4-0.1,0.8-0.1,1.2c0,14.2,0,28.4,0,42.6c0,1.3,0.4,1.6,1.6,1.6c9.5,0,19,0,28.6,0c1.7,0,3.3,0,5,0.1c0.1,0.2,0.2,0.2,0.3,0   C94.3,77.4,94.3,77.3,94.4,77.2z M29,69.7c1,0,2-0.1,3.1,0c0.8,0.1,1.1-0.3,1.2-1.1c1.1-7.2,2.3-14.3,3.5-21.5   c0.1-0.8,0.1-1.1-0.8-1.1c-2.1,0.1-4.2,0.1-6.2,0c-0.8,0-1,0.3-1.1,1c-1.1,6.8-2.2,13.7-3.3,20.5c-0.3,2-0.3,2.1,1.8,2.1   C27.7,69.7,28.3,69.7,29,69.7z"/>
	<path class="st3" d="M94,77.4c-1.7,0-3.3-0.1-5-0.1c-9.5,0-19,0-28.6,0c-1.2,0-1.6-0.2-1.6-1.6c0.1-14.2,0-28.4,0-42.6   c0-0.4,0.1-0.8,0.1-1.2c6.1,0,12.2,0,18.3,0c0.7,0,1.3,0,1.6,0.9C84,47.7,89.2,62.5,94.4,77.2c0,0.1-0.1,0.1-0.1,0.2   C94.2,77.4,94.1,77.4,94,77.4z"/>
	<path class="st2" d="M114.1,36.9c4.6,0,9.2,0,13.9,0c2.7,0,4.5,1.6,4.5,4c0,2.4-1.9,4-4.5,4c-9.3,0-18.6,0-27.9,0   c-2.7,0-4.5-1.6-4.5-4c0-2.4,1.8-4,4.5-4C104.7,36.9,109.4,36.9,114.1,36.9z"/>
	<path class="st4" d="M118.8,64.8c-3.3,0-6.6,0.1-9.8,0c-2,0-3.4-1.5-3.7-3.3c-0.3-1.9,0.7-3.6,2.5-4.3c0.6-0.3,1.3-0.3,1.9-0.3   c6.1,0,12.3,0,18.4,0c2.6,0,4.4,1.7,4.4,4c0,2.3-1.8,4-4.4,4C125,64.8,121.9,64.8,118.8,64.8C118.8,64.8,118.8,64.8,118.8,64.8z"/>
	<path class="st5" d="M123.5,84.7c-1.6,0-3.1,0-4.7,0c-2.3-0.1-4-1.7-4-3.9c-0.1-2.2,1.6-4,3.9-4.1c3.3-0.1,6.6-0.1,10,0   c2.2,0.1,3.9,2,3.8,4.1c-0.1,2.2-1.8,3.8-4.1,3.9C126.8,84.8,125.2,84.7,123.5,84.7z"/>
	<path class="st6" d="M94,77.4c0.1,0,0.2,0,0.3,0C94.2,77.7,94.1,77.6,94,77.4z"/>
</g>
</svg>