<svg xmlns="http://www.w3.org/2000/svg" width="8.875" height="9.783" viewBox="0 0 8.875 9.783"><defs><style>.a,.b{fill:none;stroke:#bfbfbf;stroke-linecap:round;stroke-linejoin:round;stroke-width:0.7px;}.b{fill-rule:evenodd;}</style></defs><g transform="translate(0.35 0.35)"><path class="a" d="M3.093,9.4h8.1" transform="translate(-3.051 -6.042)"/><path class="a" d="M16.442,13.31h0" transform="translate(-10.337 -8.173)"/><path class="a" d="M12,13.31h0" transform="translate(-7.915 -8.173)"/><path class="a" d="M7.558,13.31h0" transform="translate(-5.488 -8.173)"/><path class="a" d="M16.442,17.2h0" transform="translate(-10.337 -10.295)"/><path class="a" d="M12,17.2h0" transform="translate(-7.915 -10.295)"/><path class="a" d="M7.558,17.2h0" transform="translate(-5.488 -10.295)"/><path class="a" d="M16.044,2V3.495" transform="translate(-10.12 -2)"/><path class="a" d="M7.965,2V3.495" transform="translate(-5.71 -2)"/><path class="b" d="M9.012,3.579H5.167A1.954,1.954,0,0,0,3,5.688V9.8a1.973,1.973,0,0,0,2.167,2.147H9.008a1.955,1.955,0,0,0,2.167-2.113V5.688A1.947,1.947,0,0,0,9.012,3.579Z" transform="translate(-3 -2.862)"/></g></svg>