<svg xmlns="http://www.w3.org/2000/svg" width="15.1" height="15.1" viewBox="0 0 15.1 15.1">
  <g id="Group_313" data-name="Group 313" transform="translate(-1.45 -1.45)">
    <path id="Path_141" data-name="Path 141" d="M7.35,12.69a.817.817,0,1,1,.823-.818A.821.821,0,0,1,7.35,12.69Zm3.2,0a.817.817,0,1,1,.823-.818A.821.821,0,0,1,10.548,12.69Zm2.376-.818a.823.823,0,1,0,.823-.817A.821.821,0,0,0,12.925,11.872Z" transform="translate(-1.383 -2.717)" fill="#bfbfbf" fill-rule="evenodd"/>
    <path id="Path_142" data-name="Path 142" d="M9.014,2A7,7,0,0,0,2,9.011a7.409,7.409,0,0,0,.945,3.5.735.735,0,0,1,.049.632l-.469,1.57a.437.437,0,0,0,.574.546l1.414-.42a1.188,1.188,0,0,1,1.043.252A7,7,0,1,0,9.014,2Z" fill="none" stroke="#bfbfbf" stroke-linecap="round" stroke-linejoin="round" stroke-width="1.1" fill-rule="evenodd"/>
  </g>
</svg>
