<svg xmlns="http://www.w3.org/2000/svg" width="12" height="14.118" viewBox="0 0 12 14.118"><defs><style>.a{fill:#4f48ed;fill-rule:evenodd;}</style></defs><path class="a" d="M9.52,2A6.009,6.009,0,0,0,3.5,7.817l0,.2a7.578,7.578,0,0,0,1.546,4.349l.224.292a14.653,14.653,0,0,0,3.2,3l.292.2.043.033a1.194,1.194,0,0,0,1.392,0l.035-.029a14.911,14.911,0,0,0,2.643-2.184A8.535,8.535,0,0,0,15.5,8.109V8.037A6.01,6.01,0,0,0,9.7,2Zm0,1.071A4.939,4.939,0,0,1,14.43,7.865l0,.234a7.51,7.51,0,0,1-2.33,4.841,13.838,13.838,0,0,1-2.459,2.03l-.06.045a.128.128,0,0,1-.168,0l-.058-.044a13.59,13.59,0,0,1-3.46-3.25A6.5,6.5,0,0,1,4.581,8.252L4.568,8A4.94,4.94,0,0,1,9.347,3.073ZM9.5,5.813a2.293,2.293,0,1,0,2.286,2.293A2.289,2.289,0,0,0,9.5,5.813Zm0,1.071A1.222,1.222,0,1,1,8.282,8.106,1.22,1.22,0,0,1,9.5,6.884Z" transform="translate(-3.5 -2)"/></svg>