<svg xmlns="http://www.w3.org/2000/svg" width="12.3" height="12.415" viewBox="0 0 12.3 12.415"><defs><style>.a{fill:#4f48ed;stroke:#4f48ed;stroke-width:0.3px;}</style></defs><g transform="translate(-9.85 -5.114)"><g transform="translate(10 5.263)"><path class="a" d="M15.78-505.654c-.1.051-1.427.754-2.946,1.561-2.21,1.177-2.768,1.481-2.795,1.534-.051.1-.051,5.668,0,5.766s5.832,3.172,5.961,3.172,5.913-3.076,5.961-3.172.051-5.668,0-5.766c-.027-.054-.612-.372-2.949-1.615-1.6-.852-2.944-1.554-2.983-1.561S15.912-505.723,15.78-505.654Zm2.841,1.86c1.439.766,2.606,1.4,2.6,1.4-.024.024-1.454.781-1.473.781s-3.071-1.64-4.828-2.587l-.389-.208.732-.389c.4-.213.734-.389.739-.389S17.184-504.558,18.621-503.794Zm-1.879,1.17,2.734,1.468v1.725l-.465.233-.462.233-.007-.817c-.007-.776-.01-.822-.056-.883s-.883-.507-2.76-1.493c-1.828-.962-2.7-1.434-2.68-1.446.122-.081.918-.5.94-.492S15.239-503.432,16.741-502.625Zm-1.662.712c1.449.764,2.631,1.39,2.628,1.392l-.847.453a9.5,9.5,0,0,1-.881.436c-.044-.012-5.169-2.729-5.2-2.756-.012-.012,1.618-.9,1.659-.91C12.444-503.3,13.631-502.673,15.08-501.912ZM13.1-500.562c1.4.742,2.565,1.366,2.587,1.383a13.915,13.915,0,0,1,.037,2.447l-.007,2.415-2.594-1.378-2.594-1.378-.007-2.43c0-1.336,0-2.425.015-2.42S11.7-501.306,13.1-500.562Zm8.374,1.062-.007,2.428-2.594,1.378-2.594,1.378-.007-2.415c0-1.329,0-2.425.015-2.435s.4-.223.864-.47l.842-.445.012.808a4.476,4.476,0,0,0,.044.864.3.3,0,0,0,.23.127c.032,0,.414-.179.852-.4.727-.362.8-.4.837-.482s.044-.181.044-1.04v-.954l.717-.382c.392-.213.722-.384.734-.387S21.479-500.836,21.477-499.5Z" transform="translate(-10 505.737)"/></g></g></svg>