<svg id="Component_36_3" data-name="Component 36 – 3" xmlns="http://www.w3.org/2000/svg" width="20" height="20" viewBox="0 0 20 20">
  <circle id="Ellipse_56" data-name="Ellipse 56" cx="10" cy="10" r="10" fill="#dfdfdf"/>
  <path id="Plus" d="M12.891,7.886a.849.849,0,0,1,.841.734l.008.115v3.3h3.3a.85.85,0,0,1,.115,1.692l-.115.008h-3.3v3.3a.849.849,0,0,1-1.69.115l-.008-.115v-3.3h-3.3a.85.85,0,0,1-.115-1.692l.115-.008h3.3v-3.3A.849.849,0,0,1,12.891,7.886Z" transform="translate(-3.108 -2.886)" fill="#5f5f5f" fill-rule="evenodd"/>
</svg>
