<svg xmlns="http://www.w3.org/2000/svg" width="12" height="15" viewBox="0 0 12 15"><defs><style>.a{fill:#4f48ed;fill-rule:evenodd;}</style></defs><path class="a" d="M10,2a4,4,0,1,0,3.984,4A3.993,3.993,0,0,0,10,2Zm0,1.086A2.916,2.916,0,1,1,7.1,6,2.909,2.909,0,0,1,10,3.086Zm-1.631,8.53a12.54,12.54,0,0,0-1.754.248,3.26,3.26,0,0,0-2.4,1.461A2.162,2.162,0,0,0,4,14.272a2.2,2.2,0,0,0,.21.939,2.991,2.991,0,0,0,2.232,1.426l.192.04a11.526,11.526,0,0,0,1.749.254,1.7,1.7,0,0,0,.3.035l.108,0,.213,0a18.838,18.838,0,0,0,2.619-.042,11.744,11.744,0,0,0,1.41-.183l.351-.073a3.1,3.1,0,0,0,2.4-1.463,2.195,2.195,0,0,0,0-1.878,3.125,3.125,0,0,0-2.412-1.471,12.7,12.7,0,0,0-1.4-.218l-.346-.029A18.514,18.514,0,0,0,8.373,11.616Zm3.16,1.082h.009a11.644,11.644,0,0,1,1.614.228c.875.18,1.469.479,1.656.875a1.1,1.1,0,0,1,0,.945,2.1,2.1,0,0,1-1.479.831l-.169.036a10.819,10.819,0,0,1-1.621.236,18.046,18.046,0,0,1-2.507.039l-.3-.005a1.455,1.455,0,0,1-.215-.025,11.643,11.643,0,0,1-1.406-.187l-.264-.056c-.878-.172-1.476-.472-1.671-.874a1.106,1.106,0,0,1-.1-.471,1.067,1.067,0,0,1,.1-.467,2.424,2.424,0,0,1,1.654-.877A11.543,11.543,0,0,1,8.457,12.7,17.477,17.477,0,0,1,11.533,12.7Z" transform="translate(-4 -2)"/></svg>