<svg xmlns="http://www.w3.org/2000/svg" width="15.274" height="15.274" viewBox="0 0 15.274 15.274">
  <g id="Question" transform="translate(-2.446 -2.446)">
    <path id="Path_234" data-name="Path 234" d="M7.683,16.889a5.912,5.912,0,0,1-4.405-4.405,10.51,10.51,0,0,1,0-4.8A5.912,5.912,0,0,1,7.683,3.278a10.51,10.51,0,0,1,4.8,0,5.912,5.912,0,0,1,4.405,4.405,10.51,10.51,0,0,1,0,4.8,5.912,5.912,0,0,1-4.405,4.405A10.51,10.51,0,0,1,7.683,16.889Z" fill="none" stroke="#bfbfbf" stroke-linecap="round" stroke-linejoin="round" stroke-width="1.1"/>
    <circle id="Ellipse_81" data-name="Ellipse 81" cx="0.787" cy="0.787" r="0.787" transform="translate(9.296 12.051)" fill="#bfbfbf"/>
    <path id="Path_235" data-name="Path 235" d="M10,9.468V9.074A1.574,1.574,0,0,1,11.574,7.5h0a1.574,1.574,0,0,1,1.574,1.574v.1a1.67,1.67,0,0,1-.489,1.181l-1.085,1.085" transform="translate(-1.491 -0.958)" fill="none" stroke="#bfbfbf" stroke-linecap="round" stroke-linejoin="round" stroke-width="1.1"/>
  </g>
</svg>
