<svg xmlns="http://www.w3.org/2000/svg" width="12" height="14.118" viewBox="0 0 12 14.118"><defs><style>.a{fill:#4f48ed;fill-rule:evenodd;}</style></defs><path class="a" d="M9.066,2.072l-4.69,1.6a1.275,1.275,0,0,0-.877,1.2V9.56a5.809,5.809,0,0,0,1.489,3.873,6,6,0,0,0,1.722,1.292l2.539,1.331a.548.548,0,0,0,.508,0l2.535-1.33a6,6,0,0,0,1.721-1.292A5.808,5.808,0,0,0,15.5,9.563V4.874a1.276,1.276,0,0,0-.877-1.2l-4.688-1.6A1.347,1.347,0,0,0,9.066,2.072Zm.514.98,4.689,1.6a.235.235,0,0,1,.162.222V9.563a4.787,4.787,0,0,1-1.225,3.19l-.14.148a5.208,5.208,0,0,1-1.282.911L9.5,15.008l-2.285-1.2A4.963,4.963,0,0,1,5.8,12.752,4.788,4.788,0,0,1,4.569,9.56V4.874a.235.235,0,0,1,.162-.222l4.69-1.6A.249.249,0,0,1,9.58,3.051Zm2.571,4.059a.545.545,0,0,0-.756,0L9,9.442,8.026,8.5l-.06-.05a.546.546,0,0,0-.7.05.509.509,0,0,0,0,.734l1.348,1.31.06.05a.546.546,0,0,0,.7-.05l2.777-2.7.052-.058A.508.508,0,0,0,12.151,7.111Z" transform="translate(-3.5 -2)"/></svg>