<?xml version="1.0" encoding="UTF-8"?>
<!DOCTYPE svg PUBLIC "-//W3C//DTD SVG 1.1//EN" "http://www.w3.org/Graphics/SVG/1.1/DTD/svg11.dtd">
<svg xmlns="http://www.w3.org/2000/svg" version="1.1" width="475px" height="475px" style="shape-rendering:geometricPrecision; text-rendering:geometricPrecision; image-rendering:optimizeQuality; fill-rule:evenodd; clip-rule:evenodd" xmlns:xlink="http://www.w3.org/1999/xlink">
<g><path style="opacity:0.98" fill="#2d356d" d="M 268.5,42.5 C 268.833,42.5 269.167,42.5 269.5,42.5C 268.612,53.8828 268.279,65.2161 268.5,76.5C 265.015,70.9222 260.015,67.5889 253.5,66.5C 252.34,64.7973 253.007,64.1307 255.5,64.5C 255.5,57.1667 255.5,49.8333 255.5,42.5C 259.833,42.5 264.167,42.5 268.5,42.5 Z"/></g>
<g><path style="opacity:1" fill="#405389" d="M 268.5,42.5 C 264.167,42.5 259.833,42.5 255.5,42.5C 255.5,49.8333 255.5,57.1667 255.5,64.5C 253.007,64.1307 252.34,64.7973 253.5,66.5C 251.167,66.5 248.833,66.5 246.5,66.5C 245.448,66.6495 244.448,66.4828 243.5,66C 245.447,58.4419 246.114,50.6085 245.5,42.5C 253.295,41.2179 260.962,41.2179 268.5,42.5 Z"/></g>
<g><path style="opacity:0.977" fill="#241e56" d="M 273.5,44.5 C 277.173,46.0002 280.506,48.0002 283.5,50.5C 282.241,77.7442 282.241,105.078 283.5,132.5C 282.471,134.517 281.471,136.517 280.5,138.5C 278.5,140.833 276.5,143.167 274.5,145.5C 274.082,126.434 273.082,107.268 271.5,88C 271.801,83.5526 272.301,83.7193 273,88.5C 273.5,73.8371 273.667,59.1705 273.5,44.5 Z"/></g>
<g><path style="opacity:1" fill="#476fa6" d="M 245.5,42.5 C 246.114,50.6085 245.447,58.4419 243.5,66C 244.448,66.4828 245.448,66.6495 246.5,66.5C 246.5,66.8333 246.5,67.1667 246.5,67.5C 243.402,67.7556 240.402,68.4222 237.5,69.5C 235.848,62.3899 234.848,55.0566 234.5,47.5C 237.841,45.2683 241.508,43.6016 245.5,42.5 Z"/></g>
<g><path style="opacity:0.983" fill="#5485bb" d="M 234.5,47.5 C 234.848,55.0566 235.848,62.3899 237.5,69.5C 236.167,70.5 234.833,71.5 233.5,72.5C 229.863,73.9855 226.53,75.9855 223.5,78.5C 223.802,70.0817 223.469,61.7483 222.5,53.5C 226.182,50.9922 230.182,48.9922 234.5,47.5 Z"/></g>
<g><path style="opacity:0.964" fill="#21164d" d="M 283.5,50.5 C 285.797,52.2941 287.963,54.2941 290,56.5C 293.363,62.8832 295.863,69.5498 297.5,76.5C 297.571,90.3434 295.571,104.01 291.5,117.5C 289.122,122.585 286.456,127.585 283.5,132.5C 282.241,105.078 282.241,77.7442 283.5,50.5 Z"/></g>
<g><path style="opacity:0.896" fill="#4565a5" d="M 222.5,53.5 C 223.469,61.7483 223.802,70.0817 223.5,78.5C 219.833,81.8333 216.167,85.1667 212.5,88.5C 212.748,79.8023 212.415,71.1356 211.5,62.5C 214.851,59.1518 218.518,56.1518 222.5,53.5 Z"/></g>
<g><path style="opacity:0.894" fill="#3e5096" d="M 211.5,62.5 C 212.415,71.1356 212.748,79.8023 212.5,88.5C 211.5,90.5 210.5,92.5 209.5,94.5C 208.272,95.3065 207.272,96.3065 206.5,97.5C 205.775,95.0535 205.108,92.5535 204.5,90C 205.497,82.9805 205.497,76.1472 204.5,69.5C 206.5,66.8333 208.833,64.5 211.5,62.5 Z"/></g>
<g><path style="opacity:0.921" fill="#39438c" d="M 204.5,69.5 C 205.497,76.1472 205.497,82.9805 204.5,90C 205.108,92.5535 205.775,95.0535 206.5,97.5C 204.738,101.362 202.738,105.028 200.5,108.5C 200.19,107.262 199.69,107.262 199,108.5C 198.83,97.9919 198.33,87.6585 197.5,77.5C 199.862,74.808 202.196,72.1413 204.5,69.5 Z"/></g>
<g><path style="opacity:0.896" fill="#e2dfde" d="M 246.5,67.5 C 249.579,67.2601 252.579,67.5934 255.5,68.5C 257.44,74.1182 258.106,79.4515 257.5,84.5C 247.617,85.4608 238.617,88.7941 230.5,94.5C 229.545,88.4987 229.379,82.1654 230,75.5C 230.667,74.1667 231.333,74.1667 232,75.5C 232.513,74.4734 233.013,73.4734 233.5,72.5C 234.833,71.5 236.167,70.5 237.5,69.5C 240.402,68.4222 243.402,67.7556 246.5,67.5 Z"/></g>
<g><path style="opacity:0.737" fill="#b0abae" d="M 246.5,67.5 C 246.5,67.1667 246.5,66.8333 246.5,66.5C 248.833,66.5 251.167,66.5 253.5,66.5C 260.015,67.5889 265.015,70.9222 268.5,76.5C 269.678,79.541 270.345,82.7077 270.5,86C 270.431,87.9855 269.765,89.4855 268.5,90.5C 265.6,87.2145 261.933,85.2145 257.5,84.5C 258.106,79.4515 257.44,74.1182 255.5,68.5C 252.579,67.5934 249.579,67.2601 246.5,67.5 Z"/></g>
<g><path style="opacity:0.93" fill="#363783" d="M 197.5,77.5 C 198.33,87.6585 198.83,97.9919 199,108.5C 199.69,107.262 200.19,107.262 200.5,108.5C 197.177,117.163 194.177,125.83 191.5,134.5C 191.587,131.402 191.087,131.068 190,133.5C 189.5,133 189,132.5 188.5,132C 189.629,118.717 189.629,105.217 188.5,91.5C 190.991,86.5219 193.991,81.8553 197.5,77.5 Z"/></g>
<g><path style="opacity:0.88" fill="#d6cccb" d="M 233.5,72.5 C 233.013,73.4734 232.513,74.4734 232,75.5C 231.333,74.1667 230.667,74.1667 230,75.5C 229.379,82.1654 229.545,88.4987 230.5,94.5C 220.326,102.343 212.326,112.01 206.5,123.5C 204.992,120.86 205.326,118.527 207.5,116.5C 205.922,112.491 204.922,108.324 204.5,104C 205.967,102.902 206.801,101.402 207,99.5C 208.156,100.993 208.99,100.826 209.5,99C 210.58,97.5447 210.58,96.0447 209.5,94.5C 210.5,92.5 211.5,90.5 212.5,88.5C 216.167,85.1667 219.833,81.8333 223.5,78.5C 226.53,75.9855 229.863,73.9855 233.5,72.5 Z"/></g>
<g><path style="opacity:0.858" fill="#292a61" d="M 269.5,42.5 C 271.153,42.6596 272.486,43.3263 273.5,44.5C 273.667,59.1705 273.5,73.8371 273,88.5C 272.301,83.7193 271.801,83.5526 271.5,88C 273.082,107.268 274.082,126.434 274.5,145.5C 272.138,148.192 269.804,150.859 267.5,153.5C 265.78,151.342 264.947,148.675 265,145.5C 264.829,136.99 264.329,128.657 263.5,120.5C 267.89,111.013 269.557,101.013 268.5,90.5C 269.765,89.4855 270.431,87.9855 270.5,86C 270.345,82.7077 269.678,79.541 268.5,76.5C 268.279,65.2161 268.612,53.8828 269.5,42.5 Z"/></g>
<g><path style="opacity:0.879" fill="#70696c" d="M 297.5,76.5 C 304.944,92.6791 306.111,109.346 301,126.5C 299.545,132.726 297.045,138.392 293.5,143.5C 292.448,134.772 292.448,126.105 293.5,117.5C 293.03,116.537 292.363,116.537 291.5,117.5C 295.571,104.01 297.571,90.3434 297.5,76.5 Z"/></g>
<g><path style="opacity:0.913" fill="#30297a" d="M 188.5,91.5 C 189.629,105.217 189.629,118.717 188.5,132C 189,132.5 189.5,133 190,133.5C 191.087,131.068 191.587,131.402 191.5,134.5C 189.048,143.998 187.715,153.664 187.5,163.5C 187.167,163.5 186.833,163.5 186.5,163.5C 178.833,163.5 171.167,163.5 163.5,163.5C 166.75,137.681 175.083,113.681 188.5,91.5 Z"/></g>
<g><path style="opacity:0.809" fill="#ccc0c3" d="M 209.5,94.5 C 210.58,96.0447 210.58,97.5447 209.5,99C 208.99,100.826 208.156,100.993 207,99.5C 206.801,101.402 205.967,102.902 204.5,104C 204.922,108.324 205.922,112.491 207.5,116.5C 205.326,118.527 204.992,120.86 206.5,123.5C 200.684,136.281 196.684,149.615 194.5,163.5C 193.833,163.5 193.167,163.5 192.5,163.5C 190.833,163.5 189.167,163.5 187.5,163.5C 187.715,153.664 189.048,143.998 191.5,134.5C 194.177,125.83 197.177,117.163 200.5,108.5C 202.738,105.028 204.738,101.362 206.5,97.5C 207.272,96.3065 208.272,95.3065 209.5,94.5 Z"/></g>
<g><path style="opacity:0.901" fill="#2f3971" d="M 263.5,120.5 C 264.329,128.657 264.829,136.99 265,145.5C 264.947,148.675 265.78,151.342 267.5,153.5C 264.874,155.823 262.207,158.157 259.5,160.5C 258.526,150.582 258.193,140.582 258.5,130.5C 260.137,127.183 261.804,123.85 263.5,120.5 Z"/></g>
<g><path style="opacity:0.897" fill="#837b7f" d="M 293.5,143.5 C 291.088,149.993 287.422,155.66 282.5,160.5C 282.666,152.826 282.5,145.159 282,137.5C 281.617,138.056 281.117,138.389 280.5,138.5C 281.471,136.517 282.471,134.517 283.5,132.5C 286.456,127.585 289.122,122.585 291.5,117.5C 292.363,116.537 293.03,116.537 293.5,117.5C 292.448,126.105 292.448,134.772 293.5,143.5 Z"/></g>
<g><path style="opacity:0.894" fill="#35477f" d="M 258.5,130.5 C 258.193,140.582 258.526,150.582 259.5,160.5C 258.833,161.5 258.167,162.5 257.5,163.5C 257.167,163.5 256.833,163.5 256.5,163.5C 253.5,163.5 250.5,163.5 247.5,163.5C 247.5,156.833 247.5,150.167 247.5,143.5C 250.821,138.848 254.487,134.515 258.5,130.5 Z"/></g>
<g><path style="opacity:0.937" fill="#fbc604" d="M 392.5,142.5 C 392.5,151.167 392.5,159.833 392.5,168.5C 391.738,170.262 390.404,171.262 388.5,171.5C 386.833,170.5 385.5,169.167 384.5,167.5C 384.5,156.833 384.5,146.167 384.5,135.5C 385.386,134.224 386.386,134.224 387.5,135.5C 389.422,137.687 391.088,140.02 392.5,142.5 Z"/></g>
<g><path style="opacity:0.944" fill="#e99b35" d="M 379.5,138.5 C 379.196,147.584 379.529,156.584 380.5,165.5C 378.716,165.107 377.05,164.441 375.5,163.5C 375.5,156.167 375.5,148.833 375.5,141.5C 376.436,140.026 377.77,139.026 379.5,138.5 Z"/></g>
<g><path style="opacity:0.899" fill="#da7448" d="M 375.5,141.5 C 375.5,148.833 375.5,156.167 375.5,163.5C 372.833,163.5 370.167,163.5 367.5,163.5C 367.167,163.5 366.833,163.5 366.5,163.5C 366.5,158.167 366.5,152.833 366.5,147.5C 369.291,145.265 372.291,143.265 375.5,141.5 Z"/></g>
<g><path style="opacity:0.846" fill="#405f96" d="M 247.5,143.5 C 247.5,150.167 247.5,156.833 247.5,163.5C 245.5,163.5 243.5,163.5 241.5,163.5C 241.5,158.833 241.5,154.167 241.5,149.5C 243.167,147.167 245.167,145.167 247.5,143.5 Z"/></g>
<g><path style="opacity:1" fill="#9e989a" d="M 282.5,160.5 C 281.89,161.391 281.557,162.391 281.5,163.5C 280.167,163.5 278.833,163.5 277.5,163.5C 270.833,163.5 264.167,163.5 257.5,163.5C 258.167,162.5 258.833,161.5 259.5,160.5C 262.207,158.157 264.874,155.823 267.5,153.5C 269.804,150.859 272.138,148.192 274.5,145.5C 276.5,143.167 278.5,140.833 280.5,138.5C 281.117,138.389 281.617,138.056 282,137.5C 282.5,145.159 282.666,152.826 282.5,160.5 Z"/></g>
<g><path style="opacity:0.999" fill="#f0a929" d="M 392.5,142.5 C 393.906,142.973 394.573,143.973 394.5,145.5C 394.5,152.833 394.5,160.167 394.5,167.5C 394.158,168.338 393.492,168.672 392.5,168.5C 392.5,159.833 392.5,151.167 392.5,142.5 Z"/></g>
<g><path style="opacity:1" fill="#f4b31e" d="M 384.5,135.5 C 384.5,146.167 384.5,156.833 384.5,167.5C 383.167,166.833 381.833,166.167 380.5,165.5C 379.529,156.584 379.196,147.584 379.5,138.5C 380.899,137.11 382.566,136.11 384.5,135.5 Z"/></g>
<g><path style="opacity:0.974" fill="#e38443" d="M 394.5,145.5 C 395.5,145.833 396.167,146.5 396.5,147.5C 396.5,153.5 396.5,159.5 396.5,165.5C 396.167,166.5 395.5,167.167 394.5,167.5C 394.5,160.167 394.5,152.833 394.5,145.5 Z"/></g>
<g><path style="opacity:0.924" fill="#b86f3e" d="M 366.5,147.5 C 366.5,152.833 366.5,158.167 366.5,163.5C 365.5,163.5 364.5,163.5 363.5,163.5C 363.267,161.938 362.6,160.605 361.5,159.5C 362.479,156.375 362.813,153.042 362.5,149.5C 363.605,148.4 364.938,147.733 366.5,147.5 Z"/></g>
<g><path style="opacity:0.871" fill="#906d34" d="M 362.5,149.5 C 362.813,153.042 362.479,156.375 361.5,159.5C 355.831,155.518 356.165,152.185 362.5,149.5 Z"/></g>
<g><path style="opacity:0.973" fill="#cd5e46" d="M 396.5,147.5 C 398.167,148.5 399.5,149.833 400.5,151.5C 400.5,155.5 400.5,159.5 400.5,163.5C 400.5,163.833 400.5,164.167 400.5,164.5C 399.167,164.833 397.833,165.167 396.5,165.5C 396.5,159.5 396.5,153.5 396.5,147.5 Z"/></g>
<g><path style="opacity:0.464" fill="#211850" d="M 346.5,163.5 C 345.5,163.5 344.5,163.5 343.5,163.5C 338.5,163.5 333.5,163.5 328.5,163.5C 328.167,163.5 327.833,163.5 327.5,163.5C 334.997,158.22 343.33,154.887 352.5,153.5C 352.649,154.552 352.483,155.552 352,156.5C 349.675,158.501 347.842,160.834 346.5,163.5 Z"/></g>
<g><path style="opacity:0.306" fill="#a63839" d="M 400.5,151.5 C 402.47,153.647 404.303,155.98 406,158.5C 406.765,160.066 406.598,161.399 405.5,162.5C 403.708,162.366 402.042,162.699 400.5,163.5C 400.5,159.5 400.5,155.5 400.5,151.5 Z"/></g>
<g><path style="opacity:1" fill="#4d79b0" d="M 241.5,149.5 C 241.5,154.167 241.5,158.833 241.5,163.5C 235.833,163.5 230.167,163.5 224.5,163.5C 224.167,163.5 223.833,163.5 223.5,163.5C 229.19,158.482 235.19,153.815 241.5,149.5 Z"/></g>
<g><path style="opacity:0.783" fill="#000001" d="M 163.5,163.5 C 161.975,173.098 161.308,182.764 161.5,192.5C 160.167,192.5 158.833,192.5 157.5,192.5C 157.957,196.584 157.29,200.417 155.5,204C 145.453,204.808 135.453,204.641 125.5,203.5C 124.511,199.893 124.177,196.226 124.5,192.5C 122.5,192.5 120.5,192.5 118.5,192.5C 118.334,196.514 118.501,200.514 119,204.5C 120.33,208.007 122.83,209.673 126.5,209.5C 124.651,210.593 122.984,211.926 121.5,213.5C 111.669,218.249 102.669,224.249 94.5,231.5C 93.8333,231.167 93.1667,230.833 92.5,230.5C 91.3607,212.877 91.194,195.21 92,177.5C 94.5,171 99,166.5 105.5,164C 124.83,163.5 144.164,163.333 163.5,163.5 Z"/></g>
<g><path style="opacity:1" fill="#0c0b1b" d="M 163.5,163.5 C 171.167,163.5 178.833,163.5 186.5,163.5C 186.5,170.5 186.5,177.5 186.5,184.5C 187.791,184.737 188.791,184.404 189.5,183.5C 197.014,179.577 204.681,175.91 212.5,172.5C 211.545,178.409 211.211,184.409 211.5,190.5C 209.833,190.5 208.167,190.5 206.5,190.5C 206.5,192.5 206.5,194.5 206.5,196.5C 203.378,197.561 200.378,198.895 197.5,200.5C 197.5,197.167 197.5,193.833 197.5,190.5C 195.265,190.205 193.265,190.539 191.5,191.5C 191.665,194.85 191.498,198.183 191,201.5C 187.527,205.717 184.527,205.384 182,200.5C 181.502,197.518 181.335,194.518 181.5,191.5C 179.735,190.539 177.735,190.205 175.5,190.5C 175.5,194.167 175.5,197.833 175.5,201.5C 175.047,202.458 174.381,203.292 173.5,204C 170.833,204.667 168.167,204.667 165.5,204C 164.28,199.987 162.946,196.153 161.5,192.5C 161.308,182.764 161.975,173.098 163.5,163.5 Z"/></g>
<g><path style="opacity:1" fill="#282627" d="M 186.5,163.5 C 186.833,163.5 187.167,163.5 187.5,163.5C 189.167,163.5 190.833,163.5 192.5,163.5C 191.685,170.206 190.685,176.873 189.5,183.5C 188.791,184.404 187.791,184.737 186.5,184.5C 186.5,177.5 186.5,170.5 186.5,163.5 Z"/></g>
<g><path style="opacity:0.79" fill="#000001" d="M 192.5,163.5 C 193.167,163.5 193.833,163.5 194.5,163.5C 204.167,163.5 213.833,163.5 223.5,163.5C 223.833,163.5 224.167,163.5 224.5,163.5C 220.5,166.5 216.5,169.5 212.5,172.5C 204.681,175.91 197.014,179.577 189.5,183.5C 190.685,176.873 191.685,170.206 192.5,163.5 Z"/></g>
<g><path style="opacity:1" fill="#101824" d="M 224.5,163.5 C 230.167,163.5 235.833,163.5 241.5,163.5C 243.5,163.5 245.5,163.5 247.5,163.5C 250.5,163.5 253.5,163.5 256.5,163.5C 248.451,170.217 240.117,176.55 231.5,182.5C 230.391,182.557 229.391,182.89 228.5,183.5C 226.262,182.463 223.929,182.297 221.5,183C 220.199,184.616 220.199,186.116 221.5,187.5C 218.669,189.417 215.669,191.083 212.5,192.5C 212.5,192.167 212.5,191.833 212.5,191.5C 212.5,190.833 212.167,190.5 211.5,190.5C 211.211,184.409 211.545,178.409 212.5,172.5C 216.5,169.5 220.5,166.5 224.5,163.5 Z"/></g>
<g><path style="opacity:0.789" fill="#000001" d="M 277.5,163.5 C 278.833,163.5 280.167,163.5 281.5,163.5C 296.833,163.5 312.167,163.5 327.5,163.5C 327.833,163.5 328.167,163.5 328.5,163.5C 319.526,168.617 311.193,174.784 303.5,182C 300.526,185.128 298.193,188.628 296.5,192.5C 295.966,196.367 294.966,200.2 293.5,204C 283.453,204.808 273.453,204.641 263.5,203.5C 262.511,199.893 262.177,196.226 262.5,192.5C 260.5,192.5 258.5,192.5 256.5,192.5C 256.334,196.514 256.501,200.514 257,204.5C 257.785,206.286 258.951,207.786 260.5,209C 268.493,209.5 276.493,209.666 284.5,209.5C 283.167,211.5 281.833,213.5 280.5,215.5C 273.929,225.407 266.262,234.407 257.5,242.5C 255.833,242.5 254.167,242.5 252.5,242.5C 252.167,242.5 251.833,242.5 251.5,242.5C 237.5,242.5 223.5,242.5 209.5,242.5C 208.167,242.5 206.833,242.5 205.5,242.5C 199.604,236.035 195.271,228.701 192.5,220.5C 200.146,217.343 207.48,213.677 214.5,209.5C 221.615,209.925 228.615,209.425 235.5,208C 236.701,207.097 237.535,205.931 238,204.5C 238.498,201.518 238.665,198.518 238.5,195.5C 253.3,187.034 266.3,176.368 277.5,163.5 Z"/></g>
<g><path style="opacity:0.785" fill="#000001" d="M 343.5,163.5 C 344.5,163.5 345.5,163.5 346.5,163.5C 352.167,163.5 357.833,163.5 363.5,163.5C 364.5,163.5 365.5,163.5 366.5,163.5C 366.833,163.5 367.167,163.5 367.5,163.5C 368.6,164.605 369.267,165.938 369.5,167.5C 368.5,167.5 367.5,167.5 366.5,167.5C 366.351,168.552 366.517,169.552 367,170.5C 373.541,177.372 379.707,184.539 385.5,192C 388.042,192.007 390.376,191.174 392.5,189.5C 392.5,190.167 392.5,190.833 392.5,191.5C 392.667,203.838 392.5,216.171 392,228.5C 389.5,235 385,239.5 378.5,242C 352.169,242.5 325.835,242.667 299.5,242.5C 299.167,242.5 298.833,242.5 298.5,242.5C 298.414,241.504 298.748,240.671 299.5,240C 317.39,237.276 328.39,227.11 332.5,209.5C 336.514,209.666 340.514,209.499 344.5,209C 350.541,206.229 356.375,203.062 362,199.5C 362.711,195.412 361.544,191.912 358.5,189C 352.621,187.59 346.621,187.09 340.5,187.5C 346.698,183.213 352.365,178.213 357.5,172.5C 356.667,172.167 355.833,171.833 355,171.5C 344.481,175.291 334.315,180.124 324.5,186C 322.937,186.759 321.937,187.926 321.5,189.5C 321.167,189.5 320.833,189.5 320.5,189.5C 319.5,189.5 318.5,189.5 317.5,189.5C 315.08,189.708 312.747,189.374 310.5,188.5C 309.06,185.772 309.726,183.605 312.5,182C 318.087,179.038 323.754,176.372 329.5,174C 334.193,170.406 338.86,166.906 343.5,163.5 Z"/></g>
<g><path style="opacity:1" fill="#34230b" d="M 367.5,163.5 C 370.167,163.5 372.833,163.5 375.5,163.5C 377.05,164.441 378.716,165.107 380.5,165.5C 381.833,166.167 383.167,166.833 384.5,167.5C 385.5,169.167 386.833,170.5 388.5,171.5C 388.5,171.833 388.5,172.167 388.5,172.5C 386.068,173.75 383.734,175.25 381.5,177C 380.167,177.667 378.833,177.667 377.5,177C 374.969,173.642 372.302,170.476 369.5,167.5C 369.267,165.938 368.6,164.605 367.5,163.5 Z"/></g>
<g><path style="opacity:0.824" fill="#888184" d="M 405.5,162.5 C 408.509,166.507 411.509,170.507 414.5,174.5C 414.392,175.442 414.059,176.275 413.5,177C 409.598,179.751 405.598,182.251 401.5,184.5C 401.824,177.646 401.491,170.979 400.5,164.5C 400.5,164.167 400.5,163.833 400.5,163.5C 402.042,162.699 403.708,162.366 405.5,162.5 Z"/></g>
<g><path style="opacity:0.999" fill="#2f2d2c" d="M 369.5,167.5 C 372.302,170.476 374.969,173.642 377.5,177C 378.833,177.667 380.167,177.667 381.5,177C 383.734,175.25 386.068,173.75 388.5,172.5C 391.985,177.533 393.319,183.2 392.5,189.5C 390.376,191.174 388.042,192.007 385.5,192C 379.707,184.539 373.541,177.372 367,170.5C 366.517,169.552 366.351,168.552 366.5,167.5C 367.5,167.5 368.5,167.5 369.5,167.5 Z"/></g>
<g><path style="opacity:0.998" fill="#101622" d="M 328.5,163.5 C 333.5,163.5 338.5,163.5 343.5,163.5C 338.86,166.906 334.193,170.406 329.5,174C 323.754,176.372 318.087,179.038 312.5,182C 309.726,183.605 309.06,185.772 310.5,188.5C 312.747,189.374 315.08,189.708 317.5,189.5C 316.92,193.142 316.42,196.809 316,200.5C 315.5,202.333 314.333,203.5 312.5,204C 302.6,206.265 298.933,202.432 301.5,192.5C 299.833,192.5 298.167,192.5 296.5,192.5C 298.193,188.628 300.526,185.128 303.5,182C 311.193,174.784 319.526,168.617 328.5,163.5 Z"/></g>
<g><path style="opacity:1" fill="#e9e9e9" d="M 132.5,180.5 C 134.527,180.338 136.527,180.505 138.5,181C 139.947,186.331 137.947,187.831 132.5,185.5C 131.465,183.872 131.465,182.205 132.5,180.5 Z"/></g>
<g><path style="opacity:1" fill="#eaeaea" d="M 143.5,180.5 C 145.527,180.338 147.527,180.505 149.5,181C 150.472,185.68 148.472,187.347 143.5,186C 142.248,184.172 142.248,182.339 143.5,180.5 Z"/></g>
<g><path style="opacity:1" fill="#e9e9e9" d="M 270.5,180.5 C 272.527,180.338 274.527,180.505 276.5,181C 277.947,186.331 275.947,187.831 270.5,185.5C 269.465,183.872 269.465,182.205 270.5,180.5 Z"/></g>
<g><path style="opacity:1" fill="#eaeaea" d="M 281.5,180.5 C 283.527,180.338 285.527,180.505 287.5,181C 288.472,185.68 286.472,187.347 281.5,186C 280.248,184.172 280.248,182.339 281.5,180.5 Z"/></g>
<g><path style="opacity:0.961" fill="#cac6c5" d="M 400.5,164.5 C 401.491,170.979 401.824,177.646 401.5,184.5C 398.81,187.185 395.81,189.518 392.5,191.5C 392.5,190.833 392.5,190.167 392.5,189.5C 393.319,183.2 391.985,177.533 388.5,172.5C 388.5,172.167 388.5,171.833 388.5,171.5C 390.404,171.262 391.738,170.262 392.5,168.5C 393.492,168.672 394.158,168.338 394.5,167.5C 395.5,167.167 396.167,166.5 396.5,165.5C 397.833,165.167 399.167,164.833 400.5,164.5 Z"/></g>
<g><path style="opacity:1" fill="#e9eaea" d="M 228.5,183.5 C 228.084,188.187 225.751,189.521 221.5,187.5C 220.199,186.116 220.199,184.616 221.5,183C 223.929,182.297 226.262,182.463 228.5,183.5 Z"/></g>
<g><path style="opacity:0.999" fill="#222122" d="M 340.5,187.5 C 338.821,187.285 337.821,187.952 337.5,189.5C 334.445,190.524 331.445,191.857 328.5,193.5C 327.996,190.658 326.329,189.325 323.5,189.5C 322.833,189.5 322.167,189.5 321.5,189.5C 321.937,187.926 322.937,186.759 324.5,186C 334.315,180.124 344.481,175.291 355,171.5C 355.833,171.833 356.667,172.167 357.5,172.5C 352.365,178.213 346.698,183.213 340.5,187.5 Z"/></g>
<g><path style="opacity:1" fill="#2e2c2c" d="M 256.5,163.5 C 256.833,163.5 257.167,163.5 257.5,163.5C 264.167,163.5 270.833,163.5 277.5,163.5C 266.3,176.368 253.3,187.034 238.5,195.5C 238.5,194.5 238.5,193.5 238.5,192.5C 236.5,192.5 234.5,192.5 232.5,192.5C 235.181,201.807 231.848,205.807 222.5,204.5C 219.579,204.476 216.746,204.143 214,203.5C 212.663,199.974 212.163,196.308 212.5,192.5C 215.669,191.083 218.669,189.417 221.5,187.5C 225.751,189.521 228.084,188.187 228.5,183.5C 229.391,182.89 230.391,182.557 231.5,182.5C 240.117,176.55 248.451,170.217 256.5,163.5 Z"/></g>
<g><path style="opacity:1" fill="#ececec" d="M 231.5,182.5 C 233.527,182.338 235.527,182.505 237.5,183C 239.323,187.846 237.656,189.512 232.5,188C 230.17,186.512 229.836,184.679 231.5,182.5 Z"/></g>
<g><path style="opacity:1" fill="#f4f4f4" d="M 340.5,187.5 C 346.621,187.09 352.621,187.59 358.5,189C 361.544,191.912 362.711,195.412 362,199.5C 356.375,203.062 350.541,206.229 344.5,209C 340.514,209.499 336.514,209.666 332.5,209.5C 328.397,208.769 324.897,209.769 322,212.5C 322.27,216.869 322.104,221.202 321.5,225.5C 319.929,226.309 318.262,226.643 316.5,226.5C 316.354,222.481 316.021,218.481 315.5,214.5C 316.229,212.007 317.063,209.674 318,207.5C 317.5,208 317,208.5 316.5,209C 311.167,209.667 305.833,209.667 300.5,209C 299.167,207 297.833,207 296.5,209C 292.514,209.499 288.514,209.666 284.5,209.5C 276.493,209.666 268.493,209.5 260.5,209C 258.951,207.786 257.785,206.286 257,204.5C 256.501,200.514 256.334,196.514 256.5,192.5C 258.5,192.5 260.5,192.5 262.5,192.5C 262.177,196.226 262.511,199.893 263.5,203.5C 273.453,204.641 283.453,204.808 293.5,204C 294.966,200.2 295.966,196.367 296.5,192.5C 298.167,192.5 299.833,192.5 301.5,192.5C 298.933,202.432 302.6,206.265 312.5,204C 314.333,203.5 315.5,202.333 316,200.5C 316.42,196.809 316.92,193.142 317.5,189.5C 318.5,189.5 319.5,189.5 320.5,189.5C 321.968,190.779 322.635,192.446 322.5,194.5C 322.54,197.881 322.207,201.214 321.5,204.5C 334.198,206.172 345.531,203.172 355.5,195.5C 355.291,194.914 354.957,194.414 354.5,194C 348.928,192.649 343.262,192.149 337.5,192.5C 337.5,191.5 337.5,190.5 337.5,189.5C 337.821,187.952 338.821,187.285 340.5,187.5 Z"/></g>
<g><path style="opacity:0.789" fill="#07070a" d="M 323.5,189.5 C 326.329,189.325 327.996,190.658 328.5,193.5C 331.445,191.857 334.445,190.524 337.5,189.5C 337.5,190.5 337.5,191.5 337.5,192.5C 343.262,192.149 348.928,192.649 354.5,194C 354.957,194.414 355.291,194.914 355.5,195.5C 345.531,203.172 334.198,206.172 321.5,204.5C 322.207,201.214 322.54,197.881 322.5,194.5C 323.451,193.081 323.784,191.415 323.5,189.5 Z"/></g>
<g><path style="opacity:1" fill="#7b7a7f" d="M 181.5,191.5 C 179.833,191.5 178.167,191.5 176.5,191.5C 176.813,195.042 176.479,198.375 175.5,201.5C 175.5,197.833 175.5,194.167 175.5,190.5C 177.735,190.205 179.735,190.539 181.5,191.5 Z"/></g>
<g><path style="opacity:1" fill="#f7f7f7" d="M 181.5,191.5 C 181.335,194.518 181.502,197.518 182,200.5C 184.527,205.384 187.527,205.717 191,201.5C 191.498,198.183 191.665,194.85 191.5,191.5C 193.167,191.5 194.833,191.5 196.5,191.5C 196.187,195.042 196.521,198.375 197.5,201.5C 200.5,205.5 203.5,205.5 206.5,201.5C 207.479,198.375 207.813,195.042 207.5,191.5C 209.167,191.5 210.833,191.5 212.5,191.5C 212.5,191.833 212.5,192.167 212.5,192.5C 212.163,196.308 212.663,199.974 214,203.5C 216.746,204.143 219.579,204.476 222.5,204.5C 231.848,205.807 235.181,201.807 232.5,192.5C 234.5,192.5 236.5,192.5 238.5,192.5C 238.5,193.5 238.5,194.5 238.5,195.5C 238.665,198.518 238.498,201.518 238,204.5C 237.535,205.931 236.701,207.097 235.5,208C 228.615,209.425 221.615,209.925 214.5,209.5C 212.629,209.141 211.129,208.141 210,206.5C 204.705,210.49 199.372,210.49 194,206.5C 192.22,207.639 190.386,208.639 188.5,209.5C 184.694,209.98 181.361,208.98 178.5,206.5C 177.354,207.145 176.354,207.978 175.5,209C 170.245,210.047 165.245,209.547 160.5,207.5C 159.692,207.808 159.025,208.308 158.5,209C 153.177,209.499 147.844,209.666 142.5,209.5C 137.167,209.5 131.833,209.5 126.5,209.5C 122.83,209.673 120.33,208.007 119,204.5C 118.501,200.514 118.334,196.514 118.5,192.5C 120.5,192.5 122.5,192.5 124.5,192.5C 124.177,196.226 124.511,199.893 125.5,203.5C 135.453,204.641 145.453,204.808 155.5,204C 157.29,200.417 157.957,196.584 157.5,192.5C 158.833,192.5 160.167,192.5 161.5,192.5C 162.946,196.153 164.28,199.987 165.5,204C 168.167,204.667 170.833,204.667 173.5,204C 174.381,203.292 175.047,202.458 175.5,201.5C 176.479,198.375 176.813,195.042 176.5,191.5C 178.167,191.5 179.833,191.5 181.5,191.5 Z"/></g>
<g><path style="opacity:1" fill="#9e9ea1" d="M 191.5,191.5 C 193.265,190.539 195.265,190.205 197.5,190.5C 197.5,193.833 197.5,197.167 197.5,200.5C 197.5,200.833 197.5,201.167 197.5,201.5C 196.521,198.375 196.187,195.042 196.5,191.5C 194.833,191.5 193.167,191.5 191.5,191.5 Z"/></g>
<g><path style="opacity:1" fill="#9f9fa1" d="M 211.5,190.5 C 212.167,190.5 212.5,190.833 212.5,191.5C 210.833,191.5 209.167,191.5 207.5,191.5C 207.813,195.042 207.479,198.375 206.5,201.5C 206.5,199.833 206.5,198.167 206.5,196.5C 206.5,194.5 206.5,192.5 206.5,190.5C 208.167,190.5 209.833,190.5 211.5,190.5 Z"/></g>
<g><path style="opacity:1" fill="#8b8d90" d="M 320.5,189.5 C 320.833,189.5 321.167,189.5 321.5,189.5C 322.167,189.5 322.833,189.5 323.5,189.5C 323.784,191.415 323.451,193.081 322.5,194.5C 322.635,192.446 321.968,190.779 320.5,189.5 Z"/></g>
<g><path style="opacity:1" fill="#333132" d="M 206.5,196.5 C 206.5,198.167 206.5,199.833 206.5,201.5C 203.5,205.5 200.5,205.5 197.5,201.5C 197.5,201.167 197.5,200.833 197.5,200.5C 200.378,198.895 203.378,197.561 206.5,196.5 Z"/></g>
<g><path style="opacity:1" fill="#0c0b1a" d="M 188.5,209.5 C 189.065,213.537 190.399,217.203 192.5,220.5C 195.271,228.701 199.604,236.035 205.5,242.5C 200.167,242.5 194.833,242.5 189.5,242.5C 183.167,242.5 176.833,242.5 170.5,242.5C 170.167,242.5 169.833,242.5 169.5,242.5C 168.492,237.643 166.992,232.976 165,228.5C 164.358,224.509 163.858,220.509 163.5,216.5C 156.859,218.816 150.193,221.149 143.5,223.5C 142.807,219.435 142.14,215.268 141.5,211C 142.056,210.617 142.389,210.117 142.5,209.5C 147.844,209.666 153.177,209.499 158.5,209C 159.025,208.308 159.692,207.808 160.5,207.5C 165.245,209.547 170.245,210.047 175.5,209C 176.354,207.978 177.354,207.145 178.5,206.5C 181.361,208.98 184.694,209.98 188.5,209.5 Z"/></g>
<g><path style="opacity:1" fill="#2d2b2b" d="M 214.5,209.5 C 207.48,213.677 200.146,217.343 192.5,220.5C 190.399,217.203 189.065,213.537 188.5,209.5C 190.386,208.639 192.22,207.639 194,206.5C 199.372,210.49 204.705,210.49 210,206.5C 211.129,208.141 212.629,209.141 214.5,209.5 Z"/></g>
<g><path style="opacity:1" fill="#0f111f" d="M 315.5,214.5 C 309,219.56 301.667,222.894 293.5,224.5C 289.832,223.515 286.166,222.181 282.5,220.5C 281.05,219.15 280.383,217.484 280.5,215.5C 281.833,213.5 283.167,211.5 284.5,209.5C 288.514,209.666 292.514,209.499 296.5,209C 297.833,207 299.167,207 300.5,209C 305.833,209.667 311.167,209.667 316.5,209C 317,208.5 317.5,208 318,207.5C 317.063,209.674 316.229,212.007 315.5,214.5 Z"/></g>
<g><path style="opacity:1" fill="#101a25" d="M 126.5,209.5 C 131.833,209.5 137.167,209.5 142.5,209.5C 142.389,210.117 142.056,210.617 141.5,211C 142.14,215.268 142.807,219.435 143.5,223.5C 143.5,223.833 143.5,224.167 143.5,224.5C 135.676,227.912 128.01,231.579 120.5,235.5C 120.203,228.08 120.536,220.746 121.5,213.5C 122.984,211.926 124.651,210.593 126.5,209.5 Z"/></g>
<g><path style="opacity:1" fill="#f1f1f1" d="M 335.5,215.5 C 341.89,214.218 343.89,216.551 341.5,222.5C 335.133,224.133 333.133,221.799 335.5,215.5 Z"/></g>
<g><path style="opacity:1" fill="#2b2929" d="M 332.5,209.5 C 328.39,227.11 317.39,237.276 299.5,240C 298.748,240.671 298.414,241.504 298.5,242.5C 293.167,242.5 287.833,242.5 282.5,242.5C 286.14,236.517 289.806,230.517 293.5,224.5C 301.667,222.894 309,219.56 315.5,214.5C 316.021,218.481 316.354,222.481 316.5,226.5C 318.262,226.643 319.929,226.309 321.5,225.5C 322.104,221.202 322.27,216.869 322,212.5C 324.897,209.769 328.397,208.769 332.5,209.5 Z"/></g>
<g><path style="opacity:1" fill="#262526" d="M 169.5,242.5 C 168.5,242.5 167.5,242.5 166.5,242.5C 166.54,239.119 166.207,235.786 165.5,232.5C 158.193,235.484 150.86,238.484 143.5,241.5C 145.007,236.128 146.007,230.628 146.5,225C 145.552,224.517 144.552,224.351 143.5,224.5C 143.5,224.167 143.5,223.833 143.5,223.5C 150.193,221.149 156.859,218.816 163.5,216.5C 163.858,220.509 164.358,224.509 165,228.5C 166.992,232.976 168.492,237.643 169.5,242.5 Z"/></g>
<g><path style="opacity:0.999" fill="#080713" d="M 280.5,215.5 C 280.383,217.484 281.05,219.15 282.5,220.5C 286.166,222.181 289.832,223.515 293.5,224.5C 289.806,230.517 286.14,236.517 282.5,242.5C 282.167,242.5 281.833,242.5 281.5,242.5C 275.833,242.5 270.167,242.5 264.5,242.5C 262.167,242.5 259.833,242.5 257.5,242.5C 266.262,234.407 273.929,225.407 280.5,215.5 Z"/></g>
<g><path style="opacity:0.999" fill="#0d1120" d="M 121.5,213.5 C 120.536,220.746 120.203,228.08 120.5,235.5C 116.085,238.04 111.418,240.04 106.5,241.5C 100.984,239.984 96.9842,236.651 94.5,231.5C 102.669,224.249 111.669,218.249 121.5,213.5 Z"/></g>
<g><path style="opacity:1" fill="#2f2e2e" d="M 143.5,224.5 C 144.552,224.351 145.552,224.517 146.5,225C 146.007,230.628 145.007,236.128 143.5,241.5C 142.833,241.5 142.5,241.833 142.5,242.5C 136.833,242.5 131.167,242.5 125.5,242.5C 119.167,242.5 112.833,242.5 106.5,242.5C 106.5,242.167 106.5,241.833 106.5,241.5C 111.418,240.04 116.085,238.04 120.5,235.5C 128.01,231.579 135.676,227.912 143.5,224.5 Z"/></g>
<g><path style="opacity:0.79" fill="#030303" d="M 166.5,242.5 C 166.167,242.5 165.833,242.5 165.5,242.5C 158.5,242.5 151.5,242.5 144.5,242.5C 143.833,242.5 143.167,242.5 142.5,242.5C 142.5,241.833 142.833,241.5 143.5,241.5C 150.86,238.484 158.193,235.484 165.5,232.5C 166.207,235.786 166.54,239.119 166.5,242.5 Z"/></g>
<g><path style="opacity:0.797" fill="#322c7c" d="M 92.5,230.5 C 93.1667,230.833 93.8333,231.167 94.5,231.5C 96.9842,236.651 100.984,239.984 106.5,241.5C 106.5,241.833 106.5,242.167 106.5,242.5C 96.0487,247.302 86.7154,253.635 78.5,261.5C 77.8333,261.5 77.5,261.833 77.5,262.5C 73.69,264.252 70.3567,266.752 67.5,270C 66.552,270.483 65.552,270.649 64.5,270.5C 64.3398,268.801 64.5065,267.134 65,265.5C 71.7734,251.9 80.9401,240.233 92.5,230.5 Z"/></g>
<g><path style="opacity:0.781" fill="#cfc2c4" d="M 165.5,242.5 C 165.833,242.5 166.167,242.5 166.5,242.5C 167.5,242.5 168.5,242.5 169.5,242.5C 169.833,242.5 170.167,242.5 170.5,242.5C 174.109,251.392 179.443,259.059 186.5,265.5C 189.893,270.033 194.226,273.366 199.5,275.5C 201.515,276.924 203.848,277.59 206.5,277.5C 206.5,278.167 206.833,278.5 207.5,278.5C 212.64,279.488 217.974,279.821 223.5,279.5C 225.806,279.007 228.139,278.674 230.5,278.5C 230.082,279.222 229.416,279.722 228.5,280C 222.167,280.333 215.833,280.667 209.5,281C 210.308,281.308 210.975,281.808 211.5,282.5C 211.154,283.696 210.654,283.696 210,282.5C 209.821,285.553 209.321,288.553 208.5,291.5C 206.787,291.879 205.787,292.879 205.5,294.5C 194.499,290.342 185.665,283.342 179,273.5C 172.082,264.256 167.582,253.922 165.5,242.5 Z"/></g>
<g><path style="opacity:1" fill="#322d7c" d="M 170.5,242.5 C 176.833,242.5 183.167,242.5 189.5,242.5C 189.554,250.356 189.388,258.356 189,266.5C 188.329,265.748 187.496,265.414 186.5,265.5C 179.443,259.059 174.109,251.392 170.5,242.5 Z"/></g>
<g><path style="opacity:1" fill="#39418a" d="M 189.5,242.5 C 194.833,242.5 200.167,242.5 205.5,242.5C 205.414,253.049 205.414,263.382 205.5,273.5C 205.167,274.5 204.833,275.5 204.5,276.5C 202.929,275.691 201.262,275.357 199.5,275.5C 194.226,273.366 189.893,270.033 186.5,265.5C 187.496,265.414 188.329,265.748 189,266.5C 189.388,258.356 189.554,250.356 189.5,242.5 Z"/></g>
<g><path style="opacity:0.98" fill="#3e5095" d="M 205.5,242.5 C 206.833,242.5 208.167,242.5 209.5,242.5C 209.5,243.167 209.833,243.5 210.5,243.5C 209.636,254.735 209.636,266.068 210.5,277.5C 209.167,277.5 207.833,277.5 206.5,277.5C 203.848,277.59 201.515,276.924 199.5,275.5C 201.262,275.357 202.929,275.691 204.5,276.5C 204.833,275.5 205.167,274.5 205.5,273.5C 205.414,263.382 205.414,253.049 205.5,242.5 Z"/></g>
<g><path style="opacity:1" fill="#303c74" d="M 252.5,242.5 C 254.167,242.5 255.833,242.5 257.5,242.5C 259.833,242.5 262.167,242.5 264.5,242.5C 264.178,248.358 264.511,254.025 265.5,259.5C 265.5,259.833 265.5,260.167 265.5,260.5C 261.854,262.817 258.52,265.484 255.5,268.5C 254.833,268.5 254.167,268.5 253.5,268.5C 252.794,260.23 252.46,251.563 252.5,242.5 Z"/></g>
<g><path style="opacity:1" fill="#292961" d="M 264.5,242.5 C 270.167,242.5 275.833,242.5 281.5,242.5C 279.42,244.573 277.754,246.907 276.5,249.5C 272.833,252.833 269.167,256.167 265.5,259.5C 264.511,254.025 264.178,248.358 264.5,242.5 Z"/></g>
<g><path style="opacity:0.879" fill="#888184" d="M 281.5,242.5 C 281.833,242.5 282.167,242.5 282.5,242.5C 287.833,242.5 293.167,242.5 298.5,242.5C 298.833,242.5 299.167,242.5 299.5,242.5C 294.05,252.399 287.383,261.399 279.5,269.5C 279.666,262.159 279.5,254.826 279,247.5C 278.292,248.381 277.458,249.047 276.5,249.5C 277.754,246.907 279.42,244.573 281.5,242.5 Z"/></g>
<g><path style="opacity:0.512" fill="#e8e5e4" d="M 125.5,242.5 C 131.167,242.5 136.833,242.5 142.5,242.5C 143.167,242.5 143.833,242.5 144.5,242.5C 138.599,246.282 132.266,249.282 125.5,251.5C 125.5,248.5 125.5,245.5 125.5,242.5 Z"/></g>
<g><path style="opacity:0.792" fill="#d2c6c6" d="M 106.5,242.5 C 112.833,242.5 119.167,242.5 125.5,242.5C 125.5,245.5 125.5,248.5 125.5,251.5C 111.497,258.673 97.4974,266.173 83.5,274C 77.0757,277.923 71.0757,282.423 65.5,287.5C 64.3691,285.926 64.2025,284.259 65,282.5C 68.2041,275.151 72.3708,268.484 77.5,262.5C 78.1667,262.5 78.5,262.167 78.5,261.5C 86.7154,253.635 96.0487,247.302 106.5,242.5 Z"/></g>
<g><path style="opacity:0.956" fill="#415d9f" d="M 210.5,243.5 C 212.537,244.846 214.537,246.18 216.5,247.5C 216.5,257.833 216.5,268.167 216.5,278.5C 213.5,278.5 210.5,278.5 207.5,278.5C 206.833,278.5 206.5,278.167 206.5,277.5C 207.833,277.5 209.167,277.5 210.5,277.5C 209.636,266.068 209.636,254.735 210.5,243.5 Z"/></g>
<g><path style="opacity:0.942" fill="#4a72af" d="M 216.5,247.5 C 219.461,248.323 222.461,248.99 225.5,249.5C 224.179,259 224.179,268.5 225.5,278C 224.584,278.278 223.918,278.778 223.5,279.5C 217.974,279.821 212.64,279.488 207.5,278.5C 210.5,278.5 213.5,278.5 216.5,278.5C 216.5,268.167 216.5,257.833 216.5,247.5 Z"/></g>
<g><path style="opacity:1" fill="#486fa6" d="M 242.5,247.5 C 241.864,256.565 242.53,265.231 244.5,273.5C 241.785,275.072 238.785,276.072 235.5,276.5C 234.507,267.682 234.173,258.682 234.5,249.5C 237.115,248.709 239.782,248.043 242.5,247.5 Z"/></g>
<g><path style="opacity:0.862" fill="#a19c9e" d="M 279.5,269.5 C 276.126,273.876 272.126,277.542 267.5,280.5C 268.763,275.186 268.763,269.852 267.5,264.5C 267.415,262.667 266.748,261.334 265.5,260.5C 265.5,260.167 265.5,259.833 265.5,259.5C 269.167,256.167 272.833,252.833 276.5,249.5C 277.458,249.047 278.292,248.381 279,247.5C 279.5,254.826 279.666,262.159 279.5,269.5 Z"/></g>
<g><path style="opacity:1" fill="#5587bd" d="M 225.5,249.5 C 228.5,249.5 231.5,249.5 234.5,249.5C 234.173,258.682 234.507,267.682 235.5,276.5C 234.5,277.167 233.5,277.833 232.5,278.5C 231.833,278.5 231.167,278.5 230.5,278.5C 228.139,278.674 225.806,279.007 223.5,279.5C 223.918,278.778 224.584,278.278 225.5,278C 224.179,268.5 224.179,259 225.5,249.5 Z"/></g>
<g><path style="opacity:1" fill="#3b558d" d="M 251.5,242.5 C 251.833,242.5 252.167,242.5 252.5,242.5C 252.46,251.563 252.794,260.23 253.5,268.5C 250.992,270.924 247.992,272.59 244.5,273.5C 242.53,265.231 241.864,256.565 242.5,247.5C 245.696,246.071 248.696,244.405 251.5,242.5 Z"/></g>
<g><path style="opacity:0.935" fill="#bbb7b8" d="M 265.5,260.5 C 266.748,261.334 267.415,262.667 267.5,264.5C 268.763,269.852 268.763,275.186 267.5,280.5C 264.725,283.605 261.392,285.938 257.5,287.5C 256.465,281.686 256.465,275.519 257.5,269C 256.906,268.536 256.239,268.369 255.5,268.5C 258.52,265.484 261.854,262.817 265.5,260.5 Z"/></g>
<g><path style="opacity:0.889" fill="#d1cecf" d="M 253.5,268.5 C 254.167,268.5 254.833,268.5 255.5,268.5C 256.239,268.369 256.906,268.536 257.5,269C 256.465,275.519 256.465,281.686 257.5,287.5C 253.813,290.01 249.813,292.01 245.5,293.5C 245.5,287.5 245.5,281.5 245.5,275.5C 241.214,276.707 236.88,277.707 232.5,278.5C 233.5,277.833 234.5,277.167 235.5,276.5C 238.785,276.072 241.785,275.072 244.5,273.5C 247.992,272.59 250.992,270.924 253.5,268.5 Z"/></g>
<g><path style="opacity:0.928" fill="#eae8e6" d="M 245.5,293.5 C 234.671,297.44 223.671,298.44 212.5,296.5C 219.167,296.5 225.833,296.5 232.5,296.5C 232.39,290.289 232.39,284.289 232.5,278.5C 236.88,277.707 241.214,276.707 245.5,275.5C 245.5,281.5 245.5,287.5 245.5,293.5 Z"/></g>
<g><path style="opacity:0.931" fill="#d9cfce" d="M 230.5,278.5 C 231.167,278.5 231.833,278.5 232.5,278.5C 232.39,284.289 232.39,290.289 232.5,296.5C 225.833,296.5 219.167,296.5 212.5,296.5C 209.848,296.59 207.515,295.924 205.5,294.5C 205.787,292.879 206.787,291.879 208.5,291.5C 209.321,288.553 209.821,285.553 210,282.5C 210.654,283.696 211.154,283.696 211.5,282.5C 210.975,281.808 210.308,281.308 209.5,281C 215.833,280.667 222.167,280.333 228.5,280C 229.416,279.722 230.082,279.222 230.5,278.5 Z"/></g>
<g><path style="opacity:0.601" fill="#373769" d="M 110.5,317.5 C 111.833,317.5 113.167,317.5 114.5,317.5C 114.5,319.833 114.5,322.167 114.5,324.5C 111.821,324.673 109.487,325.673 107.5,327.5C 110.651,331.151 113.984,334.651 117.5,338C 123.944,341.226 126.944,339.226 126.5,332C 128.473,331.505 130.473,331.338 132.5,331.5C 132.5,333.833 132.5,336.167 132.5,338.5C 134.833,338.5 137.167,338.5 139.5,338.5C 139.5,336.167 139.5,333.833 139.5,331.5C 141.5,331.5 143.5,331.5 145.5,331.5C 145.665,334.85 145.498,338.183 145,341.5C 144.535,342.931 143.701,344.097 142.5,345C 127.444,345.051 112.444,345.218 97.5,345.5C 97.7553,349.493 96.0886,352.326 92.5,354C 76.5082,357.673 70.0082,351.506 73,335.5C 74.6667,334.167 76.3333,334.167 78,335.5C 78.3333,338.5 78.6667,341.5 79,344.5C 79.4652,345.931 80.2986,347.097 81.5,348C 84.1667,348.667 86.8333,348.667 89.5,348C 90.8333,347.333 90.8333,346.667 89.5,346C 83.8595,346.371 82.1929,344.037 84.5,339C 92.2202,338.8 99.8869,338.633 107.5,338.5C 105.229,334.726 102.396,331.393 99,328.5C 98.2419,326.231 98.4086,324.064 99.5,322C 103.307,320.572 106.974,319.072 110.5,317.5 Z"/></g>
<g><path style="opacity:0.602" fill="#343467" d="M 208.5,317.5 C 212.225,317.78 213.392,319.78 212,323.5C 209.602,324.856 207.102,326.023 204.5,327C 208.441,331.451 212.774,335.284 217.5,338.5C 218.442,338.392 219.275,338.059 220,337.5C 220.499,331.509 220.666,325.509 220.5,319.5C 222.167,319.5 223.833,319.5 225.5,319.5C 225.816,327.752 225.482,335.919 224.5,344C 222.298,345.022 219.965,345.522 217.5,345.5C 209.006,345.59 200.506,345.257 192,344.5C 187.92,345.3 183.753,345.8 179.5,346C 176.986,353.761 171.653,356.594 163.5,354.5C 163.5,352.5 163.5,350.5 163.5,348.5C 167.287,349.186 170.454,348.186 173,345.5C 173.499,340.845 173.666,336.179 173.5,331.5C 175.5,331.5 177.5,331.5 179.5,331.5C 179.5,333.833 179.5,336.167 179.5,338.5C 182.176,339.008 184.843,339.175 187.5,339C 188.435,336.619 188.768,334.119 188.5,331.5C 190.833,331.5 193.167,331.5 195.5,331.5C 194.841,339.185 198.175,341.519 205.5,338.5C 202.904,334.981 200.071,331.648 197,328.5C 192.587,329.632 188.087,329.799 183.5,329C 182.692,323.839 184.859,322.339 190,324.5C 196.224,322.304 202.391,319.97 208.5,317.5 Z"/></g>
<g><path style="opacity:0.573" fill="#333366" d="M 229.5,319.5 C 231.5,319.5 233.5,319.5 235.5,319.5C 235.5,328.167 235.5,336.833 235.5,345.5C 233.5,345.5 231.5,345.5 229.5,345.5C 229.5,336.833 229.5,328.167 229.5,319.5 Z"/></g>
<g><path style="opacity:0.788" fill="#434271" d="M 331.5,319.5 C 333.167,319.5 334.833,319.5 336.5,319.5C 336.5,328.167 336.5,336.833 336.5,345.5C 334.833,345.5 333.167,345.5 331.5,345.5C 331.5,336.833 331.5,328.167 331.5,319.5 Z"/></g>
<g><path style="opacity:0.581" fill="#333366" d="M 268.5,320.5 C 270.5,320.5 272.5,320.5 274.5,320.5C 274.334,326.176 274.501,331.843 275,337.5C 276.011,338.337 277.178,338.67 278.5,338.5C 278.554,328.971 282.887,326.304 291.5,330.5C 293.055,332.943 293.722,335.61 293.5,338.5C 300.451,341.194 303.451,338.861 302.5,331.5C 304.527,331.338 306.527,331.505 308.5,332C 308.908,334.908 310.075,337.408 312,339.5C 311.336,330.249 315.503,326.749 324.5,329C 328.506,331.801 328.34,334.301 324,336.5C 322.441,335.971 320.941,335.304 319.5,334.5C 318.17,336.347 318.503,337.847 320.5,339C 323.146,339.497 325.813,339.664 328.5,339.5C 328.854,341.541 328.854,343.374 328.5,345C 315.924,345.821 303.424,345.655 291,344.5C 288.075,347.059 285.075,347.059 282,344.5C 277.85,346.002 273.85,345.669 270,343.5C 269.667,342.5 269.333,341.5 269,340.5C 268.215,342.286 267.049,343.786 265.5,345C 260.167,345.667 254.833,345.667 249.5,345C 248.594,343.301 248.261,341.467 248.5,339.5C 252.555,339.824 256.555,339.491 260.5,338.5C 258.345,335.182 256.012,332.015 253.5,329C 254,327.167 255.167,326 257,325.5C 261.321,328.488 264.988,332.154 268,336.5C 268.499,331.177 268.666,325.844 268.5,320.5 Z M 285.5,334.5 C 287.561,335.751 287.894,337.418 286.5,339.5C 284.246,338.286 283.913,336.619 285.5,334.5 Z"/></g>
<g><path style="opacity:0.619" fill="#383769" d="M 370.5,320.5 C 372.5,320.5 374.5,320.5 376.5,320.5C 376.5,326.5 376.5,332.5 376.5,338.5C 377.5,338.5 378.5,338.5 379.5,338.5C 379.936,328.89 384.436,326.224 393,330.5C 393.96,332.98 394.793,335.48 395.5,338C 397.473,338.495 399.473,338.662 401.5,338.5C 401.5,336.167 401.5,333.833 401.5,331.5C 403.5,331.5 405.5,331.5 407.5,331.5C 409.688,343.815 404.855,348.149 393,344.5C 389.667,347.167 386.333,347.167 383,344.5C 378.85,346.002 374.85,345.669 371,343.5C 370.5,335.841 370.334,328.174 370.5,320.5 Z M 386.5,334.5 C 389.956,335.536 390.29,337.203 387.5,339.5C 385.246,338.286 384.913,336.619 386.5,334.5 Z"/></g>
<g><path style="opacity:0.484" fill="#333366" d="M 135.5,323.5 C 141.158,322.679 142.825,324.846 140.5,330C 138.527,330.495 136.527,330.662 134.5,330.5C 134.298,328.05 134.631,325.717 135.5,323.5 Z"/></g>
<g><path style="opacity:0.456" fill="#333366" d="M 297.5,323.5 C 301.6,324.217 305.6,324.384 309.5,324C 310.406,325.699 310.739,327.533 310.5,329.5C 306.154,329.666 301.821,329.499 297.5,329C 296.248,327.172 296.248,325.339 297.5,323.5 Z"/></g>
<g><path style="opacity:0.426" fill="#333366" d="M 397.5,323.5 C 403.113,322.079 405.28,324.079 404,329.5C 397.423,332.088 395.256,330.088 397.5,323.5 Z"/></g>
<g><path style="opacity:0.576" fill="#343467" d="M 356.5,325.5 C 360.642,327.12 364.142,329.786 367,333.5C 369.16,337.519 368.994,341.353 366.5,345C 361.177,345.499 355.844,345.666 350.5,345.5C 350.167,343.5 349.833,341.5 349.5,339.5C 353.555,339.824 357.555,339.491 361.5,338.5C 359.144,335.978 356.977,333.312 355,330.5C 354.387,328.505 354.887,326.838 356.5,325.5 Z"/></g>
<g><path style="opacity:0.615" fill="#353567" d="M 150.5,328.5 C 154.603,327.769 158.103,328.769 161,331.5C 162.439,336.762 162.772,342.096 162,347.5C 158.352,353.908 152.852,356.241 145.5,354.5C 145.5,352.5 145.5,350.5 145.5,348.5C 149.219,348.998 152.553,348.164 155.5,346C 148.076,344.992 145.243,340.825 147,333.5C 147.257,331.093 148.424,329.427 150.5,328.5 Z M 154.5,334.5 C 156.104,335.287 156.771,336.62 156.5,338.5C 155.5,338.5 154.5,338.5 153.5,338.5C 153.433,337.041 153.766,335.708 154.5,334.5 Z"/></g>
<g><path style="opacity:0.444" fill="#39386a" d="M 119.5,347.5 C 123.5,348.655 127.5,348.822 131.5,348C 132.861,354.246 130.694,355.746 125,352.5C 122.09,355.309 119.923,354.809 118.5,351C 118.648,349.744 118.982,348.577 119.5,347.5 Z"/></g>
<g><path style="opacity:0.09" fill="#e1e1e1" d="M 62.5,359.5 C 179.332,358.5 296.332,358.167 413.5,358.5C 413.5,375.833 413.5,393.167 413.5,410.5C 412.167,410.5 410.833,410.5 409.5,410.5C 410.209,409.596 411.209,409.263 412.5,409.5C 412.5,393.167 412.5,376.833 412.5,360.5C 296.001,359.5 179.335,359.167 62.5,359.5 Z"/></g>
<g><path style="opacity:0.776" fill="#acacab" d="M 62.5,359.5 C 179.335,359.167 296.001,359.5 412.5,360.5C 296.167,360.5 179.833,360.5 63.5,360.5C 63.5,376.833 63.5,393.167 63.5,409.5C 74.0135,409.172 84.3468,409.506 94.5,410.5C 83.8333,410.5 73.1667,410.5 62.5,410.5C 62.5,393.5 62.5,376.5 62.5,359.5 Z"/></g>
<g><path style="opacity:0.365" fill="#9d9c9c" d="M 412.5,360.5 C 412.5,376.833 412.5,393.167 412.5,409.5C 411.209,409.263 410.209,409.596 409.5,410.5C 405.167,410.5 400.833,410.5 396.5,410.5C 376.167,409.167 355.833,409.167 335.5,410.5C 328.5,410.5 321.5,410.5 314.5,410.5C 313.167,410.5 311.833,410.5 310.5,410.5C 288.167,410.5 265.833,410.5 243.5,410.5C 240.167,410.5 236.833,410.5 233.5,410.5C 209.833,410.5 186.167,410.5 162.5,410.5C 161.5,410.5 160.5,410.5 159.5,410.5C 137.833,410.5 116.167,410.5 94.5,410.5C 84.3468,409.506 74.0135,409.172 63.5,409.5C 63.5,393.167 63.5,376.833 63.5,360.5C 179.833,360.5 296.167,360.5 412.5,360.5 Z M 65.5,362.5 C 180.5,362.5 295.5,362.5 410.5,362.5C 411.013,367.085 410.346,371.418 408.5,375.5C 410.445,385.978 411.111,396.645 410.5,407.5C 295.5,407.5 180.5,407.5 65.5,407.5C 65.8051,392.438 65.8051,377.438 65.5,362.5 Z M 347.5,387.5 C 344.937,391.257 341.27,392.924 336.5,392.5C 335.206,385.557 335.206,378.557 336.5,371.5C 346.963,371.705 350.629,377.038 347.5,387.5 Z M 245.5,377.5 C 246.391,379.291 247.391,381.124 248.5,383C 246.741,383.798 245.074,383.631 243.5,382.5C 244.456,380.925 245.123,379.258 245.5,377.5 Z M 126.5,378.5 C 128.953,381.303 129.12,384.303 127,387.5C 125.293,385.091 124.46,382.425 124.5,379.5C 125.167,379.167 125.833,378.833 126.5,378.5 Z M 309.5,378.5 C 311.741,379.3 312.741,380.966 312.5,383.5C 310.517,383.843 309.183,383.176 308.5,381.5C 309.404,380.791 309.737,379.791 309.5,378.5 Z M 95.5,379.5 C 97.5138,379.392 99.1805,380.058 100.5,381.5C 100.313,383.564 99.813,385.564 99,387.5C 98.6174,386.944 98.1174,386.611 97.5,386.5C 97.233,384.035 96.5664,381.701 95.5,379.5 Z M 153.5,379.5 C 154.5,379.5 155.5,379.5 156.5,379.5C 158.891,381.921 159.058,384.588 157,387.5C 156.617,386.944 156.117,386.611 155.5,386.5C 155.233,384.035 154.566,381.701 153.5,379.5 Z M 191.5,380.5 C 193.292,380.366 194.958,380.699 196.5,381.5C 194.958,380.699 193.292,380.366 191.5,380.5 Z"/></g>
<g><path style="opacity:0.381" fill="#474646" d="M 212.5,369.5 C 209.555,368.532 206.555,368.366 203.5,369C 204.056,369.383 204.389,369.883 204.5,370.5C 203.005,370.585 202.005,369.919 201.5,368.5C 204.784,367.343 208.118,367.176 211.5,368C 212.056,368.383 212.389,368.883 212.5,369.5 Z"/></g>
<g><path style="opacity:0.896" fill="#1f1e1e" d="M 260.5,393.5 C 259.306,394.777 257.64,395.444 255.5,395.5C 253.833,395.333 252.167,395.167 250.5,395C 253.842,393.876 254.175,392.376 251.5,390.5C 250.919,387.276 248.919,385.943 245.5,386.5C 241.738,386.664 239.738,388.664 239.5,392.5C 239.577,393.75 240.244,394.583 241.5,395C 238.5,395.667 235.5,395.667 232.5,395C 234.063,394.241 235.063,393.074 235.5,391.5C 238.493,383.524 241.493,375.524 244.5,367.5C 246.045,366.548 247.712,366.215 249.5,366.5C 251.824,376.161 255.491,385.161 260.5,393.5 Z M 245.5,377.5 C 245.123,379.258 244.456,380.925 243.5,382.5C 245.074,383.631 246.741,383.798 248.5,383C 247.391,381.124 246.391,379.291 245.5,377.5 Z"/></g>
<g><path style="opacity:0.902" fill="#121111" d="M 315.5,373.5 C 316.704,378.895 318.704,383.895 321.5,388.5C 322.593,390.349 323.926,392.016 325.5,393.5C 326.884,394.801 328.384,394.801 330,393.5C 330.815,385.254 330.648,377.088 329.5,369C 335.87,368.294 342.203,368.461 348.5,369.5C 349.492,369.328 350.158,369.662 350.5,370.5C 353.447,375.016 354.78,380.016 354.5,385.5C 354.103,389.565 352.103,392.565 348.5,394.5C 338.206,395.427 327.872,395.76 317.5,395.5C 317.768,393.901 317.434,392.568 316.5,391.5C 315.766,390.122 315.099,388.622 314.5,387C 311.156,386.094 308.156,386.594 305.5,388.5C 304.883,388.611 304.383,388.944 304,389.5C 303.505,391.473 303.338,393.473 303.5,395.5C 297.491,395.666 291.491,395.499 285.5,395C 286.416,394.722 287.082,394.222 287.5,393.5C 287.5,392.833 287.833,392.5 288.5,392.5C 289.653,386.681 289.819,380.681 289,374.5C 288.392,376.154 287.892,377.821 287.5,379.5C 286.503,379.53 285.836,379.03 285.5,378C 286.805,375.224 287.971,372.39 289,369.5C 291.274,368.189 293.44,368.189 295.5,369.5C 295.5,370.167 295.167,370.5 294.5,370.5C 293.344,377.989 293.178,385.655 294,393.5C 295.292,394.791 296.458,394.791 297.5,393.5C 298.846,391.463 300.18,389.463 301.5,387.5C 303.293,385.574 304.293,383.241 304.5,380.5C 306.293,378.574 307.293,376.241 307.5,373.5C 310.167,364.167 312.833,364.167 315.5,373.5 Z M 347.5,387.5 C 344.937,391.257 341.27,392.924 336.5,392.5C 335.206,385.557 335.206,378.557 336.5,371.5C 346.963,371.705 350.629,377.038 347.5,387.5 Z M 309.5,378.5 C 311.741,379.3 312.741,380.966 312.5,383.5C 310.517,383.843 309.183,383.176 308.5,381.5C 309.404,380.791 309.737,379.791 309.5,378.5 Z"/></g>
<g><path style="opacity:0.841" fill="#252424" d="M 368.5,366.5 C 370.199,366.34 371.866,366.506 373.5,367C 374.833,368.333 374.833,369.667 373.5,371C 371.866,371.494 370.199,371.66 368.5,371.5C 368.5,369.833 368.5,368.167 368.5,366.5 Z"/></g>
<g><path style="opacity:0.909" fill="#111010" d="M 212.5,369.5 C 213.925,370.922 214.925,372.589 215.5,374.5C 217.698,379.205 220.864,383.205 225,386.5C 225.807,380.584 225.641,374.75 224.5,369C 225.333,368.833 226.167,368.667 227,368.5C 228.376,368.684 229.209,369.351 229.5,370.5C 228.833,379.009 228.167,387.676 227.5,396.5C 226.482,395.807 225.482,395.141 224.5,394.5C 221.936,391.72 219.603,388.72 217.5,385.5C 215.241,382.062 212.741,378.729 210,375.5C 209.182,381.349 209.348,387.015 210.5,392.5C 211.167,392.5 211.5,392.833 211.5,393.5C 211.03,394.693 210.03,395.36 208.5,395.5C 206.97,395.36 205.97,394.693 205.5,393.5C 205.328,392.508 205.662,391.842 206.5,391.5C 207.654,385.013 207.821,378.346 207,371.5C 206.329,370.748 205.496,370.414 204.5,370.5C 204.389,369.883 204.056,369.383 203.5,369C 206.555,368.366 209.555,368.532 212.5,369.5 Z"/></g>
<g><path style="opacity:0.883" fill="#131212" d="M 271.5,368.5 C 272.344,370.843 273.344,373.176 274.5,375.5C 275.052,379.941 276.719,383.941 279.5,387.5C 280.298,387.043 280.631,386.376 280.5,385.5C 281.479,384.235 282.479,382.901 283.5,381.5C 284.429,382.689 284.762,384.022 284.5,385.5C 283.724,389.719 281.89,393.386 279,396.5C 278.228,396.355 277.561,396.022 277,395.5C 275.487,391.812 273.987,388.145 272.5,384.5C 271.908,381.309 270.741,378.309 269,375.5C 268.833,378.5 268.667,381.5 268.5,384.5C 268.517,387.913 269.184,390.913 270.5,393.5C 270.611,394.117 270.944,394.617 271.5,395C 270.333,395.167 269.167,395.333 268,395.5C 266.319,395.392 265.152,394.725 264.5,393.5C 265.166,389.681 265.499,385.681 265.5,381.5C 265.463,377.075 264.796,372.909 263.5,369C 266.146,368.503 268.813,368.336 271.5,368.5 Z"/></g>
<g><path style="opacity:0.033" fill="#5f5e5e" d="M 229.5,370.5 C 229.209,369.351 228.376,368.684 227,368.5C 226.167,368.667 225.333,368.833 224.5,369C 225.641,374.75 225.807,380.584 225,386.5C 220.864,383.205 217.698,379.205 215.5,374.5C 218.552,377.576 221.386,380.91 224,384.5C 224.667,379.833 224.667,375.167 224,370.5C 222.795,369.929 221.628,369.262 220.5,368.5C 224.833,367.167 229.167,367.167 233.5,368.5C 232.234,369.362 230.901,370.029 229.5,370.5 Z"/></g>
<g><path style="opacity:0.04" fill="#717070" d="M 229.5,370.5 C 229.5,379.5 229.5,388.5 229.5,397.5C 226.715,398.084 225.048,397.084 224.5,394.5C 225.482,395.141 226.482,395.807 227.5,396.5C 228.167,387.676 228.833,379.009 229.5,370.5 Z"/></g>
<g><path style="opacity:0.034" fill="#60605f" d="M 271.5,368.5 C 268.813,368.336 266.146,368.503 263.5,369C 264.796,372.909 265.463,377.075 265.5,381.5C 265.499,385.681 265.166,389.681 264.5,393.5C 264.831,385.804 264.497,378.138 263.5,370.5C 262.328,370.081 261.328,369.415 260.5,368.5C 264.315,367.192 267.981,367.192 271.5,368.5 Z"/></g>
<g><path style="opacity:0.146" fill="#3c3b3b" d="M 294.5,370.5 C 294.334,377.841 294.5,385.174 295,392.5C 295.671,393.252 296.504,393.586 297.5,393.5C 296.458,394.791 295.292,394.791 294,393.5C 293.178,385.655 293.344,377.989 294.5,370.5 Z"/></g>
<g><path style="opacity:0.107" fill="#434242" d="M 348.5,369.5 C 342.203,368.461 335.87,368.294 329.5,369C 330.648,377.088 330.815,385.254 330,393.5C 328.384,394.801 326.884,394.801 325.5,393.5C 326.822,393.67 327.989,393.337 329,392.5C 329.667,385.167 329.667,377.833 329,370.5C 327.795,369.929 326.628,369.262 325.5,368.5C 332.476,367.336 339.476,367.169 346.5,368C 347.416,368.278 348.082,368.778 348.5,369.5 Z"/></g>
<g><path style="opacity:0.314" fill="#444343" d="M 347.5,387.5 C 350.629,377.038 346.963,371.705 336.5,371.5C 335.206,378.557 335.206,385.557 336.5,392.5C 335.178,389.232 334.511,385.565 334.5,381.5C 333.269,368.343 337.769,366.01 348,374.5C 349.434,378.406 349.767,382.406 349,386.5C 348.617,387.056 348.117,387.389 347.5,387.5 Z"/></g>
<g><path style="opacity:0.09" fill="#6e6e6d" d="M 204.5,370.5 C 205.496,370.414 206.329,370.748 207,371.5C 207.821,378.346 207.654,385.013 206.5,391.5C 206.666,385.158 206.5,378.825 206,372.5C 205.283,371.956 204.783,371.289 204.5,370.5 Z"/></g>
<g><path style="opacity:0.114" fill="#535252" d="M 350.5,370.5 C 355.12,374.683 356.453,379.683 354.5,385.5C 354.78,380.016 353.447,375.016 350.5,370.5 Z"/></g>
<g><path style="opacity:0.004" fill="#807f7f" d="M 379.5,376.5 C 383.167,375.167 386.833,375.167 390.5,376.5C 387.921,376.083 385.754,376.75 384,378.5C 382.951,376.893 381.451,376.227 379.5,376.5 Z"/></g>
<g><path style="opacity:0.063" fill="#757474" d="M 110.5,377.5 C 115.734,376.198 121.067,376.198 126.5,377.5C 126.5,377.833 126.5,378.167 126.5,378.5C 125.833,378.833 125.167,379.167 124.5,379.5C 120.285,377.564 115.619,376.897 110.5,377.5 Z"/></g>
<g><path style="opacity:0.067" fill="#787878" d="M 126.5,377.5 C 129.625,376.521 132.958,376.187 136.5,376.5C 136.715,378.179 136.048,379.179 134.5,379.5C 134.611,378.883 134.944,378.383 135.5,378C 132.518,377.502 129.518,377.335 126.5,377.5 Z"/></g>
<g><path style="opacity:0.062" fill="#676666" d="M 154.5,377.5 C 149.489,377.334 144.489,377.501 139.5,378C 140.428,378.388 141.095,379.055 141.5,380C 140.961,382.482 139.961,384.648 138.5,386.5C 138.665,384.173 139.331,382.007 140.5,380C 139.027,379.29 138.36,378.124 138.5,376.5C 144.026,376.179 149.36,376.512 154.5,377.5 Z"/></g>
<g><path style="opacity:0.066" fill="#777676" d="M 164.5,379.5 C 163.666,378.252 162.333,377.585 160.5,377.5C 158.667,377.585 157.334,378.252 156.5,379.5C 155.5,379.5 154.5,379.5 153.5,379.5C 153.833,378.833 154.167,378.167 154.5,377.5C 158.064,376.577 161.731,376.244 165.5,376.5C 165.737,377.791 165.404,378.791 164.5,379.5 Z"/></g>
<g><path style="opacity:0.059" fill="#646363" d="M 307.5,373.5 C 307.293,376.241 306.293,378.574 304.5,380.5C 304.707,377.759 305.707,375.426 307.5,373.5 Z"/></g>
<g><path style="opacity:0.702" fill="#595858" d="M 96.5,377.5 C 94.076,377.192 91.7427,377.526 89.5,378.5C 90.3094,380.071 90.6427,381.738 90.5,383.5C 89.0883,381.396 88.0883,379.063 87.5,376.5C 90.7131,376.19 93.7131,376.523 96.5,377.5 Z"/></g>
<g><path style="opacity:0.09" fill="#737473" d="M 190.5,376.5 C 189.5,378.167 188.167,379.5 186.5,380.5C 186.833,378.167 188.167,376.833 190.5,376.5 Z"/></g>
<g><path style="opacity:0.929" fill="#1d1c1c" d="M 198.5,376.5 C 199.989,378.645 200.989,380.978 201.5,383.5C 199.446,383.635 197.779,382.968 196.5,381.5C 195.208,378.33 193.542,377.996 191.5,380.5C 189.896,381.287 189.229,382.62 189.5,384.5C 189.402,386.553 190.069,388.22 191.5,389.5C 195.08,392.322 198.413,391.989 201.5,388.5C 202.775,391.96 201.775,394.627 198.5,396.5C 195.813,396.664 193.146,396.497 190.5,396C 188.598,394.27 186.931,392.437 185.5,390.5C 184.135,387.041 184.469,383.708 186.5,380.5C 188.167,379.5 189.5,378.167 190.5,376.5C 193.167,375.167 195.833,375.167 198.5,376.5 Z M 191.5,380.5 C 193.292,380.366 194.958,380.699 196.5,381.5C 194.958,380.699 193.292,380.366 191.5,380.5 Z"/></g>
<g><path style="opacity:0.082" fill="#6a6a69" d="M 217.5,385.5 C 214.832,383.664 212.666,381.331 211,378.5C 210.501,383.155 210.334,387.821 210.5,392.5C 209.348,387.015 209.182,381.349 210,375.5C 212.741,378.729 215.241,382.062 217.5,385.5 Z"/></g>
<g><path style="opacity:0.034" fill="#6e6e6d" d="M 272.5,384.5 C 271.442,383.4 270.608,382.066 270,380.5C 269.232,384.92 269.398,389.253 270.5,393.5C 269.184,390.913 268.517,387.913 268.5,384.5C 268.667,381.5 268.833,378.5 269,375.5C 270.741,378.309 271.908,381.309 272.5,384.5 Z"/></g>
<g><path style="opacity:0.201" fill="#525251" d="M 288.5,392.5 C 288.818,387.968 288.485,383.634 287.5,379.5C 287.892,377.821 288.392,376.154 289,374.5C 289.819,380.681 289.653,386.681 288.5,392.5 Z"/></g>
<g><path style="opacity:0.939" fill="#080707" d="M 368.5,376.5 C 368.833,376.5 369.167,376.5 369.5,376.5C 370.5,376.5 371.5,376.5 372.5,376.5C 372.179,382.026 372.512,387.36 373.5,392.5C 374.167,392.5 374.5,392.833 374.5,393.5C 374.611,394.117 374.944,394.617 375.5,395C 372.5,395.667 369.5,395.667 366.5,395C 367.416,394.626 368.25,394.126 369,393.5C 369.499,388.845 369.666,384.179 369.5,379.5C 368.448,379.649 367.448,379.483 366.5,379C 367.381,378.292 368.047,377.458 368.5,376.5 Z"/></g>
<g><path style="opacity:0.361" fill="#4d4c4c" d="M 369.5,376.5 C 370.568,375.566 371.901,375.232 373.5,375.5C 373.5,381.167 373.5,386.833 373.5,392.5C 372.512,387.36 372.179,382.026 372.5,376.5C 371.5,376.5 370.5,376.5 369.5,376.5 Z"/></g>
<g><path style="opacity:0.926" fill="#161616" d="M 379.5,376.5 C 381.451,376.227 382.951,376.893 384,378.5C 385.754,376.75 387.921,376.083 390.5,376.5C 390.5,377.833 390.5,379.167 390.5,380.5C 388.585,380.216 386.919,380.549 385.5,381.5C 384.577,385.064 384.244,388.731 384.5,392.5C 384.577,393.75 385.244,394.583 386.5,395C 383.167,395.667 379.833,395.667 376.5,395C 377.416,394.722 378.082,394.222 378.5,393.5C 379.486,389.03 379.819,384.363 379.5,379.5C 378.448,379.649 377.448,379.483 376.5,379C 377.571,378.148 378.571,377.315 379.5,376.5 Z"/></g>
<g><path style="opacity:0.004" fill="#747373" d="M 106.5,379.5 C 105.666,378.252 104.333,377.585 102.5,377.5C 101.167,377.667 99.8333,377.833 98.5,378C 99.8228,378.816 100.489,379.983 100.5,381.5C 99.1805,380.058 97.5138,379.392 95.5,379.5C 95.8333,378.833 96.1667,378.167 96.5,377.5C 100.064,376.577 103.731,376.244 107.5,376.5C 107.737,377.791 107.404,378.791 106.5,379.5 Z"/></g>
<g><path style="opacity:0.83" fill="#161615" d="M 96.5,377.5 C 96.1667,378.167 95.8333,378.833 95.5,379.5C 94.9569,379.56 94.6236,379.893 94.5,380.5C 95.1359,382.78 96.1359,384.78 97.5,386.5C 98.1174,386.611 98.6174,386.944 99,387.5C 99.813,385.564 100.313,383.564 100.5,381.5C 100.489,379.983 99.8228,378.816 98.5,378C 99.8333,377.833 101.167,377.667 102.5,377.5C 104.333,377.585 105.666,378.252 106.5,379.5C 106.394,382.079 107.061,384.412 108.5,386.5C 108.369,387.239 108.536,387.906 109,388.5C 110.044,387.377 110.71,386.044 111,384.5C 111.791,385.745 112.291,387.078 112.5,388.5C 111.065,390.598 109.898,392.931 109,395.5C 108.329,396.252 107.496,396.586 106.5,396.5C 105.243,393.904 104.076,391.237 103,388.5C 101.979,390.97 100.812,393.304 99.5,395.5C 98.3121,396.684 97.1455,396.684 96,395.5C 94.4113,391.969 93.2446,388.302 92.5,384.5C 91.8165,384.137 91.1499,383.804 90.5,383.5C 90.6427,381.738 90.3094,380.071 89.5,378.5C 91.7427,377.526 94.076,377.192 96.5,377.5 Z M 95.5,379.5 C 97.5138,379.392 99.1805,380.058 100.5,381.5C 100.313,383.564 99.813,385.564 99,387.5C 98.6174,386.944 98.1174,386.611 97.5,386.5C 97.233,384.035 96.5664,381.701 95.5,379.5 Z"/></g>
<g><path style="opacity:0.862" fill="#191918" d="M 110.5,377.5 C 115.619,376.897 120.285,377.564 124.5,379.5C 124.46,382.425 125.293,385.091 127,387.5C 129.12,384.303 128.953,381.303 126.5,378.5C 126.5,378.167 126.5,377.833 126.5,377.5C 129.518,377.335 132.518,377.502 135.5,378C 134.944,378.383 134.611,378.883 134.5,379.5C 134.5,380.167 134.5,380.833 134.5,381.5C 134.755,384.016 135.589,386.35 137,388.5C 137.717,387.956 138.217,387.289 138.5,386.5C 139.961,384.648 140.961,382.482 141.5,380C 141.095,379.055 140.428,378.388 139.5,378C 144.489,377.501 149.489,377.334 154.5,377.5C 154.167,378.167 153.833,378.833 153.5,379.5C 154.566,381.701 155.233,384.035 155.5,386.5C 156.92,389.261 157.587,392.261 157.5,395.5C 156.577,396.303 155.577,396.47 154.5,396C 153.534,393.231 152.201,390.731 150.5,388.5C 149.03,385.561 147.53,382.561 146,379.5C 142.659,384.511 140.159,389.845 138.5,395.5C 137.85,395.804 137.183,396.137 136.5,396.5C 134.806,394.446 133.639,392.112 133,389.5C 131.608,387.158 130.775,387.158 130.5,389.5C 129.97,391.924 129.136,394.257 128,396.5C 126.951,397.517 125.784,397.684 124.5,397C 122.34,392.686 120.673,388.186 119.5,383.5C 119.65,379.839 118.15,378.839 115,380.5C 114.517,381.448 114.351,382.448 114.5,383.5C 112.972,381.721 111.638,379.721 110.5,377.5 Z M 126.5,378.5 C 128.953,381.303 129.12,384.303 127,387.5C 125.293,385.091 124.46,382.425 124.5,379.5C 125.167,379.167 125.833,378.833 126.5,378.5 Z"/></g>
<g><path style="opacity:0.844" fill="#0b0a0a" d="M 164.5,379.5 C 163.206,383.018 163.873,386.351 166.5,389.5C 167.684,387.954 168.684,386.287 169.5,384.5C 170.429,385.689 170.762,387.022 170.5,388.5C 169.105,391.142 167.605,393.809 166,396.5C 165.059,394.273 163.892,392.273 162.5,390.5C 161.662,390.158 161.328,389.492 161.5,388.5C 160.905,385.887 160.071,385.887 159,388.5C 159.253,385.867 159.253,383.2 159,380.5C 158.329,379.748 157.496,379.414 156.5,379.5C 157.334,378.252 158.667,377.585 160.5,377.5C 162.333,377.585 163.666,378.252 164.5,379.5 Z"/></g>
<g><path style="opacity:0.004" fill="#848483" d="M 175.5,377.5 C 176.043,377.56 176.376,377.893 176.5,378.5C 175.113,380.21 173.779,381.877 172.5,383.5C 172.615,381.053 173.615,379.053 175.5,377.5 Z"/></g>
<g><path style="opacity:0.016" fill="#6d6d6c" d="M 119.5,383.5 C 118.685,382.571 117.852,381.571 117,380.5C 116.148,381.571 115.315,382.571 114.5,383.5C 114.351,382.448 114.517,381.448 115,380.5C 118.15,378.839 119.65,379.839 119.5,383.5 Z"/></g>
<g><path style="opacity:0.004" fill="#6a6a69" d="M 196.5,381.5 C 194.958,380.699 193.292,380.366 191.5,380.5C 193.542,377.996 195.208,378.33 196.5,381.5 Z"/></g>
<g><path style="opacity:0.839" fill="#3d3c3c" d="M 295.5,369.5 C 293.44,368.189 291.274,368.189 289,369.5C 287.971,372.39 286.805,375.224 285.5,378C 285.836,379.03 286.503,379.53 287.5,379.5C 287.008,381.819 286.008,383.819 284.5,385.5C 284.762,384.022 284.429,382.689 283.5,381.5C 282.479,382.901 281.479,384.235 280.5,385.5C 282.432,379.631 284.932,373.964 288,368.5C 291.455,367.209 294.955,367.209 298.5,368.5C 297.675,369.386 296.675,369.719 295.5,369.5 Z"/></g>
<g><path style="opacity:0.071" fill="#707070" d="M 379.5,376.5 C 378.571,377.315 377.571,378.148 376.5,379C 377.448,379.483 378.448,379.649 379.5,379.5C 379.819,384.363 379.486,389.03 378.5,393.5C 378.5,389.167 378.5,384.833 378.5,380.5C 377.5,380.5 376.5,380.5 375.5,380.5C 375.167,377.5 376.5,376.167 379.5,376.5 Z"/></g>
<g><path style="opacity:0.048" fill="#676666" d="M 390.5,376.5 C 391.451,377.919 391.784,379.585 391.5,381.5C 389.5,381.5 387.5,381.5 385.5,381.5C 386.919,380.549 388.585,380.216 390.5,380.5C 390.5,379.167 390.5,377.833 390.5,376.5 Z"/></g>
<g><path style="opacity:0.039" fill="#6c6b6b" d="M 95.5,379.5 C 96.5664,381.701 97.233,384.035 97.5,386.5C 96.1359,384.78 95.1359,382.78 94.5,380.5C 94.6236,379.893 94.9569,379.56 95.5,379.5 Z"/></g>
<g><path style="opacity:0.467" fill="#424241" d="M 175.5,377.5 C 173.615,379.053 172.615,381.053 172.5,383.5C 172.598,385.553 171.931,387.22 170.5,388.5C 170.762,387.022 170.429,385.689 169.5,384.5C 168.684,386.287 167.684,387.954 166.5,389.5C 163.873,386.351 163.206,383.018 164.5,379.5C 165.527,387.925 167.194,388.259 169.5,380.5C 168.189,379.742 167.689,378.742 168,377.5C 170.605,376.186 173.105,376.186 175.5,377.5 Z"/></g>
<g><path style="opacity:0.18" fill="#464545" d="M 274.5,375.5 C 275.984,379.132 277.984,382.466 280.5,385.5C 280.631,386.376 280.298,387.043 279.5,387.5C 276.719,383.941 275.052,379.941 274.5,375.5 Z"/></g>
<g><path style="opacity:0.645" fill="#494848" d="M 110.5,377.5 C 111.638,379.721 112.972,381.721 114.5,383.5C 114.598,385.553 113.931,387.22 112.5,388.5C 112.291,387.078 111.791,385.745 111,384.5C 110.71,386.044 110.044,387.377 109,388.5C 108.536,387.906 108.369,387.239 108.5,386.5C 109.481,384.604 110.481,382.604 111.5,380.5C 110.833,379.833 110.167,379.167 109.5,378.5C 109.624,377.893 109.957,377.56 110.5,377.5 Z"/></g>
<g><path style="opacity:0.686" fill="#3a3939" d="M 198.5,376.5 C 201.89,377.944 203.223,380.61 202.5,384.5C 198.167,384.5 193.833,384.5 189.5,384.5C 189.229,382.62 189.896,381.287 191.5,380.5C 191.791,381.649 192.624,382.316 194,382.5C 195.07,382.472 195.903,382.139 196.5,381.5C 197.779,382.968 199.446,383.635 201.5,383.5C 200.989,380.978 199.989,378.645 198.5,376.5 Z M 191.5,380.5 C 193.292,380.366 194.958,380.699 196.5,381.5C 194.958,380.699 193.292,380.366 191.5,380.5 Z"/></g>
<g><path style="opacity:0.035" fill="#6b6a6a" d="M 304.5,380.5 C 304.293,383.241 303.293,385.574 301.5,387.5C 301.707,384.759 302.707,382.426 304.5,380.5 Z"/></g>
<g><path style="opacity:0.283" fill="#575656" d="M 308.5,381.5 C 309.183,383.176 310.517,383.843 312.5,383.5C 312.741,380.966 311.741,379.3 309.5,378.5C 309.872,376.344 310.872,376.344 312.5,378.5C 313.348,380.409 313.682,382.409 313.5,384.5C 311.143,384.663 308.81,384.497 306.5,384C 307.066,383.005 307.733,382.172 308.5,381.5 Z"/></g>
<g><path style="opacity:0.027" fill="#858484" d="M 189.5,384.5 C 193.833,384.5 198.167,384.5 202.5,384.5C 198.688,385.324 194.688,385.824 190.5,386C 191.337,387.011 191.67,388.178 191.5,389.5C 190.069,388.22 189.402,386.553 189.5,384.5 Z"/></g>
<g><path style="opacity:0.078" fill="#595958" d="M 315.5,373.5 C 318.266,378.117 320.266,383.117 321.5,388.5C 318.704,383.895 316.704,378.895 315.5,373.5 Z"/></g>
<g><path style="opacity:0.02" fill="#7b7a7a" d="M 134.5,381.5 C 135.593,383.349 136.926,385.016 138.5,386.5C 138.217,387.289 137.717,387.956 137,388.5C 135.589,386.35 134.755,384.016 134.5,381.5 Z"/></g>
<g><path style="opacity:0.702" fill="#383737" d="M 156.5,379.5 C 157.496,379.414 158.329,379.748 159,380.5C 159.253,383.2 159.253,385.867 159,388.5C 160.071,385.887 160.905,385.887 161.5,388.5C 159.437,390.449 158.104,392.782 157.5,395.5C 157.587,392.261 156.92,389.261 155.5,386.5C 156.117,386.611 156.617,386.944 157,387.5C 159.058,384.588 158.891,381.921 156.5,379.5 Z"/></g>
<g><path style="opacity:0.059" fill="#686767" d="M 138.5,395.5 C 138.38,396.586 137.713,397.253 136.5,397.5C 135.833,397.167 135.167,396.833 134.5,396.5C 133.524,393.837 132.19,391.504 130.5,389.5C 130.775,387.158 131.608,387.158 133,389.5C 133.639,392.112 134.806,394.446 136.5,396.5C 137.183,396.137 137.85,395.804 138.5,395.5 Z"/></g>
<g><path style="opacity:0.076" fill="#5d5c5c" d="M 112.5,388.5 C 112.174,391.311 111.341,393.978 110,396.5C 108.708,397.791 107.542,397.791 106.5,396.5C 107.496,396.586 108.329,396.252 109,395.5C 109.898,392.931 111.065,390.598 112.5,388.5 Z"/></g>
<g><path style="opacity:0.065" fill="#555454" d="M 170.5,388.5 C 170.406,392.325 168.906,395.325 166,397.5C 163.619,395.906 162.453,393.573 162.5,390.5C 163.892,392.273 165.059,394.273 166,396.5C 167.605,393.809 169.105,391.142 170.5,388.5 Z"/></g>
<g><path style="opacity:0.467" fill="#393838" d="M 178.5,391.5 C 182.908,391.062 184.575,393.062 183.5,397.5C 181.5,397.5 179.5,397.5 177.5,397.5C 177.325,395.379 177.659,393.379 178.5,391.5 Z"/></g>
<g><path style="opacity:0.552" fill="#5a5959" d="M 363.5,396.5 C 361.735,397.461 359.735,397.795 357.5,397.5C 356.679,391.842 358.846,390.175 364,392.5C 364.765,394.066 364.598,395.399 363.5,396.5 Z"/></g>
<g><path style="opacity:0.051" fill="#5d5c5c" d="M 90.5,383.5 C 91.1499,383.804 91.8165,384.137 92.5,384.5C 93.2446,388.302 94.4113,391.969 96,395.5C 97.1455,396.684 98.3121,396.684 99.5,395.5C 98.5449,397.71 97.0449,398.043 95,396.5C 93.1965,392.256 91.6965,387.922 90.5,383.5 Z"/></g>
<g><path style="opacity:0.061" fill="#676666" d="M 150.5,388.5 C 152.201,390.731 153.534,393.231 154.5,396C 155.577,396.47 156.577,396.303 157.5,395.5C 156.796,397.344 155.463,397.844 153.5,397C 152.071,394.31 151.071,391.477 150.5,388.5 Z"/></g>
<g><path style="opacity:0.196" fill="#5f5e5e" d="M 205.5,393.5 C 205.97,394.693 206.97,395.36 208.5,395.5C 210.03,395.36 211.03,394.693 211.5,393.5C 212.995,393.415 213.995,394.081 214.5,395.5C 210.5,396.833 206.5,396.833 202.5,395.5C 203.005,394.081 204.005,393.415 205.5,393.5 Z"/></g>
<g><path style="opacity:0.183" fill="#656464" d="M 235.5,391.5 C 235.063,393.074 234.063,394.241 232.5,395C 235.5,395.667 238.5,395.667 241.5,395C 240.244,394.583 239.577,393.75 239.5,392.5C 241.532,393.048 242.532,394.381 242.5,396.5C 238.833,396.5 235.167,396.5 231.5,396.5C 231.343,393.656 232.676,391.989 235.5,391.5 Z"/></g>
<g><path style="opacity:0.183" fill="#5a5959" d="M 251.5,390.5 C 254.175,392.376 253.842,393.876 250.5,395C 252.167,395.167 253.833,395.333 255.5,395.5C 257.64,395.444 259.306,394.777 260.5,393.5C 261.833,393.5 263.167,393.5 264.5,393.5C 265.152,394.725 266.319,395.392 268,395.5C 269.167,395.333 270.333,395.167 271.5,395C 270.944,394.617 270.611,394.117 270.5,393.5C 272.048,393.821 272.715,394.821 272.5,396.5C 264.833,396.5 257.167,396.5 249.5,396.5C 250.167,394.5 250.833,392.5 251.5,390.5 Z"/></g>
<g><path style="opacity:0.192" fill="#5b5a5a" d="M 305.5,388.5 C 305.322,389.695 304.989,390.862 304.5,392C 305.509,393.168 306.509,394.335 307.5,395.5C 299.862,396.497 292.196,396.831 284.5,396.5C 284.5,395.5 284.5,394.5 284.5,393.5C 285.5,393.5 286.5,393.5 287.5,393.5C 287.082,394.222 286.416,394.722 285.5,395C 291.491,395.499 297.491,395.666 303.5,395.5C 303.338,393.473 303.505,391.473 304,389.5C 304.383,388.944 304.883,388.611 305.5,388.5 Z"/></g>
<g><path style="opacity:0.181" fill="#575656" d="M 316.5,391.5 C 317.434,392.568 317.768,393.901 317.5,395.5C 327.872,395.76 338.206,395.427 348.5,394.5C 348.082,395.222 347.416,395.722 346.5,396C 335.839,396.5 325.172,396.667 314.5,396.5C 314.831,394.678 315.498,393.011 316.5,391.5 Z"/></g>
<g><path style="opacity:0.776" fill="#0c0a0a" d="M 363.5,396.5 C 361.833,396.5 360.167,396.5 358.5,396.5C 358.5,395.5 358.5,394.5 358.5,393.5C 360.167,393.5 361.833,393.5 363.5,393.5C 363.5,394.5 363.5,395.5 363.5,396.5 Z"/></g>
<g><path style="opacity:0.185" fill="#5a5a59" d="M 368.5,376.5 C 368.047,377.458 367.381,378.292 366.5,379C 367.448,379.483 368.448,379.649 369.5,379.5C 369.666,384.179 369.499,388.845 369,393.5C 368.25,394.126 367.416,394.626 366.5,395C 369.5,395.667 372.5,395.667 375.5,395C 374.944,394.617 374.611,394.117 374.5,393.5C 375.833,393.5 377.167,393.5 378.5,393.5C 378.082,394.222 377.416,394.722 376.5,395C 379.833,395.667 383.167,395.667 386.5,395C 385.244,394.583 384.577,393.75 384.5,392.5C 386.532,393.048 387.532,394.381 387.5,396.5C 380.167,396.5 372.833,396.5 365.5,396.5C 365.461,394.641 366.294,393.308 368,392.5C 368.499,388.514 368.666,384.514 368.5,380.5C 367.5,380.5 366.5,380.5 365.5,380.5C 365.088,378.027 366.088,376.694 368.5,376.5 Z"/></g>
<g><path style="opacity:0.122" fill="#686767" d="M 185.5,390.5 C 186.931,392.437 188.598,394.27 190.5,396C 193.146,396.497 195.813,396.664 198.5,396.5C 191.88,399.296 187.547,397.296 185.5,390.5 Z"/></g>
<g><path style="opacity:0.564" fill="#d6cac8" d="M 233.5,410.5 C 236.833,410.5 240.167,410.5 243.5,410.5C 244.306,411.728 245.306,412.728 246.5,413.5C 246.806,416.385 246.473,419.052 245.5,421.5C 243.517,420.529 241.517,419.529 239.5,418.5C 238.005,416.655 236.338,416.322 234.5,417.5C 233.5,417.833 232.833,418.5 232.5,419.5C 229.608,422.271 226.942,425.271 224.5,428.5C 223.292,429.234 221.959,429.567 220.5,429.5C 219.379,427.911 219.546,426.244 221,424.5C 225.003,419.665 229.17,414.998 233.5,410.5 Z"/></g>
<g><path style="opacity:0.57" fill="#d7ccc9" d="M 159.5,410.5 C 160.5,410.5 161.5,410.5 162.5,410.5C 164.5,411.833 166.5,413.167 168.5,414.5C 168.5,417.5 168.5,420.5 168.5,423.5C 166.833,422.833 165.167,422.167 163.5,421.5C 162.71,420.599 161.71,419.932 160.5,419.5C 158.708,418.527 157.375,419.194 156.5,421.5C 153.862,424.474 151.195,427.474 148.5,430.5C 147.395,431.6 146.062,432.267 144.5,432.5C 143.222,430.456 143.388,428.456 145,426.5C 149.671,420.997 154.504,415.664 159.5,410.5 Z"/></g>
<g><path style="opacity:0.562" fill="#d3c8c5" d="M 310.5,410.5 C 311.833,410.5 313.167,410.5 314.5,410.5C 317.291,412.735 320.291,414.735 323.5,416.5C 323.01,420.487 323.676,424.154 325.5,427.5C 325.167,427.5 324.833,427.5 324.5,427.5C 323.833,427.167 323.167,426.833 322.5,426.5C 320.371,424.05 317.704,422.383 314.5,421.5C 314.027,420.094 313.027,419.427 311.5,419.5C 309.275,418.668 307.942,419.668 307.5,422.5C 306.167,423.167 305.167,424.167 304.5,425.5C 301.93,427.682 299.597,430.016 297.5,432.5C 296.833,432.5 296.167,432.5 295.5,432.5C 294.588,431.262 294.421,429.928 295,428.5C 299.938,422.282 305.105,416.282 310.5,410.5 Z"/></g>
<g><path style="opacity:0.582" fill="#cfc5c4" d="M 335.5,410.5 C 355.833,409.167 376.167,409.167 396.5,410.5C 394.801,410.34 393.134,410.506 391.5,411C 393.747,412.277 395.747,413.777 397.5,415.5C 397.806,418.385 397.473,421.052 396.5,423.5C 394.833,422.833 393.167,422.167 391.5,421.5C 390.564,420.026 389.23,419.026 387.5,418.5C 383.672,418.254 381.005,420.254 379.5,424.5C 376.833,426.5 374.5,428.833 372.5,431.5C 371.833,431.5 371.167,431.5 370.5,431.5C 369.588,430.262 369.421,428.928 370,427.5C 374.089,421.407 378.922,415.907 384.5,411C 368.17,410.5 351.837,410.333 335.5,410.5 Z"/></g>
<g><path style="opacity:0.569" fill="#d7cbc8" d="M 94.5,415.5 C 94.5,418.5 94.5,421.5 94.5,424.5C 92.8333,423.833 91.1667,423.167 89.5,422.5C 88.7095,421.599 87.7095,420.932 86.5,420.5C 86.44,419.957 86.1067,419.624 85.5,419.5C 84.4756,420.852 83.4756,422.185 82.5,423.5C 81.1667,424.167 80.1667,425.167 79.5,426.5C 78.0256,427.436 77.0256,428.77 76.5,430.5C 74.9468,432.385 72.9468,433.385 70.5,433.5C 69.4017,432.399 69.235,431.066 70,429.5C 75.1667,423.667 80.3333,417.833 85.5,412C 88.9158,411.873 91.9158,413.04 94.5,415.5 Z"/></g>
<g><path style="opacity:0.948" fill="#a29b9b" d="M 246.5,413.5 C 248.853,414.34 250.853,415.674 252.5,417.5C 252.806,420.385 252.473,423.052 251.5,425.5C 250.833,425.5 250.167,425.5 249.5,425.5C 249.167,424.5 248.5,423.833 247.5,423.5C 246.5,423.167 245.833,422.5 245.5,421.5C 246.473,419.052 246.806,416.385 246.5,413.5 Z"/></g>
<g><path style="opacity:0.99" fill="#f0ab2b" d="M 239.5,418.5 C 238.506,427.986 238.173,437.652 238.5,447.5C 236.847,447.34 235.514,446.674 234.5,445.5C 234.5,436.167 234.5,426.833 234.5,417.5C 236.338,416.322 238.005,416.655 239.5,418.5 Z"/></g>
<g><path style="opacity:0.989" fill="#aea6a6" d="M 168.5,414.5 C 171.135,415.811 173.469,417.478 175.5,419.5C 175.806,422.385 175.473,425.052 174.5,427.5C 173.833,427.5 173.167,427.5 172.5,427.5C 171.833,426.167 170.833,425.167 169.5,424.5C 168.833,424.5 168.5,424.167 168.5,423.5C 168.5,420.5 168.5,417.5 168.5,414.5 Z"/></g>
<g><path style="opacity:0.95" fill="#e7913e" d="M 234.5,417.5 C 234.5,426.833 234.5,436.167 234.5,445.5C 233.29,445.068 232.29,444.401 231.5,443.5C 231.23,435.445 231.563,427.445 232.5,419.5C 232.833,418.5 233.5,417.833 234.5,417.5 Z"/></g>
<g><path style="opacity:0.952" fill="#b1aaaa" d="M 94.5,415.5 C 96.7952,416.475 98.7952,417.808 100.5,419.5C 100.5,422.5 100.5,425.5 100.5,428.5C 100.167,428.5 99.8333,428.5 99.5,428.5C 98.5,427.833 97.5,427.167 96.5,426.5C 95.5,426.167 94.8333,425.5 94.5,424.5C 94.5,421.5 94.5,418.5 94.5,415.5 Z"/></g>
<g><path style="opacity:0.938" fill="#e9963c" d="M 160.5,419.5 C 159.506,428.986 159.173,438.652 159.5,448.5C 157.938,448.267 156.605,447.6 155.5,446.5C 155.227,438.112 155.56,429.779 156.5,421.5C 157.375,419.194 158.708,418.527 160.5,419.5 Z"/></g>
<g><path style="opacity:0.929" fill="#f1ac27" d="M 160.5,419.5 C 161.71,419.932 162.71,420.599 163.5,421.5C 162.506,430.986 162.173,440.652 162.5,450.5C 160.973,450.573 159.973,449.906 159.5,448.5C 159.173,438.652 159.506,428.986 160.5,419.5 Z"/></g>
<g><path style="opacity:0.904" fill="#fac20a" d="M 239.5,418.5 C 241.517,419.529 243.517,420.529 245.5,421.5C 245.833,422.5 246.5,423.167 247.5,423.5C 247.177,429.69 247.51,435.69 248.5,441.5C 246.749,445.771 243.749,448.271 239.5,449C 238.944,448.617 238.611,448.117 238.5,447.5C 238.173,437.652 238.506,427.986 239.5,418.5 Z"/></g>
<g><path style="opacity:0.745" fill="#847b7e" d="M 323.5,416.5 C 327.677,419.088 331.677,421.921 335.5,425C 334.259,426.731 333.259,428.564 332.5,430.5C 329.519,430.818 327.185,429.818 325.5,427.5C 323.676,424.154 323.01,420.487 323.5,416.5 Z"/></g>
<g><path style="opacity:1" fill="#e78f40" d="M 387.5,418.5 C 385.527,427.775 384.86,437.442 385.5,447.5C 383.205,446.525 381.205,445.192 379.5,443.5C 379.5,437.167 379.5,430.833 379.5,424.5C 381.005,420.254 383.672,418.254 387.5,418.5 Z"/></g>
<g><path style="opacity:0.742" fill="#898082" d="M 397.5,415.5 C 401.694,417.183 405.527,419.516 409,422.5C 409.667,423.833 409.667,425.167 409,426.5C 407.955,427.373 407.122,428.373 406.5,429.5C 405.041,429.567 403.708,429.234 402.5,428.5C 401.71,427.599 400.71,426.932 399.5,426.5C 399.158,425.662 398.492,425.328 397.5,425.5C 397.167,424.833 396.833,424.167 396.5,423.5C 397.473,421.052 397.806,418.385 397.5,415.5 Z"/></g>
<g><path style="opacity:0.919" fill="#e9983a" d="M 311.5,419.5 C 310.506,428.986 310.173,438.652 310.5,448.5C 308.973,448.573 307.973,447.906 307.5,446.5C 307.5,438.5 307.5,430.5 307.5,422.5C 307.942,419.668 309.275,418.668 311.5,419.5 Z"/></g>
<g><path style="opacity:1" fill="#f3b022" d="M 311.5,419.5 C 313.027,419.427 314.027,420.094 314.5,421.5C 314.5,431.5 314.5,441.5 314.5,451.5C 313.128,450.488 311.795,449.488 310.5,448.5C 310.173,438.652 310.506,428.986 311.5,419.5 Z"/></g>
<g><path style="opacity:0.917" fill="#fbc408" d="M 391.5,421.5 C 393.167,422.167 394.833,422.833 396.5,423.5C 396.833,424.167 397.167,424.833 397.5,425.5C 397.178,431.358 397.511,437.025 398.5,442.5C 397.219,445.447 395.219,447.781 392.5,449.5C 391.173,445.217 390.507,440.551 390.5,435.5C 390.501,430.654 390.834,425.988 391.5,421.5 Z"/></g>
<g><path style="opacity:0.925" fill="#e9973b" d="M 86.5,420.5 C 85.5062,429.986 85.1729,439.652 85.5,449.5C 83.9731,449.573 82.9731,448.906 82.5,447.5C 82.5,439.5 82.5,431.5 82.5,423.5C 83.4756,422.185 84.4756,420.852 85.5,419.5C 86.1067,419.624 86.44,419.957 86.5,420.5 Z"/></g>
<g><path style="opacity:0.807" fill="#766d70" d="M 175.5,419.5 C 178.807,420.821 181.807,422.654 184.5,425C 183.35,426.981 182.016,428.814 180.5,430.5C 179.041,430.567 177.708,430.234 176.5,429.5C 175.5,429.167 174.833,428.5 174.5,427.5C 175.473,425.052 175.806,422.385 175.5,419.5 Z"/></g>
<g><path style="opacity:0.999" fill="#7a7275" d="M 252.5,417.5 C 255.342,418.172 257.842,419.506 260,421.5C 260.667,422.5 260.667,423.5 260,424.5C 258.955,425.373 258.122,426.373 257.5,427.5C 255.833,427.5 254.167,427.5 252.5,427.5C 252.167,426.833 251.833,426.167 251.5,425.5C 252.473,423.052 252.806,420.385 252.5,417.5 Z"/></g>
<g><path style="opacity:0.972" fill="#f4b22b" d="M 86.5,420.5 C 87.7095,420.932 88.7095,421.599 89.5,422.5C 89.5,432.167 89.5,441.833 89.5,451.5C 90.8333,451.5 92.1667,451.5 93.5,451.5C 90.3818,453.007 87.7151,452.34 85.5,449.5C 85.1729,439.652 85.5062,429.986 86.5,420.5 Z"/></g>
<g><path style="opacity:0.906" fill="#fcc506" d="M 163.5,421.5 C 165.167,422.167 166.833,422.833 168.5,423.5C 168.5,424.167 168.833,424.5 169.5,424.5C 170.094,431.299 170.761,437.966 171.5,444.5C 169.874,449.205 166.874,451.205 162.5,450.5C 162.173,440.652 162.506,430.986 163.5,421.5 Z"/></g>
<g><path style="opacity:0.918" fill="#fbc30d" d="M 314.5,421.5 C 317.704,422.383 320.371,424.05 322.5,426.5C 322.177,432.69 322.51,438.69 323.5,444.5C 321.334,446.837 319.334,449.337 317.5,452C 316.423,452.47 315.423,452.303 314.5,451.5C 314.5,441.5 314.5,431.5 314.5,421.5 Z"/></g>
<g><path style="opacity:0.91" fill="#fbc605" d="M 89.5,422.5 C 91.1667,423.167 92.8333,423.833 94.5,424.5C 94.8333,425.5 95.5,426.167 96.5,426.5C 96.176,433.354 96.5093,440.021 97.5,446.5C 96.8763,448.754 95.543,450.421 93.5,451.5C 92.1667,451.5 90.8333,451.5 89.5,451.5C 89.5,441.833 89.5,432.167 89.5,422.5 Z"/></g>
<g><path style="opacity:0.965" fill="#7c7376" d="M 100.5,419.5 C 103.723,421.364 106.89,423.364 110,425.5C 110.667,426.5 110.667,427.5 110,428.5C 108.955,429.373 108.122,430.373 107.5,431.5C 105.708,431.634 104.042,431.301 102.5,430.5C 101.5,430.167 100.833,429.5 100.5,428.5C 100.5,425.5 100.5,422.5 100.5,419.5 Z"/></g>
<g><path style="opacity:0.993" fill="#e68f3e" d="M 247.5,423.5 C 248.5,423.833 249.167,424.5 249.5,425.5C 249.181,430.363 249.514,435.03 250.5,439.5C 250.167,440.5 249.5,441.167 248.5,441.5C 247.51,435.69 247.177,429.69 247.5,423.5 Z"/></g>
<g><path style="opacity:0.946" fill="#d97549" d="M 232.5,419.5 C 231.563,427.445 231.23,435.445 231.5,443.5C 228.489,442.331 225.822,440.664 223.5,438.5C 223.342,435.098 223.676,431.764 224.5,428.5C 226.942,425.271 229.608,422.271 232.5,419.5 Z"/></g>
<g><path style="opacity:0.802" fill="#d46748" d="M 249.5,425.5 C 250.167,425.5 250.833,425.5 251.5,425.5C 251.833,426.167 252.167,426.833 252.5,427.5C 252.5,430.5 252.5,433.5 252.5,436.5C 252.573,438.027 251.906,439.027 250.5,439.5C 249.514,435.03 249.181,430.363 249.5,425.5 Z"/></g>
<g><path style="opacity:0.901" fill="#e38445" d="M 307.5,422.5 C 307.5,430.5 307.5,438.5 307.5,446.5C 305.973,446.573 304.973,445.906 304.5,444.5C 305.833,438.167 305.833,431.833 304.5,425.5C 305.167,424.167 306.167,423.167 307.5,422.5 Z"/></g>
<g><path style="opacity:0.979" fill="#e68e3f" d="M 397.5,425.5 C 398.492,425.328 399.158,425.662 399.5,426.5C 399.181,431.363 399.514,436.03 400.5,440.5C 400.167,441.5 399.5,442.167 398.5,442.5C 397.511,437.025 397.178,431.358 397.5,425.5 Z"/></g>
<g><path style="opacity:0.909" fill="#e38546" d="M 82.5,423.5 C 82.5,431.5 82.5,439.5 82.5,447.5C 81.5084,447.672 80.8417,447.338 80.5,446.5C 80.824,439.646 80.4907,432.979 79.5,426.5C 80.1667,425.167 81.1667,424.167 82.5,423.5 Z"/></g>
<g><path style="opacity:0.985" fill="#e78e3e" d="M 322.5,426.5 C 323.167,426.833 323.833,427.167 324.5,427.5C 324.181,432.363 324.514,437.03 325.5,441.5C 325.068,442.71 324.401,443.71 323.5,444.5C 322.51,438.69 322.177,432.69 322.5,426.5 Z"/></g>
<g><path style="opacity:0.981" fill="#ec9e35" d="M 169.5,424.5 C 170.833,425.167 171.833,426.167 172.5,427.5C 172.179,432.695 172.513,437.695 173.5,442.5C 173.167,443.5 172.5,444.167 171.5,444.5C 170.761,437.966 170.094,431.299 169.5,424.5 Z"/></g>
<g><path style="opacity:0.969" fill="#ec9e34" d="M 96.5,426.5 C 97.5,427.167 98.5,427.833 99.5,428.5C 99.1795,433.695 99.5128,438.695 100.5,443.5C 99.8333,444.833 98.8333,445.833 97.5,446.5C 96.5093,440.021 96.176,433.354 96.5,426.5 Z"/></g>
<g><path style="opacity:0.883" fill="#d87549" d="M 156.5,421.5 C 155.56,429.779 155.227,438.112 155.5,446.5C 152.797,444.819 150.131,443.153 147.5,441.5C 147.323,437.766 147.656,434.099 148.5,430.5C 151.195,427.474 153.862,424.474 156.5,421.5 Z"/></g>
<g><path style="opacity:0.204" fill="#a43939" d="M 252.5,427.5 C 254.167,427.5 255.833,427.5 257.5,427.5C 258.226,431.525 256.559,434.525 252.5,436.5C 252.5,433.5 252.5,430.5 252.5,427.5 Z"/></g>
<g><path style="opacity:0.983" fill="#d17048" d="M 304.5,425.5 C 305.833,431.833 305.833,438.167 304.5,444.5C 301.669,443.921 299.336,442.588 297.5,440.5C 297.5,437.833 297.5,435.167 297.5,432.5C 299.597,430.016 301.93,427.682 304.5,425.5 Z"/></g>
<g><path style="opacity:0.928" fill="#d56848" d="M 99.5,428.5 C 99.8333,428.5 100.167,428.5 100.5,428.5C 100.833,429.5 101.5,430.167 102.5,430.5C 102.19,433.713 102.523,436.713 103.5,439.5C 102.488,440.872 101.488,442.205 100.5,443.5C 99.5128,438.695 99.1795,433.695 99.5,428.5 Z"/></g>
<g><path style="opacity:0.924" fill="#c05141" d="M 324.5,427.5 C 324.833,427.5 325.167,427.5 325.5,427.5C 327.185,429.818 329.519,430.818 332.5,430.5C 332.082,434.929 329.749,438.596 325.5,441.5C 324.514,437.03 324.181,432.363 324.5,427.5 Z"/></g>
<g><path style="opacity:0.8" fill="#cb7047" d="M 379.5,424.5 C 379.5,430.833 379.5,437.167 379.5,443.5C 376.669,442.921 374.336,441.588 372.5,439.5C 372.5,436.833 372.5,434.167 372.5,431.5C 374.5,428.833 376.833,426.5 379.5,424.5 Z"/></g>
<g><path style="opacity:0.987" fill="#d9714a" d="M 79.5,426.5 C 80.4907,432.979 80.824,439.646 80.5,446.5C 78.5659,445.89 76.8993,444.89 75.5,443.5C 75.2941,439.102 75.6274,434.768 76.5,430.5C 77.0256,428.77 78.0256,427.436 79.5,426.5 Z"/></g>
<g><path style="opacity:0.973" fill="#d36846" d="M 172.5,427.5 C 173.167,427.5 173.833,427.5 174.5,427.5C 174.833,428.5 175.5,429.167 176.5,429.5C 176.19,432.713 176.523,435.713 177.5,438.5C 176.5,440.167 175.167,441.5 173.5,442.5C 172.513,437.695 172.179,432.695 172.5,427.5 Z"/></g>
<g><path style="opacity:0.818" fill="#ac3d3a" d="M 176.5,429.5 C 177.708,430.234 179.041,430.567 180.5,430.5C 182.225,430.843 182.725,431.843 182,433.5C 180.293,435.037 178.793,436.704 177.5,438.5C 176.523,435.713 176.19,432.713 176.5,429.5 Z"/></g>
<g><path style="opacity:0.762" fill="#9c6f39" d="M 224.5,428.5 C 223.676,431.764 223.342,435.098 223.5,438.5C 218.218,436.934 217.218,433.934 220.5,429.5C 221.959,429.567 223.292,429.234 224.5,428.5 Z"/></g>
<g><path style="opacity:0.676" fill="#ab3b39" d="M 402.5,428.5 C 403.708,429.234 405.041,429.567 406.5,429.5C 408.225,429.843 408.725,430.843 408,432.5C 406.264,434.063 404.764,435.73 403.5,437.5C 402.523,434.713 402.19,431.713 402.5,428.5 Z"/></g>
<g><path style="opacity:0.849" fill="#b07140" d="M 76.5,430.5 C 75.6274,434.768 75.2941,439.102 75.5,443.5C 68.9512,442.404 67.2845,439.071 70.5,433.5C 72.9468,433.385 74.9468,432.385 76.5,430.5 Z"/></g>
<g><path style="opacity:0.606" fill="#97723a" d="M 370.5,431.5 C 371.167,431.5 371.833,431.5 372.5,431.5C 372.5,434.167 372.5,436.833 372.5,439.5C 368.077,437.806 367.41,435.14 370.5,431.5 Z"/></g>
<g><path style="opacity:0.775" fill="#d46648" d="M 399.5,426.5 C 400.71,426.932 401.71,427.599 402.5,428.5C 402.19,431.713 402.523,434.713 403.5,437.5C 402.833,438.833 401.833,439.833 400.5,440.5C 399.514,436.03 399.181,431.363 399.5,426.5 Z"/></g>
<g><path style="opacity:0.733" fill="#a06f3a" d="M 148.5,430.5 C 147.656,434.099 147.323,437.766 147.5,441.5C 141.556,439.684 140.556,436.684 144.5,432.5C 146.062,432.267 147.395,431.6 148.5,430.5 Z"/></g>
<g><path style="opacity:0.525" fill="#926d34" d="M 295.5,432.5 C 296.167,432.5 296.833,432.5 297.5,432.5C 297.5,435.167 297.5,437.833 297.5,440.5C 293.086,438.845 292.419,436.178 295.5,432.5 Z"/></g>
<g><path style="opacity:0.42" fill="#b0413c" d="M 102.5,430.5 C 104.042,431.301 105.708,431.634 107.5,431.5C 108.683,435.085 107.35,437.752 103.5,439.5C 102.523,436.713 102.19,433.713 102.5,430.5 Z"/></g>
<g><path style="opacity:1" fill="#f4b221" d="M 387.5,418.5 C 389.23,419.026 390.564,420.026 391.5,421.5C 390.834,425.988 390.501,430.654 390.5,435.5C 390.507,440.551 391.173,445.217 392.5,449.5C 389.908,450.403 387.574,449.736 385.5,447.5C 384.86,437.442 385.527,427.775 387.5,418.5 Z"/></g>
</svg>
