<?xml version="1.0" encoding="UTF-8"?>
<!DOCTYPE svg PUBLIC "-//W3C//DTD SVG 1.1//EN" "http://www.w3.org/Graphics/SVG/1.1/DTD/svg11.dtd">
<svg xmlns="http://www.w3.org/2000/svg" version="1.1" width="408px" height="529px" style="shape-rendering:geometricPrecision; text-rendering:geometricPrecision; image-rendering:optimizeQuality; fill-rule:evenodd; clip-rule:evenodd" xmlns:xlink="http://www.w3.org/1999/xlink">
<g><path style="opacity:0.124" fill="#e0dbd1" d="M 220.5,48.5 C 214.833,48.5 209.167,48.5 203.5,48.5C 203.918,47.7784 204.584,47.2784 205.5,47C 209.833,46.3333 214.167,46.3333 218.5,47C 219.416,47.2784 220.082,47.7784 220.5,48.5 Z"/></g>
<g><path style="opacity:0.292" fill="#afa38a" d="M 202.5,49.5 C 202.5,48.8333 202.833,48.5 203.5,48.5C 209.167,48.5 214.833,48.5 220.5,48.5C 220.5,48.8333 220.5,49.1667 220.5,49.5C 214.5,50.8333 208.5,50.8333 202.5,49.5 Z"/></g>
<g><path style="opacity:0.235" fill="#847459" d="M 202.5,49.5 C 208.5,50.8333 214.5,50.8333 220.5,49.5C 226.194,51.9163 231.861,54.583 237.5,57.5C 237.5,58.5 237.5,59.5 237.5,60.5C 238.5,60.5 239.5,60.5 240.5,60.5C 240.5,62.5 240.5,64.5 240.5,66.5C 237.759,66.2927 235.426,65.2927 233.5,63.5C 227.625,60.2102 221.959,56.3768 216.5,52C 213.438,51.2585 210.438,51.4252 207.5,52.5C 201.058,57.0469 194.391,61.0469 187.5,64.5C 186.18,65.9418 184.514,66.6085 182.5,66.5C 182.5,64.5 182.5,62.5 182.5,60.5C 183.5,60.5 184.5,60.5 185.5,60.5C 185.5,59.5 185.5,58.5 185.5,57.5C 188.714,56.5596 191.714,55.0596 194.5,53C 196.134,52.5065 197.801,52.3398 199.5,52.5C 199.5,51.5 199.5,50.5 199.5,49.5C 200.5,49.5 201.5,49.5 202.5,49.5 Z"/></g>
<g><path style="opacity:0.294" fill="#8a7675" d="M 233.5,63.5 C 231.079,63.1218 228.746,62.4552 226.5,61.5C 225.127,61.6567 223.793,61.49 222.5,61C 219.691,59.6771 217.025,58.1771 214.5,56.5C 211.976,55.1997 209.309,55.1997 206.5,56.5C 204.294,58.0846 201.961,59.5846 199.5,61C 195.737,62.8643 191.737,64.031 187.5,64.5C 194.391,61.0469 201.058,57.0469 207.5,52.5C 210.438,51.4252 213.438,51.2585 216.5,52C 221.959,56.3768 227.625,60.2102 233.5,63.5 Z"/></g>
<g><path style="opacity:0.319" fill="#dfd5bb" d="M 181.5,60.5 C 181.919,63.3245 180.919,65.4912 178.5,67C 165.5,67.3333 152.5,67.6667 139.5,68C 138.956,68.7172 138.289,69.2172 137.5,69.5C 137.414,68.5041 137.748,67.6708 138.5,67C 151.513,66.8327 164.513,66.3327 177.5,65.5C 177.137,64.8165 176.804,64.1499 176.5,63.5C 178.485,62.9525 180.151,61.9525 181.5,60.5 Z"/></g>
<g><path style="opacity:0.65" fill="#c5baa1" d="M 241.5,60.5 C 243.289,61.8772 245.289,62.8772 247.5,63.5C 247.5,64.5 247.5,65.5 247.5,66.5C 259.851,66.1676 272.185,66.501 284.5,67.5C 292.47,77.445 299.137,88.1117 304.5,99.5C 299.076,92.1865 293.743,84.6865 288.5,77C 288.265,73.6012 286.598,71.2679 283.5,70C 270.846,69.102 258.179,68.4353 245.5,68C 242.603,66.2845 241.269,63.7845 241.5,60.5 Z"/></g>
<g><path style="opacity:0.049" fill="#fbfaf8" d="M 176.5,63.5 C 176.804,64.1499 177.137,64.8165 177.5,65.5C 164.513,66.3327 151.513,66.8327 138.5,67C 137.748,67.6708 137.414,68.5041 137.5,69.5C 131.944,75.7271 127.611,82.7271 124.5,90.5C 123.357,90.9081 122.357,91.5748 121.5,92.5C 118.905,100.149 113.572,104.149 105.5,104.5C 104.371,91.5453 104.204,78.5453 105,65.5C 105.5,65 106,64.5 106.5,64C 129.831,63.5 153.164,63.3334 176.5,63.5 Z"/></g>
<g><path style="opacity:0.6" fill="#b3a795" d="M 214.5,56.5 C 209.494,56.6553 205.161,58.4886 201.5,62C 198.428,63.8575 195.095,65.0242 191.5,65.5C 187.684,66.4006 184.017,67.9006 180.5,70C 167.487,70.1673 154.487,70.6673 141.5,71.5C 135.985,78.6746 131.319,86.3413 127.5,94.5C 123.64,102.188 117.64,107.688 109.5,111C 108.748,111.671 108.414,112.504 108.5,113.5C 104.43,116.192 100.43,118.858 96.5,121.5C 94.2459,122.415 92.2459,123.748 90.5,125.5C 90.8588,123.629 91.8588,122.129 93.5,121C 97.2574,119.19 100.924,117.19 104.5,115C 105.687,113.981 106.687,112.814 107.5,111.5C 107.043,110.702 106.376,110.369 105.5,110.5C 103.896,109.713 103.229,108.38 103.5,106.5C 103.833,106.5 104.167,106.5 104.5,106.5C 106.402,107.511 108.402,107.678 110.5,107C 112.54,104.977 114.873,103.31 117.5,102C 120.301,98.3957 122.635,94.5624 124.5,90.5C 127.611,82.7271 131.944,75.7271 137.5,69.5C 138.289,69.2172 138.956,68.7172 139.5,68C 152.5,67.6667 165.5,67.3333 178.5,67C 180.919,65.4912 181.919,63.3245 181.5,60.5C 181.833,60.5 182.167,60.5 182.5,60.5C 182.5,62.5 182.5,64.5 182.5,66.5C 184.514,66.6085 186.18,65.9418 187.5,64.5C 191.737,64.031 195.737,62.8643 199.5,61C 201.961,59.5846 204.294,58.0846 206.5,56.5C 209.309,55.1997 211.976,55.1997 214.5,56.5 Z"/></g>
<g><path style="opacity:0.561" fill="#d6cdbf" d="M 191.5,65.5 C 190.313,67.9754 188.313,68.9754 185.5,68.5C 185.5,69.5 185.5,70.5 185.5,71.5C 170.969,73.3956 156.303,74.0622 141.5,73.5C 138.442,79.2869 135.609,85.2869 133,91.5C 132.329,92.2524 131.496,92.5858 130.5,92.5C 129.5,93.1667 128.5,93.8333 127.5,94.5C 131.319,86.3413 135.985,78.6746 141.5,71.5C 154.487,70.6673 167.487,70.1673 180.5,70C 184.017,67.9006 187.684,66.4006 191.5,65.5 Z"/></g>
<g><path style="opacity:0.535" fill="#d5ccbd" d="M 235.5,67.5 C 237.681,67.2837 239.347,68.117 240.5,70C 254.163,70.4999 267.829,70.6666 281.5,70.5C 281.5,71.5 281.5,72.5 281.5,73.5C 268.496,73.6666 255.496,73.4999 242.5,73C 239.734,71.629 237.401,69.7957 235.5,67.5 Z"/></g>
<g><path style="opacity:0.05" fill="#f8f7f3" d="M 247.5,63.5 C 270.502,63.3334 293.502,63.5 316.5,64C 318.004,65.4907 318.837,67.324 319,69.5C 319.365,81.9113 319.531,94.2446 319.5,106.5C 318.162,108.113 316.495,108.613 314.5,108C 310.975,105.302 307.642,102.469 304.5,99.5C 299.137,88.1117 292.47,77.445 284.5,67.5C 272.185,66.501 259.851,66.1676 247.5,66.5C 247.5,65.5 247.5,64.5 247.5,63.5 Z"/></g>
<g><path style="opacity:0.999" fill="#e1d3b4" d="M 214.5,56.5 C 217.025,58.1771 219.691,59.6771 222.5,61C 223.793,61.49 225.127,61.6567 226.5,61.5C 226.414,62.4959 226.748,63.3292 227.5,64C 230.267,65.0833 232.933,66.25 235.5,67.5C 237.401,69.7957 239.734,71.629 242.5,73C 255.496,73.4999 268.496,73.6666 281.5,73.5C 283.017,73.5106 284.184,74.1772 285,75.5C 290.21,82.7006 294.544,90.3673 298,98.5C 301.892,103.578 306.725,107.245 312.5,109.5C 313.975,111.071 315.642,112.405 317.5,113.5C 318.947,114.622 319.947,116.122 320.5,118C 323.633,118.86 326.3,120.36 328.5,122.5C 329.693,124.054 330.86,125.721 332,127.5C 332.221,140.865 332.721,154.199 333.5,167.5C 334.5,167.5 335.5,167.5 336.5,167.5C 342.277,173.72 345.943,181.053 347.5,189.5C 342.04,186.079 336.04,184.746 329.5,185.5C 328.402,176.382 328.402,167.382 329.5,158.5C 326.193,160.64 323.026,162.974 320,165.5C 318.331,167.169 317.498,169.169 317.5,171.5C 314.107,171.625 312.774,169.958 313.5,166.5C 313.667,165.167 313.833,163.833 314,162.5C 317.195,161.149 319.028,158.815 319.5,155.5C 323.163,156.341 326.83,156.841 330.5,157C 331.423,154.959 331.756,152.792 331.5,150.5C 328.348,151.041 325.848,150.041 324,147.5C 323.788,140.826 324.121,134.159 325,127.5C 328.863,123.531 328.03,122.031 322.5,123C 321,124.5 319.5,126 318,127.5C 317.166,141.176 316.166,141.51 315,128.5C 313.767,125.583 312.267,122.916 310.5,120.5C 303.371,125.765 299.704,124.098 299.5,115.5C 296.792,116.449 294.126,116.449 291.5,115.5C 293.074,114.016 294.407,112.349 295.5,110.5C 294.305,109.033 294.305,107.533 295.5,106C 295.095,105.055 294.428,104.388 293.5,104C 295.907,101.637 296.074,99.1374 294,96.5C 294.722,101.009 292.888,104.342 288.5,106.5C 283.901,103.074 281.567,98.4077 281.5,92.5C 281.768,89.4825 282.102,86.4825 282.5,83.5C 284.981,83.3234 286.814,84.3234 288,86.5C 286.865,83.1372 285.365,79.8038 283.5,76.5C 282.415,79.3831 280.415,81.3831 277.5,82.5C 276.559,86.3842 275.059,90.0508 273,93.5C 271.873,90.6229 271.206,87.6229 271,84.5C 267.694,79.1933 264.527,79.1933 261.5,84.5C 257.448,85.7158 256.614,88.0491 259,91.5C 260.509,89.0807 262.675,88.0807 265.5,88.5C 266.104,94.269 264.938,99.6024 262,104.5C 259.791,102.627 257.958,100.46 256.5,98C 254.671,97.7265 253.171,96.8932 252,95.5C 249.875,91.0888 248.708,86.4221 248.5,81.5C 244.362,83.3891 240.196,85.3891 236,87.5C 232.976,84.1415 229.642,81.1415 226,78.5C 220.874,79.4805 216.374,81.6471 212.5,85C 214.571,87.6488 216.238,90.4821 217.5,93.5C 215.333,91.6704 213.333,89.6704 211.5,87.5C 209.432,84.7549 207.766,81.7549 206.5,78.5C 206.489,76.3141 205.489,75.4808 203.5,76C 201.625,78.9431 200.125,82.1098 199,85.5C 197.333,88.1667 195.667,88.1667 194,85.5C 193.249,89.2657 191.249,92.2657 188,94.5C 185.667,101.214 184.834,108.214 185.5,115.5C 183.787,114.365 183.12,112.698 183.5,110.5C 182.712,103.304 184.545,96.9708 189,91.5C 190.835,88.0625 191.335,84.5625 190.5,81C 183.252,78.2167 176.752,79.3834 171,84.5C 170.895,88.37 170.062,92.0366 168.5,95.5C 167.029,94.6195 166.196,93.2861 166,91.5C 165.797,87.5787 165.297,83.7454 164.5,80C 163.5,79.3333 162.5,79.3333 161.5,80C 158.223,82.7342 155.056,85.5676 152,88.5C 149.867,87.7449 148.2,86.4116 147,84.5C 146.667,89.1667 146.333,93.8333 146,98.5C 144.054,101.139 143.054,104.139 143,107.5C 141.713,110.145 139.547,111.145 136.5,110.5C 135.348,106.855 134.182,103.188 133,99.5C 130.863,97.6789 130.03,95.3456 130.5,92.5C 131.496,92.5858 132.329,92.2524 133,91.5C 135.609,85.2869 138.442,79.2869 141.5,73.5C 156.303,74.0622 170.969,73.3956 185.5,71.5C 185.5,70.5 185.5,69.5 185.5,68.5C 188.313,68.9754 190.313,67.9754 191.5,65.5C 195.095,65.0242 198.428,63.8575 201.5,62C 205.161,58.4886 209.494,56.6553 214.5,56.5 Z"/></g>
<g><path style="opacity:1" fill="#b2a07c" d="M 206.5,78.5 C 204.629,78.8588 203.129,79.8588 202,81.5C 197.296,89.4532 193.462,97.7865 190.5,106.5C 190.719,108.693 191.385,110.693 192.5,112.5C 190.197,111.589 188.697,109.923 188,107.5C 188.129,111.205 188.462,114.872 189,118.5C 188.241,116.937 187.074,115.937 185.5,115.5C 184.834,108.214 185.667,101.214 188,94.5C 191.249,92.2657 193.249,89.2657 194,85.5C 195.667,88.1667 197.333,88.1667 199,85.5C 200.125,82.1098 201.625,78.9431 203.5,76C 205.489,75.4808 206.489,76.3141 206.5,78.5 Z"/></g>
<g><path style="opacity:0.549" fill="#afa494" d="M 240.5,60.5 C 240.833,60.5 241.167,60.5 241.5,60.5C 241.269,63.7845 242.603,66.2845 245.5,68C 258.179,68.4353 270.846,69.102 283.5,70C 286.598,71.2679 288.265,73.6012 288.5,77C 293.743,84.6865 299.076,92.1865 304.5,99.5C 307.642,102.469 310.975,105.302 314.5,108C 316.495,108.613 318.162,108.113 319.5,106.5C 319.833,106.5 320.167,106.5 320.5,106.5C 320.771,108.38 320.104,109.713 318.5,110.5C 317.761,110.369 317.094,110.536 316.5,111C 317.252,111.671 317.586,112.504 317.5,113.5C 315.642,112.405 313.975,111.071 312.5,109.5C 306.725,107.245 301.892,103.578 298,98.5C 294.544,90.3673 290.21,82.7006 285,75.5C 284.184,74.1772 283.017,73.5106 281.5,73.5C 281.5,72.5 281.5,71.5 281.5,70.5C 267.829,70.6666 254.163,70.4999 240.5,70C 239.347,68.117 237.681,67.2837 235.5,67.5C 232.933,66.25 230.267,65.0833 227.5,64C 226.748,63.3292 226.414,62.4959 226.5,61.5C 228.746,62.4552 231.079,63.1218 233.5,63.5C 235.426,65.2927 237.759,66.2927 240.5,66.5C 240.5,64.5 240.5,62.5 240.5,60.5 Z"/></g>
<g><path style="opacity:1" fill="#aa782b" d="M 206.5,78.5 C 207.766,81.7549 209.432,84.7549 211.5,87.5C 206.579,87.0429 203.079,89.0429 201,93.5C 198.916,97.3359 196.583,101.003 194,104.5C 193.503,107.146 193.336,109.813 193.5,112.5C 193.167,112.5 192.833,112.5 192.5,112.5C 191.385,110.693 190.719,108.693 190.5,106.5C 193.462,97.7865 197.296,89.4532 202,81.5C 203.129,79.8588 204.629,78.8588 206.5,78.5 Z"/></g>
<g><path style="opacity:1" fill="#d4ab5a" d="M 211.5,87.5 C 213.333,89.6704 215.333,91.6704 217.5,93.5C 217.5,97.8333 217.5,102.167 217.5,106.5C 216.372,109.212 214.706,111.545 212.5,113.5C 214.98,109.194 216.314,104.527 216.5,99.5C 214.947,95.5604 213.281,91.5604 211.5,87.5 Z"/></g>
<g><path style="opacity:1" fill="#c18723" d="M 211.5,87.5 C 213.281,91.5604 214.947,95.5604 216.5,99.5C 213.935,94.8847 210.268,93.718 205.5,96C 199.939,101.292 197.272,107.792 197.5,115.5C 195.596,115.262 194.262,114.262 193.5,112.5C 193.336,109.813 193.503,107.146 194,104.5C 196.583,101.003 198.916,97.3359 201,93.5C 203.079,89.0429 206.579,87.0429 211.5,87.5 Z"/></g>
<g><path style="opacity:0.38" fill="#e1daca" d="M 124.5,90.5 C 122.635,94.5624 120.301,98.3957 117.5,102C 114.873,103.31 112.54,104.977 110.5,107C 108.402,107.678 106.402,107.511 104.5,106.5C 104.328,105.508 104.662,104.842 105.5,104.5C 113.572,104.149 118.905,100.149 121.5,92.5C 122.357,91.5748 123.357,90.9081 124.5,90.5 Z"/></g>
<g><path style="opacity:1" fill="#dfa727" d="M 216.5,99.5 C 216.314,104.527 214.98,109.194 212.5,113.5C 210,116.494 208,119.827 206.5,123.5C 204.932,124.473 203.265,124.64 201.5,124C 199.934,121.27 198.6,118.436 197.5,115.5C 197.272,107.792 199.939,101.292 205.5,96C 210.268,93.718 213.935,94.8847 216.5,99.5 Z"/></g>
<g><path style="opacity:1" fill="#efe2c3" d="M 329.5,185.5 C 326.167,185.5 322.833,185.5 319.5,185.5C 319.017,175.661 314.017,171.827 304.5,174C 298.76,180.347 295.094,179.18 293.5,170.5C 298.737,170.114 303.737,168.947 308.5,167C 310.113,164.772 310.78,162.272 310.5,159.5C 304.982,161.515 299.482,163.848 294,166.5C 293.727,164.899 293.227,163.399 292.5,162C 289.873,160.103 287.039,158.603 284,157.5C 280.667,160.167 277.333,162.833 274,165.5C 273.503,167.81 273.337,170.143 273.5,172.5C 272.127,172.657 270.793,172.49 269.5,172C 271.811,165.707 275.145,160.041 279.5,155C 282.167,154.333 284.833,154.333 287.5,155C 292.7,156.74 298.034,157.907 303.5,158.5C 302.617,154.418 300.451,151.084 297,148.5C 296.506,146.866 296.34,145.199 296.5,143.5C 299.547,144.145 301.713,143.145 303,140.5C 302.078,137.994 301.244,135.328 300.5,132.5C 301.833,132.5 303.167,132.5 304.5,132.5C 304.5,131.5 304.5,130.5 304.5,129.5C 306.167,129.5 307.833,129.5 309.5,129.5C 309.5,137.5 309.5,145.5 309.5,153.5C 310.5,153.5 311.5,153.5 312.5,153.5C 312.462,144.154 312.129,134.82 311.5,125.5C 307.616,126.197 303.783,127.197 300,128.5C 296.08,124.621 293.413,125.621 292,131.5C 290.773,128.126 290.606,124.792 291.5,121.5C 289.738,121.357 288.071,121.691 286.5,122.5C 285.522,122.023 284.689,121.357 284,120.5C 282.872,122.345 282.372,124.345 282.5,126.5C 276.195,124.985 274.361,127.318 277,133.5C 278.333,134.167 279.667,134.833 281,135.5C 282.264,133.393 284.097,132.393 286.5,132.5C 286.828,137.875 286.495,143.208 285.5,148.5C 272.7,147.293 269.033,140.626 274.5,128.5C 273.472,125.594 273.472,122.761 274.5,120C 272.269,118.853 269.935,117.853 267.5,117C 270.766,116.877 272.432,115.21 272.5,112C 271.374,103.864 270.54,95.6969 270,87.5C 269.801,85.5975 268.967,84.0975 267.5,83C 265.311,82.678 263.311,83.178 261.5,84.5C 264.527,79.1933 267.694,79.1933 271,84.5C 271.206,87.6229 271.873,90.6229 273,93.5C 275.059,90.0508 276.559,86.3842 277.5,82.5C 280.415,81.3831 282.415,79.3831 283.5,76.5C 285.365,79.8038 286.865,83.1372 288,86.5C 286.814,84.3234 284.981,83.3234 282.5,83.5C 282.102,86.4825 281.768,89.4825 281.5,92.5C 281.567,98.4077 283.901,103.074 288.5,106.5C 292.888,104.342 294.722,101.009 294,96.5C 296.074,99.1374 295.907,101.637 293.5,104C 294.428,104.388 295.095,105.055 295.5,106C 294.305,107.533 294.305,109.033 295.5,110.5C 294.407,112.349 293.074,114.016 291.5,115.5C 294.126,116.449 296.792,116.449 299.5,115.5C 299.704,124.098 303.371,125.765 310.5,120.5C 312.267,122.916 313.767,125.583 315,128.5C 316.166,141.51 317.166,141.176 318,127.5C 319.5,126 321,124.5 322.5,123C 328.03,122.031 328.863,123.531 325,127.5C 324.121,134.159 323.788,140.826 324,147.5C 325.848,150.041 328.348,151.041 331.5,150.5C 331.756,152.792 331.423,154.959 330.5,157C 326.83,156.841 323.163,156.341 319.5,155.5C 319.028,158.815 317.195,161.149 314,162.5C 313.833,163.833 313.667,165.167 313.5,166.5C 312.774,169.958 314.107,171.625 317.5,171.5C 317.498,169.169 318.331,167.169 320,165.5C 323.026,162.974 326.193,160.64 329.5,158.5C 328.402,167.382 328.402,176.382 329.5,185.5 Z"/></g>
<g><path style="opacity:1" fill="#e5d4b0" d="M 217.5,106.5 C 217.682,108.591 217.348,110.591 216.5,112.5C 218.36,113.939 220.027,115.605 221.5,117.5C 218.404,119.131 215.57,121.131 213,123.5C 212.251,124.635 212.417,125.635 213.5,126.5C 221.394,124.614 229.394,124.114 237.5,125C 238.056,125.383 238.389,125.883 238.5,126.5C 227.92,125.24 217.92,126.907 208.5,131.5C 208.946,128.99 208.28,126.99 206.5,125.5C 206.5,124.833 206.5,124.167 206.5,123.5C 208,119.827 210,116.494 212.5,113.5C 214.706,111.545 216.372,109.212 217.5,106.5 Z"/></g>
<g><path style="opacity:1" fill="#d1b06d" d="M 192.5,112.5 C 192.833,112.5 193.167,112.5 193.5,112.5C 194.262,114.262 195.596,115.262 197.5,115.5C 198.6,118.436 199.934,121.27 201.5,124C 203.265,124.64 204.932,124.473 206.5,123.5C 206.5,124.167 206.5,124.833 206.5,125.5C 204.886,127.075 202.886,127.741 200.5,127.5C 198.591,122.117 195.925,117.117 192.5,112.5 Z"/></g>
<g><path style="opacity:1" fill="#e7daba" d="M 108.5,185.5 C 98.8333,185.5 89.1667,185.5 79.5,185.5C 80.0869,178.907 83.4202,174.241 89.5,171.5C 94.868,174.633 97.2014,172.966 96.5,166.5C 93.2657,166.763 91.9324,165.263 92.5,162C 92.601,151.343 92.601,140.677 92.5,130C 92.6667,128.5 92.8333,127 93,125.5C 94.3756,124.295 95.5423,122.962 96.5,121.5C 100.43,118.858 104.43,116.192 108.5,113.5C 108.702,114.364 109.036,115.364 109.5,116.5C 114.16,113.012 119.494,111.512 125.5,112C 126.399,110.764 127.566,109.93 129,109.5C 131.39,110.278 133.557,111.445 135.5,113C 137.833,113.333 140.167,113.667 142.5,114C 144.032,114.7 145.032,115.866 145.5,117.5C 140.6,120.384 135.933,123.717 131.5,127.5C 125.972,121.371 119.305,119.871 111.5,123C 110.667,123.833 109.833,124.667 109,125.5C 106.89,131.502 105.39,137.669 104.5,144C 104.909,146.296 106.076,148.13 108,149.5C 108.333,151.167 108.667,152.833 109,154.5C 111.369,156.372 113.536,158.372 115.5,160.5C 112.23,164.747 107.896,167.414 102.5,168.5C 101.615,172.602 102.115,176.602 104,180.5C 105.356,181.38 106.856,181.714 108.5,181.5C 108.5,182.833 108.5,184.167 108.5,185.5 Z"/></g>
<g><path style="opacity:0.396" fill="#857373" d="M 105.5,110.5 C 106.376,110.369 107.043,110.702 107.5,111.5C 106.687,112.814 105.687,113.981 104.5,115C 100.924,117.19 97.2574,119.19 93.5,121C 91.8588,122.129 90.8588,123.629 90.5,125.5C 89.5048,137.655 89.1714,149.989 89.5,162.5C 88.5,162.5 87.5,162.5 86.5,162.5C 86.4451,166.182 85.4451,169.515 83.5,172.5C 80.8994,176.791 78.2327,181.124 75.5,185.5C 75.1667,185.5 74.8333,185.5 74.5,185.5C 76.6126,181.37 78.2793,177.037 79.5,172.5C 82.1676,169.17 84.3343,165.504 86,161.5C 86.3333,149.167 86.6667,136.833 87,124.5C 92.2133,119.757 98.0467,115.924 104.5,113C 105.252,112.329 105.586,111.496 105.5,110.5 Z"/></g>
<g><path style="opacity:1" fill="#b8822b" d="M 238.5,126.5 C 242.858,129.013 246.858,132.013 250.5,135.5C 250.5,136.167 250.5,136.833 250.5,137.5C 249.883,137.611 249.383,137.944 249,138.5C 246.473,137.274 244.306,135.608 242.5,133.5C 233.554,133.029 224.721,132.029 216,130.5C 211.299,131.174 207.466,133.341 204.5,137C 207.146,137.497 209.813,137.664 212.5,137.5C 212.158,138.338 211.492,138.672 210.5,138.5C 207.327,138.401 204.327,139.068 201.5,140.5C 199.197,140.124 198.863,139.124 200.5,137.5C 202.344,134.313 205.011,132.313 208.5,131.5C 217.92,126.907 227.92,125.24 238.5,126.5 Z"/></g>
<g><path style="opacity:1" fill="#ca932b" d="M 250.5,137.5 C 251.966,138.347 252.8,139.68 253,141.5C 256.642,152.101 256.142,162.434 251.5,172.5C 250.914,172.291 250.414,171.957 250,171.5C 249.501,166.845 249.334,162.179 249.5,157.5C 250.161,158.718 250.828,160.051 251.5,161.5C 251.833,159.667 252.167,157.833 252.5,156C 251.868,150.85 251.535,145.683 251.5,140.5C 248.111,139.309 244.778,137.809 241.5,136C 237.167,135.333 232.833,135.333 228.5,136C 228.167,136.333 227.833,136.667 227.5,137C 232.191,136.553 235.525,138.387 237.5,142.5C 235.833,141.833 234.167,141.167 232.5,140.5C 231.848,139.275 230.681,138.608 229,138.5C 223.529,137.682 218.029,137.348 212.5,137.5C 209.813,137.664 207.146,137.497 204.5,137C 207.466,133.341 211.299,131.174 216,130.5C 224.721,132.029 233.554,133.029 242.5,133.5C 244.306,135.608 246.473,137.274 249,138.5C 249.383,137.944 249.883,137.611 250.5,137.5 Z"/></g>
<g><path style="opacity:0.673" fill="#c0af9d" d="M 328.5,122.5 C 330.315,123.63 332.315,124.296 334.5,124.5C 334.5,135.167 334.5,145.833 334.5,156.5C 334.87,160.233 335.537,163.899 336.5,167.5C 335.5,167.5 334.5,167.5 333.5,167.5C 332.721,154.199 332.221,140.865 332,127.5C 330.86,125.721 329.693,124.054 328.5,122.5 Z"/></g>
<g><path style="opacity:1" fill="#f9f0da" d="M 149.5,131.5 C 150.878,132.234 152.378,132.901 154,133.5C 154.524,125.588 155.358,125.588 156.5,133.5C 154.186,137.15 154.019,140.817 156,144.5C 158.701,140.317 161.534,136.317 164.5,132.5C 165.167,134.5 165.833,136.5 166.5,138.5C 167.5,137.833 168.5,137.167 169.5,136.5C 170.711,138.95 172.378,140.95 174.5,142.5C 176.453,141.844 178.453,141.511 180.5,141.5C 180.649,142.552 180.483,143.552 180,144.5C 176.29,148.87 172.624,153.203 169,157.5C 163.524,155.646 158.024,154.813 152.5,155C 151.196,149.577 150.196,144.077 149.5,138.5C 147.856,138.286 146.356,138.62 145,139.5C 144.639,142.525 144.139,145.525 143.5,148.5C 145.09,150.656 146.757,152.822 148.5,155C 145.934,157.395 143.601,159.895 141.5,162.5C 140.167,162.5 138.833,162.5 137.5,162.5C 137.335,159.482 137.502,156.482 138,153.5C 140.75,152.001 141.916,149.667 141.5,146.5C 140.89,141.178 140.39,135.844 140,130.5C 137.46,129.124 135.46,129.79 134,132.5C 133.308,131.975 132.808,131.308 132.5,130.5C 135.423,127.324 138.756,124.657 142.5,122.5C 143.259,125.157 143.926,127.823 144.5,130.5C 146.045,131.452 147.712,131.785 149.5,131.5 Z"/></g>
<g><path style="opacity:1" fill="#d8caaa" d="M 238.5,126.5 C 243.733,126.868 248.066,128.868 251.5,132.5C 252.478,132.023 253.311,131.357 254,130.5C 255.11,132.037 256.61,132.703 258.5,132.5C 260.949,137.671 263.115,143.004 265,148.5C 266.314,158.307 265.147,167.64 261.5,176.5C 261.902,172.088 262.735,167.754 264,163.5C 264.822,156.358 264.155,149.358 262,142.5C 261,141.5 260,140.5 259,139.5C 257.981,141.502 257.148,143.502 256.5,145.5C 255.816,141.46 253.816,138.126 250.5,135.5C 246.858,132.013 242.858,129.013 238.5,126.5 Z"/></g>
<g><path style="opacity:0.325" fill="#856b79" d="M 334.5,124.5 C 335.828,129.456 336.495,134.789 336.5,140.5C 336.495,146.211 335.828,151.544 334.5,156.5C 334.5,145.833 334.5,135.167 334.5,124.5 Z"/></g>
<g><path style="opacity:1" fill="#f2e5c6" d="M 183.5,110.5 C 182.624,110.631 181.957,110.298 181.5,109.5C 180.811,107.556 180.311,105.556 180,103.5C 177.397,101.564 175.564,99.0638 174.5,96C 175.167,92.3333 175.833,88.6667 176.5,85C 174.892,84.342 173.725,84.842 173,86.5C 172.769,90.5841 172.102,94.5841 171,98.5C 170.154,103.056 170.654,107.389 172.5,111.5C 171.14,121.012 166.474,123.012 158.5,117.5C 160.733,115.235 162.9,112.901 165,110.5C 165.439,106.789 165.106,103.122 164,99.5C 162.956,101.715 162.29,104.048 162,106.5C 158.229,107.371 156.229,109.704 156,113.5C 154.261,115.741 152.094,117.408 149.5,118.5C 148.23,122.881 148.23,127.215 149.5,131.5C 147.712,131.785 146.045,131.452 144.5,130.5C 143.926,127.823 143.259,125.157 142.5,122.5C 138.756,124.657 135.423,127.324 132.5,130.5C 132.808,131.308 133.308,131.975 134,132.5C 135.46,129.79 137.46,129.124 140,130.5C 140.39,135.844 140.89,141.178 141.5,146.5C 141.916,149.667 140.75,152.001 138,153.5C 137.502,156.482 137.335,159.482 137.5,162.5C 138.833,162.5 140.167,162.5 141.5,162.5C 139.407,163.058 137.907,164.391 137,166.5C 135.837,164.715 135.17,162.715 135,160.5C 132.39,161.94 130.223,163.94 128.5,166.5C 132.168,168.775 132.168,171.275 128.5,174C 123.833,173.667 119.167,173.333 114.5,173C 111.58,176.671 110.246,180.837 110.5,185.5C 109.833,185.5 109.167,185.5 108.5,185.5C 108.5,184.167 108.5,182.833 108.5,181.5C 106.856,181.714 105.356,181.38 104,180.5C 102.115,176.602 101.615,172.602 102.5,168.5C 107.896,167.414 112.23,164.747 115.5,160.5C 113.536,158.372 111.369,156.372 109,154.5C 108.667,152.833 108.333,151.167 108,149.5C 106.076,148.13 104.909,146.296 104.5,144C 105.39,137.669 106.89,131.502 109,125.5C 109.833,124.667 110.667,123.833 111.5,123C 119.305,119.871 125.972,121.371 131.5,127.5C 135.933,123.717 140.6,120.384 145.5,117.5C 145.032,115.866 144.032,114.7 142.5,114C 140.167,113.667 137.833,113.333 135.5,113C 133.557,111.445 131.39,110.278 129,109.5C 127.566,109.93 126.399,110.764 125.5,112C 119.494,111.512 114.16,113.012 109.5,116.5C 109.036,115.364 108.702,114.364 108.5,113.5C 108.414,112.504 108.748,111.671 109.5,111C 117.64,107.688 123.64,102.188 127.5,94.5C 128.5,93.8333 129.5,93.1667 130.5,92.5C 130.03,95.3456 130.863,97.6789 133,99.5C 134.182,103.188 135.348,106.855 136.5,110.5C 139.547,111.145 141.713,110.145 143,107.5C 143.054,104.139 144.054,101.139 146,98.5C 146.333,93.8333 146.667,89.1667 147,84.5C 148.2,86.4116 149.867,87.7449 152,88.5C 155.056,85.5676 158.223,82.7342 161.5,80C 162.5,79.3333 163.5,79.3333 164.5,80C 165.297,83.7454 165.797,87.5787 166,91.5C 166.196,93.2861 167.029,94.6195 168.5,95.5C 170.062,92.0366 170.895,88.37 171,84.5C 176.752,79.3834 183.252,78.2167 190.5,81C 191.335,84.5625 190.835,88.0625 189,91.5C 184.545,96.9708 182.712,103.304 183.5,110.5 Z"/></g>
<g><path style="opacity:1" fill="#d79d20" d="M 249.5,157.5 C 248.542,157.047 247.708,156.381 247,155.5C 245.409,152.648 244.076,149.648 243,146.5C 241.549,144.536 239.716,143.203 237.5,142.5C 235.525,138.387 232.191,136.553 227.5,137C 227.833,136.667 228.167,136.333 228.5,136C 232.833,135.333 237.167,135.333 241.5,136C 244.778,137.809 248.111,139.309 251.5,140.5C 251.535,145.683 251.868,150.85 252.5,156C 252.167,157.833 251.833,159.667 251.5,161.5C 250.828,160.051 250.161,158.718 249.5,157.5 Z"/></g>
<g><path style="opacity:0.214" fill="#85765b" d="M 103.5,106.5 C 103.229,108.38 103.896,109.713 105.5,110.5C 105.586,111.496 105.252,112.329 104.5,113C 98.0467,115.924 92.2133,119.757 87,124.5C 86.6667,136.833 86.3333,149.167 86,161.5C 84.3343,165.504 82.1676,169.17 79.5,172.5C 78.2793,177.037 76.6126,181.37 74.5,185.5C 73.8333,185.5 73.1667,185.5 72.5,185.5C 73.5091,182.951 74.3425,180.285 75,177.5C 77.6233,172.86 80.29,168.193 83,163.5C 83.7958,160.961 83.6291,158.628 82.5,156.5C 82.3334,143.829 82.5001,131.162 83,118.5C 87.6632,116.041 92.1632,113.208 96.5,110C 98.1341,109.506 99.8008,109.34 101.5,109.5C 101.285,107.821 101.952,106.821 103.5,106.5 Z"/></g>
<g><path style="opacity:1" fill="#d1c2a1" d="M 232.5,140.5 C 234.167,141.167 235.833,141.833 237.5,142.5C 239.508,145.852 241.508,149.185 243.5,152.5C 240.993,149.964 237.993,149.131 234.5,150C 235.756,150.417 236.423,151.25 236.5,152.5C 230.119,148.981 223.119,147.648 215.5,148.5C 216.263,147.732 217.263,147.232 218.5,147C 214.954,145.826 211.287,145.16 207.5,145C 208.905,143.731 210.571,143.231 212.5,143.5C 212.5,142.5 212.5,141.5 212.5,140.5C 219.146,139.495 225.813,139.495 232.5,140.5 Z"/></g>
<g><path style="opacity:1" fill="#bbaa88" d="M 192.5,112.5 C 195.925,117.117 198.591,122.117 200.5,127.5C 202.886,127.741 204.886,127.075 206.5,125.5C 208.28,126.99 208.946,128.99 208.5,131.5C 205.011,132.313 202.344,134.313 200.5,137.5C 195.637,139.524 191.137,142.19 187,145.5C 183.656,149.54 180.323,153.54 177,157.5C 176.219,158.944 176.386,160.277 177.5,161.5C 186.624,151.027 197.624,143.36 210.5,138.5C 211.492,138.672 212.158,138.338 212.5,137.5C 218.029,137.348 223.529,137.682 229,138.5C 230.681,138.608 231.848,139.275 232.5,140.5C 225.813,139.495 219.146,139.495 212.5,140.5C 212.5,141.5 212.5,142.5 212.5,143.5C 210.571,143.231 208.905,143.731 207.5,145C 211.287,145.16 214.954,145.826 218.5,147C 217.263,147.232 216.263,147.732 215.5,148.5C 206.048,150.225 198.048,154.558 191.5,161.5C 190.417,161.539 189.417,161.873 188.5,162.5C 188.167,162 187.833,161.5 187.5,161C 193.427,154.955 192.76,153.621 185.5,157C 183.707,159.795 181.54,162.295 179,164.5C 178.503,166.81 178.337,169.143 178.5,171.5C 182.371,171.185 186.038,171.518 189.5,172.5C 184.125,172.828 178.792,172.495 173.5,171.5C 173,170.5 172.5,169.5 172,168.5C 167.842,172.495 163.008,175.329 157.5,177C 154.629,179.703 151.962,182.536 149.5,185.5C 148.167,185.5 146.833,185.5 145.5,185.5C 149.876,182.637 153.876,179.137 157.5,175C 161.196,173.545 164.696,171.712 168,169.5C 173.65,162.219 177.984,154.219 181,145.5C 184.722,141.275 188.888,137.608 193.5,134.5C 194.775,131.127 194.608,127.793 193,124.5C 189.912,121.919 187.412,118.919 185.5,115.5C 187.074,115.937 188.241,116.937 189,118.5C 188.462,114.872 188.129,111.205 188,107.5C 188.697,109.923 190.197,111.589 192.5,112.5 Z"/></g>
<g><path style="opacity:1" fill="#a7844b" d="M 200.5,137.5 C 198.863,139.124 199.197,140.124 201.5,140.5C 204.327,139.068 207.327,138.401 210.5,138.5C 197.624,143.36 186.624,151.027 177.5,161.5C 176.386,160.277 176.219,158.944 177,157.5C 180.323,153.54 183.656,149.54 187,145.5C 191.137,142.19 195.637,139.524 200.5,137.5 Z"/></g>
<g><path style="opacity:1" fill="#ae9d7b" d="M 243.5,152.5 C 244.164,154.487 245.331,156.154 247,157.5C 247.499,162.489 247.666,167.489 247.5,172.5C 246.093,177.435 243.093,181.268 238.5,184C 232.843,184.499 227.176,184.666 221.5,184.5C 217.107,182.735 212.44,181.568 207.5,181C 204.266,179.211 200.932,177.544 197.5,176C 195.5,175.667 193.5,175.333 191.5,175C 190.619,174.292 189.953,173.458 189.5,172.5C 194.82,171.734 200.154,171.568 205.5,172C 212.01,173.526 218.343,175.526 224.5,178C 228.833,178.667 233.167,178.667 237.5,178C 238.056,177.617 238.389,177.117 238.5,176.5C 243.171,167.889 242.504,159.889 236.5,152.5C 236.423,151.25 235.756,150.417 234.5,150C 237.993,149.131 240.993,149.964 243.5,152.5 Z"/></g>
<g><path style="opacity:0.457" fill="#88795b" d="M 320.5,106.5 C 325.303,109.476 330.303,112.143 335.5,114.5C 335.5,115.5 335.5,116.5 335.5,117.5C 337.167,117.5 338.833,117.5 340.5,117.5C 340.865,120.625 341.698,123.625 343,126.5C 343.5,136.828 343.666,147.161 343.5,157.5C 342.5,157.5 341.5,157.5 340.5,157.5C 340.421,160.271 340.921,162.937 342,165.5C 345.339,171.516 349.173,177.182 353.5,182.5C 354.946,184.618 355.613,186.951 355.5,189.5C 354.5,189.5 353.5,189.5 352.5,189.5C 350.847,185.555 349.181,181.555 347.5,177.5C 344.054,172.265 340.887,166.932 338,161.5C 337.5,148.838 337.333,136.171 337.5,123.5C 330.901,119.569 324.567,115.236 318.5,110.5C 320.104,109.713 320.771,108.38 320.5,106.5 Z"/></g>
<g><path style="opacity:1" fill="#f7eacd" d="M 183.5,110.5 C 183.12,112.698 183.787,114.365 185.5,115.5C 187.412,118.919 189.912,121.919 193,124.5C 194.608,127.793 194.775,131.127 193.5,134.5C 188.888,137.608 184.722,141.275 181,145.5C 177.984,154.219 173.65,162.219 168,169.5C 164.696,171.712 161.196,173.545 157.5,175C 153.876,179.137 149.876,182.637 145.5,185.5C 133.833,185.5 122.167,185.5 110.5,185.5C 110.246,180.837 111.58,176.671 114.5,173C 119.167,173.333 123.833,173.667 128.5,174C 132.168,171.275 132.168,168.775 128.5,166.5C 130.223,163.94 132.39,161.94 135,160.5C 135.17,162.715 135.837,164.715 137,166.5C 137.907,164.391 139.407,163.058 141.5,162.5C 143.601,159.895 145.934,157.395 148.5,155C 146.757,152.822 145.09,150.656 143.5,148.5C 144.139,145.525 144.639,142.525 145,139.5C 146.356,138.62 147.856,138.286 149.5,138.5C 150.196,144.077 151.196,149.577 152.5,155C 158.024,154.813 163.524,155.646 169,157.5C 172.624,153.203 176.29,148.87 180,144.5C 180.483,143.552 180.649,142.552 180.5,141.5C 178.453,141.511 176.453,141.844 174.5,142.5C 172.378,140.95 170.711,138.95 169.5,136.5C 168.5,137.167 167.5,137.833 166.5,138.5C 165.833,136.5 165.167,134.5 164.5,132.5C 161.534,136.317 158.701,140.317 156,144.5C 154.019,140.817 154.186,137.15 156.5,133.5C 155.358,125.588 154.524,125.588 154,133.5C 152.378,132.901 150.878,132.234 149.5,131.5C 148.23,127.215 148.23,122.881 149.5,118.5C 152.094,117.408 154.261,115.741 156,113.5C 156.229,109.704 158.229,107.371 162,106.5C 162.29,104.048 162.956,101.715 164,99.5C 165.106,103.122 165.439,106.789 165,110.5C 162.9,112.901 160.733,115.235 158.5,117.5C 166.474,123.012 171.14,121.012 172.5,111.5C 170.654,107.389 170.154,103.056 171,98.5C 172.102,94.5841 172.769,90.5841 173,86.5C 173.725,84.842 174.892,84.342 176.5,85C 175.833,88.6667 175.167,92.3333 174.5,96C 175.564,99.0638 177.397,101.564 180,103.5C 180.311,105.556 180.811,107.556 181.5,109.5C 181.957,110.298 182.624,110.631 183.5,110.5 Z"/></g>
<g><path style="opacity:0.561" fill="#b6a593" d="M 90.5,125.5 C 90.6666,138.171 90.4999,150.838 90,163.5C 88.3864,166.94 86.2197,169.94 83.5,172.5C 85.4451,169.515 86.4451,166.182 86.5,162.5C 87.5,162.5 88.5,162.5 89.5,162.5C 89.1714,149.989 89.5048,137.655 90.5,125.5 Z"/></g>
<g><path style="opacity:1" fill="#f7ecd4" d="M 215.5,148.5 C 223.119,147.648 230.119,148.981 236.5,152.5C 242.504,159.889 243.171,167.889 238.5,176.5C 235.555,177.468 232.555,177.634 229.5,177C 219.081,174.318 208.748,171.318 198.5,168C 195.518,167.502 192.518,167.335 189.5,167.5C 189.253,165.142 189.919,163.142 191.5,161.5C 198.048,154.558 206.048,150.225 215.5,148.5 Z"/></g>
<g><path style="opacity:1" fill="#c7b99a" d="M 191.5,161.5 C 189.919,163.142 189.253,165.142 189.5,167.5C 192.518,167.335 195.518,167.502 198.5,168C 208.748,171.318 219.081,174.318 229.5,177C 232.555,177.634 235.555,177.468 238.5,176.5C 238.389,177.117 238.056,177.617 237.5,178C 233.167,178.667 228.833,178.667 224.5,178C 218.343,175.526 212.01,173.526 205.5,172C 200.154,171.568 194.82,171.734 189.5,172.5C 186.038,171.518 182.371,171.185 178.5,171.5C 178.337,169.143 178.503,166.81 179,164.5C 181.54,162.295 183.707,159.795 185.5,157C 192.76,153.621 193.427,154.955 187.5,161C 187.833,161.5 188.167,162 188.5,162.5C 189.417,161.873 190.417,161.539 191.5,161.5 Z"/></g>
<g><path style="opacity:1" fill="#f6eacf" d="M 261.5,84.5 C 263.311,83.178 265.311,82.678 267.5,83C 268.967,84.0975 269.801,85.5975 270,87.5C 270.54,95.6969 271.374,103.864 272.5,112C 272.432,115.21 270.766,116.877 267.5,117C 269.935,117.853 272.269,118.853 274.5,120C 273.472,122.761 273.472,125.594 274.5,128.5C 269.033,140.626 272.7,147.293 285.5,148.5C 286.495,143.208 286.828,137.875 286.5,132.5C 284.097,132.393 282.264,133.393 281,135.5C 279.667,134.833 278.333,134.167 277,133.5C 274.361,127.318 276.195,124.985 282.5,126.5C 282.372,124.345 282.872,122.345 284,120.5C 284.689,121.357 285.522,122.023 286.5,122.5C 288.071,121.691 289.738,121.357 291.5,121.5C 290.606,124.792 290.773,128.126 292,131.5C 293.413,125.621 296.08,124.621 300,128.5C 303.783,127.197 307.616,126.197 311.5,125.5C 312.129,134.82 312.462,144.154 312.5,153.5C 311.5,153.5 310.5,153.5 309.5,153.5C 309.5,145.5 309.5,137.5 309.5,129.5C 307.833,129.5 306.167,129.5 304.5,129.5C 304.5,130.5 304.5,131.5 304.5,132.5C 303.167,132.5 301.833,132.5 300.5,132.5C 301.244,135.328 302.078,137.994 303,140.5C 301.713,143.145 299.547,144.145 296.5,143.5C 296.34,145.199 296.506,146.866 297,148.5C 300.451,151.084 302.617,154.418 303.5,158.5C 298.034,157.907 292.7,156.74 287.5,155C 284.833,154.333 282.167,154.333 279.5,155C 275.145,160.041 271.811,165.707 269.5,172C 270.793,172.49 272.127,172.657 273.5,172.5C 273.337,170.143 273.503,167.81 274,165.5C 277.333,162.833 280.667,160.167 284,157.5C 287.039,158.603 289.873,160.103 292.5,162C 293.227,163.399 293.727,164.899 294,166.5C 299.482,163.848 304.982,161.515 310.5,159.5C 310.78,162.272 310.113,164.772 308.5,167C 303.737,168.947 298.737,170.114 293.5,170.5C 295.094,179.18 298.76,180.347 304.5,174C 314.017,171.827 319.017,175.661 319.5,185.5C 298.833,185.5 278.167,185.5 257.5,185.5C 258.597,182.314 259.93,179.314 261.5,176.5C 265.147,167.64 266.314,158.307 265,148.5C 263.115,143.004 260.949,137.671 258.5,132.5C 256.61,132.703 255.11,132.037 254,130.5C 253.311,131.357 252.478,132.023 251.5,132.5C 248.066,128.868 243.733,126.868 238.5,126.5C 238.389,125.883 238.056,125.383 237.5,125C 229.394,124.114 221.394,124.614 213.5,126.5C 212.417,125.635 212.251,124.635 213,123.5C 215.57,121.131 218.404,119.131 221.5,117.5C 220.027,115.605 218.36,113.939 216.5,112.5C 217.348,110.591 217.682,108.591 217.5,106.5C 217.5,102.167 217.5,97.8333 217.5,93.5C 216.238,90.4821 214.571,87.6488 212.5,85C 216.374,81.6471 220.874,79.4805 226,78.5C 229.642,81.1415 232.976,84.1415 236,87.5C 240.196,85.3891 244.362,83.3891 248.5,81.5C 248.708,86.4221 249.875,91.0888 252,95.5C 253.171,96.8932 254.671,97.7265 256.5,98C 257.958,100.46 259.791,102.627 262,104.5C 264.938,99.6024 266.104,94.269 265.5,88.5C 262.675,88.0807 260.509,89.0807 259,91.5C 256.614,88.0491 257.448,85.7158 261.5,84.5 Z"/></g>
<g><path style="opacity:0.995" fill="#d4c5a8" d="M 96.5,121.5 C 95.5423,122.962 94.3756,124.295 93,125.5C 92.8333,127 92.6667,128.5 92.5,130C 92.601,140.677 92.601,151.343 92.5,162C 91.9324,165.263 93.2657,166.763 96.5,166.5C 97.2014,172.966 94.868,174.633 89.5,171.5C 83.4202,174.241 80.0869,178.907 79.5,185.5C 78.8333,185.5 78.1667,185.5 77.5,185.5C 76.8333,185.5 76.1667,185.5 75.5,185.5C 78.2327,181.124 80.8994,176.791 83.5,172.5C 86.2197,169.94 88.3864,166.94 90,163.5C 90.4999,150.838 90.6666,138.171 90.5,125.5C 92.2459,123.748 94.2459,122.415 96.5,121.5 Z"/></g>
<g><path style="opacity:1" fill="#b2a382" d="M 261.5,176.5 C 259.93,179.314 258.597,182.314 257.5,185.5C 257.167,185.5 256.833,185.5 256.5,185.5C 252.833,185.5 249.167,185.5 245.5,185.5C 245.833,184.833 246.167,184.167 246.5,183.5C 251.313,178.937 254.147,173.27 255,166.5C 256.339,159.574 256.839,152.574 256.5,145.5C 257.148,143.502 257.981,141.502 259,139.5C 260,140.5 261,141.5 262,142.5C 264.155,149.358 264.822,156.358 264,163.5C 262.735,167.754 261.902,172.088 261.5,176.5 Z"/></g>
<g><path style="opacity:0.384" fill="#8d7973" d="M 318.5,110.5 C 324.567,115.236 330.901,119.569 337.5,123.5C 337.333,136.171 337.5,148.838 338,161.5C 340.887,166.932 344.054,172.265 347.5,177.5C 349.181,181.555 350.847,185.555 352.5,189.5C 353.5,189.5 354.5,189.5 355.5,189.5C 355.5,193.5 355.5,197.5 355.5,201.5C 354.514,199.574 353.514,197.574 352.5,195.5C 350.833,193.5 349.167,191.5 347.5,189.5C 345.943,181.053 342.277,173.72 336.5,167.5C 335.537,163.899 334.87,160.233 334.5,156.5C 335.828,151.544 336.495,146.211 336.5,140.5C 336.495,134.789 335.828,129.456 334.5,124.5C 332.315,124.296 330.315,123.63 328.5,122.5C 326.3,120.36 323.633,118.86 320.5,118C 319.947,116.122 318.947,114.622 317.5,113.5C 317.586,112.504 317.252,111.671 316.5,111C 317.094,110.536 317.761,110.369 318.5,110.5 Z"/></g>
<g><path style="opacity:0.247" fill="#a09172" d="M 82.5,156.5 C 83.6291,158.628 83.7958,160.961 83,163.5C 80.29,168.193 77.6233,172.86 75,177.5C 74.3425,180.285 73.5091,182.951 72.5,185.5C 69.779,185.963 67.1123,186.629 64.5,187.5C 70.5586,177.13 76.5586,166.797 82.5,156.5 Z"/></g>
<g><path style="opacity:1" fill="#c48a21" d="M 221.5,184.5 C 221.5,184.833 221.5,185.167 221.5,185.5C 215.833,185.5 210.167,185.5 204.5,185.5C 195.854,183.065 187.188,180.398 178.5,177.5C 173.621,179.399 169.288,182.065 165.5,185.5C 164.833,185.5 164.167,185.5 163.5,185.5C 161.5,185.5 159.5,185.5 157.5,185.5C 159.847,182.663 162.847,180.83 166.5,180C 169.468,174.351 174.135,172.184 180.5,173.5C 183.167,173.667 185.833,173.833 188.5,174C 191.928,177.974 196.095,179.807 201,179.5C 207.293,183.066 214.126,184.733 221.5,184.5 Z"/></g>
<g><path style="opacity:1" fill="#d89e22" d="M 204.5,185.5 C 191.5,185.5 178.5,185.5 165.5,185.5C 169.288,182.065 173.621,179.399 178.5,177.5C 187.188,180.398 195.854,183.065 204.5,185.5 Z"/></g>
<g><path style="opacity:1" fill="#ac823e" d="M 247.5,172.5 C 247.244,174.792 247.577,176.959 248.5,179C 246.963,180.11 246.297,181.61 246.5,183.5C 246.167,184.167 245.833,184.833 245.5,185.5C 245.167,185.5 244.833,185.5 244.5,185.5C 236.833,185.5 229.167,185.5 221.5,185.5C 221.5,185.167 221.5,184.833 221.5,184.5C 227.176,184.666 232.843,184.499 238.5,184C 243.093,181.268 246.093,177.435 247.5,172.5 Z"/></g>
<g><path style="opacity:1" fill="#bd9c5f" d="M 250.5,135.5 C 253.816,138.126 255.816,141.46 256.5,145.5C 256.839,152.574 256.339,159.574 255,166.5C 254.147,173.27 251.313,178.937 246.5,183.5C 246.297,181.61 246.963,180.11 248.5,179C 247.577,176.959 247.244,174.792 247.5,172.5C 247.666,167.489 247.499,162.489 247,157.5C 245.331,156.154 244.164,154.487 243.5,152.5C 241.508,149.185 239.508,145.852 237.5,142.5C 239.716,143.203 241.549,144.536 243,146.5C 244.076,149.648 245.409,152.648 247,155.5C 247.708,156.381 248.542,157.047 249.5,157.5C 249.334,162.179 249.501,166.845 250,171.5C 250.414,171.957 250.914,172.291 251.5,172.5C 256.142,162.434 256.642,152.101 253,141.5C 252.8,139.68 251.966,138.347 250.5,137.5C 250.5,136.833 250.5,136.167 250.5,135.5 Z"/></g>
<g><path style="opacity:1" fill="#ae7b2c" d="M 189.5,172.5 C 189.953,173.458 190.619,174.292 191.5,175C 193.5,175.333 195.5,175.667 197.5,176C 200.932,177.544 204.266,179.211 207.5,181C 212.44,181.568 217.107,182.735 221.5,184.5C 214.126,184.733 207.293,183.066 201,179.5C 196.095,179.807 191.928,177.974 188.5,174C 185.833,173.833 183.167,173.667 180.5,173.5C 174.135,172.184 169.468,174.351 166.5,180C 162.847,180.83 159.847,182.663 157.5,185.5C 154.833,185.5 152.167,185.5 149.5,185.5C 151.962,182.536 154.629,179.703 157.5,177C 163.008,175.329 167.842,172.495 172,168.5C 172.5,169.5 173,170.5 173.5,171.5C 178.792,172.495 184.125,172.828 189.5,172.5 Z"/></g>
<g><path style="opacity:0.171" fill="#a6987a" d="M 343.5,157.5 C 343.5,159.5 343.5,161.5 343.5,163.5C 344.5,163.5 345.5,163.5 346.5,163.5C 346.215,165.288 346.548,166.955 347.5,168.5C 351.956,173.97 355.623,179.97 358.5,186.5C 358.5,192.167 358.5,197.833 358.5,203.5C 357.87,205.75 356.87,207.75 355.5,209.5C 355.5,208.167 355.5,206.833 355.5,205.5C 355.5,204.167 355.5,202.833 355.5,201.5C 355.5,197.5 355.5,193.5 355.5,189.5C 355.613,186.951 354.946,184.618 353.5,182.5C 349.173,177.182 345.339,171.516 342,165.5C 340.921,162.937 340.421,160.271 340.5,157.5C 341.5,157.5 342.5,157.5 343.5,157.5 Z"/></g>
<g><path style="opacity:1" fill="#34312b" d="M 77.5,185.5 C 78.1667,185.5 78.8333,185.5 79.5,185.5C 89.1667,185.5 98.8333,185.5 108.5,185.5C 109.167,185.5 109.833,185.5 110.5,185.5C 122.167,185.5 133.833,185.5 145.5,185.5C 145.5,185.833 145.5,186.167 145.5,186.5C 143.685,187.63 141.685,188.296 139.5,188.5C 139.649,189.552 139.483,190.552 139,191.5C 135.257,195.098 133.757,199.265 134.5,204C 129.514,205.65 129.181,207.984 133.5,211C 136.792,211.936 139.792,211.436 142.5,209.5C 143.386,210.325 143.719,211.325 143.5,212.5C 141.833,212.5 140.167,212.5 138.5,212.5C 138.5,216.167 138.5,219.833 138.5,223.5C 138.047,224.458 137.381,225.292 136.5,226C 127.152,227.808 123.819,223.975 126.5,214.5C 124.5,214.5 122.5,214.5 120.5,214.5C 120.957,218.584 120.29,222.417 118.5,226C 108.453,226.808 98.4527,226.641 88.5,225.5C 87.5108,221.893 87.1774,218.226 87.5,214.5C 86.1667,214.5 84.8333,214.5 83.5,214.5C 80.0593,209.038 76.8927,203.371 74,197.5C 73.3333,195.5 73.3333,193.5 74,191.5C 75.8195,189.868 76.9862,187.868 77.5,185.5 Z"/></g>
<g><path style="opacity:1" fill="#2e2308" d="M 163.5,185.5 C 164.167,185.5 164.833,185.5 165.5,185.5C 178.5,185.5 191.5,185.5 204.5,185.5C 210.167,185.5 215.833,185.5 221.5,185.5C 229.167,185.5 236.833,185.5 244.5,185.5C 239.974,190.113 235.308,194.613 230.5,199C 219.631,203.891 208.298,204.891 196.5,202C 188.082,198.559 179.415,195.725 170.5,193.5C 166.935,192.213 163.268,192.213 159.5,193.5C 158.502,193.656 157.502,193.156 156.5,192C 159.331,190.334 161.664,188.168 163.5,185.5 Z"/></g>
<g><path style="opacity:1" fill="#35322d" d="M 256.5,185.5 C 256.833,185.5 257.167,185.5 257.5,185.5C 278.167,185.5 298.833,185.5 319.5,185.5C 322.539,194.92 324.206,204.586 324.5,214.5C 322.918,212.03 320.585,210.53 317.5,210C 311.843,209.501 306.176,209.334 300.5,209.5C 300.5,211.167 300.5,212.833 300.5,214.5C 305.179,214.334 309.845,214.501 314.5,215C 316.286,215.196 317.619,216.029 318.5,217.5C 311.762,223.638 303.762,226.638 294.5,226.5C 291.713,225.523 288.713,225.19 285.5,225.5C 285.5,223.167 285.5,220.833 285.5,218.5C 286.219,216.236 286.552,213.903 286.5,211.5C 284.5,211.5 282.5,211.5 280.5,211.5C 280.737,212.791 280.404,213.791 279.5,214.5C 274.645,213.309 269.645,213.309 264.5,214.5C 262.5,214.5 260.5,214.5 258.5,214.5C 258.5,215.5 258.5,216.5 258.5,217.5C 252.806,220.23 246.806,222.064 240.5,223C 238.121,223.716 236.121,224.883 234.5,226.5C 231.552,226.777 228.719,226.444 226,225.5C 225.501,221.848 225.335,218.182 225.5,214.5C 228.593,212.785 231.927,211.451 235.5,210.5C 235.863,209.817 236.196,209.15 236.5,208.5C 239.179,208.475 240.512,207.142 240.5,204.5C 246.555,198.778 251.889,192.444 256.5,185.5 Z"/></g>
<g><path style="opacity:0.775" fill="#040303" d="M 72.5,185.5 C 73.1667,185.5 73.8333,185.5 74.5,185.5C 74.8333,185.5 75.1667,185.5 75.5,185.5C 76.1667,185.5 76.8333,185.5 77.5,185.5C 76.9862,187.868 75.8195,189.868 74,191.5C 73.3333,193.5 73.3333,195.5 74,197.5C 76.8927,203.371 80.0593,209.038 83.5,214.5C 82.2057,216.048 81.5391,218.048 81.5,220.5C 80.5898,227.576 83.5898,231.243 90.5,231.5C 90.7225,242.504 91.0558,253.504 91.5,264.5C 88.5,264.5 85.5,264.5 82.5,264.5C 69.6441,266.823 60.4774,262.156 55,250.5C 54.3333,233.5 54.3333,216.5 55,199.5C 56.8887,194.449 60.0554,190.449 64.5,187.5C 67.1123,186.629 69.779,185.963 72.5,185.5 Z"/></g>
<g><path style="opacity:0.17" fill="#e7e3da" d="M 358.5,186.5 C 359.222,186.918 359.722,187.584 360,188.5C 360.667,192.833 360.667,197.167 360,201.5C 359.722,202.416 359.222,203.082 358.5,203.5C 358.5,197.833 358.5,192.167 358.5,186.5 Z"/></g>
<g><path style="opacity:1" fill="#281f0e" d="M 145.5,185.5 C 146.833,185.5 148.167,185.5 149.5,185.5C 152.167,185.5 154.833,185.5 157.5,185.5C 159.5,185.5 161.5,185.5 163.5,185.5C 161.664,188.168 159.331,190.334 156.5,192C 157.502,193.156 158.502,193.656 159.5,193.5C 157.567,198.297 156.067,203.297 155,208.5C 153.989,209.337 152.822,209.67 151.5,209.5C 151.77,206.298 152.604,203.298 154,200.5C 154.667,197.833 154.667,195.167 154,192.5C 152.938,191.903 151.772,191.57 150.5,191.5C 146.909,193.488 143.242,195.488 139.5,197.5C 138.977,195.164 139.477,192.83 141,190.5C 142.992,189.672 144.492,188.339 145.5,186.5C 145.5,186.167 145.5,185.833 145.5,185.5 Z"/></g>
<g><path style="opacity:1" fill="#35332e" d="M 170.5,193.5 C 170.389,194.117 170.056,194.617 169.5,195C 178.908,196.666 187.575,199.833 195.5,204.5C 192.638,207.471 193.305,209.471 197.5,210.5C 204.339,213.753 211.672,215.086 219.5,214.5C 219.334,218.514 219.501,222.514 220,226.5C 221.076,229.079 222.909,230.746 225.5,231.5C 223.73,232.764 222.063,234.264 220.5,236C 213.013,237.821 207.013,241.821 202.5,248C 194.681,251.718 186.515,254.218 178,255.5C 168.2,254.704 162.534,249.371 161,239.5C 160.502,236.518 160.335,233.518 160.5,230.5C 165.027,232.115 169.194,231.448 173,228.5C 173.833,229.333 174.667,230.167 175.5,231C 182.5,231.667 189.5,231.667 196.5,231C 198.726,229.773 200.226,227.939 201,225.5C 201.499,221.848 201.665,218.182 201.5,214.5C 199.5,214.5 197.5,214.5 195.5,214.5C 198.181,223.807 194.848,227.807 185.5,226.5C 182.579,226.476 179.746,226.143 177,225.5C 175.646,221.637 175.146,217.637 175.5,213.5C 173.735,212.539 171.735,212.205 169.5,212.5C 169.5,216.167 169.5,219.833 169.5,223.5C 166.5,227.5 163.5,227.5 160.5,223.5C 160.5,219.833 160.5,216.167 160.5,212.5C 158.833,212.5 157.167,212.5 155.5,212.5C 156.806,206.259 158.806,200.259 161.5,194.5C 164.428,193.516 167.428,193.183 170.5,193.5 Z"/></g>
<g><path style="opacity:1" fill="#27241c" d="M 244.5,185.5 C 244.833,185.5 245.167,185.5 245.5,185.5C 249.167,185.5 252.833,185.5 256.5,185.5C 251.889,192.444 246.555,198.778 240.5,204.5C 239.688,203.007 238.355,202.34 236.5,202.5C 231.179,204.48 231.179,206.48 236.5,208.5C 236.196,209.15 235.863,209.817 235.5,210.5C 231.927,211.451 228.593,212.785 225.5,214.5C 223.5,214.5 221.5,214.5 219.5,214.5C 211.672,215.086 204.339,213.753 197.5,210.5C 201.071,210.592 202.238,208.926 201,205.5C 199.301,204.594 197.467,204.261 195.5,204.5C 187.575,199.833 178.908,196.666 169.5,195C 170.056,194.617 170.389,194.117 170.5,193.5C 179.415,195.725 188.082,198.559 196.5,202C 208.298,204.891 219.631,203.891 230.5,199C 235.308,194.613 239.974,190.113 244.5,185.5 Z"/></g>
<g><path style="opacity:1" fill="#ededed" d="M 95.5,202.5 C 97.5273,202.338 99.5273,202.505 101.5,203C 102.963,207.468 101.297,209.135 96.5,208C 94.1695,206.512 93.8362,204.679 95.5,202.5 Z"/></g>
<g><path style="opacity:1" fill="#efefef" d="M 106.5,202.5 C 108.199,202.34 109.866,202.506 111.5,203C 114.167,204.667 114.167,206.333 111.5,208C 106.083,209.42 104.417,207.586 106.5,202.5 Z"/></g>
<g><path style="opacity:1" fill="#2d2921" d="M 145.5,186.5 C 144.492,188.339 142.992,189.672 141,190.5C 139.477,192.83 138.977,195.164 139.5,197.5C 143.242,195.488 146.909,193.488 150.5,191.5C 151.772,191.57 152.938,191.903 154,192.5C 154.667,195.167 154.667,197.833 154,200.5C 152.604,203.298 151.77,206.298 151.5,209.5C 152.822,209.67 153.989,209.337 155,208.5C 156.067,203.297 157.567,198.297 159.5,193.5C 163.268,192.213 166.935,192.213 170.5,193.5C 167.428,193.183 164.428,193.516 161.5,194.5C 158.806,200.259 156.806,206.259 155.5,212.5C 154.833,212.5 154.5,212.833 154.5,213.5C 154.665,216.85 154.498,220.183 154,223.5C 150.527,227.717 147.527,227.384 145,222.5C 144.502,219.518 144.335,216.518 144.5,213.5C 144.5,212.833 144.167,212.5 143.5,212.5C 143.719,211.325 143.386,210.325 142.5,209.5C 139.792,211.436 136.792,211.936 133.5,211C 129.181,207.984 129.514,205.65 134.5,204C 133.757,199.265 135.257,195.098 139,191.5C 139.483,190.552 139.649,189.552 139.5,188.5C 141.685,188.296 143.685,187.63 145.5,186.5 Z"/></g>
<g><path style="opacity:1" fill="#ededec" d="M 240.5,204.5 C 240.512,207.142 239.179,208.475 236.5,208.5C 231.179,206.48 231.179,204.48 236.5,202.5C 238.355,202.34 239.688,203.007 240.5,204.5 Z"/></g>
<g><path style="opacity:1" fill="#efefef" d="M 244.5,202.5 C 246.199,202.34 247.866,202.506 249.5,203C 252.167,204.667 252.167,206.333 249.5,208C 244.083,209.42 242.417,207.586 244.5,202.5 Z"/></g>
<g><path style="opacity:1" fill="#ededed" d="M 184.5,204.5 C 186.591,204.318 188.591,204.652 190.5,205.5C 191.167,210.13 189.167,211.464 184.5,209.5C 183.334,207.833 183.334,206.166 184.5,204.5 Z"/></g>
<g><path style="opacity:1" fill="#ececeb" d="M 195.5,204.5 C 197.467,204.261 199.301,204.594 201,205.5C 202.238,208.926 201.071,210.592 197.5,210.5C 193.305,209.471 192.638,207.471 195.5,204.5 Z"/></g>
<g><path style="opacity:0.773" fill="#000000" d="M 355.5,205.5 C 355.5,206.833 355.5,208.167 355.5,209.5C 355.667,223.171 355.5,236.837 355,250.5C 352.7,256.294 348.867,260.627 343.5,263.5C 342.833,263.5 342.167,263.5 341.5,263.5C 340.341,252.341 340.174,241.008 341,229.5C 345.561,221.286 350.395,213.286 355.5,205.5 Z"/></g>
<g><path style="opacity:1" fill="#f5f5f5" d="M 324.5,214.5 C 325.575,216.856 325.575,219.189 324.5,221.5C 313.5,229.996 301.167,233.663 287.5,232.5C 285.286,233.392 284.286,235.058 284.5,237.5C 285.095,240.14 285.428,242.807 285.5,245.5C 284.393,247.969 282.393,248.969 279.5,248.5C 279.261,244.158 278.927,239.824 278.5,235.5C 279.684,233.537 280.517,231.537 281,229.5C 280.5,230 280,230.5 279.5,231C 274.167,231.667 268.833,231.667 263.5,231C 261.685,229.23 260.018,229.397 258.5,231.5C 254.5,231.5 250.5,231.5 246.5,231.5C 243.5,231.5 240.5,231.5 237.5,231.5C 233.5,231.5 229.5,231.5 225.5,231.5C 222.909,230.746 221.076,229.079 220,226.5C 219.501,222.514 219.334,218.514 219.5,214.5C 221.5,214.5 223.5,214.5 225.5,214.5C 225.335,218.182 225.501,221.848 226,225.5C 228.719,226.444 231.552,226.777 234.5,226.5C 241.841,226.666 249.174,226.5 256.5,226C 258.179,223.435 258.846,220.602 258.5,217.5C 258.5,216.5 258.5,215.5 258.5,214.5C 260.5,214.5 262.5,214.5 264.5,214.5C 262.862,225.939 267.362,229.272 278,224.5C 279.316,221.312 279.816,217.978 279.5,214.5C 280.404,213.791 280.737,212.791 280.5,211.5C 282.5,211.5 284.5,211.5 286.5,211.5C 286.552,213.903 286.219,216.236 285.5,218.5C 284.795,221.228 284.128,224.061 283.5,227C 287.079,226.663 290.746,226.496 294.5,226.5C 303.762,226.638 311.762,223.638 318.5,217.5C 317.619,216.029 316.286,215.196 314.5,215C 309.845,214.501 305.179,214.334 300.5,214.5C 300.5,212.833 300.5,211.167 300.5,209.5C 306.176,209.334 311.843,209.501 317.5,210C 320.585,210.53 322.918,212.03 324.5,214.5 Z"/></g>
<g><path style="opacity:1" fill="#f8f8f7" d="M 144.5,213.5 C 144.335,216.518 144.502,219.518 145,222.5C 147.527,227.384 150.527,227.717 154,223.5C 154.498,220.183 154.665,216.85 154.5,213.5C 156.167,213.5 157.833,213.5 159.5,213.5C 159.187,217.042 159.521,220.375 160.5,223.5C 163.5,227.5 166.5,227.5 169.5,223.5C 170.479,220.375 170.813,217.042 170.5,213.5C 172.167,213.5 173.833,213.5 175.5,213.5C 175.146,217.637 175.646,221.637 177,225.5C 179.746,226.143 182.579,226.476 185.5,226.5C 194.848,227.807 198.181,223.807 195.5,214.5C 197.5,214.5 199.5,214.5 201.5,214.5C 201.665,218.182 201.499,221.848 201,225.5C 200.226,227.939 198.726,229.773 196.5,231C 189.5,231.667 182.5,231.667 175.5,231C 174.667,230.167 173.833,229.333 173,228.5C 169.194,231.448 165.027,232.115 160.5,230.5C 157.661,228.213 154.995,228.546 152.5,231.5C 149.721,231.721 147.054,231.388 144.5,230.5C 142.668,228.043 141.001,228.043 139.5,230.5C 133.998,232.102 128.664,231.768 123.5,229.5C 122.5,230 121.5,230.5 120.5,231C 110.506,231.5 100.506,231.666 90.5,231.5C 83.5898,231.243 80.5898,227.576 81.5,220.5C 81.5391,218.048 82.2057,216.048 83.5,214.5C 84.8333,214.5 86.1667,214.5 87.5,214.5C 87.1774,218.226 87.5108,221.893 88.5,225.5C 98.4527,226.641 108.453,226.808 118.5,226C 120.29,222.417 120.957,218.584 120.5,214.5C 122.5,214.5 124.5,214.5 126.5,214.5C 123.819,223.975 127.152,227.808 136.5,226C 137.381,225.292 138.047,224.458 138.5,223.5C 139.479,220.375 139.813,217.042 139.5,213.5C 141.167,213.5 142.833,213.5 144.5,213.5 Z"/></g>
<g><path style="opacity:1" fill="#a6a6a4" d="M 154.5,213.5 C 154.5,212.833 154.833,212.5 155.5,212.5C 157.167,212.5 158.833,212.5 160.5,212.5C 160.5,216.167 160.5,219.833 160.5,223.5C 159.521,220.375 159.187,217.042 159.5,213.5C 157.833,213.5 156.167,213.5 154.5,213.5 Z"/></g>
<g><path style="opacity:1" fill="#a7a6a4" d="M 175.5,213.5 C 173.833,213.5 172.167,213.5 170.5,213.5C 170.813,217.042 170.479,220.375 169.5,223.5C 169.5,219.833 169.5,216.167 169.5,212.5C 171.735,212.205 173.735,212.539 175.5,213.5 Z"/></g>
<g><path style="opacity:1" fill="#898886" d="M 143.5,212.5 C 144.167,212.5 144.5,212.833 144.5,213.5C 142.833,213.5 141.167,213.5 139.5,213.5C 139.813,217.042 139.479,220.375 138.5,223.5C 138.5,219.833 138.5,216.167 138.5,212.5C 140.167,212.5 141.833,212.5 143.5,212.5 Z"/></g>
<g><path style="opacity:1" fill="#2a1f10" d="M 279.5,214.5 C 279.816,217.978 279.316,221.312 278,224.5C 267.362,229.272 262.862,225.939 264.5,214.5C 269.645,213.309 274.645,213.309 279.5,214.5 Z"/></g>
<g><path style="opacity:1" fill="#27221a" d="M 258.5,217.5 C 258.846,220.602 258.179,223.435 256.5,226C 249.174,226.5 241.841,226.666 234.5,226.5C 236.121,224.883 238.121,223.716 240.5,223C 246.806,222.064 252.806,220.23 258.5,217.5 Z"/></g>
<g><path style="opacity:0.885" fill="#0f0d0c" d="M 352.5,195.5 C 353.514,197.574 354.514,199.574 355.5,201.5C 355.5,202.833 355.5,204.167 355.5,205.5C 350.395,213.286 345.561,221.286 341,229.5C 340.174,241.008 340.341,252.341 341.5,263.5C 340.432,264.434 339.099,264.768 337.5,264.5C 336.167,264.5 334.833,264.5 333.5,264.5C 333.167,264.5 332.833,264.5 332.5,264.5C 333.314,251.908 333.814,239.242 334,226.5C 337.867,219.207 341.534,211.874 345,204.5C 346.584,200.748 349.084,197.748 352.5,195.5 Z"/></g>
<g><path style="opacity:1" fill="#6e6c69" d="M 285.5,218.5 C 285.5,220.833 285.5,223.167 285.5,225.5C 288.713,225.19 291.713,225.523 294.5,226.5C 290.746,226.496 287.079,226.663 283.5,227C 284.128,224.061 284.795,221.228 285.5,218.5 Z"/></g>
<g><path style="opacity:1" fill="#312f29" d="M 319.5,185.5 C 322.833,185.5 326.167,185.5 329.5,185.5C 336.04,184.746 342.04,186.079 347.5,189.5C 349.167,191.5 350.833,193.5 352.5,195.5C 349.084,197.748 346.584,200.748 345,204.5C 341.534,211.874 337.867,219.207 334,226.5C 333.814,239.242 333.314,251.908 332.5,264.5C 332.167,264.5 331.833,264.5 331.5,264.5C 325.167,264.5 318.833,264.5 312.5,264.5C 301.167,264.5 289.833,264.5 278.5,264.5C 273.5,264.5 268.5,264.5 263.5,264.5C 263.281,263.325 263.614,262.325 264.5,261.5C 269.81,257.373 274.81,253.039 279.5,248.5C 282.393,248.969 284.393,247.969 285.5,245.5C 289.155,243.171 293.155,241.837 297.5,241.5C 298.982,245.829 301.482,246.496 305,243.5C 306.568,239.083 305.068,237.083 300.5,237.5C 297.278,233.322 292.945,231.655 287.5,232.5C 301.167,233.663 313.5,229.996 324.5,221.5C 325.575,219.189 325.575,216.856 324.5,214.5C 324.206,204.586 322.539,194.92 319.5,185.5 Z"/></g>
<g><path style="opacity:1" fill="#322f28" d="M 139.5,230.5 C 136.793,241.823 136.459,253.157 138.5,264.5C 122.833,264.5 107.167,264.5 91.5,264.5C 91.0558,253.504 90.7225,242.504 90.5,231.5C 100.506,231.666 110.506,231.5 120.5,231C 121.5,230.5 122.5,230 123.5,229.5C 128.664,231.768 133.998,232.102 139.5,230.5 Z"/></g>
<g><path style="opacity:1" fill="#291e0a" d="M 144.5,230.5 C 147.054,231.388 149.721,231.721 152.5,231.5C 152.255,236.054 152.588,240.554 153.5,245C 156.381,248.599 158.881,252.432 161,256.5C 163.731,258.419 166.231,260.419 168.5,262.5C 169.833,263.167 171.167,263.833 172.5,264.5C 170.167,264.5 167.833,264.5 165.5,264.5C 159.167,264.5 152.833,264.5 146.5,264.5C 145.5,264.5 144.5,264.5 143.5,264.5C 141.971,253.104 142.304,241.771 144.5,230.5 Z"/></g>
<g><path style="opacity:1" fill="#291e0b" d="M 287.5,232.5 C 292.945,231.655 297.278,233.322 300.5,237.5C 298.088,237.694 297.088,239.027 297.5,241.5C 293.155,241.837 289.155,243.171 285.5,245.5C 285.428,242.807 285.095,240.14 284.5,237.5C 284.286,235.058 285.286,233.392 287.5,232.5 Z"/></g>
<g><path style="opacity:1" fill="#26221b" d="M 144.5,230.5 C 142.304,241.771 141.971,253.104 143.5,264.5C 141.833,264.5 140.167,264.5 138.5,264.5C 136.459,253.157 136.793,241.823 139.5,230.5C 141.001,228.043 142.668,228.043 144.5,230.5 Z"/></g>
<g><path style="opacity:1" fill="#231909" d="M 237.5,231.5 C 240.5,231.5 243.5,231.5 246.5,231.5C 229.759,244.538 211.759,255.538 192.5,264.5C 185.833,264.5 179.167,264.5 172.5,264.5C 171.167,263.833 169.833,263.167 168.5,262.5C 183.206,262.572 196.873,258.739 209.5,251C 218.737,244.247 228.07,237.747 237.5,231.5 Z"/></g>
<g><path style="opacity:1" fill="#f5f4f4" d="M 300.5,237.5 C 305.068,237.083 306.568,239.083 305,243.5C 301.482,246.496 298.982,245.829 297.5,241.5C 297.088,239.027 298.088,237.694 300.5,237.5 Z"/></g>
<g><path style="opacity:1" fill="#2a1e09" d="M 278.5,235.5 C 278.927,239.824 279.261,244.158 279.5,248.5C 274.81,253.039 269.81,257.373 264.5,261.5C 263.614,262.325 263.281,263.325 263.5,264.5C 263.167,264.5 262.833,264.5 262.5,264.5C 261.833,264.5 261.167,264.5 260.5,264.5C 258.167,264.5 255.833,264.5 253.5,264.5C 249.167,264.5 244.833,264.5 240.5,264.5C 249.594,255.91 259.261,247.743 269.5,240C 272.815,238.962 275.815,237.462 278.5,235.5 Z"/></g>
<g><path style="opacity:1" fill="#26231c" d="M 160.5,230.5 C 160.335,233.518 160.502,236.518 161,239.5C 162.534,249.371 168.2,254.704 178,255.5C 186.515,254.218 194.681,251.718 202.5,248C 207.013,241.821 213.013,237.821 220.5,236C 222.063,234.264 223.73,232.764 225.5,231.5C 229.5,231.5 233.5,231.5 237.5,231.5C 228.07,237.747 218.737,244.247 209.5,251C 196.873,258.739 183.206,262.572 168.5,262.5C 166.231,260.419 163.731,258.419 161,256.5C 158.881,252.432 156.381,248.599 153.5,245C 152.588,240.554 152.255,236.054 152.5,231.5C 154.995,228.546 157.661,228.213 160.5,230.5 Z"/></g>
<g><path style="opacity:1" fill="#25211a" d="M 278.5,235.5 C 275.815,237.462 272.815,238.962 269.5,240C 259.261,247.743 249.594,255.91 240.5,264.5C 239.5,264.5 238.5,264.5 237.5,264.5C 231.5,264.5 225.5,264.5 219.5,264.5C 221.937,262.567 224.271,260.4 226.5,258C 229.177,257.751 231.51,256.751 233.5,255C 238.806,251.027 243.473,246.361 247.5,241C 249.392,240.027 251.392,239.36 253.5,239C 254.924,236.782 256.924,235.282 259.5,234.5C 262.433,232.262 262.099,231.262 258.5,231.5C 260.018,229.397 261.685,229.23 263.5,231C 268.833,231.667 274.167,231.667 279.5,231C 280,230.5 280.5,230 281,229.5C 280.517,231.537 279.684,233.537 278.5,235.5 Z"/></g>
<g><path style="opacity:1" fill="#2b1f09" d="M 246.5,231.5 C 250.5,231.5 254.5,231.5 258.5,231.5C 262.099,231.262 262.433,232.262 259.5,234.5C 256.924,235.282 254.924,236.782 253.5,239C 251.392,239.36 249.392,240.027 247.5,241C 243.473,246.361 238.806,251.027 233.5,255C 231.51,256.751 229.177,257.751 226.5,258C 224.271,260.4 221.937,262.567 219.5,264.5C 218.5,264.5 217.5,264.5 216.5,264.5C 212.5,264.5 208.5,264.5 204.5,264.5C 200.5,264.5 196.5,264.5 192.5,264.5C 211.759,255.538 229.759,244.538 246.5,231.5 Z"/></g>
<g><path style="opacity:1" fill="#eddfbf" d="M 91.5,264.5 C 107.167,264.5 122.833,264.5 138.5,264.5C 138.263,268.41 139.096,272.077 141,275.5C 141.71,276.973 142.876,277.64 144.5,277.5C 144.351,276.448 144.517,275.448 145,274.5C 146.353,275.685 147.52,277.019 148.5,278.5C 149.689,279.429 151.022,279.762 152.5,279.5C 153.167,280.833 154.167,281.833 155.5,282.5C 160.517,287.017 166.517,288.683 173.5,287.5C 173.682,289.591 173.348,291.591 172.5,293.5C 171.609,294.59 170.609,294.59 169.5,293.5C 169.295,297.375 167.295,299.041 163.5,298.5C 163.494,303.215 162.994,307.882 162,312.5C 160.667,311.167 159.333,311.167 158,312.5C 157.273,308.706 155.107,306.04 151.5,304.5C 149.361,305.977 147.028,306.977 144.5,307.5C 144.75,302.42 144.25,297.42 143,292.5C 140.09,291.419 137.59,289.752 135.5,287.5C 133.971,287.529 132.804,288.196 132,289.5C 132.624,293.38 133.124,297.38 133.5,301.5C 128.419,294.169 123.419,286.669 118.5,279C 115.276,276.808 111.776,274.975 108,273.5C 106.97,273.836 106.47,274.503 106.5,275.5C 103.913,273.041 100.913,271.374 97.5,270.5C 97.5,269.5 97.5,268.5 97.5,267.5C 95.8333,267.5 94.1667,267.5 92.5,267.5C 92.4431,266.391 92.1098,265.391 91.5,264.5 Z"/></g>
<g><path style="opacity:1" fill="#daa127" d="M 253.5,264.5 C 255.833,264.5 258.167,264.5 260.5,264.5C 255.315,270.185 249.981,275.685 244.5,281C 240.926,283.412 237.926,286.245 235.5,289.5C 226.846,297.908 216.346,302.575 204,303.5C 200.523,303.672 197.356,303.006 194.5,301.5C 197.176,302.008 199.843,302.175 202.5,302C 214.212,294.478 226.212,287.478 238.5,281C 243.858,275.752 248.858,270.252 253.5,264.5 Z"/></g>
<g><path style="opacity:1" fill="#dab55e" d="M 260.5,264.5 C 261.167,264.5 261.833,264.5 262.5,264.5C 256.778,270.553 251.111,276.553 245.5,282.5C 242.185,284.808 238.851,287.141 235.5,289.5C 237.926,286.245 240.926,283.412 244.5,281C 249.981,275.685 255.315,270.185 260.5,264.5 Z"/></g>
<g><path style="opacity:1" fill="#e3ac24" d="M 194.5,278.5 C 189.271,280.276 183.937,281.776 178.5,283C 174.167,283.667 169.833,283.667 165.5,283C 163.75,281.681 161.75,281.181 159.5,281.5C 160.263,280.732 161.263,280.232 162.5,280C 159.995,279.49 158.495,277.99 158,275.5C 157.126,272.621 157.46,269.955 159,267.5C 162.197,269.667 165.03,272.167 167.5,275C 172.149,275.664 176.816,276.164 181.5,276.5C 186.827,275.733 192.16,275.566 197.5,276C 196.429,276.852 195.429,277.685 194.5,278.5 Z"/></g>
<g><path style="opacity:1" fill="#d9a026" d="M 146.5,264.5 C 152.833,264.5 159.167,264.5 165.5,264.5C 169.807,269.389 175.307,271.389 182,270.5C 184.833,270.333 187.667,270.167 190.5,270C 195.315,268.274 199.982,266.441 204.5,264.5C 208.5,264.5 212.5,264.5 216.5,264.5C 211.471,268.243 206.471,272.076 201.5,276C 199.235,277.118 196.901,277.951 194.5,278.5C 195.429,277.685 196.429,276.852 197.5,276C 192.16,275.566 186.827,275.733 181.5,276.5C 176.816,276.164 172.149,275.664 167.5,275C 165.03,272.167 162.197,269.667 159,267.5C 157.46,269.955 157.126,272.621 158,275.5C 158.495,277.99 159.995,279.49 162.5,280C 161.263,280.232 160.263,280.732 159.5,281.5C 156.892,281.6 154.558,280.933 152.5,279.5C 148.172,275.533 146.172,270.533 146.5,264.5 Z"/></g>
<g><path style="opacity:1" fill="#c28822" d="M 165.5,264.5 C 167.833,264.5 170.167,264.5 172.5,264.5C 179.167,264.5 185.833,264.5 192.5,264.5C 196.5,264.5 200.5,264.5 204.5,264.5C 199.982,266.441 195.315,268.274 190.5,270C 187.667,270.167 184.833,270.333 182,270.5C 175.307,271.389 169.807,269.389 165.5,264.5 Z"/></g>
<g><path style="opacity:0.675" fill="#bba697" d="M 331.5,264.5 C 331.833,264.5 332.167,264.5 332.5,264.5C 332.833,264.5 333.167,264.5 333.5,264.5C 332.024,267.037 330.024,269.037 327.5,270.5C 323.592,271.121 320.259,272.787 317.5,275.5C 318.828,271.221 321.828,269.055 326.5,269C 328.767,268.106 330.434,266.606 331.5,264.5 Z"/></g>
<g><path style="opacity:0.158" fill="#87745e" d="M 82.5,264.5 C 85.5,264.5 88.5,264.5 91.5,264.5C 92.1098,265.391 92.4431,266.391 92.5,267.5C 93.5676,268.434 94.901,268.768 96.5,268.5C 96.8739,271.888 98.8739,273.722 102.5,274C 104.283,275.739 105.95,277.572 107.5,279.5C 105.712,280.283 104.712,281.616 104.5,283.5C 103.5,283.5 102.5,283.5 101.5,283.5C 101.5,282.5 101.5,281.5 101.5,280.5C 99.8008,280.66 98.1341,280.494 96.5,280C 92.3339,277.083 88.0006,274.416 83.5,272C 82.565,269.619 82.2317,267.119 82.5,264.5 Z"/></g>
<g><path style="opacity:1" fill="#cebb93" d="M 138.5,264.5 C 140.167,264.5 141.833,264.5 143.5,264.5C 144.5,264.5 145.5,264.5 146.5,264.5C 146.172,270.533 148.172,275.533 152.5,279.5C 151.022,279.762 149.689,279.429 148.5,278.5C 147.52,277.019 146.353,275.685 145,274.5C 144.517,275.448 144.351,276.448 144.5,277.5C 142.876,277.64 141.71,276.973 141,275.5C 139.096,272.077 138.263,268.41 138.5,264.5 Z"/></g>
<g><path style="opacity:0.471" fill="#856b68" d="M 333.5,264.5 C 334.833,264.5 336.167,264.5 337.5,264.5C 337.297,266.044 336.63,267.378 335.5,268.5C 329.487,271.839 323.487,275.173 317.5,278.5C 317.5,277.5 317.5,276.5 317.5,275.5C 320.259,272.787 323.592,271.121 327.5,270.5C 330.024,269.037 332.024,267.037 333.5,264.5 Z"/></g>
<g><path style="opacity:1" fill="#cabc9a" d="M 262.5,264.5 C 262.833,264.5 263.167,264.5 263.5,264.5C 268.5,264.5 273.5,264.5 278.5,264.5C 271.771,271.048 264.771,277.381 257.5,283.5C 255.956,283.703 254.622,284.37 253.5,285.5C 252.833,284.5 252.167,283.5 251.5,282.5C 248.634,284.432 245.634,286.099 242.5,287.5C 243.759,286.021 244.759,284.354 245.5,282.5C 251.111,276.553 256.778,270.553 262.5,264.5 Z"/></g>
<g><path style="opacity:0.137" fill="#86775a" d="M 341.5,263.5 C 342.167,263.5 342.833,263.5 343.5,263.5C 342.007,265.911 341.007,268.578 340.5,271.5C 337.506,272.662 334.84,274.329 332.5,276.5C 330.955,277.452 329.288,277.785 327.5,277.5C 327.5,278.5 327.5,279.5 327.5,280.5C 324.921,281.656 322.255,282.656 319.5,283.5C 318.833,281.833 318.167,280.167 317.5,278.5C 323.487,275.173 329.487,271.839 335.5,268.5C 336.63,267.378 337.297,266.044 337.5,264.5C 339.099,264.768 340.432,264.434 341.5,263.5 Z"/></g>
<g><path style="opacity:1" fill="#b1a17f" d="M 216.5,264.5 C 217.5,264.5 218.5,264.5 219.5,264.5C 225.5,264.5 231.5,264.5 237.5,264.5C 233.108,270.224 227.775,274.891 221.5,278.5C 217.31,281.177 212.977,283.677 208.5,286C 204.044,287.352 199.711,288.852 195.5,290.5C 194.659,288.621 194.325,286.621 194.5,284.5C 189.859,285.127 185.193,285.46 180.5,285.5C 182.5,284.5 184.5,283.5 186.5,282.5C 189.437,281.528 192.103,280.195 194.5,278.5C 196.901,277.951 199.235,277.118 201.5,276C 206.471,272.076 211.471,268.243 216.5,264.5 Z"/></g>
<g><path style="opacity:0.416" fill="#e2d8ca" d="M 133.5,301.5 C 134.209,302.404 135.209,302.737 136.5,302.5C 136.5,304.5 136.5,306.5 136.5,308.5C 134.588,305.952 132.421,303.618 130,301.5C 127.06,296.508 124.06,291.508 121,286.5C 115.696,283.27 110.863,279.603 106.5,275.5C 106.47,274.503 106.97,273.836 108,273.5C 111.776,274.975 115.276,276.808 118.5,279C 123.419,286.669 128.419,294.169 133.5,301.5 Z"/></g>
<g><path style="opacity:1" fill="#e3b84f" d="M 194.5,278.5 C 192.103,280.195 189.437,281.528 186.5,282.5C 176.167,285.167 165.833,285.167 155.5,282.5C 154.167,281.833 153.167,280.833 152.5,279.5C 154.558,280.933 156.892,281.6 159.5,281.5C 161.75,281.181 163.75,281.681 165.5,283C 169.833,283.667 174.167,283.667 178.5,283C 183.937,281.776 189.271,280.276 194.5,278.5 Z"/></g>
<g><path style="opacity:0.04" fill="#fcfbfa" d="M 134.5,320.5 C 133.778,320.082 133.278,319.416 133,318.5C 125.914,319.646 118.747,319.812 111.5,319C 109.112,318.697 106.945,317.863 105,316.5C 104.192,306.09 104.359,295.757 105.5,285.5C 105.866,284.305 106.699,283.639 108,283.5C 111.765,284.758 115.099,286.758 118,289.5C 126.186,298.545 131.686,308.878 134.5,320.5 Z"/></g>
<g><path style="opacity:1" fill="#c18926" d="M 237.5,264.5 C 238.5,264.5 239.5,264.5 240.5,264.5C 244.833,264.5 249.167,264.5 253.5,264.5C 248.858,270.252 243.858,275.752 238.5,281C 226.212,287.478 214.212,294.478 202.5,302C 199.843,302.175 197.176,302.008 194.5,301.5C 194.389,300.883 194.056,300.383 193.5,300C 190.518,299.502 187.518,299.335 184.5,299.5C 184.5,299.167 184.5,298.833 184.5,298.5C 183.602,297.842 182.602,297.176 181.5,296.5C 187.423,294.692 193.423,293.192 199.5,292C 204.623,288.956 209.956,286.289 215.5,284C 217.763,282.383 219.763,280.55 221.5,278.5C 227.775,274.891 233.108,270.224 237.5,264.5 Z"/></g>
<g><path style="opacity:0.042" fill="#fcfbfa" d="M 319.5,283.5 C 319.423,284.75 318.756,285.583 317.5,286C 318.126,286.75 318.626,287.584 319,288.5C 319.167,292.5 319.333,296.5 319.5,300.5C 319.691,306.297 319.025,311.963 317.5,317.5C 316.5,318 315.5,318.5 314.5,319C 306.841,319.5 299.174,319.666 291.5,319.5C 291.34,317.801 291.506,316.134 292,314.5C 295.204,310.677 297.371,306.344 298.5,301.5C 298.238,300.022 298.571,298.689 299.5,297.5C 302.852,294.654 305.185,291.154 306.5,287C 309.491,285.17 312.491,283.337 315.5,281.5C 317.073,281.752 318.406,282.418 319.5,283.5 Z"/></g>
<g><path style="opacity:1" fill="#e7d099" d="M 155.5,282.5 C 165.833,285.167 176.167,285.167 186.5,282.5C 184.5,283.5 182.5,284.5 180.5,285.5C 178.442,286.933 176.108,287.6 173.5,287.5C 166.517,288.683 160.517,287.017 155.5,282.5 Z"/></g>
<g><path style="opacity:1" fill="#f3e6c9" d="M 278.5,264.5 C 289.833,264.5 301.167,264.5 312.5,264.5C 312.762,265.978 312.429,267.311 311.5,268.5C 308.808,270.862 306.141,273.196 303.5,275.5C 298.922,276.24 294.422,276.574 290,276.5C 289.266,284.503 288.933,292.503 289,300.5C 291.033,299.984 291.033,300.65 289,302.5C 287.956,301.377 287.29,300.044 287,298.5C 286.667,299.167 286.333,299.833 286,300.5C 285.012,297.576 284.346,294.576 284,291.5C 283.275,290.941 282.442,290.608 281.5,290.5C 274.184,295.353 269.184,302.02 266.5,310.5C 266.608,311.442 266.941,312.275 267.5,313C 265.527,313.495 263.527,313.662 261.5,313.5C 262.44,309.537 262.607,305.537 262,301.5C 261.592,299.59 260.425,298.59 258.5,298.5C 255.534,302.297 252.034,305.631 248,308.5C 247.883,312.785 245.717,314.785 241.5,314.5C 240.891,310.564 239.891,306.731 238.5,303C 240.58,299.098 242.08,294.931 243,290.5C 244.418,292.363 246.251,292.863 248.5,292C 251.967,289.701 254.967,286.868 257.5,283.5C 264.771,277.381 271.771,271.048 278.5,264.5 Z"/></g>
<g><path style="opacity:0.545" fill="#bcad9d" d="M 92.5,267.5 C 94.1667,267.5 95.8333,267.5 97.5,267.5C 97.5,268.5 97.5,269.5 97.5,270.5C 100.913,271.374 103.913,273.041 106.5,275.5C 110.863,279.603 115.696,283.27 121,286.5C 124.06,291.508 127.06,296.508 130,301.5C 132.421,303.618 134.588,305.952 136.5,308.5C 136.444,311.561 137.778,313.728 140.5,315C 153.34,315.169 166.007,315.669 178.5,316.5C 164.754,316.815 151.088,316.481 137.5,315.5C 136.527,317.948 136.194,320.615 136.5,323.5C 134.952,323.179 134.285,322.179 134.5,320.5C 131.686,308.878 126.186,298.545 118,289.5C 115.099,286.758 111.765,284.758 108,283.5C 106.699,283.639 105.866,284.305 105.5,285.5C 104.662,285.158 104.328,284.492 104.5,283.5C 104.712,281.616 105.712,280.283 107.5,279.5C 105.95,277.572 104.283,275.739 102.5,274C 98.8739,273.722 96.8739,271.888 96.5,268.5C 94.901,268.768 93.5676,268.434 92.5,267.5 Z"/></g>
<g><path style="opacity:1" fill="#c3a46b" d="M 221.5,278.5 C 219.763,280.55 217.763,282.383 215.5,284C 209.956,286.289 204.623,288.956 199.5,292C 193.423,293.192 187.423,294.692 181.5,296.5C 182.602,297.176 183.602,297.842 184.5,298.5C 179.907,299.582 176.907,297.915 175.5,293.5C 182.395,292.999 189.062,291.999 195.5,290.5C 199.711,288.852 204.044,287.352 208.5,286C 212.977,283.677 217.31,281.177 221.5,278.5 Z"/></g>
<g><path style="opacity:0.553" fill="#b9ab99" d="M 317.5,275.5 C 317.5,276.5 317.5,277.5 317.5,278.5C 318.167,280.167 318.833,281.833 319.5,283.5C 318.406,282.418 317.073,281.752 315.5,281.5C 312.491,283.337 309.491,285.17 306.5,287C 305.185,291.154 302.852,294.654 299.5,297.5C 298.571,298.689 298.238,300.022 298.5,301.5C 291.931,307.391 288.598,314.724 288.5,323.5C 287.833,323.5 287.167,323.5 286.5,323.5C 286.975,320.918 286.308,318.918 284.5,317.5C 271.006,316.339 257.34,316.173 243.5,317C 242.255,317.791 240.922,318.291 239.5,318.5C 240.058,317.21 241.058,316.377 242.5,316C 255.5,315.667 268.5,315.333 281.5,315C 283.744,314.004 285.577,312.504 287,310.5C 289.953,305.22 293.286,300.22 297,295.5C 297.667,293.5 298.333,291.5 299,289.5C 300.685,287.983 302.185,286.316 303.5,284.5C 308.343,281.787 313.01,278.787 317.5,275.5 Z"/></g>
<g><path style="opacity:1" fill="#dac699" d="M 245.5,282.5 C 244.759,284.354 243.759,286.021 242.5,287.5C 239.552,291.255 236.886,295.255 234.5,299.5C 232.039,298.398 229.539,298.398 227,299.5C 221.32,300.574 216.153,302.741 211.5,306C 206.798,306.828 202.131,306.662 197.5,305.5C 195.263,304.868 193.597,303.535 192.5,301.5C 189.694,300.832 187.028,300.166 184.5,299.5C 187.518,299.335 190.518,299.502 193.5,300C 194.056,300.383 194.389,300.883 194.5,301.5C 197.356,303.006 200.523,303.672 204,303.5C 216.346,302.575 226.846,297.908 235.5,289.5C 238.851,287.141 242.185,284.808 245.5,282.5 Z"/></g>
<g><path style="opacity:0.996" fill="#e6d8b9" d="M 312.5,264.5 C 318.833,264.5 325.167,264.5 331.5,264.5C 330.434,266.606 328.767,268.106 326.5,269C 321.828,269.055 318.828,271.221 317.5,275.5C 313.01,278.787 308.343,281.787 303.5,284.5C 302.185,286.316 300.685,287.983 299,289.5C 298.333,291.5 297.667,293.5 297,295.5C 293.286,300.22 289.953,305.22 287,310.5C 285.577,312.504 283.744,314.004 281.5,315C 268.5,315.333 255.5,315.667 242.5,316C 241.058,316.377 240.058,317.21 239.5,318.5C 235.194,320.766 230.86,322.932 226.5,325C 222.609,328.101 218.609,330.934 214.5,333.5C 211.017,334.084 208.017,333.251 205.5,331C 199.375,329.576 194.042,326.743 189.5,322.5C 185.812,320.712 182.146,319.045 178.5,317.5C 178.5,317.167 178.5,316.833 178.5,316.5C 166.007,315.669 153.34,315.169 140.5,315C 137.778,313.728 136.444,311.561 136.5,308.5C 136.5,306.5 136.5,304.5 136.5,302.5C 135.209,302.737 134.209,302.404 133.5,301.5C 133.124,297.38 132.624,293.38 132,289.5C 132.804,288.196 133.971,287.529 135.5,287.5C 137.59,289.752 140.09,291.419 143,292.5C 144.25,297.42 144.75,302.42 144.5,307.5C 147.028,306.977 149.361,305.977 151.5,304.5C 155.107,306.04 157.273,308.706 158,312.5C 159.333,311.167 160.667,311.167 162,312.5C 162.994,307.882 163.494,303.215 163.5,298.5C 167.295,299.041 169.295,297.375 169.5,293.5C 170.609,294.59 171.609,294.59 172.5,293.5C 173.348,291.591 173.682,289.591 173.5,287.5C 176.108,287.6 178.442,286.933 180.5,285.5C 185.193,285.46 189.859,285.127 194.5,284.5C 194.325,286.621 194.659,288.621 195.5,290.5C 189.062,291.999 182.395,292.999 175.5,293.5C 176.907,297.915 179.907,299.582 184.5,298.5C 184.5,298.833 184.5,299.167 184.5,299.5C 187.028,300.166 189.694,300.832 192.5,301.5C 193.597,303.535 195.263,304.868 197.5,305.5C 202.131,306.662 206.798,306.828 211.5,306C 216.153,302.741 221.32,300.574 227,299.5C 229.539,298.398 232.039,298.398 234.5,299.5C 236.886,295.255 239.552,291.255 242.5,287.5C 245.634,286.099 248.634,284.432 251.5,282.5C 252.167,283.5 252.833,284.5 253.5,285.5C 254.622,284.37 255.956,283.703 257.5,283.5C 254.967,286.868 251.967,289.701 248.5,292C 246.251,292.863 244.418,292.363 243,290.5C 242.08,294.931 240.58,299.098 238.5,303C 239.891,306.731 240.891,310.564 241.5,314.5C 245.717,314.785 247.883,312.785 248,308.5C 252.034,305.631 255.534,302.297 258.5,298.5C 260.425,298.59 261.592,299.59 262,301.5C 262.607,305.537 262.44,309.537 261.5,313.5C 263.527,313.662 265.527,313.495 267.5,313C 266.941,312.275 266.608,311.442 266.5,310.5C 269.184,302.02 274.184,295.353 281.5,290.5C 282.442,290.608 283.275,290.941 284,291.5C 284.346,294.576 285.012,297.576 286,300.5C 286.333,299.833 286.667,299.167 287,298.5C 287.29,300.044 287.956,301.377 289,302.5C 291.033,300.65 291.033,299.984 289,300.5C 288.933,292.503 289.266,284.503 290,276.5C 294.422,276.574 298.922,276.24 303.5,275.5C 306.141,273.196 308.808,270.862 311.5,268.5C 312.429,267.311 312.762,265.978 312.5,264.5 Z"/></g>
<g><path style="opacity:0.465" fill="#a6858e" d="M 137.5,315.5 C 151.088,316.481 164.754,316.815 178.5,316.5C 178.5,316.833 178.5,317.167 178.5,317.5C 165.833,317.5 153.167,317.5 140.5,317.5C 138.821,317.715 137.821,317.048 137.5,315.5 Z"/></g>
<g><path style="opacity:0.078" fill="#e7e0d1" d="M 298.5,301.5 C 297.371,306.344 295.204,310.677 292,314.5C 291.506,316.134 291.34,317.801 291.5,319.5C 290.341,320.74 289.341,322.074 288.5,323.5C 288.598,314.724 291.931,307.391 298.5,301.5 Z"/></g>
<g><path style="opacity:0.427" fill="#af9290" d="M 284.5,317.5 C 284.5,318.167 284.167,318.5 283.5,318.5C 283.167,318.5 282.833,318.5 282.5,318.5C 276.342,317.834 270.009,317.5 263.5,317.5C 256.796,317.504 250.463,318.17 244.5,319.5C 240.464,319.353 237.131,320.853 234.5,324C 227.684,327.092 221.017,330.259 214.5,333.5C 218.609,330.934 222.609,328.101 226.5,325C 230.86,322.932 235.194,320.766 239.5,318.5C 240.922,318.291 242.255,317.791 243.5,317C 257.34,316.173 271.006,316.339 284.5,317.5 Z"/></g>
<g><path style="opacity:0.09" fill="#7d6c52" d="M 137.5,315.5 C 137.821,317.048 138.821,317.715 140.5,317.5C 140.328,318.492 140.662,319.158 141.5,319.5C 154.327,320.331 167.327,320.831 180.5,321C 182.979,323.67 185.979,325.17 189.5,325.5C 189.5,326.5 189.5,327.5 189.5,328.5C 192.644,328.956 195.644,329.956 198.5,331.5C 203.356,336.861 209.356,339.028 216.5,338C 217.5,336.333 218.833,335 220.5,334C 226.946,331.461 233.279,328.627 239.5,325.5C 239.5,324.5 239.5,323.5 239.5,322.5C 241.429,322.769 243.095,322.269 244.5,321C 257.167,320.667 269.833,320.333 282.5,320C 283.056,319.617 283.389,319.117 283.5,318.5C 284.167,318.5 284.5,318.167 284.5,317.5C 286.308,318.918 286.975,320.918 286.5,323.5C 282.565,324.435 278.565,325.269 274.5,326C 264.151,326.168 253.817,326.668 243.5,327.5C 242.395,328.892 241.061,330.059 239.5,331C 236.417,332.925 233.083,334.092 229.5,334.5C 229.5,335.5 229.5,336.5 229.5,337.5C 226.419,338.538 223.419,339.872 220.5,341.5C 214.5,341.5 208.5,341.5 202.5,341.5C 196.661,338.247 190.995,334.581 185.5,330.5C 183.955,329.548 182.288,329.215 180.5,329.5C 180.5,328.5 180.5,327.5 180.5,326.5C 165.634,327.247 150.967,326.247 136.5,323.5C 136.194,320.615 136.527,317.948 137.5,315.5 Z"/></g>
<g><path style="opacity:0.341" fill="#826264" d="M 178.5,317.5 C 182.146,319.045 185.812,320.712 189.5,322.5C 194.042,326.743 199.375,329.576 205.5,331C 208.017,333.251 211.017,334.084 214.5,333.5C 221.017,330.259 227.684,327.092 234.5,324C 237.131,320.853 240.464,319.353 244.5,319.5C 257.246,319.813 269.913,319.48 282.5,318.5C 282.833,318.5 283.167,318.5 283.5,318.5C 283.389,319.117 283.056,319.617 282.5,320C 269.833,320.333 257.167,320.667 244.5,321C 243.095,322.269 241.429,322.769 239.5,322.5C 239.5,323.5 239.5,324.5 239.5,325.5C 233.279,328.627 226.946,331.461 220.5,334C 218.833,335 217.5,336.333 216.5,338C 209.356,339.028 203.356,336.861 198.5,331.5C 195.644,329.956 192.644,328.956 189.5,328.5C 189.5,327.5 189.5,326.5 189.5,325.5C 185.979,325.17 182.979,323.67 180.5,321C 167.327,320.831 154.327,320.331 141.5,319.5C 154.212,320.146 166.545,319.48 178.5,317.5 Z"/></g>
<g><path style="opacity:0.329" fill="#754b65" d="M 282.5,318.5 C 269.913,319.48 257.246,319.813 244.5,319.5C 250.463,318.17 256.796,317.504 263.5,317.5C 270.009,317.5 276.342,317.834 282.5,318.5 Z"/></g>
<g><path style="opacity:0.32" fill="#764c66" d="M 140.5,317.5 C 153.167,317.5 165.833,317.5 178.5,317.5C 166.545,319.48 154.212,320.146 141.5,319.5C 140.662,319.158 140.328,318.492 140.5,317.5 Z"/></g>
<g><path style="opacity:0.116" fill="#dfdbd4" d="M 202.5,341.5 C 208.5,341.5 214.5,341.5 220.5,341.5C 214.511,344.037 208.511,344.037 202.5,341.5 Z"/></g>
<g><path style="opacity:0.11" fill="#d9d9d9" d="M 33.5,395.5 C 29.8333,395.5 26.1667,395.5 22.5,395.5C 22.6107,394.883 22.944,394.383 23.5,394C 26.5,393.333 29.5,393.333 32.5,394C 33.056,394.383 33.3893,394.883 33.5,395.5 Z"/></g>
<g><path style="opacity:0.106" fill="#d9d9d9" d="M 57.5,395.5 C 51.1667,395.5 44.8333,395.5 38.5,395.5C 38.6107,394.883 38.944,394.383 39.5,394C 42,393.833 44.5,393.667 47,393.5C 50.8048,393.304 54.3048,393.97 57.5,395.5 Z"/></g>
<g><path style="opacity:0.096" fill="#d8d8d8" d="M 149.5,395.5 C 145.167,395.5 140.833,395.5 136.5,395.5C 140.804,392.91 145.137,392.91 149.5,395.5 Z"/></g>
<g><path style="opacity:0.081" fill="#d8d8d8" d="M 198.5,395.5 C 194.167,395.5 189.833,395.5 185.5,395.5C 189.863,392.91 194.196,392.91 198.5,395.5 Z"/></g>
<g><path style="opacity:0.096" fill="#d9d9d9" d="M 232.5,395.5 C 228.5,395.5 224.5,395.5 220.5,395.5C 220.611,394.883 220.944,394.383 221.5,394C 223,393.833 224.5,393.667 226,393.5C 228.544,393.336 230.71,394.003 232.5,395.5 Z"/></g>
<g><path style="opacity:0.088" fill="#d8d8d8" d="M 284.5,395.5 C 279.833,395.5 275.167,395.5 270.5,395.5C 272.29,394.003 274.456,393.336 277,393.5C 279.821,393.408 282.321,394.074 284.5,395.5 Z"/></g>
<g><path style="opacity:0.082" fill="#d7d7d7" d="M 318.5,395.5 C 314.167,395.5 309.833,395.5 305.5,395.5C 305.611,394.883 305.944,394.383 306.5,394C 310.781,393.202 314.781,393.702 318.5,395.5 Z"/></g>
<g><path style="opacity:0.095" fill="#d9d9d9" d="M 359.5,395.5 C 355.833,395.5 352.167,395.5 348.5,395.5C 348.611,394.883 348.944,394.383 349.5,394C 350.833,393.833 352.167,393.667 353.5,393.5C 355.883,393.361 357.883,394.028 359.5,395.5 Z"/></g>
<g><path style="opacity:0.413" fill="#666666" d="M 22.5,395.5 C 26.1667,395.5 29.8333,395.5 33.5,395.5C 33.8897,398.466 33.223,401.132 31.5,403.5C 32.7357,404.357 34.069,405.023 35.5,405.5C 35.5321,402.07 36.5321,398.737 38.5,395.5C 44.8333,395.5 51.1667,395.5 57.5,395.5C 57.5,396.833 57.5,398.167 57.5,399.5C 60.5184,399.335 63.5184,399.502 66.5,400C 67.6508,402.119 69.1508,403.953 71,405.5C 71.3742,404.584 71.8742,403.75 72.5,403C 78.8807,402.002 85.0474,402.502 91,404.5C 94.3395,402.956 97.8395,402.29 101.5,402.5C 101.5,401.5 101.5,400.5 101.5,399.5C 105.167,399.5 108.833,399.5 112.5,399.5C 112.5,400.5 112.5,401.5 112.5,402.5C 115.23,402.473 117.73,403.14 120,404.5C 122.589,403.014 125.423,402.347 128.5,402.5C 128.5,401.5 128.5,400.5 128.5,399.5C 131.167,399.5 133.833,399.5 136.5,399.5C 136.5,398.167 136.5,396.833 136.5,395.5C 140.833,395.5 145.167,395.5 149.5,395.5C 150.434,396.568 150.768,397.901 150.5,399.5C 153.167,399.5 155.833,399.5 158.5,399.5C 158.5,400.5 158.5,401.5 158.5,402.5C 160.749,403.231 162.916,404.231 165,405.5C 169.129,400.995 174.295,398.995 180.5,399.5C 180.5,398.5 180.5,397.5 180.5,396.5C 182.415,396.784 184.081,396.451 185.5,395.5C 189.833,395.5 194.167,395.5 198.5,395.5C 199.479,398.625 199.813,401.958 199.5,405.5C 207.168,405.543 214.502,404.209 221.5,401.5C 220.652,399.591 220.318,397.591 220.5,395.5C 224.5,395.5 228.5,395.5 232.5,395.5C 234.834,397.176 235.834,399.509 235.5,402.5C 237.167,402.5 238.833,402.5 240.5,402.5C 240.261,400.533 240.594,398.699 241.5,397C 246.167,396.333 250.833,396.333 255.5,397C 258.359,398.691 259.692,401.191 259.5,404.5C 262.505,404.25 264.338,405.583 265,408.5C 266.667,407.5 268,406.167 269,404.5C 269.259,401.413 269.759,398.413 270.5,395.5C 275.167,395.5 279.833,395.5 284.5,395.5C 285.916,397.474 287.249,399.64 288.5,402C 288.241,403.261 287.574,404.261 286.5,405C 289.146,405.497 291.813,405.664 294.5,405.5C 294.5,407.833 294.5,410.167 294.5,412.5C 298.167,412.5 301.833,412.5 305.5,412.5C 306.115,408.04 305.115,404.04 302.5,400.5C 303.554,398.799 304.554,397.132 305.5,395.5C 309.833,395.5 314.167,395.5 318.5,395.5C 318.674,398.874 319.174,402.207 320,405.5C 323.744,404.374 327.577,404.207 331.5,405C 333.061,405.318 334.228,406.151 335,407.5C 335.497,404.854 335.664,402.187 335.5,399.5C 337.433,399.271 339.1,398.438 340.5,397C 342.899,396.289 345.232,396.456 347.5,397.5C 348.298,397.043 348.631,396.376 348.5,395.5C 352.167,395.5 355.833,395.5 359.5,395.5C 360.106,399.459 360.773,403.459 361.5,407.5C 362.321,404.553 362.821,401.553 363,398.5C 366.933,396.522 371.1,396.022 375.5,397C 376.833,400.333 378.167,400.333 379.5,397C 382.882,396.176 386.216,396.343 389.5,397.5C 390.393,400.084 390.726,402.751 390.5,405.5C 390.5,409.833 390.5,414.167 390.5,418.5C 390.196,419.15 389.863,419.817 389.5,420.5C 377.852,421.499 366.186,421.832 354.5,421.5C 355.21,424.86 353.876,426.693 350.5,427C 345.5,427.667 340.5,427.667 335.5,427C 332.093,425.065 328.426,424.232 324.5,424.5C 324.5,423.5 324.5,422.5 324.5,421.5C 319.167,421.5 313.833,421.5 308.5,421.5C 308.66,423.199 308.494,424.866 308,426.5C 306.167,428 304.333,429.5 302.5,431C 296.32,432.022 290.32,431.522 284.5,429.5C 283.52,426.914 283.187,424.247 283.5,421.5C 280.833,421.5 278.167,421.5 275.5,421.5C 275.937,431.393 271.937,433.727 263.5,428.5C 261.744,426.446 261.41,424.279 262.5,422C 259.833,421.333 257.167,421.333 254.5,422C 254.043,422.414 253.709,422.914 253.5,423.5C 251.5,423.833 249.5,424.167 247.5,424.5C 243.043,423.847 238.71,422.847 234.5,421.5C 234.343,423.818 233.176,425.484 231,426.5C 223.537,427.617 216.037,427.784 208.5,427C 207.324,425.326 205.99,423.826 204.5,422.5C 182.711,420.991 161.045,420.657 139.5,421.5C 139.079,423.91 137.746,425.743 135.5,427C 128.797,427.713 122.13,427.546 115.5,426.5C 115.843,422.866 114.177,421.199 110.5,421.5C 109.167,421.833 107.833,422.167 106.5,422.5C 107.833,423.5 107.833,424.5 106.5,425.5C 101.538,432.258 95.538,433.258 88.5,428.5C 84.959,427.8 81.459,427.133 78,426.5C 70.1932,433.739 63.3599,432.906 57.5,424C 57.9574,423.586 58.2907,423.086 58.5,422.5C 54.8333,421.167 51.1667,421.167 47.5,422.5C 44.8942,423.922 42.2275,425.422 39.5,427C 34.5,427.667 29.5,427.667 24.5,427C 20.6394,425.331 18.6394,422.498 18.5,418.5C 18.5,413.167 18.5,407.833 18.5,402.5C 19.3019,401.048 19.8019,399.382 20,397.5C 20.9947,396.934 21.828,396.267 22.5,395.5 Z M 245.5,408.5 C 248.167,408.5 250.833,408.5 253.5,408.5C 253.5,409.833 253.5,411.167 253.5,412.5C 250.833,412.5 248.167,412.5 245.5,412.5C 245.5,411.167 245.5,409.833 245.5,408.5 Z"/></g>
<g><path style="opacity:0.042" fill="#d6d6d6" d="M 18.5,402.5 C 18.5,407.833 18.5,413.167 18.5,418.5C 15.9041,413.151 15.9041,407.817 18.5,402.5 Z"/></g>
<g><path style="opacity:0.023" fill="#c6c6c6" d="M 390.5,405.5 C 391.117,405.611 391.617,405.944 392,406.5C 392.167,408.5 392.333,410.5 392.5,412.5C 392.461,414.952 391.794,416.952 390.5,418.5C 390.5,414.167 390.5,409.833 390.5,405.5 Z"/></g>
<g><path style="opacity:0.464" fill="#666666" d="M 257.5,479.5 C 252.167,479.5 246.833,479.5 241.5,479.5C 238.325,478.818 236.825,476.818 237,473.5C 235.488,472.743 234.154,471.743 233,470.5C 232.502,473.482 232.335,476.482 232.5,479.5C 225.167,479.5 217.833,479.5 210.5,479.5C 209.791,478.596 208.791,478.263 207.5,478.5C 207.5,477.5 207.5,476.5 207.5,475.5C 206.5,475.5 205.5,475.5 204.5,475.5C 204.334,468.492 204.5,461.492 205,454.5C 209.499,450.921 214.665,449.588 220.5,450.5C 218.865,441.485 222.532,438.319 231.5,441C 232.314,447.753 232.814,454.586 233,461.5C 235.304,459.22 236.804,456.554 237.5,453.5C 239.433,453.271 241.1,452.438 242.5,451C 249.285,449.485 255.452,450.652 261,454.5C 262.341,461.146 262.841,467.813 262.5,474.5C 262.411,477.661 260.745,479.327 257.5,479.5 Z M 216.5,462.5 C 218.929,463.265 220.262,464.931 220.5,467.5C 219.167,467.5 217.833,467.5 216.5,467.5C 216.5,465.833 216.5,464.167 216.5,462.5 Z"/></g>
<g><path style="opacity:0.391" fill="#666666" d="M 310.5,479.5 C 306.167,479.5 301.833,479.5 297.5,479.5C 296.034,478.653 295.2,477.32 295,475.5C 294.79,477.058 294.29,478.391 293.5,479.5C 289.167,479.5 284.833,479.5 280.5,479.5C 279.604,478.494 278.938,478.494 278.5,479.5C 274.833,479.5 271.167,479.5 267.5,479.5C 267.5,466.5 267.5,453.5 267.5,440.5C 270.85,440.335 274.183,440.502 277.5,441C 278.451,444.057 278.784,447.223 278.5,450.5C 282.605,450.234 286.605,450.734 290.5,452C 291.542,453.918 292.708,455.751 294,457.5C 295.046,456.228 295.546,454.728 295.5,453C 293.476,442.467 297.809,438.467 308.5,441C 310.167,442.823 311.167,444.99 311.5,447.5C 311.72,458.154 311.386,468.821 310.5,479.5 Z"/></g>
<g><path style="opacity:0.407" fill="#666666" d="M 340.5,479.5 C 336.833,479.5 333.167,479.5 329.5,479.5C 329.333,466.829 329.5,454.162 330,441.5C 331.738,440.873 333.571,440.54 335.5,440.5C 337.641,440.613 339.475,441.28 341,442.5C 341.827,455.007 341.66,467.34 340.5,479.5 Z"/></g>
<g><path style="opacity:0.418" fill="#666666" d="M 96.5,479.5 C 89.1667,479.5 81.8333,479.5 74.5,479.5C 72.4238,478.573 71.2572,476.907 71,474.5C 69.6439,475.38 68.1439,475.714 66.5,475.5C 66.5,476.5 66.5,477.5 66.5,478.5C 65.209,478.263 64.209,478.596 63.5,479.5C 58.8333,479.5 54.1667,479.5 49.5,479.5C 48.1225,478.766 46.6225,478.099 45,477.5C 43.7728,473.409 44.6061,469.909 47.5,467C 42.6038,460.242 43.9371,454.909 51.5,451C 57.2037,450.313 62.8704,450.479 68.5,451.5C 69.9411,455.521 69.2744,459.188 66.5,462.5C 68.7674,465.965 71.434,466.299 74.5,463.5C 72.0816,462.271 71.0816,460.271 71.5,457.5C 70.9838,454.185 72.3171,452.018 75.5,451C 80.8333,450.333 86.1667,450.333 91.5,451C 92.8333,452 94.1667,453 95.5,454C 96.4832,462.415 96.8166,470.915 96.5,479.5 Z"/></g>
<g><path style="opacity:0.457" fill="#676767" d="M 169.5,479.5 C 162.167,479.5 154.833,479.5 147.5,479.5C 145.407,478.942 143.907,477.609 143,475.5C 142.79,477.058 142.29,478.391 141.5,479.5C 137.167,479.5 132.833,479.5 128.5,479.5C 127.833,456.833 127.167,456.833 126.5,479.5C 122.833,479.5 119.167,479.5 115.5,479.5C 114.833,479.5 114.167,479.5 113.5,479.5C 109.5,479.5 105.5,479.5 101.5,479.5C 101.334,470.161 101.5,460.827 102,451.5C 107.755,450.844 113.588,450.51 119.5,450.5C 125.937,450.373 132.27,450.873 138.5,452C 139.042,454.255 140.209,456.088 142,457.5C 142.186,459.9 142.686,462.234 143.5,464.5C 144.5,464.167 145.167,463.5 145.5,462.5C 143.9,458.412 144.234,454.578 146.5,451C 152.917,450.13 159.251,450.464 165.5,452C 166.289,454.365 167.456,456.532 169,458.5C 169.5,465.492 169.666,472.492 169.5,479.5 Z"/></g>
<g><path style="opacity:0.431" fill="#676767" d="M 201.5,479.5 C 197.167,479.5 192.833,479.5 188.5,479.5C 187.528,476.902 186.528,476.902 185.5,479.5C 181.833,479.5 178.167,479.5 174.5,479.5C 174.334,470.161 174.5,460.827 175,451.5C 181.752,450.355 188.586,450.189 195.5,451C 196.624,451.249 197.624,451.749 198.5,452.5C 202.605,461.087 203.605,470.087 201.5,479.5 Z"/></g>
<g><path style="opacity:0.44" fill="#666666" d="M 357.5,479.5 C 353.833,479.5 350.167,479.5 346.5,479.5C 345.193,469.846 345.193,460.179 346.5,450.5C 352.878,450.295 359.211,450.628 365.5,451.5C 365.82,454.898 365.487,458.232 364.5,461.5C 362.253,462.374 359.92,462.708 357.5,462.5C 357.5,468.167 357.5,473.833 357.5,479.5 Z"/></g>
<g><path style="opacity:0.294" fill="#686868" d="M 324.5,479.5 C 321.167,479.5 317.833,479.5 314.5,479.5C 313.517,475.702 313.183,471.702 313.5,467.5C 317.884,467.174 322.217,467.508 326.5,468.5C 328.342,472.856 327.676,476.523 324.5,479.5 Z"/></g>
<g><path style="opacity:0.052" fill="#cecece" d="M 49.5,479.5 C 54.1667,479.5 58.8333,479.5 63.5,479.5C 63.3893,480.117 63.056,480.617 62.5,481C 58.5,481.667 54.5,481.667 50.5,481C 49.944,480.617 49.6107,480.117 49.5,479.5 Z"/></g>
<g><path style="opacity:0.059" fill="#cdcdcd" d="M 241.5,479.5 C 246.833,479.5 252.167,479.5 257.5,479.5C 255.193,481.047 252.527,481.713 249.5,481.5C 246.473,481.713 243.807,481.047 241.5,479.5 Z"/></g>
<g><path style="opacity:0.035" fill="#cdcdcd" d="M 314.5,479.5 C 317.833,479.5 321.167,479.5 324.5,479.5C 323.508,481.026 322.008,481.693 320,481.5C 317.779,481.607 315.946,480.94 314.5,479.5 Z"/></g>
<g><path style="opacity:0.009" fill="#dcdcdc" d="M 74.5,479.5 C 81.8333,479.5 89.1667,479.5 96.5,479.5C 96.3893,480.117 96.056,480.617 95.5,481C 92.5,481.167 89.5,481.333 86.5,481.5C 82.2032,481.722 78.2032,481.055 74.5,479.5 Z"/></g>
<g><path style="opacity:0.009" fill="#dbdbdb" d="M 101.5,479.5 C 105.5,479.5 109.5,479.5 113.5,479.5C 111.71,480.997 109.544,481.664 107,481.5C 105.5,481.333 104,481.167 102.5,481C 101.944,480.617 101.611,480.117 101.5,479.5 Z"/></g>
<g><path style="opacity:0.008" fill="#dddddd" d="M 115.5,479.5 C 119.167,479.5 122.833,479.5 126.5,479.5C 126.389,480.117 126.056,480.617 125.5,481C 123.833,481.167 122.167,481.333 120.5,481.5C 118.36,481.444 116.694,480.777 115.5,479.5 Z"/></g>
<g><path style="opacity:0.008" fill="#dcdcdc" d="M 128.5,479.5 C 132.833,479.5 137.167,479.5 141.5,479.5C 139.538,481.017 137.205,481.684 134.5,481.5C 132.833,481.333 131.167,481.167 129.5,481C 128.944,480.617 128.611,480.117 128.5,479.5 Z"/></g>
<g><path style="opacity:0.009" fill="#dcdcdc" d="M 147.5,479.5 C 154.833,479.5 162.167,479.5 169.5,479.5C 169.082,480.222 168.416,480.722 167.5,481C 161.167,481.667 154.833,481.667 148.5,481C 147.944,480.617 147.611,480.117 147.5,479.5 Z"/></g>
<g><path style="opacity:0.009" fill="#dcdcdc" d="M 174.5,479.5 C 178.167,479.5 181.833,479.5 185.5,479.5C 185.389,480.117 185.056,480.617 184.5,481C 181.5,481.667 178.5,481.667 175.5,481C 174.944,480.617 174.611,480.117 174.5,479.5 Z"/></g>
<g><path style="opacity:0.008" fill="#dcdcdc" d="M 188.5,479.5 C 192.833,479.5 197.167,479.5 201.5,479.5C 199.538,481.017 197.205,481.684 194.5,481.5C 192.833,481.333 191.167,481.167 189.5,481C 188.944,480.617 188.611,480.117 188.5,479.5 Z"/></g>
<g><path style="opacity:0.008" fill="#dcdcdc" d="M 210.5,479.5 C 217.833,479.5 225.167,479.5 232.5,479.5C 232.389,480.117 232.056,480.617 231.5,481C 224.833,481.667 218.167,481.667 211.5,481C 210.944,480.617 210.611,480.117 210.5,479.5 Z"/></g>
<g><path style="opacity:0.009" fill="#dddddd" d="M 267.5,479.5 C 271.167,479.5 274.833,479.5 278.5,479.5C 278.389,480.117 278.056,480.617 277.5,481C 275.833,481.167 274.167,481.333 272.5,481.5C 270.36,481.444 268.694,480.777 267.5,479.5 Z"/></g>
<g><path style="opacity:0.008" fill="#dcdcdc" d="M 280.5,479.5 C 284.833,479.5 289.167,479.5 293.5,479.5C 291.538,481.017 289.205,481.684 286.5,481.5C 284.833,481.333 283.167,481.167 281.5,481C 280.944,480.617 280.611,480.117 280.5,479.5 Z"/></g>
<g><path style="opacity:0.008" fill="#dcdcdc" d="M 297.5,479.5 C 301.833,479.5 306.167,479.5 310.5,479.5C 308.538,481.017 306.205,481.684 303.5,481.5C 301.833,481.333 300.167,481.167 298.5,481C 297.944,480.617 297.611,480.117 297.5,479.5 Z"/></g>
<g><path style="opacity:0.008" fill="#dddddd" d="M 329.5,479.5 C 333.167,479.5 336.833,479.5 340.5,479.5C 339.306,480.777 337.64,481.444 335.5,481.5C 333.833,481.333 332.167,481.167 330.5,481C 329.944,480.617 329.611,480.117 329.5,479.5 Z"/></g>
<g><path style="opacity:0.009" fill="#dddddd" d="M 346.5,479.5 C 350.167,479.5 353.833,479.5 357.5,479.5C 357.389,480.117 357.056,480.617 356.5,481C 354.833,481.167 353.167,481.333 351.5,481.5C 349.36,481.444 347.694,480.777 346.5,479.5 Z"/></g>
</svg>
