<svg xmlns="http://www.w3.org/2000/svg" width="11.409" height="11.185" viewBox="0 0 11.409 11.185">
  <g id="Buy" transform="translate(-2.114 -2.615)">
    <path id="Path_178" data-name="Path 178" d="M7.085,19.82a.427.427,0,1,1-.426.427A.427.427,0,0,1,7.085,19.82Z" transform="translate(-1.751 -7.424)" fill="none" stroke="#fff" stroke-linecap="round" stroke-linejoin="round" stroke-width="1.1" fill-rule="evenodd"/>
    <path id="Path_179" data-name="Path 179" d="M18.337,19.82a.427.427,0,1,1-.427.427A.427.427,0,0,1,18.337,19.82Z" transform="translate(-6.803 -7.424)" fill="none" stroke="#fff" stroke-linecap="round" stroke-linejoin="round" stroke-width="1.1" fill-rule="evenodd"/>
    <path id="Path_180" data-name="Path 180" d="M2.75,3.25l1.149.2.532,6.317a1,1,0,0,0,.993.91h6.029a1,1,0,0,0,.986-.851l.524-3.611a.739.739,0,0,0-.733-.844H4.084" transform="translate(0 0)" fill="none" stroke="#fff" stroke-linecap="round" stroke-linejoin="round" stroke-width="1.1"/>
    <path id="Path_181" data-name="Path 181" d="M14.125,10.8h1.548" transform="translate(-5.102 -3.376)" fill="none" stroke="#fff" stroke-linecap="round" stroke-linejoin="round" stroke-width="1.1"/>
  </g>
</svg>
