<svg xmlns="http://www.w3.org/2000/svg" width="19" height="17.459" viewBox="0 0 19 17.459"><circle cx="0.937" cy="0.937" r="0.937" transform="translate(4.014 12.776)" fill="#bfbfbf"/><path d="M1.63,12.966A39.907,39.907,0,0,1,1.462,8.73,39.907,39.907,0,0,1,1.63,4.494,6.657,6.657,0,0,1,2.146,2.32a1.211,1.211,0,0,1,.624-.637,4.118,4.118,0,0,1,1.615-.228A4.118,4.118,0,0,1,6,1.683a1.211,1.211,0,0,1,.624.637,6.657,6.657,0,0,1,.516,2.174A39.907,39.907,0,0,1,7.308,8.73a39.907,39.907,0,0,1-.168,4.236,6.657,6.657,0,0,1-.516,2.174A1.211,1.211,0,0,1,6,15.777,4.119,4.119,0,0,1,4.385,16a4.119,4.119,0,0,1-1.615-.228,1.211,1.211,0,0,1-.624-.637A6.657,6.657,0,0,1,1.63,12.966Zm2.755,4.494C.774,17.459,0,15.919,0,8.73S.774,0,4.385,0C6.8,0,7.95.692,8.443,3.312,11.867.266,13.365.232,15.5,2.359c2.041,2.032,2.1,3.484-.566,6.582C18.178,9.355,19,10.475,19,13.095c0,3.594-1.548,4.365-8.769,4.365-1.709,0-3.1-.043-4.229-.157A6.987,6.987,0,0,1,4.385,17.459Zm3.452-1.494c.705.027,1.5.039,2.394.039a40.454,40.454,0,0,0,4.255-.168,6.736,6.736,0,0,0,2.184-.513,1.211,1.211,0,0,0,.64-.621,4.067,4.067,0,0,0,.229-1.608,4.067,4.067,0,0,0-.229-1.607,1.211,1.211,0,0,0-.64-.622,6.736,6.736,0,0,0-2.184-.513q-.363-.04-.774-.07-.6.626-1.311,1.336a29.429,29.429,0,0,1-4.28,3.735A4.146,4.146,0,0,1,7.837,15.965ZM8.769,8.73c0-1.425-.03-2.628-.107-3.641.637-.6,1.2-1.091,1.7-1.491A6.718,6.718,0,0,1,12.27,2.423a1.218,1.218,0,0,1,.894-.011,4.1,4.1,0,0,1,1.3.976,4.083,4.083,0,0,1,.98,1.3,1.2,1.2,0,0,1-.011.89,6.674,6.674,0,0,1-1.18,1.9,40.14,40.14,0,0,1-2.89,3.114c-1.1,1.093-2.007,1.946-2.782,2.594A40.672,40.672,0,0,0,8.769,8.73Z" fill="#bfbfbf" fill-rule="evenodd"/></svg>