<svg xmlns="http://www.w3.org/2000/svg" width="23.5" height="25.454" viewBox="0 0 23.5 25.454"><g transform="translate(1 1)"><path d="M23.126,9.468s-.688,8.539-1.088,12.136a2.837,2.837,0,0,1-2.99,2.756c-3.308.06-6.619.063-9.926-.006a2.807,2.807,0,0,1-2.9-2.741c-.4-3.629-1.087-12.145-1.087-12.145" transform="translate(-3.379 -0.952)" fill="none" stroke="#9f9f9f" stroke-linecap="round" stroke-linejoin="round" stroke-width="2"/><path d="M25.25,6.24H3.75" transform="translate(-3.75 -1.816)" fill="none" stroke="#9f9f9f" stroke-linecap="round" stroke-linejoin="round" stroke-width="2"/><path d="M20.232,7.174A2.089,2.089,0,0,1,18.185,5.5l-.308-1.542a1.622,1.622,0,0,0-1.568-1.2H10.942a1.622,1.622,0,0,0-1.568,1.2L9.065,5.5A2.089,2.089,0,0,1,7.018,7.174" transform="translate(-2.875 -2.751)" fill="none" stroke="#9f9f9f" stroke-linecap="round" stroke-linejoin="round" stroke-width="2"/></g></svg>