<svg xmlns="http://www.w3.org/2000/svg" width="20.272" height="19.5" viewBox="0 0 20.272 19.5"><g transform="translate(-1180.25 0.75)"><path d="M22.207,17v8.6H5V17" transform="translate(1176.782 -7.614)" fill="none" stroke="#bfbfbf" stroke-linecap="round" stroke-linejoin="round" stroke-miterlimit="10" stroke-width="1.5"/><line y2="9" transform="translate(1188.072 9)" fill="none" stroke="#bfbfbf" stroke-linecap="round" stroke-linejoin="round" stroke-miterlimit="10" stroke-width="1.5"/><path d="M22.772,10.475H4L6.346,5H20.425Z" transform="translate(1177 -5)" fill="none" stroke="#bfbfbf" stroke-linecap="round" stroke-linejoin="round" stroke-miterlimit="10" stroke-width="1.5"/><path d="M15.129,16.693h0A3.138,3.138,0,0,1,12,13.564V12h6.257v1.564A3.138,3.138,0,0,1,15.129,16.693Z" transform="translate(1175.257 -6.525)" fill="none" stroke="#bfbfbf" stroke-linecap="round" stroke-linejoin="round" stroke-miterlimit="10" stroke-width="1.5"/><path d="M7.129,16.693h0A3.138,3.138,0,0,1,4,13.564V12h6.257v1.564A3.138,3.138,0,0,1,7.129,16.693Z" transform="translate(1177 -6.525)" fill="none" stroke="#bfbfbf" stroke-linecap="round" stroke-linejoin="round" stroke-miterlimit="10" stroke-width="1.5"/><path d="M23.129,16.693h0A3.138,3.138,0,0,1,20,13.564V12h6.257v1.564A3.138,3.138,0,0,1,23.129,16.693Z" transform="translate(1173.514 -6.525)" fill="none" stroke="#bfbfbf" stroke-linecap="round" stroke-linejoin="round" stroke-miterlimit="10" stroke-width="1.5"/><line transform="translate(1185.372 14.4)" fill="none" stroke="#bfbfbf" stroke-linecap="round" stroke-linejoin="round" stroke-miterlimit="10" stroke-width="1.5"/></g></svg>