<svg xmlns="http://www.w3.org/2000/svg" width="17.46" height="17.459" viewBox="0 0 17.46 17.459"><g transform="translate(-9.99)"><g transform="translate(9.99)"><path d="M11.2-496.77a1.374,1.374,0,0,0-.823.788l-.1.232-.01,2.691c-.007,1.882,0,2.731.027,2.827a.854.854,0,0,0,.352.442,1.556,1.556,0,0,0,.9-.025.706.706,0,0,0,.339-.421c.02-.082.034-.752.034-1.772v-1.64l2.16,2.271c2.15,2.264,2.157,2.271,2.356,2.328a.779.779,0,0,0,.674-.078.879.879,0,0,0,.4-.524,1.231,1.231,0,0,0-.054-.667c-.031-.068-1.05-1.169-2.262-2.449l-2.207-2.324h1.666c1.111,0,1.727-.014,1.845-.039a.548.548,0,0,0,.318-.189.866.866,0,0,0,.21-.734.756.756,0,0,0-.295-.659l-.146-.107-2.594-.007A14.568,14.568,0,0,0,11.2-496.77Z" transform="translate(-10.251 496.83)" fill="#bfbfbf"/><path d="M564.6-496.783a.814.814,0,0,0-.342.36,1.534,1.534,0,0,0-.047.467c0,.324.007.36.1.517a.754.754,0,0,0,.247.246l.146.082,1.774.011,1.778.011-2.238,2.36c-2.17,2.285-2.241,2.367-2.292,2.552a.747.747,0,0,0,0,.542.853.853,0,0,0,1.215.528c.091-.046.833-.809,2.235-2.3,1.155-1.226,2.113-2.228,2.126-2.228s.024.766.024,1.7v1.7l.1.164c.142.235.308.31.714.317.427.011.609-.082.748-.367a13.334,13.334,0,0,0,.058-2.905l-.01-2.773-.1-.232a1.417,1.417,0,0,0-.65-.684l-.227-.118-2.624-.007A16.033,16.033,0,0,0,564.6-496.783Z" transform="translate(-553.489 496.833)" fill="#bfbfbf"/><path d="M16.051,38.462a28.8,28.8,0,0,0-2.275,2.306L11.653,43l-.01-1.69c-.01-1.636-.013-1.7-.081-1.836a.854.854,0,0,0-.213-.25c-.125-.093-.173-.107-.464-.118a1.108,1.108,0,0,0-.471.043.693.693,0,0,0-.386.438c-.024.089-.037,1.037-.037,2.759a14.6,14.6,0,0,0,.068,2.855,1.358,1.358,0,0,0,1.083.987c.315.054,4.845.054,5.086,0A.547.547,0,0,0,16.545,46a.866.866,0,0,0,.21-.734.756.756,0,0,0-.295-.659l-.146-.107-1.808-.018L12.7,44.465l2.2-2.317c2.4-2.516,2.367-2.48,2.367-2.869a.936.936,0,0,0-.532-.838A.975.975,0,0,0,16.051,38.462Z" transform="translate(-9.99 -28.771)" fill="#bfbfbf"/><path d="M565.191,38.449a.869.869,0,0,0-.521.834.8.8,0,0,0,.078.392c.054.114.738.856,2.282,2.485l2.207,2.328h-1.771c-1.676,0-1.778,0-1.9.068a.767.767,0,0,0-.342.371,1.986,1.986,0,0,0-.037.438c0,.449.078.62.355.777.135.075.142.075,2.726.075h2.59l.2-.082a1.523,1.523,0,0,0,.823-.916,25.568,25.568,0,0,0,.047-2.877c0-2.966.01-2.83-.206-3.048-.159-.157-.261-.189-.6-.189a.745.745,0,0,0-.694.3l-.1.139-.01,1.725c0,.948-.02,1.725-.034,1.725s-.968-.995-2.123-2.214a25.812,25.812,0,0,0-2.268-2.3A.907.907,0,0,0,565.191,38.449Z" transform="translate(-554.469 -28.775)" fill="#bfbfbf"/></g></g></svg>