<svg xmlns="http://www.w3.org/2000/svg" width="11.8" height="13" viewBox="0 0 11.8 13"><g transform="translate(-2.5 -1.5)"><path d="M3.093,9.4H13.717" transform="translate(0 -2.962)" fill="none" stroke="#9f9f9f" stroke-linecap="round" stroke-linejoin="round" stroke-width="1"/><path d="M16.442,13.31h.009" transform="translate(-5.38 -4.524)" fill="none" stroke="#9f9f9f" stroke-linecap="round" stroke-linejoin="round" stroke-width="1"/><path d="M12,13.31h.009" transform="translate(-3.604 -4.524)" fill="none" stroke="#9f9f9f" stroke-linecap="round" stroke-linejoin="round" stroke-width="1"/><path d="M7.558,13.31h.009" transform="translate(-1.824 -4.524)" fill="none" stroke="#9f9f9f" stroke-linecap="round" stroke-linejoin="round" stroke-width="1"/><path d="M16.442,17.2h.009" transform="translate(-5.38 -6.078)" fill="none" stroke="#9f9f9f" stroke-linecap="round" stroke-linejoin="round" stroke-width="1"/><path d="M12,17.2h.009" transform="translate(-3.604 -6.078)" fill="none" stroke="#9f9f9f" stroke-linecap="round" stroke-linejoin="round" stroke-width="1"/><path d="M7.558,17.2h.009" transform="translate(-1.824 -6.078)" fill="none" stroke="#9f9f9f" stroke-linecap="round" stroke-linejoin="round" stroke-width="1"/><path d="M16.044,2V5.291" transform="translate(-5.217)" fill="none" stroke="#9f9f9f" stroke-linecap="round" stroke-linejoin="round" stroke-width="1"/><path d="M7.965,2V5.291" transform="translate(-1.986)" fill="none" stroke="#9f9f9f" stroke-linecap="round" stroke-linejoin="round" stroke-width="1"/><path d="M10.943,3.579H5.863C4.1,3.579,3,4.5,3,6.206v5.119A2.537,2.537,0,0,0,5.863,14h5.075c1.768,0,2.863-.931,2.863-2.632V6.206C13.806,4.5,12.711,3.579,10.943,3.579Z" transform="translate(0 0)" fill="none" stroke="#9f9f9f" stroke-linecap="round" stroke-linejoin="round" stroke-width="1" fill-rule="evenodd"/></g></svg>