<svg xmlns="http://www.w3.org/2000/svg" xmlns:xlink="http://www.w3.org/1999/xlink" width="50" height="50" viewBox="0 0 50 50"><defs><filter id="a" x="0" y="0" width="50" height="50" filterUnits="userSpaceOnUse"><feOffset dy="3" input="SourceAlpha"/><feGaussianBlur stdDeviation="3" result="b"/><feFlood flood-opacity="0.161"/><feComposite operator="in" in2="b"/><feComposite in="SourceGraphic"/></filter></defs><g transform="translate(9 6.114)"><g transform="matrix(1, 0, 0, 1, -9, -6.11)" filter="url(#a)"><circle cx="16" cy="16" r="16" transform="translate(9 6)" fill="#fff"/></g><g transform="translate(7 8.523)"><path d="M15.161,12.053A3.162,3.162,0,1,1,12,8.891,3.162,3.162,0,0,1,15.161,12.053Z" transform="translate(-2.75 -4.751)" fill="none" stroke="#4f48ed" stroke-linecap="round" stroke-linejoin="round" stroke-width="1.5" fill-rule="evenodd"/><path d="M12,19.355c3.808,0,7.291-2.738,9.252-7.3-1.961-4.564-5.444-7.3-9.252-7.3h0c-3.808,0-7.291,2.738-9.252,7.3,1.961,4.564,5.444,7.3,9.252,7.3Z" transform="translate(-2.75 -4.751)" fill="none" stroke="#4f48ed" stroke-linecap="round" stroke-linejoin="round" stroke-width="1.5" fill-rule="evenodd"/></g></g></svg>