<svg xmlns="http://www.w3.org/2000/svg" width="512" height="512" viewBox="0 0 512 512">
  <path id="Subtraction_2" data-name="Subtraction 2" d="M256,512a257.921,257.921,0,0,1-51.595-5.2,254.594,254.594,0,0,1-91.54-38.518A256.73,256.73,0,0,1,20.117,355.65,254.725,254.725,0,0,1,5.2,307.595a258.51,258.51,0,0,1,0-103.185,254.6,254.6,0,0,1,38.518-91.538A256.747,256.747,0,0,1,156.35,20.119,254.7,254.7,0,0,1,204.4,5.2a258.5,258.5,0,0,1,103.19,0,254.594,254.594,0,0,1,91.54,38.522,256.751,256.751,0,0,1,92.748,112.634A254.713,254.713,0,0,1,506.8,204.409a258.51,258.51,0,0,1,0,103.185,254.6,254.6,0,0,1-38.518,91.54A256.729,256.729,0,0,1,355.65,491.883,254.724,254.724,0,0,1,307.595,506.8,257.924,257.924,0,0,1,256,512ZM297.344,95.936,133.984,256l163.36,160.064,48.8-49.964L233.792,256,346.144,145.9l-48.8-49.968Z" fill="#b69561"/>
</svg>
