<svg xmlns="http://www.w3.org/2000/svg" width="512.002" height="512.001" viewBox="0 0 512.002 512.001">
  <path id="Subtraction_1" data-name="Subtraction 1" d="M256,512a257.888,257.888,0,0,1-51.595-5.2A255.922,255.922,0,0,1,5.2,307.59a258.51,258.51,0,0,1,0-103.19A255.916,255.916,0,0,1,204.4,5.2a258.532,258.532,0,0,1,103.19,0A255.912,255.912,0,0,1,506.8,204.4a258.509,258.509,0,0,1,0,103.185A255.918,255.918,0,0,1,307.6,506.8,257.894,257.894,0,0,1,256,512ZM214.656,95.936l-48.8,49.968L278.208,256,165.856,366.1l48.8,49.968L378.016,256Z" transform="translate(0.001 0.001)" fill="#bab7b7"/>
</svg>
