<svg xmlns="http://www.w3.org/2000/svg" width="512.001" height="512.001" viewBox="0 0 512.001 512.001">
  <path id="Subtraction_2" data-name="Subtraction 2" d="M256,512a257.919,257.919,0,0,1-51.595-5.2A255.906,255.906,0,0,1,5.2,307.595a258.509,258.509,0,0,1,0-103.185A255.928,255.928,0,0,1,204.4,5.2a258.5,258.5,0,0,1,103.19,0A255.96,255.96,0,0,1,506.8,204.409a258.509,258.509,0,0,1,0,103.185A255.9,255.9,0,0,1,307.6,506.8,257.924,257.924,0,0,1,256,512ZM297.344,95.936,133.984,256l163.36,160.064,48.8-49.964L233.792,256,346.144,145.9l-48.8-49.968Z" transform="translate(0.001 0.001)" fill="#bab7b7"/>
</svg>
