<svg xmlns="http://www.w3.org/2000/svg" width="512" height="512" viewBox="0 0 512 512">
  <path id="Subtraction_1" data-name="Subtraction 1" d="M256,512a257.891,257.891,0,0,1-51.595-5.2,254.59,254.59,0,0,1-91.54-38.522A256.753,256.753,0,0,1,20.117,355.643,254.714,254.714,0,0,1,5.2,307.59,258.509,258.509,0,0,1,5.2,204.4a254.593,254.593,0,0,1,38.518-91.54A256.73,256.73,0,0,1,156.35,20.117,254.723,254.723,0,0,1,204.4,5.2a258.533,258.533,0,0,1,103.19,0,254.595,254.595,0,0,1,91.54,38.518A256.729,256.729,0,0,1,491.883,156.35,254.722,254.722,0,0,1,506.8,204.4a258.509,258.509,0,0,1,0,103.185,254.6,254.6,0,0,1-38.518,91.538A256.747,256.747,0,0,1,355.65,491.881,254.713,254.713,0,0,1,307.595,506.8,257.894,257.894,0,0,1,256,512ZM214.656,95.936l-48.8,49.968L278.208,256,165.856,366.1l48.8,49.968L378.016,256,214.656,95.936Z" fill="#b69561"/>
</svg>
