<svg xmlns="http://www.w3.org/2000/svg" width="15.897" height="15.123" viewBox="0 0 15.897 15.123"><defs><style>.a,.b{fill:none;stroke:#9f9f9f;stroke-linecap:round;stroke-linejoin:round;stroke-width:1.2px;}.a{fill-rule:evenodd;}</style></defs><g transform="translate(-97.385 0.628)"><path class="a" d="M9.649,16.782A26.9,26.9,0,0,1,5,13.163,9.256,9.256,0,0,1,2.788,9.635c-.831-2.582.14-5.538,2.855-6.413a4.615,4.615,0,0,1,4.188.706,4.622,4.622,0,0,1,4.188-.706c2.715.875,3.692,3.831,2.862,6.413a9.256,9.256,0,0,1-2.213,3.528,26.9,26.9,0,0,1-4.648,3.619l-.181.113Z" transform="translate(95.5 -3)"/><path class="b" d="M15.739,7.053a2.147,2.147,0,0,1,1.48,1.87" transform="translate(92.48 -3.924)"/></g></svg>