<svg xmlns="http://www.w3.org/2000/svg" width="14.493" height="17.801" viewBox="0 0 14.493 17.801">
  <path id="Apple_logo_black_1_" data-name="Apple_logo_black (1)" d="M14.03,6.069A4.032,4.032,0,0,0,12.1,9.46a3.925,3.925,0,0,0,2.389,3.6,9.336,9.336,0,0,1-1.223,2.526c-.762,1.1-1.558,2.191-2.768,2.191s-1.522-.7-2.92-.7c-1.362,0-1.846.726-2.953.726S2.749,16.786,1.86,15.54A10.9,10.9,0,0,1,0,9.645c0-3.461,2.25-5.3,4.465-5.3,1.177,0,2.158.773,2.9.773.7,0,1.8-.819,3.139-.819A4.2,4.2,0,0,1,14.03,6.069ZM9.864,2.838A3.975,3.975,0,0,0,10.81.358,1.709,1.709,0,0,0,10.776,0,3.982,3.982,0,0,0,8.157,1.349a3.87,3.87,0,0,0-.981,2.412,1.635,1.635,0,0,0,.034.322,1.393,1.393,0,0,0,.242.023A3.45,3.45,0,0,0,9.864,2.838Z" transform="translate(0 0)" fill="#bfbfbf"/>
</svg>
