<svg id="balance-svgrepo-com" xmlns="http://www.w3.org/2000/svg" width="21.592" height="19.8" viewBox="0 0 21.592 19.8">
  <g id="Group_29" data-name="Group 29">
    <path id="Path_45" data-name="Path 45" d="M21.563,26.393l-3.2-9.848h.8a.6.6,0,0,0,0-1.2H11.394V14.086a.6.6,0,1,0-1.2,0v1.262H2.423a.6.6,0,1,0,0,1.2h.8l-3.2,9.848a.6.6,0,0,0,.13.591l1.067,1.15a3.852,3.852,0,0,0,5.647,0l1.067-1.15a.6.6,0,0,0,.13-.591l-3.2-9.848H10.2v13.82H7.773A2.328,2.328,0,0,0,5.447,32.69a.6.6,0,0,0,.6.6h9.5a.6.6,0,0,0,.6-.6,2.328,2.328,0,0,0-2.325-2.326H11.394V16.544h5.325l-3.2,9.848a.6.6,0,0,0,.13.591l1.067,1.15a3.852,3.852,0,0,0,5.647,0l1.067-1.15A.6.6,0,0,0,21.563,26.393ZM6,27.321a2.656,2.656,0,0,1-3.894,0l-.166-.179H6.163Zm.672-1.375H1.431L4.05,17.882Zm7.15,5.614a1.13,1.13,0,0,1,.958.532H6.815a1.13,1.13,0,0,1,.958-.532Zm5.669-4.24a2.656,2.656,0,0,1-3.894,0l-.166-.179h4.226Zm-4.566-1.375,2.619-8.064,2.619,8.064Z" transform="translate(0 -13.488)" fill="#7f7f7f"/>
  </g>
</svg>
