<svg xmlns="http://www.w3.org/2000/svg" width="20.016" height="19.599" viewBox="0 0 20.016 19.599">
  <g id="Group_75" data-name="Group 75" transform="translate(-127.984 -10)">
    <g id="Buy" transform="translate(127.984 10)">
      <path id="Path_103" data-name="Path 103" d="M5.911,20.588a1.515,1.515,0,1,1,1.52,1.51A1.519,1.519,0,0,1,5.911,20.588Zm11.25,0a1.515,1.515,0,1,1,1.52,1.51A1.519,1.519,0,0,1,17.161,20.588Z" transform="translate(-2 -2.5)" fill="#fff" fill-rule="evenodd" opacity="0.4"/>
      <path id="Path_104" data-name="Path 104" d="M20.191,6.349a1.7,1.7,0,0,1,1.41.67,2.127,2.127,0,0,1,.38,1.719l-.95,6.56a2.552,2.552,0,0,1-2.53,2.19H7.591a2.549,2.549,0,0,1-2.54-2.339l-.92-10.9-1.51-.26a.753.753,0,0,1-.61-.86.765.765,0,0,1,.87-.62l2.385.36a.755.755,0,0,1,.62.68l.19,2.24a.61.61,0,0,0,.61.561Zm-6.06,5.2H16.9a.75.75,0,0,0,0-1.5h-2.77a.75.75,0,0,0,0,1.5Z" transform="translate(-2 -2.5)" fill="#fff" fill-rule="evenodd"/>
    </g>
  </g>
</svg>
