<svg xmlns="http://www.w3.org/2000/svg" width="20.12" height="19.716" viewBox="0 0 20.12 19.716">
  <g id="Buy" transform="translate(0.867 0.867)">
    <path id="Path_28" data-name="Path 28" d="M7.422,19.82a.765.765,0,1,1-.764.765A.766.766,0,0,1,7.422,19.82Z" transform="translate(-2.75 -3.25)" fill="none" stroke="#7f7f7f" stroke-linecap="round" stroke-linejoin="round" stroke-width="1.5" fill-rule="evenodd"/>
    <path id="Path_29" data-name="Path 29" d="M18.675,19.82a.765.765,0,1,1-.765.765A.766.766,0,0,1,18.675,19.82Z" transform="translate(-2.75 -3.25)" fill="none" stroke="#7f7f7f" stroke-linecap="round" stroke-linejoin="round" stroke-width="1.5" fill-rule="evenodd"/>
    <path id="Path_30" data-name="Path 30" d="M2.75,3.25l2.08.36.963,11.473a1.8,1.8,0,0,0,1.8,1.653H18.5a1.8,1.8,0,0,0,1.785-1.546l.949-6.558A1.341,1.341,0,0,0,19.909,7.1H5.164" transform="translate(-2.75 -3.25)" fill="none" stroke="#7f7f7f" stroke-linecap="round" stroke-linejoin="round" stroke-width="1.5"/>
    <path id="Path_31" data-name="Path 31" d="M14.125,10.8H16.9" transform="translate(-2.75 -3.25)" fill="none" stroke="#7f7f7f" stroke-linecap="round" stroke-linejoin="round" stroke-width="1.5"/>
  </g>
</svg>
