<svg xmlns="http://www.w3.org/2000/svg" width="14.4" height="16" viewBox="0 0 14.4 16">
  <path id="Calendar" d="M13.729,2.615v.6a3.755,3.755,0,0,1,3.662,3.977l.009,6.741a3.785,3.785,0,0,1-4.1,4.06L7.122,18a3.825,3.825,0,0,1-4.113-4.1L3,7.242A3.751,3.751,0,0,1,6.6,3.224v-.6a.608.608,0,1,1,1.216,0v.56l4.692-.006v-.56a.608.608,0,1,1,1.216,0ZM4.217,7.489l11.958-.016v-.28a2.478,2.478,0,0,0-2.445-2.755v.616a.608.608,0,1,1-1.216,0V4.408l-4.692.006v.647a.608.608,0,1,1-1.216,0V4.447a2.459,2.459,0,0,0-2.39,2.794Zm8.575,3.634v.009a.651.651,0,0,0,.672.639.66.66,0,1,0-.672-.648Zm.652,3.59a.678.678,0,0,1-.657-.679.666.666,0,0,1,.647-.681h.008a.68.68,0,0,1,0,1.36ZM9.538,11.136a.652.652,0,1,0,.647-.688A.683.683,0,0,0,9.538,11.136Zm.683,3.541a.658.658,0,0,1-.68-.639.684.684,0,0,1,.647-.688.664.664,0,0,1,.033,1.327ZM6.283,11.164a.652.652,0,1,0,.646-.688A.682.682,0,0,0,6.283,11.164Zm.683,3.517a.658.658,0,0,1-.68-.639.683.683,0,0,1,.647-.688.664.664,0,0,1,.033,1.327Z" transform="translate(-3 -2)" fill="#9f9f9f" fill-rule="evenodd"/>
</svg>
