<svg xmlns="http://www.w3.org/2000/svg" width="15.662" height="15.507" viewBox="0 0 15.662 15.507">
  <g id="Calling" transform="translate(0.829 0.751)">
    <path id="Path_219" data-name="Path 219" d="M16.139,4.249c-.233-.387-1.518-1.79-2.434-1.748a1.21,1.21,0,0,0-.713.381h0a12.441,12.441,0,0,0-1.818,2.461c-.179.861.848,1.358.534,2.225a7.274,7.274,0,0,1-4.14,4.138c-.867.315-1.364-.711-2.225-.533a12.425,12.425,0,0,0-2.461,1.818h0A1.207,1.207,0,0,0,2.5,13.7c-.034.965,1.457,2.267,1.747,2.433a2.55,2.55,0,0,0,2.671-.025c3.043-1.266,7.906-6.037,9.2-9.195A2.555,2.555,0,0,0,16.139,4.249Z" transform="translate(-2.422 -2.5)" fill="none" stroke="#4f48ed" stroke-linecap="round" stroke-linejoin="round" stroke-width="1.5" fill-rule="evenodd"/>
    <path id="Path_220" data-name="Path 220" d="M19.754,2.75a5.873,5.873,0,0,0-5.188,5.181" transform="translate(-14.565 -2.566)" fill="none" stroke="#4f48ed" stroke-linecap="round" stroke-linejoin="round" stroke-width="1.5" opacity="0.4"/>
    <path id="Path_221" data-name="Path 221" d="M17.143,6.293A3.261,3.261,0,0,0,14.565,8.87" transform="translate(-11.955 -3.498)" fill="none" stroke="#4f48ed" stroke-linecap="round" stroke-linejoin="round" stroke-width="1.5" opacity="0.4"/>
  </g>
</svg>
