<svg xmlns="http://www.w3.org/2000/svg" width="12" height="12" viewBox="0 0 12 12">
  <path id="Category" d="M5.608,2H3.785A1.791,1.791,0,0,0,2,3.8V5.636a1.792,1.792,0,0,0,1.785,1.8H5.608a1.792,1.792,0,0,0,1.785-1.8V3.8A1.791,1.791,0,0,0,5.608,2Zm-1.823.837H5.608a.954.954,0,0,1,.948.96V5.636a.955.955,0,0,1-.948.96H3.785a.955.955,0,0,1-.948-.96V3.8A.954.954,0,0,1,3.785,2.837ZM12.215,2H10.392A1.791,1.791,0,0,0,8.606,3.8V5.636a1.792,1.792,0,0,0,1.785,1.8h1.823A1.792,1.792,0,0,0,14,5.636V3.8A1.791,1.791,0,0,0,12.215,2Zm-1.823.837h1.823a.954.954,0,0,1,.948.96V5.636a.954.954,0,0,1-.948.96H10.392a.955.955,0,0,1-.948-.96V3.8A.954.954,0,0,1,10.392,2.837ZM3.785,8.567H5.608a1.791,1.791,0,0,1,1.785,1.8V12.2A1.791,1.791,0,0,1,5.608,14H3.785A1.791,1.791,0,0,1,2,12.2V10.365A1.791,1.791,0,0,1,3.785,8.567ZM5.608,9.4H3.785a.954.954,0,0,0-.948.961V12.2a.954.954,0,0,0,.948.96H5.608a.954.954,0,0,0,.948-.96V10.365A.954.954,0,0,0,5.608,9.4Zm6.607-.837H10.392a1.791,1.791,0,0,0-1.785,1.8V12.2A1.791,1.791,0,0,0,10.392,14h1.823A1.791,1.791,0,0,0,14,12.2V10.365A1.791,1.791,0,0,0,12.215,8.567ZM10.392,9.4h1.823a.954.954,0,0,1,.948.961V12.2a.954.954,0,0,1-.948.96H10.392a.954.954,0,0,1-.948-.96V10.365A.954.954,0,0,1,10.392,9.4Z" transform="translate(-2 -2)" fill="#fff" fill-rule="evenodd"/>
</svg>
