<svg xmlns="http://www.w3.org/2000/svg" width="21.624" height="21.624" viewBox="0 0 21.624 21.624">
  <g id="Chat" transform="translate(-1.25 -1.25)">
    <path id="Path_208" data-name="Path 208" d="M7.7,13.405A1.175,1.175,0,1,1,8.878,12.23,1.177,1.177,0,0,1,7.7,13.405Zm4.571,0a1.175,1.175,0,1,1,1.176-1.176A1.177,1.177,0,0,1,12.274,13.405Zm3.4-1.176a1.176,1.176,0,1,0,1.176-1.174A1.177,1.177,0,0,0,15.669,12.23Z" transform="translate(0.028 0.056)" fill="#7f7f7f" fill-rule="evenodd"/>
    <path id="Path_209" data-name="Path 209" d="M12.082,2A10.068,10.068,0,0,0,2,12.077,10.65,10.65,0,0,0,3.358,17.1a1.057,1.057,0,0,1,.07.908L2.755,20.27a.628.628,0,0,0,.825.785l2.033-.6a1.707,1.707,0,0,1,1.5.363A10.059,10.059,0,1,0,12.082,2Z" fill="rgba(0,0,0,0)" stroke="#7f7f7f" stroke-linecap="round" stroke-linejoin="round" stroke-width="1.5" fill-rule="evenodd"/>
  </g>
</svg>
