<svg xmlns="http://www.w3.org/2000/svg" width="55.793" height="55" viewBox="0 0 55.793 55">
  <g id="deliver1" transform="translate(-1.378 -1.635)">
    <g id="Delivery" transform="translate(1.378 1.635)">
      <path id="Path_19" data-name="Path 19" d="M56.245,4.371h-49L4.782,1.906a.926.926,0,1,0-1.31,1.309L22.705,22.447l-14.4,14.4L2.958,31.5a.926.926,0,1,0-1.309,1.309L5.337,36.5V51.577a.926.926,0,0,0,.926.926h16.39l3.326,3.326a2.716,2.716,0,0,0,1.916.807h.072a2.725,2.725,0,0,0,1.944-.808,2.756,2.756,0,0,0,.584-.86,2.795,2.795,0,0,0,3.927-1.307,2.7,2.7,0,0,0,1.365.358,2.869,2.869,0,0,0,1.977-.807,2.777,2.777,0,0,0,.546-.775,2.789,2.789,0,0,0,3.505.066h14.43a.926.926,0,0,0,.926-.926V5.3A.926.926,0,0,0,56.245,4.371ZM34.956,6.222v9.256h-7.4V6.222ZM7.188,50.651v-12.3l.463.463a.926.926,0,0,0,1.309,0L10.269,37.5l.243.243a4.644,4.644,0,0,1,1.2,2.1l.163.628a6.488,6.488,0,0,0,1.688,2.944L20.8,50.651Zm32.9.589a.957.957,0,0,1-.641-.265l-1.692-1.693h0a.926.926,0,1,0-1.31,1.309.926.926,0,0,1,0,1.309.889.889,0,0,1-.668.266.943.943,0,0,1-.641-.265L33.83,50.592A.926.926,0,0,0,32.522,51.9h0a.926.926,0,0,1,0,1.306.968.968,0,0,1-.666.266.8.8,0,0,1-.642-.266L29.9,51.9a.926.926,0,0,0-1.31,1.309.926.926,0,0,1,0,1.309.854.854,0,0,1-.666.266.914.914,0,0,1-.642-.266L14.883,42.11a4.628,4.628,0,0,1-1.2-2.1l-.164-.628a6.491,6.491,0,0,0-1.687-2.943l-.243-.243,9.81-9.818.933.932a2.771,2.771,0,0,0,1.341.74L28.3,29.11a13.91,13.91,0,0,1,7.98,5.183l4.73,6.281-.086.086a1.835,1.835,0,0,1-1.308.542h0a1.843,1.843,0,0,1-1.309-.543L35.99,38.345a2.256,2.256,0,0,0-1.609-.668h0a2.329,2.329,0,0,0-1.635,3.973l7.944,7.944a1,1,0,0,1,.131,1.32h0a.976.976,0,0,1-.732.326Zm15.229-.589H42.841a2.932,2.932,0,0,0-.846-2.369L34.05,40.338a.471.471,0,0,1-.137-.331.5.5,0,0,1,.162-.357.425.425,0,0,1,.6,0l2.314,2.314a3.682,3.682,0,0,0,2.618,1.086h0a3.674,3.674,0,0,0,2.617-1.085l.654-.654a.926.926,0,0,0,.085-1.212L37.75,33.175A15.759,15.759,0,0,0,28.707,27.3l-4.628-1.062a.931.931,0,0,1-.449-.249L22.7,25.06,24.661,23.1a.926.926,0,0,0,0-1.309L9.1,6.222H25.7V16.4a.926.926,0,0,0,.926.926h9.256a.926.926,0,0,0,.926-.926V6.222H55.319Z" transform="translate(-1.378 -1.635)" fill="#3f3f3f"/>
      <path id="Path_20" data-name="Path 20" d="M38.526,37.851h4.628a.926.926,0,0,0,0-1.851H38.526a.926.926,0,0,0,0,1.851Z" transform="translate(4.309 3.76)" fill="#ffbe1a"/>
      <path id="Path_21" data-name="Path 21" d="M44.926,37.851h.926a.926.926,0,0,0,0-1.851h-.926a.926.926,0,0,0,0,1.851Z" transform="translate(5.314 3.76)" fill="#ffbe1a"/>
      <path id="Path_22" data-name="Path 22" d="M38.526,34.651h4.628a.926.926,0,0,0,0-1.851H38.526a.926.926,0,0,0,0,1.851Z" transform="translate(4.309 3.258)" fill="#ffbe1a"/>
      <path id="Path_23" data-name="Path 23" d="M44.926,34.651h.926a.926.926,0,0,0,0-1.851h-.926a.926.926,0,0,0,0,1.851Z" transform="translate(5.314 3.258)" fill="#ffbe1a"/>
      <path id="Path_24" data-name="Path 24" d="M43.4,39.2H36.926a.926.926,0,1,0,0,1.851H43.4a.926.926,0,1,0,0-1.851Z" transform="translate(4.058 4.262)" fill="#ffbe1a"/>
      <path id="Path_25" data-name="Path 25" d="M44.926,41.051h.926a.926.926,0,1,0,0-1.851h-.926a.926.926,0,1,0,0,1.851Z" transform="translate(5.314 4.262)" fill="#ffbe1a"/>
    </g>
  </g>
</svg>
