<svg xmlns="http://www.w3.org/2000/svg" width="15.937" height="16.11" viewBox="0 0 15.937 16.11">
  <g id="Edit_Square" data-name="Edit Square" transform="translate(-2.2 -2.053)">
    <path id="Path_214" data-name="Path 214" d="M9.636,2.789H6.691A3.821,3.821,0,0,0,2.75,6.931V13.48a3.817,3.817,0,0,0,3.941,4.142h6.95a3.817,3.817,0,0,0,3.941-4.142V10.307" transform="translate(0 -0.008)" fill="none" stroke="#7f7f7f" stroke-linecap="round" stroke-linejoin="round" stroke-width="1.1"/>
    <path id="Path_215" data-name="Path 215" d="M8.673,9.186,14.559,3.3a1.879,1.879,0,0,1,2.655,0l.959.959a1.877,1.877,0,0,1,0,2.655l-5.914,5.914a1.71,1.71,0,0,1-1.209.5H8.1l.074-2.977A1.709,1.709,0,0,1,8.673,9.186Z" transform="translate(-1.136)" fill="none" stroke="#7f7f7f" stroke-linecap="round" stroke-linejoin="round" stroke-width="1.1" fill-rule="evenodd"/>
    <path id="Path_216" data-name="Path 216" d="M15.165,4.6l3.6,3.6" transform="translate(-2.636 -0.393)" fill="none" stroke="#7f7f7f" stroke-linecap="round" stroke-linejoin="round" stroke-width="1.1"/>
  </g>
</svg>
