<svg xmlns="http://www.w3.org/2000/svg" width="14.4" height="14.4" viewBox="0 0 14.4 14.4">
  <path id="Edit" d="M8.1,16.622l7.029-9.09a1.921,1.921,0,0,0,.39-1.634A2.452,2.452,0,0,0,14.6,4.5l-1.18-.937a2.067,2.067,0,0,0-3.031.206L9.6,4.79a.3.3,0,0,0,.051.421l2.037,1.634a.84.84,0,0,1,.263.507.756.756,0,0,1-.654.834.677.677,0,0,1-.518-.146l-2.1-1.668a.25.25,0,0,0-.34.043l-4.983,6.45A1.706,1.706,0,0,0,3.042,14.3l.637,2.76a.32.32,0,0,0,.314.249l2.8-.034A1.684,1.684,0,0,0,8.1,16.622Zm3.923-.86h4.568a.819.819,0,0,1,0,1.637H12.024a.819.819,0,0,1,0-1.637Z" transform="translate(-3 -3)" fill="#9f9f9f" fill-rule="evenodd"/>
</svg>
