<svg xmlns="http://www.w3.org/2000/svg" width="55" height="55" viewBox="0 0 55 55">
  <g id="exchange" transform="translate(-0.001 -0.401)">
    <path id="Path_14" data-name="Path 14" d="M54.444,12.3,33.023.533a1.075,1.075,0,0,0-1.034,0L23.915,4.966a1.077,1.077,0,0,0-.461.253L10.569,12.3a1.074,1.074,0,0,0-.557.942V27.463A14.311,14.311,0,0,0,1.451,47.381a1.074,1.074,0,0,0,1.93-.943A12.145,12.145,0,1,1,8.964,52.02a1.074,1.074,0,0,0-.943,1.93,14.32,14.32,0,0,0,19.339-7.027l4.629,2.542a1.074,1.074,0,0,0,1.034,0L54.444,37.7A1.075,1.075,0,0,0,55,36.761V29.3a1.074,1.074,0,0,0-2.148,0v6.83L33.584,46.706V25.633l6.359-3.492v5.536a1.074,1.074,0,0,0,1.592.941l4.59-2.527a1.073,1.073,0,0,0,.556-.941v-6.71l6.171-3.388V20.7A1.074,1.074,0,1,0,55,20.7V13.237a1.074,1.074,0,0,0-.557-.942ZM32.506,2.7,51.695,13.237l-6.053,3.324L26.453,6.024Zm0,21.074L13.318,13.237l6.275-3.446L38.782,20.328ZM41.013,19.1,21.824,8.566l2.4-1.316L43.41,17.786ZM24.4,31A14.2,14.2,0,0,0,14.3,26.811a14.489,14.489,0,0,0-2.137.158V15.052L31.436,25.637V46.71L28.09,44.873a14.363,14.363,0,0,0,.5-3.768A14.2,14.2,0,0,0,24.4,31Zm20.129-6.483-2.442,1.344v-4.9l2.442-1.341Zm0,0" transform="translate(0)" fill="#3f3f3f"/>
    <path id="Path_15" data-name="Path 15" d="M394.674,175.553a1.075,1.075,0,1,0,.759.315A1.083,1.083,0,0,0,394.674,175.553Zm0,0" transform="translate(-340.747 -151.633)" fill="#3f3f3f"/>
    <path id="Path_16" data-name="Path 16" d="M56.02,264.441a1.074,1.074,0,0,0,.76-1.834l-.744-.744h6.349a2.793,2.793,0,1,1,0,5.586H58.622a1.074,1.074,0,1,0,0,2.148h3.762a4.941,4.941,0,1,0,0-9.882H56.036l.744-.744a1.074,1.074,0,1,0-1.519-1.519l-2.578,2.578a1.075,1.075,0,0,0,0,1.519l2.578,2.578A1.071,1.071,0,0,0,56.02,264.441Zm0,0" transform="translate(-45.335 -222.262)" fill="#ffbe1a"/>
    <path id="Path_17" data-name="Path 17" d="M29.929,367.3a1.069,1.069,0,0,1-.821-.382l0,0a1.072,1.072,0,1,1,.823.385Zm0,0" transform="translate(-24.979 -315.768)" fill="#3f3f3f"/>
  </g>
</svg>
