<svg xmlns="http://www.w3.org/2000/svg" xmlns:xlink="http://www.w3.org/1999/xlink" width="84" height="84" viewBox="0 0 84 84"><defs><style>.a,.b,.d{fill:none;}.a,.b{stroke:#4f48ed;}.a{stroke-linecap:round;stroke-linejoin:round;stroke-width:1.5px;}.c{stroke:none;}.e{filter:url(#a);}</style><filter id="a" x="0" y="0" width="84" height="84" filterUnits="userSpaceOnUse"><feOffset dy="8" input="SourceAlpha"/><feGaussianBlur stdDeviation="8" result="b"/><feFlood flood-color="#4f48ed" flood-opacity="0.302"/><feComposite operator="in" in2="b"/><feComposite in="SourceGraphic"/></filter></defs><g transform="translate(-350 1)"><path class="a" d="M17.988,3H5.88A2,2,0,0,0,4.251,6.16l4.129,5.8a4,4,0,0,1,.742,2.321v4.05a2.671,2.671,0,0,0,5.341,0V14.339a4,4,0,0,1,.806-2.408L19.585,6.2A2,2,0,0,0,17.988,3Z" transform="translate(379.624 21.5)"/><g class="e" transform="matrix(1, 0, 0, 1, 350, -1)"><g class="b" transform="translate(24 16)"><rect class="c" width="36" height="36" rx="4"/><rect class="d" x="0.5" y="0.5" width="35" height="35" rx="3.5"/></g></g></g></svg>