<svg xmlns="http://www.w3.org/2000/svg" width="20.689" height="20.508" viewBox="0 0 20.689 20.508">
  <g id="Calling" transform="translate(0.754 0.752)" opacity="0.8">
    <path id="Path_68" data-name="Path 68" d="M2.99,4.874c.316-.525,2.06-2.43,3.3-2.372a1.642,1.642,0,0,1,.967.517h0a16.884,16.884,0,0,1,2.467,3.34C9.972,7.526,8.578,8.2,9,9.378a9.872,9.872,0,0,0,5.619,5.616c1.177.427,1.851-.965,3.019-.723a16.862,16.862,0,0,1,3.34,2.468h0a1.638,1.638,0,0,1,.517.967c.046,1.309-1.977,3.077-2.371,3.3-.931.667-2.145.654-3.624-.034C11.374,19.257,4.774,12.782,3.024,8.5,2.354,7.025,2.309,5.8,2.99,4.874Z" transform="translate(-2.5 -2.5)" fill="none" stroke="#fff" stroke-linecap="round" stroke-linejoin="round" stroke-width="1.5" fill-rule="evenodd"/>
    <path id="Path_69" data-name="Path 69" d="M14.565,2.75a7.971,7.971,0,0,1,7.041,7.032" transform="translate(-2.5 -2.5)" fill="none" stroke="#fff" stroke-linecap="round" stroke-linejoin="round" stroke-width="1.5"/>
    <path id="Path_70" data-name="Path 70" d="M14.565,6.293a4.426,4.426,0,0,1,3.5,3.5" transform="translate(-2.5 -2.5)" fill="none" stroke="#fff" stroke-linecap="round" stroke-linejoin="round" stroke-width="1.5"/>
  </g>
</svg>
