<svg xmlns="http://www.w3.org/2000/svg" width="21.541" height="19.536" viewBox="0 0 21.541 19.536">
  <g id="Heart" transform="translate(-1.23 -2.214)">
    <path id="Path_9" data-name="Path 9" d="M11.748,20.854A36.5,36.5,0,0,1,5.41,16.165,11.923,11.923,0,0,1,2.393,11.6C1.26,8.25,2.583,4.421,6.285,3.288A6.563,6.563,0,0,1,12,4.2a6.573,6.573,0,0,1,5.71-.914c3.7,1.133,5.035,4.963,3.9,8.308a11.924,11.924,0,0,1-3.017,4.57,36.495,36.495,0,0,1-6.339,4.689L12.005,21Z" fill="none" stroke="#3f3f3f" stroke-linecap="round" stroke-linejoin="round" stroke-width="1.5" fill-rule="evenodd"/>
    <path id="Path_10" data-name="Path 10" d="M15.936,7.053a2.814,2.814,0,0,1,2.018,2.422" fill="none" stroke="#3f3f3f" stroke-linecap="round" stroke-linejoin="round" stroke-width="1.5" opacity="0.4"/>
  </g>
</svg>
