<svg xmlns="http://www.w3.org/2000/svg" width="14.8" height="15.589" viewBox="0 0 14.8 15.589">
  <path id="Home" d="M7.16,15.14V12.993a1,1,0,0,1,1-.993h2.02a1,1,0,0,1,1,.993h0v2.153a.857.857,0,0,0,.842.853h1.347A2.419,2.419,0,0,0,15.8,13.593h0V7.486a1.708,1.708,0,0,0-.673-1.333L10.52,2.48a2.226,2.226,0,0,0-2.761,0L3.173,6.16A1.694,1.694,0,0,0,2.5,7.493v6.1A2.419,2.419,0,0,0,4.931,16H6.278a.864.864,0,0,0,.869-.86h0" transform="translate(-1.75 -1.161)" fill="none" stroke="#9f9f9f" stroke-linecap="round" stroke-linejoin="round" stroke-width="1.5"/>
</svg>
