<svg id="_034-instagram" data-name="034-instagram" xmlns="http://www.w3.org/2000/svg" width="16.167" height="16.167" viewBox="0 0 16.167 16.167">
  <g id="Group_44" data-name="Group 44">
    <g id="Group_43" data-name="Group 43">
      <path id="Path_78" data-name="Path 78" d="M11.114,0H5.052A5.053,5.053,0,0,0,0,5.052v6.062a5.053,5.053,0,0,0,5.052,5.052h6.062a5.053,5.053,0,0,0,5.052-5.052V5.052A5.053,5.053,0,0,0,11.114,0Zm3.536,11.114a3.54,3.54,0,0,1-3.536,3.536H5.052a3.54,3.54,0,0,1-3.536-3.536V5.052A3.54,3.54,0,0,1,5.052,1.516h6.062a3.54,3.54,0,0,1,3.536,3.536Z" fill="#7f7f7f"/>
    </g>
  </g>
  <g id="Group_46" data-name="Group 46" transform="translate(4.042 4.042)">
    <g id="Group_45" data-name="Group 45">
      <path id="Path_79" data-name="Path 79" d="M132.042,128a4.042,4.042,0,1,0,4.042,4.042A4.042,4.042,0,0,0,132.042,128Zm0,6.568a2.526,2.526,0,1,1,2.526-2.526A2.53,2.53,0,0,1,132.042,134.568Z" transform="translate(-128 -128)" fill="#7f7f7f"/>
    </g>
  </g>
  <g id="Group_48" data-name="Group 48" transform="translate(11.889 3.2)">
    <g id="Group_47" data-name="Group 47">
      <circle id="Ellipse_16" data-name="Ellipse 16" cx="0.539" cy="0.539" r="0.539" fill="#7f7f7f"/>
    </g>
  </g>
</svg>
