<svg xmlns="http://www.w3.org/2000/svg" width="20.538" height="19.536" viewBox="0 0 20.538 19.536">
  <g id="Heart" transform="translate(0.769 0.786)">
    <path id="Path_34" data-name="Path 34" d="M11.761,20.854a34.845,34.845,0,0,1-6.022-4.689A11.991,11.991,0,0,1,2.873,11.6C1.8,8.25,3.054,4.421,6.571,3.288A5.978,5.978,0,0,1,12,4.2a5.987,5.987,0,0,1,5.425-.914C20.938,4.421,22.2,8.25,21.128,11.6a11.99,11.99,0,0,1-2.866,4.57,34.844,34.844,0,0,1-6.022,4.689L12.005,21Z" transform="translate(-2.5 -3)" fill="none" stroke="#7f7f7f" stroke-linecap="round" stroke-linejoin="round" stroke-width="1.5" fill-rule="evenodd"/>
    <path id="Path_35" data-name="Path 35" d="M15.739,7.053a2.782,2.782,0,0,1,1.917,2.422" transform="translate(-2.5 -3)" fill="none" stroke="#7f7f7f" stroke-linecap="round" stroke-linejoin="round" stroke-width="1.5"/>
  </g>
</svg>
