<svg id="_031-linkedin" data-name="031-linkedin" xmlns="http://www.w3.org/2000/svg" width="20" height="20" viewBox="0 0 20 20">
  <g id="Group_156" data-name="Group 156" transform="translate(0 6.25)">
    <g id="Group_155" data-name="Group 155">
      <rect id="Rectangle_264" data-name="Rectangle 264" width="4.472" height="13.75" fill="#9f9f9f"/>
    </g>
  </g>
  <g id="Group_158" data-name="Group 158" transform="translate(6.25 6.25)">
    <g id="Group_157" data-name="Group 157">
      <path id="Path_226" data-name="Path 226" d="M170.4,160.161c-.048-.015-.092-.031-.142-.045s-.12-.025-.181-.035a4.008,4.008,0,0,0-.8-.081,6.214,6.214,0,0,0-4.806,2.629V160H160v13.75h4.473v-7.5s3.38-4.707,4.806-1.25v8.75h4.471v-9.279A4.459,4.459,0,0,0,170.4,160.161Z" transform="translate(-160 -160)" fill="#9f9f9f"/>
    </g>
  </g>
  <g id="Group_160" data-name="Group 160" transform="translate(-0.128)">
    <g id="Group_159" data-name="Group 159">
      <circle id="Ellipse_78" data-name="Ellipse 78" cx="2" cy="2" r="2" transform="translate(0.421)" fill="#9f9f9f"/>
    </g>
  </g>
</svg>
