<svg xmlns="http://www.w3.org/2000/svg" width="20.732" height="18.616" viewBox="0 0 20.732 18.616">
  <g id="Message" transform="translate(0.75 0.75)" opacity="0.8">
    <path id="Path_71" data-name="Path 71" d="M17.268,9.061,13,12.5a2.223,2.223,0,0,1-2.746,0l-4.3-3.434" transform="translate(-2 -3.5)" fill="none" stroke="#fff" stroke-linecap="round" stroke-linejoin="round" stroke-width="1.5"/>
    <path id="Path_72" data-name="Path 72" d="M6.888,3.5h9.428A4.957,4.957,0,0,1,19.9,5.09a5.017,5.017,0,0,1,1.326,3.7v6.528a5.017,5.017,0,0,1-1.326,3.7,4.957,4.957,0,0,1-3.58,1.59H6.888C3.968,20.616,2,18.241,2,15.322V8.794C2,5.875,3.968,3.5,6.888,3.5Z" transform="translate(-2 -3.5)" fill="none" stroke="#fff" stroke-linecap="round" stroke-linejoin="round" stroke-width="1.5" fill-rule="evenodd"/>
  </g>
</svg>
