<svg id="Group_154" data-name="Group 154" xmlns="http://www.w3.org/2000/svg" width="16.249" height="19.999" viewBox="0 0 16.249 19.999">
  <path id="Path_225" data-name="Path 225" d="M56.4,0C50.919,0,48,3.512,48,7.343c0,1.776.993,3.991,2.581,4.694.241.109.372.063.426-.161.048-.17.256-.989.358-1.375a.354.354,0,0,0-.085-.348,4.555,4.555,0,0,1-.946-2.764,5.387,5.387,0,0,1,5.738-5.265c3.125,0,5.311,2.03,5.311,4.934,0,3.281-1.736,5.551-3.992,5.551a1.788,1.788,0,0,1-1.884-2.192,23.765,23.765,0,0,0,1.055-4.038A1.551,1.551,0,0,0,54.96,4.673c-1.271,0-2.3,1.259-2.3,2.949a4.2,4.2,0,0,0,.38,1.8s-1.257,5.08-1.491,6.029a13.49,13.49,0,0,0,.092,4.431.132.132,0,0,0,.24.061,15.749,15.749,0,0,0,2.07-3.9c.155-.571.791-2.887.791-2.887a3.455,3.455,0,0,0,2.915,1.39c3.83,0,6.6-3.366,6.6-7.544C64.239,3,60.812,0,56.4,0Z" transform="translate(-48.004)" fill="#9f9f9f"/>
</svg>
