<svg xmlns="http://www.w3.org/2000/svg" width="14.85" height="14.85" viewBox="0 0 14.85 14.85">
  <path id="Play" d="M9.425,2A7.425,7.425,0,1,0,16.85,9.425,7.425,7.425,0,0,0,9.425,2Zm0,1.036A6.389,6.389,0,1,1,3.036,9.425,6.389,6.389,0,0,1,9.425,3.036ZM8.587,6.5,8.51,6.488a.868.868,0,0,0-.819.53,3.721,3.721,0,0,0-.124.5,10.371,10.371,0,0,0-.116,1.594V9.33a11.865,11.865,0,0,0,.106,1.742l.038.195a2.306,2.306,0,0,0,.128.435.866.866,0,0,0,.794.467,2.41,2.41,0,0,0,.643-.188,11.092,11.092,0,0,0,2.65-1.775l.2-.208a1.8,1.8,0,0,0,.14-.16A.864.864,0,0,0,12.129,8.8l-.059-.068L11.9,8.55a10.637,10.637,0,0,0-2.821-1.9A2.555,2.555,0,0,0,8.587,6.5Zm.026,1.082.092.033a10.1,10.1,0,0,1,2.352,1.555l.157.162-.06.064a9.872,9.872,0,0,1-2.4,1.634l-.142.052L8.577,10.9a10.189,10.189,0,0,1-.091-1.367V9.33a11.436,11.436,0,0,1,.082-1.512l.025-.148Z" transform="translate(-2 -2)" fill="#7f7f7f" fill-rule="evenodd"/>
</svg>
