<svg xmlns="http://www.w3.org/2000/svg" width="12.861" height="13.895" viewBox="0 0 12.861 13.895"><defs><style>.a{fill:#9f9f9f;}</style></defs><path class="a" d="M18.7,8.652a2.617,2.617,0,0,0-2.017.949L13.548,7.823a2.616,2.616,0,0,0,0-1.751l3.13-1.778a2.619,2.619,0,1,0-.454-.8L13.094,5.275a2.621,2.621,0,1,0,0,3.345L16.225,10.4A2.621,2.621,0,1,0,18.7,8.652Zm0-7.734a1.7,1.7,0,1,1-1.7,1.7A1.706,1.706,0,0,1,18.7.917ZM11.078,8.652a1.7,1.7,0,1,1,1.7-1.7A1.706,1.706,0,0,1,11.078,8.652ZM18.7,12.978a1.7,1.7,0,1,1,1.7-1.7A1.706,1.706,0,0,1,18.7,12.978Z" transform="translate(-8.456)"/></svg>