<svg id="Samsung_Logo" xmlns="http://www.w3.org/2000/svg" width="34.266" height="5.243" viewBox="0 0 34.266 5.243">
  <path id="Path_85" data-name="Path 85" d="M3278.571,554.244l-.066-3.844h1.211v4.845h-1.742l-1.21-3.976h-.026l.067,3.976h-1.2V550.4h1.818l1.126,3.844Z" transform="translate(-3250.21 -550.245)" fill="#bfbfbf"/>
  <path id="Path_86" data-name="Path 86" d="M1126.493,550.854l-.67,4.442H1124.5l.907-4.9h2.178l.9,4.9h-1.317l-.652-4.442Z" transform="translate(-1120.165 -550.245)" fill="#bfbfbf"/>
  <path id="Path_87" data-name="Path 87" d="M1634.537,554.143l.6-3.743h2l.106,4.9h-1.223l-.032-4.4h-.025l-.818,4.4H1633.9l-.819-4.4h-.026l-.031,4.4H1631.8l.109-4.9h2l.6,3.743Z" transform="translate(-1622.499 -550.245)" fill="#bfbfbf"/>
  <path id="Path_88" data-name="Path 88" d="M683.874,538.27a.644.644,0,0,1,.011.363.425.425,0,0,1-.477.329.438.438,0,0,1-.493-.444v-.474H681.6v.379c0,1.091.859,1.421,1.781,1.421.886,0,1.615-.3,1.731-1.119a2.442,2.442,0,0,0,0-.8c-.207-1.025-2.065-1.331-2.2-1.9a.643.643,0,0,1-.005-.258.4.4,0,0,1,.447-.328.418.418,0,0,1,.455.444v.3h1.221v-.344c0-1.067-.957-1.233-1.65-1.233-.871,0-1.583.288-1.713,1.085a1.718,1.718,0,0,0,.011.662C681.883,537.345,683.621,537.635,683.874,538.27Z" transform="translate(-681.6 -534.6)" fill="#bfbfbf"/>
  <path id="Path_89" data-name="Path 89" d="M2312.552,540.934a.634.634,0,0,1,.011.358.419.419,0,0,1-.473.326.434.434,0,0,1-.488-.438v-.47h-1.3l0,.374c0,1.081.851,1.407,1.762,1.407.876,0,1.6-.3,1.713-1.107a2.353,2.353,0,0,0,0-.8c-.205-1.015-2.045-1.318-2.182-1.886a.629.629,0,0,1,0-.254.4.4,0,0,1,.444-.325.411.411,0,0,1,.449.438v.3h1.212v-.341c0-1.055-.949-1.221-1.636-1.221-.862,0-1.568.284-1.695,1.076a1.683,1.683,0,0,0,.011.654C2310.581,540.019,2312.3,540.307,2312.552,540.934Z" transform="translate(-2294.358 -537.273)" fill="#bfbfbf"/>
  <path id="Path_90" data-name="Path 90" d="M2786.293,554.366a.44.44,0,0,0,.469-.355,1,1,0,0,0,.012-.187V550.2h1.238v3.512c0,.09-.006.275-.011.321-.087.914-.81,1.211-1.709,1.211s-1.624-.3-1.71-1.211c0-.046-.013-.232-.011-.321V550.2h1.237v3.623a1.115,1.115,0,0,0,.012.187A.446.446,0,0,0,2786.293,554.366Z" transform="translate(-2763.987 -550.047)" fill="#bfbfbf"/>
  <path id="Path_91" data-name="Path 91" d="M3828.534,541.045a.459.459,0,0,0,.5-.354,1.147,1.147,0,0,0,.011-.186v-.711h-.5v-.714h1.736v1.314c0,.092,0,.16-.018.323-.081.891-.854,1.209-1.722,1.209s-1.641-.318-1.724-1.209c-.014-.164-.016-.231-.018-.323v-2.061c0-.087.011-.241.021-.323.109-.915.851-1.21,1.72-1.21s1.628.293,1.719,1.21a2.9,2.9,0,0,1,.011.323v.164h-1.234v-.274a1.255,1.255,0,0,0-.016-.186.444.444,0,0,0-.488-.357.45.45,0,0,0-.487.357,1.129,1.129,0,0,0-.021.231v2.24a1,1,0,0,0,.013.186A.452.452,0,0,0,3828.534,541.045Z" transform="translate(-3796.014 -536.779)" fill="#bfbfbf"/>
</svg>
