<svg xmlns="http://www.w3.org/2000/svg" width="75.698" height="11.583" viewBox="0 0 75.698 11.583"><defs><style>.a{fill:#9f9f9f;}</style></defs><path class="a" d="M3282.163,558.891l-.147-8.491h2.677v10.7h-3.849l-2.672-8.783h-.059l.149,8.783H3275.6V550.4h4.018l2.486,8.491Z" transform="translate(-3219.51 -550.058)"/><path class="a" d="M1128.9,551.4l-1.481,9.813H1124.5l2-10.816h4.811l2,10.816h-2.91l-1.44-9.812Z" transform="translate(-1114.923 -550.058)"/><path class="a" d="M1637.846,558.669l1.336-8.269h4.411l.233,10.816h-2.7l-.072-9.724H1641l-1.808,9.724h-2.744l-1.81-9.724h-.058l-.067,9.724H1631.8l.24-10.816h4.413l1.334,8.269Z" transform="translate(-1611.254 -550.058)"/><path class="a" d="M686.623,542.706a1.419,1.419,0,0,1,.024.8.939.939,0,0,1-1.053.727.968.968,0,0,1-1.09-.982v-1.047h-2.9l0,.837c0,2.411,1.9,3.14,3.933,3.14,1.957,0,3.568-.668,3.823-2.472a5.4,5.4,0,0,0-.011-1.777c-.456-2.264-4.562-2.941-4.867-4.206a1.423,1.423,0,0,1-.011-.571.892.892,0,0,1,.988-.724.924.924,0,0,1,1.005.982v.668h2.7v-.759c0-2.357-2.115-2.725-3.646-2.725-1.924,0-3.5.636-3.784,2.4a3.794,3.794,0,0,0,.024,1.462C682.225,540.665,686.065,541.305,686.623,542.706Z" transform="translate(-681.6 -534.6)"/><path class="a" d="M2315.275,545.329a1.4,1.4,0,0,1,.024.791.927.927,0,0,1-1.044.72.959.959,0,0,1-1.077-.969l0-1.038H2310.3l0,.826c0,2.387,1.881,3.107,3.894,3.107,1.936,0,3.531-.659,3.784-2.446a5.17,5.17,0,0,0-.009-1.758c-.454-2.242-4.517-2.913-4.82-4.167a1.371,1.371,0,0,1-.011-.56.881.881,0,0,1,.98-.718.907.907,0,0,1,.992.969v.662h2.677V540c0-2.331-2.1-2.7-3.615-2.7-1.9,0-3.462.627-3.743,2.376a3.706,3.706,0,0,0,.026,1.444C2310.92,543.307,2314.724,543.943,2315.275,545.329Z" transform="translate(-2275.083 -537.242)"/><path class="a" d="M2788.375,559.4a.973.973,0,0,0,1.036-.785,2.25,2.25,0,0,0,.026-.413v-8h2.735v7.758c.006.2-.013.608-.024.709-.192,2.02-1.788,2.675-3.775,2.675s-3.587-.655-3.777-2.675c-.009-.1-.028-.512-.024-.709V550.2h2.733v8a2.473,2.473,0,0,0,.026.413A.986.986,0,0,0,2788.375,559.4Z" transform="translate(-2739.099 -549.863)"/><path class="a" d="M3830.631,546.178a1.015,1.015,0,0,0,1.107-.783,2.493,2.493,0,0,0,.023-.411v-1.57h-1.109v-1.578h3.836v2.9c0,.2-.006.352-.039.713-.179,1.968-1.888,2.67-3.8,2.67s-3.624-.7-3.808-2.67c-.03-.361-.034-.51-.039-.713l0-4.554c0-.192.023-.532.045-.714.24-2.022,1.879-2.673,3.8-2.673s3.6.646,3.8,2.673a6.257,6.257,0,0,1,.024.714v.361h-2.726v-.605a2.766,2.766,0,0,0-.035-.411.981.981,0,0,0-1.079-.789,1,1,0,0,0-1.077.789,2.505,2.505,0,0,0-.045.51v4.947a2.287,2.287,0,0,0,.028.411A1,1,0,0,0,3830.631,546.178Z" transform="translate(-3758.791 -536.753)"/></svg>