<svg xmlns="http://www.w3.org/2000/svg" width="18" height="18" viewBox="0 0 18 18">
  <g id="Search" transform="translate(-2.25 -2.25)">
    <path id="Path_3" data-name="Path 3" d="M3.291,7.914A6.2,6.2,0,0,1,7.914,3.291a11.029,11.029,0,0,1,5.037,0,6.2,6.2,0,0,1,4.623,4.623,11.028,11.028,0,0,1,0,5.037,6.2,6.2,0,0,1-4.623,4.623,11.028,11.028,0,0,1-5.037,0,6.2,6.2,0,0,1-4.623-4.623A11.029,11.029,0,0,1,3.291,7.914Z" transform="translate(-0.058 -0.058)" fill="rgba(255,255,255,0.15)"/>
    <path id="Path_4" data-name="Path 4" d="M3.234,12.894l.674-.158Zm0-5.037.674.158Zm14.283,0,.674-.158Zm0,5.037.674.158Zm-4.623,4.623-.158-.674Zm-5.037,0-.158.674Zm0-14.283L7.7,2.56Zm5.037,0,.158-.674Zm6.174,16.813a.692.692,0,0,0,.979-.979ZM3.908,12.736a10.336,10.336,0,0,1,0-4.721L2.56,7.7a11.721,11.721,0,0,0,0,5.353ZM16.843,8.015a10.335,10.335,0,0,1,0,4.721l1.348.316a11.721,11.721,0,0,0,0-5.353Zm-4.107,8.828a10.335,10.335,0,0,1-4.721,0L7.7,18.191a11.721,11.721,0,0,0,5.353,0ZM8.015,3.908a10.336,10.336,0,0,1,4.721,0l.316-1.348a11.721,11.721,0,0,0-5.353,0Zm0,12.935a5.511,5.511,0,0,1-4.107-4.107l-1.348.316A6.9,6.9,0,0,0,7.7,18.191Zm5.037,1.348a6.9,6.9,0,0,0,5.139-5.139l-1.348-.316a5.511,5.511,0,0,1-4.107,4.107ZM12.736,3.908a5.511,5.511,0,0,1,4.107,4.107L18.191,7.7A6.9,6.9,0,0,0,13.052,2.56ZM7.7,2.56A6.9,6.9,0,0,0,2.56,7.7l1.348.316A5.511,5.511,0,0,1,8.015,3.908Zm7.987,14.1,3.383,3.383.979-.979-3.383-3.383Z" fill="#fff"/>
  </g>
</svg>
