<svg xmlns="http://www.w3.org/2000/svg" width="15.822" height="17.095" viewBox="0 0 15.822 17.095">
  <path id="share-svgrepo-com" d="M21.054,10.644a3.22,3.22,0,0,0-2.481,1.168L14.721,9.625a3.218,3.218,0,0,0,0-2.154l3.851-2.187a3.222,3.222,0,1,0-.558-.981L14.163,6.49a3.225,3.225,0,1,0,0,4.116l3.852,2.187a3.225,3.225,0,1,0,3.04-2.148Zm0-9.516a2.1,2.1,0,1,1-2.1,2.1A2.1,2.1,0,0,1,21.054,1.129Zm-9.372,9.516a2.1,2.1,0,1,1,2.1-2.1A2.1,2.1,0,0,1,11.682,10.644Zm9.372,5.322a2.1,2.1,0,1,1,2.1-2.1A2.1,2.1,0,0,1,21.054,15.966Z" transform="translate(-8.456)" fill="#fff"/>
</svg>
