<svg xmlns="http://www.w3.org/2000/svg" width="16" height="12.8" viewBox="0 0 16 12.8">
  <path id="Show" d="M6.878,10.4A3.118,3.118,0,1,0,10,7.3,3.11,3.11,0,0,0,6.878,10.4Zm7.711-4.763a11.337,11.337,0,0,1,3.364,4.53.583.583,0,0,1,0,.458C16.283,14.488,13.309,16.8,10,16.8H9.992c-3.3,0-6.275-2.312-7.945-6.175a.582.582,0,0,1,0-.458C3.717,6.3,6.691,4,9.992,4H10A7.412,7.412,0,0,1,14.589,5.637ZM10,12.33a1.936,1.936,0,1,0,0-3.871,1.556,1.556,0,0,0-.273.023,1.6,1.6,0,0,1-1.6,1.536H8.089a2.025,2.025,0,0,0-.039.38A1.944,1.944,0,0,0,10,12.33Z" transform="translate(-2 -4)" fill="#9f9f9f" fill-rule="evenodd"/>
</svg>
