<svg xmlns="http://www.w3.org/2000/svg" width="46.804" height="6.033" viewBox="0 0 46.804 6.033">
  <path id="path4258" d="M17.674,7.033a8.11,8.11,0,0,1-4.32-1.063,2.346,2.346,0,0,1-1.175-1.959,2.382,2.382,0,0,1,1.175-1.952A8.485,8.485,0,0,1,17.674,1,7.687,7.687,0,0,1,22,2.06a2.349,2.349,0,0,1,1.159,1.951A2.443,2.443,0,0,1,22,5.97a8.026,8.026,0,0,1-4.329,1.063v-.8a3.986,3.986,0,0,0,2.318-.652,1.859,1.859,0,0,0,.849-1.574,1.926,1.926,0,0,0-.849-1.577,4.069,4.069,0,0,0-2.318-.648,4.058,4.058,0,0,0-2.321.648,1.934,1.934,0,0,0-.846,1.577,1.938,1.938,0,0,0,.846,1.574,4.036,4.036,0,0,0,2.321.652v.8ZM5.282,1a9.413,9.413,0,0,0-2.813.41C1.661,1.677,1,2.1,1,2.812a1.324,1.324,0,0,0,.538,1,3.446,3.446,0,0,0,1.6.587c.443.071,1.389.18,2.332.252s1.856.141,2.231.21c.3.056.8.131.8.542s-.527.534-.619.561A6.147,6.147,0,0,1,6.024,6.2a10.521,10.521,0,0,1-2.217-.281A2.9,2.9,0,0,1,2.523,5.3a.911.911,0,0,1-.266-.6H1.228V6.811H2.372V6.526c0-.032.055-.166.247-.1a11.48,11.48,0,0,0,1.673.4,9.642,9.642,0,0,0,1.736.158,9.981,9.981,0,0,0,2.328-.24,4.811,4.811,0,0,0,1.382-.5,1.332,1.332,0,0,0,.741-1.111,1.4,1.4,0,0,0-.6-1.093,2.807,2.807,0,0,0-.741-.369,6.871,6.871,0,0,0-.91-.233c-.59-.106-1.923-.237-2.56-.286C5,3.1,3.842,3.025,3.379,2.92c-.14-.032-.427-.132-.427-.375,0-.173.131-.32.39-.438A5.91,5.91,0,0,1,5.447,1.8a8.062,8.062,0,0,1,2.439.349,3.011,3.011,0,0,1,.581.253,1.3,1.3,0,0,1,.572.7h.924V1.266H8.93V1.48c0,.069-.1.159-.281.084A10.225,10.225,0,0,0,5.282,1m22.607.334,5.032,3.325-.052-2.238c-.005-.294-.079-.416-.513-.416H31.41v-.67h4.3v.67H34.79c-.442,0-.47.1-.476.416L34.392,6.7H32.919l-5.8-3.787V5.6c.005.292.024.43.435.43h1.033V6.7H24.367V6.031h.988c.369,0,.354-.258.354-.445V2.449c0-.2-.039-.441-.618-.441h-.8V1.337ZM40.629,6.029c.04,0,.22,0,.255-.012a.3.3,0,0,0,.2-.129.555.555,0,0,0,.02-.145V4.686c0-.025,0-.036-.062-.093S38.405,2.4,38.287,2.3a1.231,1.231,0,0,0-.793-.3H36.6v-.67h5.046v.669h-.608c-.141,0-.234.1-.114.206,0,0,1.7,1.487,1.714,1.5a.034.034,0,0,0,.051.005c.021-.015,1.74-1.494,1.754-1.505.082-.072.026-.207-.15-.207h-.624v-.67H47.8v.67H46.88a.916.916,0,0,0-.724.254L43.372,4.587a.114.114,0,0,0-.034.1V5.744a.553.553,0,0,0,.02.145.3.3,0,0,0,.2.129c.035.008.212.012.252.012h.945V6.7h-5.02v-.67h.9Z" transform="translate(-1 -1)" fill="#bfbfbf"/>
</svg>
