<svg xmlns="http://www.w3.org/2000/svg" width="20" height="18" viewBox="0 0 20 18">
  <g id="Sort" transform="translate(-2 -3)">
    <path id="Path_92" data-name="Path 92" d="M2,4.174A1.144,1.144,0,0,1,3.111,3H20.889A1.144,1.144,0,0,1,22,4.174a1.144,1.144,0,0,1-1.111,1.174H3.111A1.144,1.144,0,0,1,2,4.174Z" fill="#9f9f9f"/>
    <path id="Path_93" data-name="Path 93" d="M4.963,12a1.144,1.144,0,0,1,1.111-1.174H17.926a1.176,1.176,0,0,1,0,2.348H6.074A1.144,1.144,0,0,1,4.963,12Z" transform="translate(-2.963)" fill="#9f9f9f"/>
    <path id="Path_94" data-name="Path 94" d="M9.037,18.652a1.176,1.176,0,0,0,0,2.348h5.926a1.176,1.176,0,0,0,0-2.348Z" transform="translate(-5.926)" fill="#9f9f9f"/>
  </g>
</svg>
