<svg xmlns="http://www.w3.org/2000/svg" width="12.632" height="12" viewBox="0 0 12.632 12">
  <defs>
    <style>
      .cls-1 {
        fill: #ffbe18;
      }
    </style>
  </defs>
  <path id="Star" class="cls-1" d="M12.053,9.965a.7.7,0,0,0-.2.613l.561,3.107a.682.682,0,0,1-.284.682.7.7,0,0,1-.739.051l-2.8-1.459a.714.714,0,0,0-.316-.083H8.106a.513.513,0,0,0-.171.057L5.138,14.4a.738.738,0,0,1-.448.069.7.7,0,0,1-.562-.8l.562-3.107a.707.707,0,0,0-.2-.618l-2.28-2.21a.682.682,0,0,1-.17-.714A.709.709,0,0,1,2.6,6.542l3.139-.455A.7.7,0,0,0,6.293,5.7L7.676,2.866A.657.657,0,0,1,7.8,2.7l.057-.044a.424.424,0,0,1,.1-.082l.069-.025L8.137,2.5H8.4a.706.706,0,0,1,.556.379L10.36,5.7a.7.7,0,0,0,.524.385l3.139.455a.716.716,0,0,1,.575.474.686.686,0,0,1-.183.714Z" transform="translate(-2 -2.5)"/>
</svg>
