<svg xmlns="http://www.w3.org/2000/svg" width="71.739" height="55" viewBox="0 0 71.739 55">
  <g id="support1" transform="translate(0 -53.76)">
    <g id="Group_9" data-name="Group 9" transform="translate(0 53.76)">
      <g id="Group_8" data-name="Group 8" transform="translate(0 0)">
        <g id="Ellipse_4" data-name="Ellipse 4" transform="translate(13 9)" fill="none" stroke="#ffbe1a" stroke-width="2.2">
          <circle cx="23" cy="23" r="23" stroke="none"/>
          <circle cx="23" cy="23" r="21.9" fill="none"/>
        </g>
        <path id="Path_18" data-name="Path 18" d="M63.336,76.524C62.644,63.869,50.59,53.76,35.87,53.76S9.1,63.869,8.4,76.524c-4.8.348-8.4,2.827-8.4,5.932v4.783c0,3.353,4.2,5.978,9.565,5.978a1.194,1.194,0,0,0,1.2-1.2V77.673c0-11.867,11.264-21.522,25.109-21.522s25.109,9.655,25.109,21.522V91.526l-2.886,2.886H55.617c-13.742,0-13.807,2.391-1.1,2.391h4.071a1.191,1.191,0,0,0,.845-.35l3.245-3.245c5.121-.158,9.062-2.722,9.062-5.97V82.456C71.739,79.35,68.132,76.872,63.336,76.524ZM8.37,90.774c-3.577-.314-5.978-2-5.978-3.536V82.455c0-1.532,2.4-3.221,5.978-3.536Zm44.643,3.639H41.848a3.591,3.591,0,0,0-3.587-3.587H33.478a3.591,3.591,0,0,0-3.587,3.587V96.8a3.591,3.591,0,0,0,3.587,3.587h4.783A3.591,3.591,0,0,0,41.848,96.8H51.8C59.672,96.8,60.744,94.413,53.013,94.413Zm-13.556,0V96.8a1.2,1.2,0,0,1-1.2,1.2H33.478a1.2,1.2,0,0,1-1.2-1.2V94.412a1.2,1.2,0,0,1,1.2-1.2h4.783A1.2,1.2,0,0,1,39.456,94.412Zm29.891-7.174c0,1.532-2.4,3.221-5.978,3.536V78.92c3.577.314,5.978,2,5.978,3.536Z" transform="translate(0 -53.76)" fill="#3f3f3f"/>
      </g>
    </g>
  </g>
</svg>
