<svg xmlns="http://www.w3.org/2000/svg" width="17.1" height="17.19" viewBox="0 0 17.1 17.19">
  <g id="shopping-tag" transform="translate(-1.441 -1.948)">
    <path id="Path_136" data-name="Path 136" d="M17.72,10.634l-7.591,7.592h0a.927.927,0,0,1-1.311,0l0,0L2.263,11.673h0a.927.927,0,0,1,0-1.311l0,0L9.855,2.769h0a.924.924,0,0,1,.656-.271h6.553a.927.927,0,0,1,.927.927s0,0,0,0V9.978h0a.924.924,0,0,1-.271.655Z" transform="translate(0 0)" fill="none" stroke="#7f7f7f" stroke-linecap="round" stroke-width="1.1"/>
    <path id="Path_137" data-name="Path 137" d="M18.027,5.435a1.231,1.231,0,1,1-1.741,0,1.231,1.231,0,0,1,1.741,0" transform="translate(-2.509 -0.462)" fill="none" stroke="#7f7f7f" stroke-linecap="round" stroke-width="1.1"/>
  </g>
</svg>
