<svg xmlns="http://www.w3.org/2000/svg" width="181.26" height="71" viewBox="0 0 181.26 71"><defs><style>.a{opacity:0.3;}.b{fill:#4F48ED;}</style></defs><g class="a" transform="translate(0 0.017)"><g transform="translate(0 -0.017)"><path class="b" d="M169.42,48.01a3.581,3.581,0,0,0-2.07.173c1.31,1.629,2.24,2.111,5.88,2.657a18.935,18.935,0,0,0,1.56,1.146,19.865,19.865,0,0,0,2,.846l-2.39.227a2.5,2.5,0,0,0-.72,2.366,14.27,14.27,0,0,1-3.36-.146,155.2,155.2,0,0,0-17-1.2c-.34,0-.68,0-.75.5a2.981,2.981,0,0,0,.65.218c1.46.136,2.93.209,4.38.382,1.72.209,3.42.482,5.12.755a4.036,4.036,0,0,1,.9.382,3.327,3.327,0,0,0,.91.364c2.27.173,4.39.983,6.62,1.319.85.127,1.73.091,2.6.164a.673.673,0,0,1,.76.682c-.07.082-.15.237-.23.237a30.16,30.16,0,0,1-5.74.164,66.315,66.315,0,0,0-7.37-.464c-3.54-.091-7.08-.3-10.62-.464-.26,0-.53-.064-.8-.064-5.07.055-10.14-.191-15.21-.164-.92,0-1.83.082-3,.136,2.94.819,5.85.619,8.95,1.283l-1.37.619a3.484,3.484,0,0,0,3.13,1.938,1.818,1.818,0,0,1,1.67.819,1.713,1.713,0,0,0,1.2.5,2.957,2.957,0,0,1,2.31,1.21c-.51.582-1.44.3-2,.746a2.832,2.832,0,0,1-2.07.446,6.781,6.781,0,0,0-2.18.073l.19.764c-.09.055-.19.155-.29.155l-6.56-.364c-1.6-.082-3.19-.209-4.8-.282-3.27-.164-6.54-.3-9.81-.446a5.031,5.031,0,0,0-2.12.191c0,.491.37.51.7.528l6,.373c2.47.155,4.94.3,7.4.473a7.509,7.509,0,0,1,1.57.255,13.192,13.192,0,0,0,4.29.819.8.8,0,0,1,.39.064c1.7.91,3.61.764,5.45,1.019a5.592,5.592,0,0,1,1,.164c.16.519-.13.792-.41.837-1.21.173-2.3.719-3.65.537q-3.484-.395-7-.446c-6.14-.173-12.28-.328-18.42-.428-4.54-.082-9.08,0-13.62-.118-5.27-.118-10.54-.382-15.82-.5-4.61-.1-9.22-.091-13.83-.127-2,0-4-.073-6,0-3.67.073-7.34.209-11,.3-1.87.045-3.74,0-5.61.064-.72,0-1.45.055-2.18.055-4.27,0-8.56.136-12.83,0-3.52-.127-7-.482-10.55-.91a48.886,48.886,0,0,0-8.76-.6,16.965,16.965,0,0,1-1.8,0,1.747,1.747,0,0,1-1.66-1.019c.42-.637.57-1.519,1.64-1.82a.979.979,0,0,0,.45-.355,3.87,3.87,0,0,1,3.35-1.265c1.93,0,3.87,0,5.81-.091-3.08-.191-6.17-.164-9.21-.4-.11-.382,0-.582.33-.591.74,0,1.47,0,2.21-.064s1.44,0,2.32-.082c-.91-1.192-2.28-1.647-3.16-2.629.15-.482.81-.837.5-1.456.64-.5,1.15-1.174,2.12-1.183l4.62-.073a1.437,1.437,0,0,0,1.19-.4,16.513,16.513,0,0,0-6.49-.528c-.11-.51.22-.455.44-.455,1,0,2,0,3-.073a9.942,9.942,0,0,0,2.62-.655L13.38,55c-2.67,0-5.34,0-8-.082a4.423,4.423,0,0,1-2.711-.91l.141-1.373A5.07,5.07,0,0,0,4,52.122a4.145,4.145,0,0,0,.67-1.174,7.983,7.983,0,0,1,2.49-.218l13.84.1c.74,0,1.47,0,2.21-.055a3.215,3.215,0,0,0,.68-.2c0-.519-.36-.555-.68-.564-1.93-.064-3.87-.118-5.81-.146-3.68-.055-7.35-.082-11-.136-.51,0-1-.082-1.54-.127,0-.209,0-.391.11-.409,1-.309,2-.591,3.09-.91a1.3,1.3,0,0,0-.24-1.115,1.571,1.571,0,0,0-1.07-.586,2.466,2.466,0,0,1,2.36-2.056,3.836,3.836,0,0,0,1.67-.537,4.123,4.123,0,0,1,2.46-.628,11.3,11.3,0,0,0,2.59-.182h-4.2c-1.07,0-2.14-.045-3.21-.1a2.736,2.736,0,0,1-.64-.2c.09-.555.48-.509.78-.509,2.48,0,4.95,0,7.43-.055,1.87,0,3.74.064,5.61,0,3.76-.109,7.48.337,11.22.455.58,0,1.19.227,1.72-.191-.09-.391-.46-.419-.77-.437-1.14-.082-2.27-.146-3.41-.2-2.33-.109-4.67-.173-7-.318-1.6-.1-3.19-.3-4.78-.455-1.84-.91-3.91-.491-6.25-.819.61-.118.86-.182,1.11-.209a7.821,7.821,0,0,1,.8,0,6.16,6.16,0,0,0,2.17-.209,7.178,7.178,0,0,1,3.51-.491h11c1,0,2,.1,3,.182a6.393,6.393,0,0,0,3.13-.5c-.71-.136-1.21-.264-1.73-.318-3.25-.328-6.5-.673-9.76-.91-1.79-.155-3.6-.182-5.4-.255a1.9,1.9,0,0,0-.79,0,5.909,5.909,0,0,1-2.55.209c-4.14.045-8.28.073-12.42.146a22.2,22.2,0,0,1-3.39,0A.991.991,0,0,1,0,37.3l1.49-3.5a3.243,3.243,0,0,1,.58-.2c3-.218,6-.628,9-.655,4.61,0,9.22-.155,13.83-.246a11.357,11.357,0,0,0,1.18-.118c-.15-.519-.55-.4-.81-.4a70.663,70.663,0,0,0-8.21.173,37.879,37.879,0,0,1-3.8,0c-2.67.045-5.34.136-8,.191-.86,0-1.73,0-2.59-.064-.13,0-.32-.227-.35-.364a.583.583,0,0,1,.17-.482c.12-.118.36-.127.53-.218a.71.71,0,0,0,.439-.441.632.632,0,0,0-.109-.587,8.35,8.35,0,0,0-1.07-.819c.33-.819.61-1.492.85-2.1.87-.519,1.87-.537,2.32-1.61h-2c-.29-.455-.07-.719.24-.828s.9-.191,1.35-.318a5.632,5.632,0,0,0,.86-.355c-.44-.7-1.72-.428-1.76-1.519,1.92-1.155,4.21-1.137,6.68-1.41-.34-.264-.49-.473-.66-.491-.86-.091-1.73-.109-2.59-.209a10.319,10.319,0,0,1-1.36-.337C7.3,19.2,7.3,19.2,6.34,17.867l1.3-1.492c.1-.782-.88-1.428-.32-2.229A7.508,7.508,0,0,0,12.02,9.6a4.382,4.382,0,0,1,.51-.974,13.1,13.1,0,0,1,1-1.319c1.82-1.055,3.87-1.055,6-1.074,3.2,0,6.4-.2,9.6-.227,1.66,0,3.33.173,5,.237,3.74.136,7.49.209,11.22.391,5.94.3,11.87.719,17.81.983,3.74.164,7.49.146,11.23.218L82.01,8c4.07.091,8.15.227,12.23.309,9,.173,18,.637,27.08.528,2.12,0,4.26.109,6.39.146,6.14.118,12.27.51,18.42.619,2.74.045,5.48.173,8.22.309,1.26.073,2.51.273,3.77.364,2,.146,4,.237,6,.364.65.045,1.29.155,2.11.255-.31.564-.55.983-.75,1.4a1.156,1.156,0,0,0-.123.98,1.292,1.292,0,0,0,.693.758c.39.218.93.246,1.27.51,1.67,1.274,3.77,1.31,5.74,1.765l1.2.309a4.052,4.052,0,0,0,.49,1.328A4.473,4.473,0,0,0,176,18.8c1.17.691,1.22,1.82,1.31,2.893a2.687,2.687,0,0,1-.21.91c-.57.309-1.12.61-1.63.91a1.655,1.655,0,0,0,1.42,1.674,16.21,16.21,0,0,1,1.58.573c.08.91-.93.91-1.06,1.7l1.29.682c-.45.91-1.4.864-2.18,1.128a20.972,20.972,0,0,0-2.14.91c-.05,1.474,0,1.483,1.25,1.82.77.191,1.55.373,2.31.582a2.66,2.66,0,0,1,1.09.437,9.457,9.457,0,0,0,2.23,1.465l-2,.419a5.1,5.1,0,0,1-1.97,1.483c-.82.364-1.38,1.246-2.07,1.929A1.785,1.785,0,0,0,177,39.785c.49.045,1.1-.1,1.4.482-.25.419-.68.237-1,.264a5.568,5.568,0,0,0-2.469.573,3.864,3.864,0,0,1-1.741.21,4.865,4.865,0,0,0-2.63.373l-.13,1.428-1.2.846c.11.218.13.464.27.528,1.11.519,2.25,1,3.38,1.5.1.045.16.155.29.3a9.031,9.031,0,0,1-3.17,0c-1.86-.173-3.72-.4-5.58-.564a6.853,6.853,0,0,0-2.58.109,4.974,4.974,0,0,1-1.38,0,49.316,49.316,0,0,0-5.51-.064c2,.2,3.58.3,5.15.537q3.351.347,6.65,1c.7.173,1.46.136,2.18.255.18,0,.31.318.46.491ZM22.33,43.361v.246l7.68.173c-2-.473-4-.082-6-.564a5.491,5.491,0,0,0-1.39,0A1.033,1.033,0,0,0,22.33,43.361Zm8.28-10.609c-.84-.519-.85-.537-1.28-.4-.13,0-.2.227-.4.482ZM17.87,43.233v.146h1.28v-.146ZM24.4,63.686l.37.073v-.073ZM152.93,4.375c-3.07-.146-6.14-.246-9.21-.4q-2.174-.269-4.37-.337c-2.67.1-5.32-.237-8-.127-2.19.1-4.39-.091-6.6-.155l-18.23-.491c-4.52-.136-8.96-.136-13.43-.409-5.21-.264-10.41-.373-15.63-.318-1.6,0-3.21,0-4.81-.1-3.4-.182-6.8-.437-10.2-.619C58.72,1.209,55,1.045,51.26.854,50.12.79,49,.654,47.86.6Q40.25.281,32.64,0h-1.4a39.557,39.557,0,0,1-4.4.082c-3.36-.3-6.67.173-10,.364q-1.007.087-2,.273c-1.26.209-1.64.582-1.88,1.765a4.488,4.488,0,0,1-.15.71c-.18.91-.07,1.2.83,1.619a5.7,5.7,0,0,0,1.69.5A20.541,20.541,0,0,0,18,5.457c2.27,0,4.55-.082,6.82,0s4.39.055,6.59-.082c1.79-.109,3.59-.136,5.39-.136,2.07,0,4.14.082,6.2.136,1.88,0,3.75,0,5.62.182,4.06.328,8.12.682,12.2.655,1,0,2,0,3,.1,4.93.373,9.87.51,14.81.528,5.88,0,11.76,0,17.64.309s11.75.537,17.63.737c5.2.182,10.41.291,15.62.419,3.34.082,6.68.118,10,.227,4.14.146,8.28.382,12.42.528,5.68.191,11.36.255,17,.546,2.8.146,5.6.109,8.4.209a1.654,1.654,0,0,0,1.7-.81c-.42-1.41-1.69-1.82-3.08-2.111-.91-.173-1.87-.173-2.76-.382a3.563,3.563,0,0,0-1.92-.146,1.4,1.4,0,0,1-1.3-.309,9.92,9.92,0,0,1-.89-.855C163.61,4.921,158.27,4.639,152.93,4.375Zm26.91,36.184a1.333,1.333,0,0,0-.31.091c-.1.027.08.127.11.118a1.839,1.839,0,0,0,.3-.082S179.87,40.558,179.84,40.558ZM17.19,41.1V41h-.13ZM169.43,48h.18a.419.419,0,0,0,.1-.082l-.32.155Zm2.27,0a.461.461,0,0,0-.16,0v.191l.16-.045s.03-.182,0-.191Z" transform="translate(0 0.017)"/></g></g></svg>