<svg id="_013-twitter-1" data-name="013-twitter-1" xmlns="http://www.w3.org/2000/svg" width="18.25" height="14.828" viewBox="0 0 18.25 14.828">
  <g id="Group_36" data-name="Group 36">
    <path id="Path_76" data-name="Path 76" d="M18.25,49.755a7.8,7.8,0,0,1-2.156.591,3.72,3.72,0,0,0,1.646-2.068,7.477,7.477,0,0,1-2.373.906A3.741,3.741,0,0,0,8.9,51.742a3.852,3.852,0,0,0,.087.853,10.59,10.59,0,0,1-7.712-3.913,3.742,3.742,0,0,0,1.15,5,3.7,3.7,0,0,1-1.69-.461v.041a3.759,3.759,0,0,0,3,3.676,3.734,3.734,0,0,1-.981.123A3.308,3.308,0,0,1,2.038,57a3.777,3.777,0,0,0,3.5,2.606A7.518,7.518,0,0,1,.9,61.2a7.009,7.009,0,0,1-.9-.051,10.533,10.533,0,0,0,5.74,1.679A10.575,10.575,0,0,0,16.388,52.182c0-.165-.006-.325-.014-.484A7.464,7.464,0,0,0,18.25,49.755Z" transform="translate(0 -48)" fill="#7f7f7f"/>
  </g>
</svg>
