<svg xmlns="http://www.w3.org/2000/svg" width="55" height="55" viewBox="0 0 55 55">
  <g id="warranty_1_" data-name="warranty (1)" transform="translate(0.01 0.011)">
    <g id="Group_5" data-name="Group 5" transform="translate(-0.01 -0.011)">
      <path id="Path_11" data-name="Path 11" d="M49.43,31.457a.752.752,0,0,0-.531.22L35.805,44.77,28.27,37.235a.773.773,0,0,0-1.063,0L24.17,40.273a.752.752,0,0,0,0,1.063l11.105,11.1a.751.751,0,0,0,1.063,0L53,35.778a.752.752,0,0,0,0-1.063l-3.038-3.038a.752.752,0,0,0-.531-.22ZM35.805,50.846,25.764,40.8l1.976-1.976,7.535,7.536a.751.751,0,0,0,1.063,0L49.43,33.272l1.976,1.976Z" transform="translate(-11.083 -14.559)" fill="#ffbe1a"/>
      <path id="Path_12" data-name="Path 12" d="M33.544,13.066A20.478,20.478,0,1,0,54.022,33.544,20.478,20.478,0,0,0,33.544,13.066Zm0,39.452A18.974,18.974,0,1,1,52.518,33.544,18.974,18.974,0,0,1,33.544,52.518Z" transform="translate(-6.044 -6.043)" fill="#3f3f3f"/>
      <path id="Path_13" data-name="Path 13" d="M54.137,29.9a3.834,3.834,0,0,0,0-4.823L52.9,23.54a2.355,2.355,0,0,1-.422-2.13l.55-1.886a3.881,3.881,0,0,0-1.85-4.463l-1.721-.945a2.355,2.355,0,0,1-1.209-1.8l-.215-1.957a3.834,3.834,0,0,0-3.411-3.411l-1.957-.215a2.354,2.354,0,0,1-1.8-1.209L39.919,3.8a3.834,3.834,0,0,0-4.464-1.85L33.57,2.5a2.359,2.359,0,0,1-2.131-.423L29.9.841a3.835,3.835,0,0,0-4.823,0L23.54,2.074a2.363,2.363,0,0,1-2.13.422l-1.886-.55A3.881,3.881,0,0,0,15.06,3.8l-.945,1.721a2.355,2.355,0,0,1-1.8,1.209l-1.957.215a3.834,3.834,0,0,0-3.411,3.411L6.728,12.31a2.354,2.354,0,0,1-1.209,1.8L3.8,15.059a3.835,3.835,0,0,0-1.85,4.464l.55,1.886a2.359,2.359,0,0,1-.423,2.131L.843,25.077a3.834,3.834,0,0,0,0,4.823l1.232,1.538a2.355,2.355,0,0,1,.422,2.13l-.55,1.886A3.881,3.881,0,0,0,3.8,39.918l1.721.945a2.355,2.355,0,0,1,1.209,1.8l.215,1.957a3.834,3.834,0,0,0,3.411,3.411l1.957.215a2.354,2.354,0,0,1,1.8,1.209l.945,1.722a3.834,3.834,0,0,0,4.464,1.85l1.885-.55a2.363,2.363,0,0,1,2.131.423l1.538,1.232a3.834,3.834,0,0,0,4.823,0L31.438,52.9a2.357,2.357,0,0,1,2.13-.422l1.886.55a3.835,3.835,0,0,0,4.463-1.85l.945-1.721a2.355,2.355,0,0,1,1.8-1.209l1.957-.215a3.834,3.834,0,0,0,3.411-3.411l.215-1.957a2.354,2.354,0,0,1,1.209-1.8l1.722-.945a3.835,3.835,0,0,0,1.85-4.464l-.55-1.885a2.359,2.359,0,0,1,.423-2.131Zm-2.406.6a3.863,3.863,0,0,0-.693,3.492l.551,1.886A2.34,2.34,0,0,1,50.46,38.6l-1.722.945a3.858,3.858,0,0,0-1.98,2.96l-.215,1.957a2.341,2.341,0,0,1-2.082,2.082l-1.957.215a3.859,3.859,0,0,0-2.96,1.981L38.6,50.461a2.341,2.341,0,0,1-2.723,1.129l-1.886-.55a3.859,3.859,0,0,0-3.491.692l-1.538,1.232a2.34,2.34,0,0,1-2.944,0l-1.538-1.232a3.863,3.863,0,0,0-3.492-.693l-1.885.55a2.343,2.343,0,0,1-2.723-1.129l-.945-1.722a3.858,3.858,0,0,0-2.96-1.98l-1.957-.215a2.341,2.341,0,0,1-2.082-2.082L8.22,42.5a3.86,3.86,0,0,0-1.981-2.96L4.518,38.6a2.368,2.368,0,0,1-1.129-2.723l.55-1.886A3.861,3.861,0,0,0,3.247,30.5L2.014,28.961a2.34,2.34,0,0,1,0-2.944l1.232-1.538a3.863,3.863,0,0,0,.693-3.492L3.389,19.1a2.34,2.34,0,0,1,1.129-2.723l1.722-.945a3.858,3.858,0,0,0,1.98-2.96l.215-1.957A2.341,2.341,0,0,1,10.52,8.436l1.957-.215a3.86,3.86,0,0,0,2.96-1.981l.945-1.722a2.37,2.37,0,0,1,2.72-1.13l1.886.55a3.86,3.86,0,0,0,3.491-.692l1.538-1.233a2.34,2.34,0,0,1,2.944,0L30.5,3.246a3.866,3.866,0,0,0,3.492.693l1.886-.55A2.343,2.343,0,0,1,38.6,4.518l.945,1.722a3.858,3.858,0,0,0,2.96,1.98l1.957.215a2.341,2.341,0,0,1,2.082,2.082l.215,1.957a3.859,3.859,0,0,0,1.981,2.96l1.722.945A2.368,2.368,0,0,1,51.59,19.1l-.55,1.886a3.861,3.861,0,0,0,.692,3.491l1.232,1.538a2.34,2.34,0,0,1,0,2.944Z" transform="translate(0.01 0.011)" fill="#3f3f3f"/>
    </g>
  </g>
</svg>
