<svg xmlns="http://www.w3.org/2000/svg" width="18.25" height="12.547" viewBox="0 0 18.25 12.547">
  <g id="_002-youtube" data-name="002-youtube" transform="translate(0 -80)">
    <g id="Group_35" data-name="Group 35" transform="translate(0 80)">
      <path id="Path_75" data-name="Path 75" d="M17.474,81.209c-.5-.881-1.032-1.043-2.126-1.1s-3.84-.1-6.221-.1-5.134.031-6.226.1-1.63.224-2.13,1.105S0,83.6,0,86.27v.009c0,2.655.262,4.182.772,5.052s1.037,1.04,2.128,1.114,3.842.1,6.227.1,5.128-.038,6.222-.1,1.631-.234,2.126-1.114c.514-.87.774-2.4.774-5.052v-.009C18.25,83.6,17.99,82.088,17.474,81.209ZM6.844,89.7V82.852l5.7,3.422Z" transform="translate(0 -80)" fill="#7f7f7f"/>
    </g>
  </g>
</svg>
